<svg width="630" height="448" viewBox="0 0 630 448" fill="none" xmlns="http://www.w3.org/2000/svg">
<path d="M606.791 361.477C600.699 361.578 585.317 361.831 579.427 361.891L570.198 361.932H569.744V361.467L569.703 349.944V349.438H570.208L588.505 349.509C593.064 349.55 602.242 349.641 606.801 349.711H607.043V349.954L606.801 361.477H606.791ZM606.791 361.477L606.549 349.954L606.791 350.196C602.222 350.257 593.064 350.358 588.494 350.399L570.198 350.469L570.702 349.964L570.662 361.487L570.198 361.022L579.265 361.063C585.065 361.123 600.79 361.386 606.781 361.477H606.791Z" fill="#EBEBEB"/>
<path d="M586.386 376.012C580.294 376.113 564.912 376.366 559.022 376.427L549.793 376.467H549.339V376.002L549.299 364.479V363.974H549.803L568.1 364.044C572.659 364.085 581.837 364.176 586.396 364.247H586.639V364.489L586.396 376.012H586.386ZM586.386 376.012L586.144 364.489L586.386 364.732C581.817 364.792 572.659 364.894 568.09 364.934L549.793 365.005L550.297 364.499L550.257 376.022L549.793 375.558L558.86 375.598C564.66 375.659 580.385 375.921 586.376 376.012H586.386Z" fill="#EBEBEB"/>
<path d="M60.529 361.477C54.4367 361.578 39.0549 361.831 33.1644 361.891L23.9353 361.932H23.4814V361.467L23.431 349.944V349.438H23.9353L42.2321 349.509C46.7912 349.55 55.9699 349.641 60.529 349.711H60.771V349.954L60.529 361.477ZM60.529 361.477L60.2869 349.954L60.529 350.196C55.9598 350.257 46.8013 350.358 42.2321 350.399L23.9353 350.469L24.4396 349.964L24.3993 361.487L23.9353 361.022L33.003 361.063C38.8027 361.123 54.5275 361.386 60.5189 361.477H60.529Z" fill="#EBEBEB"/>
<path d="M40.114 364.479H3.53046V376.002H40.114V364.479Z" fill="#EBEBEB"/>
<path d="M627.196 364.479H590.613V376.002H627.196V364.479Z" fill="#EBEBEB"/>
<path d="M301.081 134.774C294.989 134.875 279.607 135.128 273.716 135.188L264.487 135.229H264.033V134.764L263.983 123.24V122.735H264.487L282.784 122.806C287.343 122.846 296.522 122.937 301.081 123.008H301.323V123.251L301.081 134.774ZM301.081 134.774L300.839 123.251L301.081 123.493C296.512 123.554 287.353 123.655 282.784 123.695L264.487 123.766L264.992 123.261L264.951 134.784L264.487 134.319L273.555 134.359C279.355 134.42 295.08 134.683 301.071 134.774H301.081Z" fill="#EBEBEB"/>
<path d="M280.666 137.786H244.082V149.309H280.666V137.786Z" fill="#EBEBEB"/>
<path d="M321.486 149.309C315.394 149.41 300.012 149.663 294.121 149.724L284.892 149.764H284.438V149.299L284.398 137.776V137.27H284.902L303.199 137.341C307.758 137.382 316.937 137.473 321.496 137.543H321.738V137.786L321.496 149.309H321.486ZM321.486 149.309L321.244 137.786L321.486 138.028C316.917 138.089 307.758 138.19 303.189 138.231L284.892 138.301L285.396 137.796L285.356 149.319L284.892 148.854L293.96 148.895C299.76 148.955 315.484 149.218 321.476 149.309H321.486Z" fill="#EBEBEB"/>
<path d="M443.139 297.604H406.555V309.127H443.139V297.604Z" fill="#EBEBEB"/>
<path d="M606.186 38.5249C600.094 38.6259 584.712 38.8786 578.822 38.9393L569.592 38.9797H569.139V38.5148L569.098 26.9916V26.4862H569.602L587.899 26.5569C592.458 26.5974 601.637 26.6883 606.196 26.7591H606.438V27.0017L606.196 38.5249H606.186ZM606.186 38.5249L605.944 27.0017L606.186 27.2443C601.617 27.3049 592.458 27.406 587.889 27.4464L569.592 27.5172L570.097 27.0118L570.056 38.535L569.592 38.07L578.66 38.1104C584.46 38.1711 600.185 38.4339 606.176 38.5249H606.186Z" fill="#EBEBEB"/>
<path d="M626.591 41.5269H590.007V53.0501H626.591V41.5269Z" fill="#EBEBEB"/>
<path d="M39.3878 38.535C33.2956 38.636 17.9138 38.8887 12.0233 38.9494L2.79418 38.9898H2.34029V38.5249L2.28986 27.0017V26.4963H2.79418L21.091 26.567C25.6501 26.6075 34.8288 26.6984 39.3878 26.7692H39.6299V27.0118L39.3878 38.535ZM39.3878 38.535L39.1458 27.0118L39.3878 27.2544C34.8187 27.315 25.6602 27.4161 21.091 27.4565L2.79418 27.5273L3.2985 27.0219L3.25816 38.5451L2.79418 38.0801L11.8619 38.1205C17.6616 38.1812 33.3864 38.444 39.3778 38.535H39.3878Z" fill="#EBEBEB"/>
<path d="M163.834 43.8517H79.1484V99.264H163.834V43.8517Z" fill="#DBDBDB"/>
<path d="M163.834 102.509H79.1484V157.921H163.834V102.509Z" fill="#EBEBEB"/>
<path d="M95.7608 113.163H87.5303V121.411H95.7608V113.163Z" fill="white"/>
<path d="M105.706 113.163H97.4755V121.411H105.706V113.163Z" fill="#C7C7C7"/>
<path d="M115.661 113.163H107.431V121.411H115.661V113.163Z" fill="white"/>
<path d="M125.607 113.163H117.376V121.411H125.607V113.163Z" fill="white"/>
<path d="M135.562 113.163H127.331V121.411H135.562V113.163Z" fill="white"/>
<path d="M145.507 113.163H137.277V121.411H145.507V113.163Z" fill="white"/>
<path d="M155.452 113.163H147.222V121.411H155.452V113.163Z" fill="white"/>
<path d="M95.7608 123.2H87.5303V131.448H95.7608V123.2Z" fill="white"/>
<path d="M105.706 123.2H97.4755V131.448H105.706V123.2Z" fill="white"/>
<path d="M115.661 123.2H107.431V131.448H115.661V123.2Z" fill="white"/>
<path d="M125.607 123.2H117.376V131.448H125.607V123.2Z" fill="white"/>
<path d="M135.562 123.2H127.331V131.448H135.562V123.2Z" fill="#C7C7C7"/>
<path d="M145.507 123.2H137.277V131.448H145.507V123.2Z" fill="white"/>
<path d="M155.452 123.2H147.222V131.448H155.452V123.2Z" fill="white"/>
<path d="M95.7608 133.247H87.5303V141.496H95.7608V133.247Z" fill="white"/>
<path d="M105.706 133.247H97.4755V141.496H105.706V133.247Z" fill="white"/>
<path d="M115.661 133.247H107.431V141.496H115.661V133.247Z" fill="white"/>
<path d="M125.607 133.247H117.376V141.496H125.607V133.247Z" fill="white"/>
<path d="M135.562 133.247H127.331V141.496H135.562V133.247Z" fill="white"/>
<path d="M145.507 133.247H137.277V141.496H145.507V133.247Z" fill="white"/>
<path d="M155.452 133.247H147.222V141.496H155.452V133.247Z" fill="white"/>
<path d="M95.7608 143.285H87.5303V151.533H95.7608V143.285Z" fill="white"/>
<path d="M105.706 143.285H97.4755V151.533H105.706V143.285Z" fill="white"/>
<path d="M115.661 143.285H107.431V151.533H115.661V143.285Z" fill="#C7C7C7"/>
<path d="M125.607 143.285H117.376V151.533H125.607V143.285Z" fill="white"/>
<path d="M135.562 143.285H127.331V151.533H135.562V143.285Z" fill="white"/>
<path d="M145.507 143.285H137.277V151.533H145.507V143.285Z" fill="white"/>
<path d="M155.452 143.285H147.222V151.533H155.452V143.285Z" fill="white"/>
<path d="M85.6845 96.6259H82.4669V105.147H85.6845V96.6259Z" fill="#C7C7C7"/>
<path d="M93.1686 96.6258H89.951V105.147H93.1686V96.6258Z" fill="#C7C7C7"/>
<path d="M100.653 96.6258H97.4352V105.147H100.653V96.6258Z" fill="#C7C7C7"/>
<path d="M108.137 96.6258H104.919V105.147H108.137V96.6258Z" fill="#C7C7C7"/>
<path d="M115.621 96.6258H112.403V105.147H115.621V96.6258Z" fill="#C7C7C7"/>
<path d="M123.105 96.6258H119.888V105.147H123.105V96.6258Z" fill="#C7C7C7"/>
<path d="M130.589 96.6258H127.372V105.147H130.589V96.6258Z" fill="#C7C7C7"/>
<path d="M138.073 96.6258H134.856V105.147H138.073V96.6258Z" fill="#C7C7C7"/>
<path d="M145.558 96.6258H142.34V105.147H145.558V96.6258Z" fill="#C7C7C7"/>
<path d="M153.042 96.6258H149.824V105.147H153.042V96.6258Z" fill="#C7C7C7"/>
<path d="M160.526 96.6258H157.308V105.147H160.526V96.6258Z" fill="#C7C7C7"/>
<path d="M122.853 49.5223C122.853 50.2703 122.248 50.8768 121.501 50.8768C120.755 50.8768 120.15 50.2703 120.15 49.5223C120.15 48.7743 120.755 48.1678 121.501 48.1678C122.248 48.1678 122.853 48.7743 122.853 49.5223Z" fill="#263238"/>
<path d="M57.8358 238.856V447.031H184.027V238.856H57.8358ZM69.2941 316.395H172.569V370.857H69.2941V316.395ZM69.2941 248.964H172.569V303.426H69.2941V248.964Z" fill="#DBDBDB"/>
<path d="M0.776733 447.031H57.8358L57.8358 238.856H0.776733L0.776733 447.031Z" fill="#EBEBEB"/>
<path d="M148.029 303.416H172.569V248.964H148.029V303.416Z" fill="#EBEBEB"/>
<path d="M69.2941 433.901H171.924V381.976H69.2941V433.901Z" stroke="#EBEBEB" stroke-width="0.5" stroke-miterlimit="10"/>
<path d="M110.417 404.052H130.801V396.582H110.417V404.052Z" fill="#EBEBEB"/>
<path d="M148.029 370.857H172.569V316.405H148.029V370.857Z" fill="#EBEBEB"/>
<path d="M100.683 370.857V320.651H83.4152V370.857H100.683Z" fill="#A6A6A6"/>
<path d="M100.683 362.801V351.965H83.4152V362.801H100.683Z" fill="#DBDBDB"/>
<path d="M100.683 343.232V336.803H83.4151V343.232H100.683Z" fill="#DBDBDB"/>
<path d="M98.8273 303.416H142.461V261.397H98.8273V303.416Z" fill="#EBEBEB"/>
<path d="M82.2451 303.416H98.8273V261.397H82.2451V303.416Z" fill="#C7C7C7"/>
<path d="M142.461 282.412H98.8171L132.899 283.493L142.461 282.412Z" fill="#C7C7C7"/>
<path d="M98.8171 298.352H142.461L108.379 299.434L98.8171 298.352Z" fill="#C7C7C7"/>
<path d="M142.461 270.666H114.814L139.385 271.556L142.461 270.666Z" fill="#C7C7C7"/>
<path d="M98.8171 292.166H126.464L101.894 293.046L98.8171 292.166Z" fill="#C7C7C7"/>
<path d="M131.992 265.996H100.814L106.009 266.522L131.992 265.996Z" fill="#C7C7C7"/>
<path d="M138.215 286.92H107.038L112.232 287.446L138.215 286.92Z" fill="#C7C7C7"/>
<path d="M119.041 274.669H98.8173L95.2063 276.084L119.041 274.669Z" fill="#EBEBEB"/>
<path d="M148.029 274.669H127.806L124.195 276.084L148.029 274.669Z" fill="#EBEBEB"/>
<path d="M122.077 293.551H142.3L145.911 294.966L122.077 293.551Z" fill="#EBEBEB"/>
<path d="M98.8173 288.76H82.5882L78.9672 290.175L98.8173 288.76Z" fill="#C7C7C7"/>
<path d="M93.1586 282.412H80.5607L82.235 281.26L93.1586 282.412Z" fill="#C7C7C7"/>
<path d="M83.4253 317.285H69.2942V370.847H83.4253V317.285Z" fill="#EBEBEB"/>
<path d="M76.3545 327.858C77.9785 327.858 79.2998 326.533 79.2998 324.906C79.2998 323.279 77.9785 321.954 76.3545 321.954C74.7306 321.954 73.4093 323.279 73.4093 324.906C73.4093 326.533 74.7306 327.858 76.3545 327.858Z" fill="white"/>
<path d="M76.3545 326.594C77.2824 326.594 78.0389 325.836 78.0389 324.906C78.0389 323.976 77.2824 323.218 76.3545 323.218C75.4265 323.218 74.67 323.976 74.67 324.906C74.67 325.836 75.4265 326.594 76.3545 326.594Z" fill="#A6A6A6"/>
<path d="M83.415 362.407V349.378H69.2839V362.407H83.415Z" fill="white"/>
<path d="M154.131 359.799H100.683V370.938H154.131V359.799Z" fill="#C7C7C7"/>
<path d="M111.234 365.359C111.234 363.731 109.912 362.407 108.288 362.407C106.664 362.407 105.343 363.731 105.343 365.359C105.343 366.986 106.664 368.31 108.288 368.31C109.912 368.31 111.234 366.986 111.234 365.359Z" fill="white"/>
<path d="M109.973 365.359C109.973 364.429 109.216 363.671 108.288 363.671C107.36 363.671 106.604 364.429 106.604 365.359C106.604 366.289 107.36 367.047 108.288 367.047C109.216 367.047 109.973 366.289 109.973 365.359Z" fill="#A6A6A6"/>
<path d="M145.709 359.799H132.708V370.938H145.709V359.799Z" fill="white"/>
<path d="M562.249 32.2375H434.323V175.266H562.249V32.2375Z" fill="#DBDBDB"/>
<path d="M553.827 40.6778H442.755V166.897H553.827V40.6778Z" fill="#EBEBEB"/>
<path d="M491.947 62.9962H452.791V109.483H491.947V62.9962Z" fill="white"/>
<path d="M473.771 66.1601C473.771 66.9384 473.146 67.5752 472.359 67.5752C471.572 67.5752 470.947 66.9486 470.947 66.1601C470.947 65.3717 471.572 64.745 472.359 64.745C473.146 64.745 473.771 65.3717 473.771 66.1601Z" fill="#455A64"/>
<path d="M460.245 72.3159C464.199 72.0127 468.163 71.9925 472.117 71.9521C476.071 71.9925 480.035 72.0127 483.988 72.3159C480.035 72.6192 476.071 72.6394 472.117 72.6798C468.163 72.6394 464.199 72.6192 460.245 72.3159Z" fill="#EBEBEB"/>
<path d="M460.245 75.9851C462.393 75.7021 464.552 75.6313 466.7 75.6111C468.849 75.6212 471.007 75.692 473.156 75.9851C471.007 76.2782 468.849 76.3389 466.7 76.349C464.552 76.3389 462.393 76.2681 460.245 75.9851Z" fill="#EBEBEB"/>
<path d="M460.245 79.6645C462.999 79.3814 465.742 79.3107 468.496 79.2905C471.249 79.3006 473.993 79.3713 476.746 79.6645C473.993 79.9576 471.249 80.0182 468.496 80.0284C465.742 80.0182 462.999 79.9475 460.245 79.6645Z" fill="#EBEBEB"/>
<path d="M460.245 83.3337C463.684 83.0507 467.124 82.9799 470.563 82.9597C474.003 82.9698 477.442 83.0405 480.882 83.3337C477.442 83.6268 474.003 83.6875 470.563 83.6976C467.124 83.6875 463.684 83.6167 460.245 83.3337Z" fill="#EBEBEB"/>
<path d="M460.245 87.0129C463.231 86.7299 466.226 86.6592 469.212 86.6389C472.197 86.6491 475.193 86.7198 478.179 87.0129C475.193 87.3061 472.197 87.3667 469.212 87.3768C466.226 87.3667 463.231 87.296 460.245 87.0129Z" fill="#EBEBEB"/>
<path d="M460.245 90.6822C464.068 90.3789 467.901 90.3587 471.723 90.3183C475.546 90.3587 479.379 90.3789 483.202 90.6822C479.379 90.9854 475.546 91.0056 471.723 91.0461C467.901 91.0056 464.068 90.9854 460.245 90.6822Z" fill="#EBEBEB"/>
<path d="M460.245 94.3615C462.716 94.0785 465.187 94.0077 467.658 93.9875C470.13 93.9976 472.601 94.0684 475.072 94.3615C472.601 94.6547 470.13 94.7153 467.658 94.7254C465.187 94.7153 462.716 94.6445 460.245 94.3615Z" fill="#EBEBEB"/>
<path d="M460.245 98.0308C464.199 97.7275 468.163 97.7073 472.117 97.6669C476.071 97.7073 480.035 97.7275 483.988 98.0308C480.035 98.334 476.071 98.3542 472.117 98.3947C468.163 98.3542 464.199 98.334 460.245 98.0308Z" fill="#EBEBEB"/>
<path d="M460.245 101.71C464.199 101.407 468.163 101.387 472.117 101.346C476.071 101.387 480.035 101.407 483.988 101.71C480.035 102.013 476.071 102.034 472.117 102.074C468.163 102.034 464.199 102.013 460.245 101.71Z" fill="#EBEBEB"/>
<path d="M544.225 91.9861H497.898V146.994H544.225V91.9861Z" fill="white"/>
<path d="M522.468 99.4055C522.468 100.184 521.843 100.821 521.056 100.821C520.269 100.821 519.644 100.194 519.644 99.4055C519.644 98.6171 520.269 97.9904 521.056 97.9904C521.843 97.9904 522.468 98.6171 522.468 99.4055Z" fill="#455A64"/>
<path d="M504.383 105.713C506.098 105.43 507.813 105.359 509.517 105.339C511.232 105.349 512.947 105.42 514.651 105.713C512.937 106.006 511.222 106.067 509.517 106.087C507.803 106.077 506.088 106.006 504.383 105.713Z" fill="#EBEBEB"/>
<path d="M504.383 109.857C506.602 109.574 508.821 109.503 511.03 109.483C513.249 109.493 515.468 109.564 517.677 109.857C515.458 110.15 513.239 110.211 511.03 110.231C508.811 110.221 506.592 110.15 504.383 109.857Z" fill="#EBEBEB"/>
<path d="M504.383 114.012C506.441 113.729 508.488 113.658 510.546 113.638C512.604 113.648 514.651 113.718 516.709 114.012C514.651 114.305 512.604 114.365 510.546 114.386C508.488 114.376 506.441 114.305 504.383 114.012Z" fill="#EBEBEB"/>
<path d="M504.383 118.156C506.441 117.873 508.488 117.802 510.546 117.782C512.604 117.792 514.651 117.863 516.709 118.156C514.651 118.449 512.604 118.51 510.546 118.53C508.488 118.52 506.441 118.449 504.383 118.156Z" fill="#EBEBEB"/>
<path d="M504.383 122.3C506.168 122.017 507.954 121.947 509.739 121.926C511.524 121.936 513.31 122.007 515.095 122.3C513.31 122.593 511.524 122.654 509.739 122.674C507.954 122.664 506.168 122.593 504.383 122.3Z" fill="#EBEBEB"/>
<path d="M504.383 126.455C506.663 126.172 508.952 126.101 511.232 126.081C513.511 126.091 515.801 126.162 518.081 126.455C515.801 126.748 513.511 126.808 511.232 126.829C508.952 126.819 506.663 126.748 504.383 126.455Z" fill="#EBEBEB"/>
<path d="M504.383 130.599C506.269 130.316 508.156 130.245 510.042 130.225C511.928 130.235 513.814 130.306 515.7 130.599C513.814 130.892 511.928 130.953 510.042 130.973C508.156 130.963 506.269 130.892 504.383 130.599Z" fill="#EBEBEB"/>
<path d="M504.383 134.743C506.743 134.46 509.114 134.39 511.474 134.379C513.834 134.39 516.205 134.46 518.565 134.743C516.205 135.036 513.834 135.097 511.474 135.117C509.114 135.107 506.743 135.036 504.383 134.743Z" fill="#EBEBEB"/>
<path d="M504.383 138.898C506.743 138.615 509.114 138.544 511.474 138.524C513.834 138.534 516.205 138.605 518.565 138.898C516.205 139.191 513.834 139.251 511.474 139.262C509.114 139.251 506.743 139.181 504.383 138.898Z" fill="#EBEBEB"/>
<path d="M524.627 105.713C526.866 105.43 529.115 105.359 531.354 105.339C533.594 105.349 535.843 105.42 538.082 105.713C535.843 106.006 533.594 106.067 531.354 106.087C529.115 106.077 526.866 106.006 524.627 105.713Z" fill="#EBEBEB"/>
<path d="M524.627 109.857C526.099 109.574 527.572 109.503 529.055 109.483C530.527 109.493 532 109.564 533.483 109.857C532.01 110.15 530.537 110.211 529.055 110.231C527.582 110.221 526.109 110.15 524.627 109.857Z" fill="#EBEBEB"/>
<path d="M524.627 114.012C526.735 113.729 528.853 113.658 530.961 113.638C533.069 113.648 535.187 113.718 537.295 114.012C535.187 114.305 533.069 114.365 530.961 114.386C528.853 114.376 526.735 114.305 524.627 114.012Z" fill="#EBEBEB"/>
<path d="M524.627 118.156C526.684 117.873 528.732 117.802 530.79 117.782C532.847 117.792 534.895 117.863 536.952 118.156C534.895 118.449 532.847 118.51 530.79 118.53C528.732 118.52 526.684 118.449 524.627 118.156Z" fill="#EBEBEB"/>
<path d="M524.627 122.3C526.866 122.017 529.115 121.947 531.354 121.926C533.594 121.936 535.843 122.007 538.082 122.3C535.843 122.593 533.594 122.654 531.354 122.674C529.115 122.664 526.866 122.593 524.627 122.3Z" fill="#EBEBEB"/>
<path d="M524.627 126.455C526.412 126.172 528.197 126.101 529.983 126.081C531.768 126.091 533.553 126.162 535.339 126.455C533.553 126.748 531.768 126.808 529.983 126.829C528.197 126.819 526.412 126.748 524.627 126.455Z" fill="#EBEBEB"/>
<path d="M524.627 130.599C526.735 130.316 528.853 130.245 530.961 130.225C533.069 130.235 535.187 130.306 537.295 130.599C535.187 130.892 533.069 130.953 530.961 130.973C528.853 130.963 526.735 130.892 524.627 130.599Z" fill="#EBEBEB"/>
<path d="M524.627 134.743C526.261 134.46 527.895 134.39 529.529 134.379C531.163 134.39 532.797 134.46 534.431 134.743C532.797 135.036 531.163 135.097 529.529 135.117C527.895 135.107 526.261 135.036 524.627 134.743Z" fill="#EBEBEB"/>
<path d="M524.627 138.898C526.19 138.615 527.764 138.544 529.327 138.524C530.89 138.534 532.464 138.605 534.027 138.898C532.464 139.191 530.89 139.251 529.327 139.262C527.764 139.251 526.19 139.181 524.627 138.898Z" fill="#EBEBEB"/>
<path d="M511.898 50.2196H488.346V73.8219H511.898V50.2196Z" fill="#C7C7C7"/>
<path d="M501.529 52.6152C501.529 53.3935 500.904 54.0304 500.117 54.0304C499.33 54.0304 498.705 53.4037 498.705 52.6152C498.705 51.8268 499.33 51.2001 500.117 51.2001C500.904 51.2001 501.529 51.8268 501.529 52.6152Z" fill="#455A64"/>
<path d="M553.716 40.6778H550.539V167.028H553.716V40.6778Z" fill="#C7C7C7"/>
<path d="M558.013 358.819L555.481 361.386L555.391 360.446V360.436L557.014 358.819H558.013Z" fill="#DBDBDB"/>
<path d="M567.636 358.819L559.002 367.532L556.218 370.301L556.167 369.725V369.705L556.147 369.381L558.487 367.016L566.708 358.819H567.636Z" fill="#DBDBDB"/>
<path d="M577.278 358.819L563.833 372.384L556.984 379.206L556.974 379.065L556.914 378.317L563.318 371.848L576.401 358.819H577.278Z" fill="#DBDBDB"/>
<path d="M586.911 358.819L568.674 377.225L557.741 388.102L557.66 387.263L568.14 376.7L586.084 358.819H586.911Z" fill="#DBDBDB"/>
<path d="M596.503 358.819C595.202 360.163 593.891 361.497 592.579 362.831L573.496 382.077L558.487 397.027L558.427 396.228L572.981 381.541L592.166 362.437C593.376 361.224 594.597 360.021 595.827 358.829H596.503V358.819Z" fill="#DBDBDB"/>
<path d="M606.095 358.819C603.2 361.78 600.306 364.722 597.401 367.663L578.337 386.909L559.244 405.912L559.183 405.174L577.813 386.393L597.017 367.269C599.862 364.449 602.716 361.639 605.581 358.829H606.115L606.095 358.819Z" fill="#DBDBDB"/>
<path d="M615.637 358.819C611.199 363.408 606.72 367.956 602.232 372.515L583.169 391.74L563.964 410.865C562.653 412.179 561.321 413.483 559.99 414.787L559.929 414.17C561.13 412.927 562.35 411.704 563.561 410.471L582.644 391.225L601.829 372.121C606.317 367.673 610.836 363.236 615.344 358.829H615.627L615.637 358.819Z" fill="#DBDBDB"/>
<path d="M625.037 358.93V358.99C619.076 365.146 613.095 371.261 607.073 377.356L587.99 396.602L568.805 415.706C566.122 418.355 563.429 421.003 560.746 423.651L560.706 423.166C563.258 420.548 565.83 417.93 568.412 415.312L587.476 396.067L606.68 376.962C612.762 370.928 618.885 364.924 625.037 358.93Z" fill="#DBDBDB"/>
<path d="M624.16 369.351V369.381L624.13 369.705C620.055 373.89 615.98 378.064 611.895 382.198L592.831 401.424L573.627 420.548C569.602 424.541 565.558 428.534 561.483 432.496V432.456L561.453 432.162C565.366 428.139 569.29 424.137 573.233 420.134L592.297 400.908L611.502 381.784C615.708 377.63 619.924 373.475 624.16 369.341V369.351Z" fill="#DBDBDB"/>
<path d="M623.282 379.793L623.222 380.44C621.063 382.643 618.915 384.837 616.746 387.04L597.663 406.286L578.478 425.39C573.254 430.566 567.998 435.731 562.733 440.856H562.552C567.686 435.529 572.87 430.252 578.065 424.986L597.148 405.74L616.333 386.636C618.653 384.341 620.963 382.067 623.282 379.793Z" fill="#DBDBDB"/>
<path d="M622.395 390.265L622.324 391.104C622.072 391.356 621.82 391.619 621.568 391.872L602.504 411.118L583.3 430.222C579.709 433.79 576.108 437.318 572.507 440.855H572.084C575.684 437.176 579.285 433.487 582.896 429.817L601.96 410.592L621.164 391.467C621.578 391.073 621.971 390.659 622.385 390.255L622.395 390.265Z" fill="#DBDBDB"/>
<path d="M621.487 400.807L621.416 401.737L607.326 415.949L588.121 435.074C586.174 437.014 584.228 438.935 582.261 440.855H581.646C583.663 438.783 585.69 436.731 587.728 434.669L606.811 415.424L621.497 400.797L621.487 400.807Z" fill="#DBDBDB"/>
<path d="M620.609 411.34L620.519 412.361L612.147 420.801L592.963 439.905C592.64 440.219 592.327 440.542 592.004 440.855H591.238C591.682 440.411 592.125 439.956 592.569 439.511L611.633 420.265L620.609 411.33V411.34Z" fill="#DBDBDB"/>
<path d="M619.702 421.883L619.621 422.994L616.988 425.643L601.697 440.865H600.86L616.464 425.127L619.702 421.883Z" fill="#DBDBDB"/>
<path d="M618.824 432.466V432.506L618.733 433.567L611.411 440.865H610.493L618.824 432.466Z" fill="#DBDBDB"/>
<path d="M624.916 360.436L624.826 361.396L622.284 358.819H623.293L624.916 360.436Z" fill="#DBDBDB"/>
<path d="M624.16 369.381L624.079 370.301L621.295 367.532L612.651 358.819H613.599L621.82 367.016L624.16 369.381Z" fill="#DBDBDB"/>
<path d="M623.393 378.317L623.333 379.065L623.323 379.217L616.464 372.384L603.019 358.819H603.896L616.988 371.848L623.393 378.317Z" fill="#DBDBDB"/>
<path d="M622.647 387.283L622.566 388.122L611.633 377.225L593.396 358.819H594.203L612.147 376.7L622.647 387.283Z" fill="#DBDBDB"/>
<path d="M621.89 396.239L621.82 397.027L606.811 382.077L587.728 362.831C586.416 361.497 585.105 360.173 583.804 358.819H584.47C585.69 360.021 586.921 361.214 588.131 362.427L607.336 381.531L621.901 396.228L621.89 396.239Z" fill="#DBDBDB"/>
<path d="M621.124 405.174L621.063 405.912L601.97 386.909L582.906 367.663C580.001 364.722 577.107 361.78 574.212 358.819H574.746C577.591 361.629 580.455 364.439 583.31 367.259L602.514 386.383L621.144 405.164L621.124 405.174Z" fill="#DBDBDB"/>
<path d="M620.367 414.17L620.307 414.807C618.976 413.493 617.654 412.189 616.323 410.875L597.138 391.751L578.055 372.525C573.586 367.966 569.108 363.418 564.67 358.829H564.952C569.471 363.236 573.98 367.673 578.468 372.121L597.653 391.225L616.736 410.471C617.947 411.694 619.157 412.927 620.367 414.17Z" fill="#DBDBDB"/>
<path d="M619.601 423.156L619.571 423.641C616.867 421.023 614.184 418.365 611.501 415.696L592.297 396.592L573.233 377.346C567.212 371.251 561.231 365.126 555.269 358.98V358.919C561.422 364.914 567.545 370.918 573.627 376.952L592.831 396.056L611.895 415.302C614.477 417.92 617.049 420.538 619.601 423.156Z" fill="#DBDBDB"/>
<path d="M618.854 432.163L618.824 432.506C614.749 428.544 610.705 424.551 606.68 420.559L587.476 401.434L568.412 382.209C564.327 378.064 560.232 373.9 556.177 369.725L556.147 369.351C560.383 373.475 564.599 377.63 568.805 381.794L587.99 400.919L607.073 420.144C611.017 424.137 614.941 428.15 618.854 432.173V432.163Z" fill="#DBDBDB"/>
<path d="M617.755 440.866H617.574C612.308 435.731 607.053 430.576 601.829 425.4L582.644 406.296L563.561 387.05C561.392 384.847 559.233 382.653 557.085 380.45L557.025 379.803C559.344 382.077 561.654 384.362 563.964 386.646L583.169 405.75L602.232 424.996C607.427 430.262 612.621 435.539 617.755 440.866Z" fill="#DBDBDB"/>
<path d="M608.223 440.866H607.8C604.189 437.328 600.598 433.8 597.007 430.232L577.803 411.128L558.739 391.882C558.487 391.629 558.235 391.367 557.983 391.114L557.912 390.285C558.326 390.669 558.719 391.084 559.133 391.488L578.337 410.612L597.401 429.838C601.012 433.507 604.612 437.186 608.213 440.876L608.223 440.866Z" fill="#DBDBDB"/>
<path d="M598.641 440.866H598.036C596.069 438.945 594.112 437.025 592.166 435.084L572.981 415.959L558.891 401.758L558.82 400.807L573.506 415.434L592.589 434.68C594.607 436.732 596.644 438.794 598.651 440.866H598.641Z" fill="#DBDBDB"/>
<path d="M589.069 440.866H588.303C587.98 440.552 587.667 440.229 587.344 439.915L568.14 420.811L559.788 412.381L559.697 411.35L568.674 420.286L587.738 439.531C588.182 439.976 588.625 440.431 589.069 440.876V440.866Z" fill="#DBDBDB"/>
<path d="M579.447 440.866H578.61L563.318 425.643L560.686 422.995V422.984L560.585 421.903L563.833 425.127L579.447 440.866Z" fill="#DBDBDB"/>
<path d="M569.804 440.865H568.896L561.573 433.567L561.483 432.466L569.804 440.865Z" fill="#DBDBDB"/>
<path d="M555.982 358.942L554.515 359.076L561.965 440.955L563.432 440.821L555.982 358.942Z" fill="#DBDBDB"/>
<path d="M624.467 358.879L616.946 440.751L618.412 440.887L625.933 359.014L624.467 358.879Z" fill="#DBDBDB"/>
<path d="M629.234 349.863H550.953V363.145H629.234V349.863Z" fill="#DBDBDB"/>
<path d="M621.154 433.749H559.022V447.031H621.154V433.749Z" fill="#DBDBDB"/>
<path d="M336.494 368.532C336.494 368.532 315.151 363.681 303.451 352.885C291.751 342.08 285.215 322.733 285.215 322.733C285.215 322.733 297.782 325.037 309.15 329.03C311.056 331.082 314.697 335.297 316.392 339.29C316.392 339.29 316.755 335.075 316.452 331.951C319.499 333.356 322.141 334.913 324.058 336.571C333.761 345.072 336.494 368.522 336.494 368.522V368.532Z" fill="#009688"/>
<path d="M298.549 332.143C295.644 330.122 292.679 328.181 289.784 326.139C289.612 326.018 289.774 325.745 289.955 325.856C295.452 329.152 300.879 332.669 306.124 336.348C307.95 337.632 309.745 338.966 311.52 340.331C311.399 340.119 311.278 339.906 311.147 339.694C310.512 338.623 309.836 337.561 309.16 336.51C307.798 334.398 306.326 332.315 304.631 330.445C304.571 330.375 304.672 330.273 304.732 330.344C306.396 332.265 308.05 334.165 309.574 336.207C310.3 337.177 310.965 338.178 311.601 339.209C311.934 339.745 312.257 340.28 312.559 340.826C312.66 341.008 312.771 341.19 312.882 341.382C315.646 343.555 318.329 345.82 320.891 348.215C322.474 349.691 323.997 351.227 325.47 352.804C324.643 350.217 323.927 347.599 322.968 345.051C322.938 344.961 323.079 344.93 323.11 345.021C324.038 347.69 325.056 350.378 325.772 353.128C327.406 354.897 328.97 356.736 330.442 358.637C330.422 358.526 330.392 358.404 330.362 358.293C330.12 357.282 329.867 356.282 329.595 355.281C329.071 353.35 328.506 351.42 327.86 349.529C326.529 345.638 324.794 341.837 322.131 338.673C322.071 338.603 322.172 338.501 322.232 338.572C326.398 343.515 328.849 349.448 330.402 355.675C330.634 356.585 330.846 357.505 331.058 358.414C331.169 358.9 331.3 359.395 331.38 359.89C332.026 360.759 332.661 361.649 333.267 362.549C336.968 368.078 339.863 374.112 342.294 380.298C345.037 387.263 347.166 394.45 349.133 401.667C349.173 401.808 348.961 401.859 348.911 401.717C344.735 389.203 340.478 376.508 333.327 365.318C331.814 362.953 330.19 360.679 328.455 358.485C324.945 358.283 321.405 357.525 318.076 356.413C314.395 355.19 310.925 353.482 307.677 351.379C305.801 350.166 304.086 348.751 302.342 347.346C302.261 347.285 302.342 347.164 302.432 347.235C305.317 349.681 308.787 351.601 312.216 353.168C315.656 354.745 319.287 355.978 322.978 356.787C324.552 357.131 326.156 357.383 327.749 357.606C325.772 355.17 323.674 352.845 321.455 350.621C320.739 349.903 319.993 349.206 319.246 348.519C316.795 346.729 314.082 345.304 311.359 343.99C307.859 342.292 304.419 340.503 300.96 338.734C299.003 337.743 297.066 336.722 295.099 335.752C295.019 335.712 295.099 335.59 295.18 335.631C298.69 337.329 302.251 338.916 305.791 340.543C309.12 342.07 312.499 343.606 315.696 345.405C315.837 345.486 315.958 345.567 316.099 345.648C313.205 343.121 310.219 340.725 307.153 338.4C304.318 336.257 301.454 334.165 298.539 332.143H298.549Z" fill="#263238"/>
<path d="M299.759 343.171C301.494 343.929 303.259 344.607 304.984 345.415C306.749 346.244 308.424 347.215 310.098 348.205C310.169 348.246 310.098 348.357 310.027 348.316C308.323 347.498 306.598 346.739 304.914 345.89C303.189 345.021 301.484 344.091 299.709 343.313C299.628 343.272 299.669 343.131 299.749 343.171H299.759Z" fill="#263238"/>
<path d="M405.829 260.75C405.829 260.75 399.837 267.624 399.454 278.51C399.383 280.431 399.686 283.099 399.908 286.243C391.95 290.498 385.979 298.17 385.979 298.17C390.497 295.451 396.7 294.349 400.049 294.794C399.938 296.866 399.696 299.009 399.232 301.182C397.749 301.102 394.895 301.294 390.185 302.972C390.185 302.972 394.814 302.85 398.344 304.599C394.542 316.729 383.235 329.192 352.007 334.478C352.007 334.478 345.986 313.231 357.535 290.438C366.895 271.99 405.829 260.73 405.829 260.73V260.75Z" fill="#009688"/>
<path d="M341.195 386.393C341.739 381.208 342.415 376.043 343.212 370.898C344.806 360.597 346.883 350.348 349.506 340.26C350.747 335.499 352.229 330.839 354.015 326.301C353.894 325.482 353.914 324.623 353.904 323.794C353.883 322.793 353.873 321.793 353.894 320.792C353.914 318.791 354.015 316.789 354.176 314.788C354.509 310.846 355.114 306.893 356.092 303.052C356.667 300.818 357.323 298.625 357.979 296.421C358.009 296.33 358.14 296.371 358.12 296.462C357.02 300.273 356.385 304.245 355.81 308.177C355.245 312.069 354.902 315.991 354.761 319.923C354.721 320.994 354.7 322.076 354.7 323.147C354.7 323.602 354.721 324.067 354.741 324.532C356.274 320.812 358.009 317.163 360.006 313.615C363.153 308.005 366.774 302.678 370.698 297.594C370.657 297.018 370.839 296.401 370.95 295.845C371.101 295.148 371.252 294.45 371.404 293.753C371.726 292.328 372.079 290.902 372.473 289.487C373.249 286.647 374.278 283.908 375.156 281.108C375.186 281.017 375.317 281.057 375.297 281.148C374.47 283.918 373.925 286.788 373.29 289.609C372.977 291.004 372.675 292.398 372.362 293.793C372.211 294.491 372.059 295.188 371.918 295.886C371.908 295.936 371.898 295.987 371.888 296.037C373.149 294.44 374.44 292.863 375.751 291.317C381.712 284.312 388.248 277.843 394.834 271.424C395.641 270.636 396.468 269.868 397.296 269.089C397.366 269.029 397.457 269.13 397.396 269.19C391.113 275.761 384.919 282.412 379.049 289.376C377.657 291.034 376.285 292.702 374.934 294.4C375.64 293.915 376.356 293.45 377.062 292.985C378.878 291.792 380.723 290.63 382.61 289.568C384.506 288.507 386.412 287.466 388.359 286.495C390.366 285.505 392.504 284.696 394.431 283.564C394.512 283.513 394.582 283.655 394.502 283.695C392.504 284.514 390.649 285.757 388.803 286.859C386.906 287.991 385 289.123 383.134 290.316C381.298 291.479 379.453 292.631 377.627 293.824C376.104 294.814 374.611 295.896 373.038 296.806C369.437 301.486 366.048 306.327 363.032 311.402C361.126 314.596 359.411 317.881 357.858 321.227C358.231 321.065 358.604 320.903 358.977 320.741C359.925 320.317 360.883 319.892 361.832 319.468C363.667 318.649 365.513 317.85 367.359 317.052C370.859 315.526 374.419 314.121 377.849 312.453C379.775 311.513 381.672 310.522 383.457 309.329C383.538 309.279 383.598 309.4 383.528 309.461C377.123 313.888 369.951 317.001 362.86 320.145L359.784 321.51C358.937 321.884 358.089 322.298 357.222 322.632C355.134 327.322 353.369 332.153 351.937 337.137C349.092 347.073 346.924 357.231 345.138 367.41C343.343 377.63 342.143 387.919 341.195 398.25C341.074 399.544 340.963 400.827 340.811 402.111C340.751 402.627 339.994 402.627 339.994 402.091C340.055 396.845 340.589 391.589 341.134 386.373L341.195 386.393Z" fill="#263238"/>
<path d="M360.187 299.969C360.762 296.785 361.61 293.672 362.457 290.559C362.477 290.468 362.618 290.508 362.598 290.599C361.811 293.652 361.247 296.775 360.672 299.878C360.087 303.042 359.572 306.216 359.128 309.4C359.128 309.451 359.038 309.451 359.038 309.4C359.239 306.236 359.623 303.093 360.187 299.969Z" fill="#263238"/>
<path d="M373.653 308.602C375.771 307.096 378.141 305.963 380.441 304.771C381.581 304.184 382.731 303.618 383.88 303.062C385.071 302.486 386.301 302.001 387.481 301.415C387.562 301.374 387.633 301.496 387.552 301.546C386.412 302.122 385.323 302.82 384.203 303.426C383.043 304.063 381.893 304.7 380.734 305.327C378.454 306.56 376.205 307.914 373.804 308.915C373.592 309.006 373.451 308.743 373.633 308.612L373.653 308.602Z" fill="#263238"/>
<path opacity="0.1" d="M336.111 331.486C336.111 331.486 316.362 326.756 307.294 313.484C298.63 300.809 295.836 279.187 295.614 277.287C295.967 279.026 300.042 297.918 313.487 306.722C323.775 313.464 333.731 319.003 336.111 331.486Z" fill="#263238"/>
<path d="M317.875 297.291C321.344 300.647 323.957 304.589 325.157 309.309C325.167 309.35 325.107 309.37 325.097 309.33C323.614 304.933 321.163 300.606 317.784 297.402C317.713 297.342 317.814 297.23 317.885 297.291H317.875Z" fill="#263238"/>
<path d="M336.111 331.486C336.111 331.486 316.362 326.756 307.294 313.484C298.63 300.808 295.836 279.187 295.614 277.287C295.594 277.196 295.594 277.156 295.594 277.156C295.594 277.156 305.065 290.65 315.02 294.087C324.976 297.523 338.966 309.431 336.111 331.486Z" fill="#009688"/>
<path d="M299.084 284.595C300.919 288.194 302.836 291.772 305.186 295.057C307.476 298.261 310.239 300.991 313.306 303.437C315.989 305.569 318.823 307.51 321.536 309.603C321.516 309.572 321.496 309.532 321.476 309.501C320.961 308.743 320.416 308.005 319.862 307.288C318.732 305.842 317.491 304.478 316.251 303.123C313.8 300.455 311.288 297.837 309.089 294.946C307.869 293.349 306.8 291.641 305.922 289.831C305.882 289.75 306.023 289.7 306.063 289.781C309.271 296.472 315.666 300.748 320.225 306.398C320.87 307.207 321.486 308.036 322.05 308.895C322.444 309.512 322.928 310.189 323.19 310.907C325.672 312.948 327.971 315.172 329.928 317.729C329.767 316.426 329.484 315.132 329.131 313.888C328.637 312.119 328.001 310.452 327.033 308.875C326.983 308.794 327.104 308.713 327.154 308.794C328.082 310.361 328.919 312.039 329.454 313.777C329.888 315.192 330.099 316.597 330.17 318.053H330.18C331.169 319.387 332.036 320.792 332.853 322.228C332.772 321.803 332.692 321.378 332.611 320.964C332.218 318.993 331.784 317.022 331.28 315.081C330.241 311.139 328.849 307.318 326.529 303.932C326.478 303.851 326.599 303.77 326.65 303.851C328.94 307.187 330.664 310.917 331.915 314.758C332.54 316.698 333.045 318.68 333.489 320.671C333.7 321.641 333.902 322.622 334.084 323.602C334.184 324.108 334.285 324.623 334.376 325.149C336.393 329.424 337.816 334.014 338.935 338.562C340.952 346.76 342.203 355.2 343.151 363.59C344.14 372.394 344.654 381.299 344.513 390.164C344.493 391.276 344.432 392.387 344.372 393.499C344.352 393.782 343.928 393.823 343.918 393.53C343.726 389.143 343.615 384.746 343.353 380.359C343.091 375.962 342.718 371.585 342.244 367.208C341.326 358.627 339.994 350.055 338.128 341.625C336.525 334.388 334.447 327.11 330.503 320.762C328.526 317.588 326.156 314.768 323.382 312.271C320.608 309.785 317.582 307.601 314.667 305.286C311.762 302.992 308.968 300.495 306.669 297.584C304.187 294.44 302.231 290.913 300.385 287.365C299.921 286.465 299.437 285.576 298.973 284.686C298.932 284.605 299.053 284.524 299.094 284.605L299.084 284.595Z" fill="#263238"/>
<path d="M302.493 287.496C303.764 290.175 305.287 292.722 306.891 295.209C306.931 295.269 306.84 295.33 306.8 295.269C305.075 292.833 303.643 290.225 302.352 287.547C302.311 287.466 302.453 287.415 302.493 287.496Z" fill="#263238"/>
<path d="M408.582 322.733C408.582 322.733 408.895 350.853 392.111 358.98C375.327 367.107 366.33 360.335 354.932 363.054C354.932 363.054 354.942 363.054 354.952 363.044C355.396 362.377 363.536 350.651 376.477 347.427C389.791 344.101 404.548 334.458 408.582 322.743V322.733Z" fill="#009688"/>
<path opacity="0.1" d="M408.582 322.733C408.582 322.733 408.895 350.853 392.111 358.98C375.327 367.107 366.33 360.335 354.932 363.054C354.932 363.054 354.942 363.054 354.952 363.044C355.427 362.811 363.748 358.637 374.036 357.403C384.617 356.13 404.83 349.216 408.582 322.733Z" fill="black"/>
<path d="M353.823 363.559C355.82 361.75 358.069 360.193 360.5 359.031C360.863 358.859 361.226 358.717 361.599 358.566C361.781 358.343 361.962 358.131 362.164 357.919C362.669 357.393 363.193 356.888 363.748 356.413C364.807 355.503 365.926 354.674 367.127 353.977C369.911 352.339 372.957 351.197 375.791 349.671C375.872 349.63 375.942 349.752 375.862 349.802C374.46 350.53 373.098 351.339 371.726 352.137C370.395 352.915 369.033 353.653 367.742 354.492C366.582 355.24 365.462 356.079 364.424 356.989C364.131 357.252 363.849 357.525 363.566 357.818C365.412 357.181 367.318 356.696 369.235 356.312C372.311 355.685 375.418 355.25 378.484 354.593C379.987 354.27 381.48 353.866 382.932 353.39C384.324 352.268 385.716 351.146 387.037 349.934C388.631 348.458 390.094 346.861 391.375 345.112C391.425 345.041 391.556 345.112 391.496 345.193C389.428 347.871 387.209 350.57 384.617 352.804C385.343 352.531 386.059 352.238 386.765 351.915C392.464 349.317 397.537 345.193 401.068 339.997C401.118 339.916 401.249 339.997 401.189 340.078C398.112 344.536 394.219 348.347 389.62 351.207C387.31 352.642 384.879 353.815 382.307 354.674C379.352 355.665 376.285 356.251 373.229 356.827C370.233 357.393 367.228 357.959 364.333 358.95C361.66 359.86 359.138 361.184 356.879 362.882C352.562 366.127 349.223 370.564 346.823 375.375C343.645 381.764 342.133 388.9 341.285 395.935C341.245 396.238 340.781 396.238 340.801 395.925C341.588 384.099 344.745 371.797 353.833 363.589L353.823 363.559Z" fill="#263238"/>
<path d="M373.3 354.381C374.137 353.037 375.398 352.036 376.749 351.248C378.333 350.328 379.755 349.337 380.854 347.841C380.915 347.77 381.036 347.841 380.975 347.922C379.967 349.226 378.746 350.297 377.354 351.177C375.892 352.097 374.409 352.996 373.411 354.452C373.37 354.512 373.259 354.452 373.31 354.391L373.3 354.381Z" fill="#263238"/>
<path d="M364.393 384.311L363.637 399.776L361.297 447.031H326.085L323.745 399.776L322.989 384.311H364.393Z" fill="#37474F"/>
<path d="M364.393 384.311L363.849 395.349L323.604 396.815L322.989 384.311H364.393Z" fill="#263238"/>
<path d="M366.865 377.862H320.517V392.62H366.865V377.862Z" fill="#37474F"/>
<path d="M504.918 289.083L501.549 309.32L478.744 446.961H475.072L491.654 309.32L494.105 289.083H504.918Z" fill="#455A64"/>
<path opacity="0.1" d="M494.105 289.083H504.918L501.549 309.32H491.654L494.105 289.083Z" fill="black"/>
<path d="M576.542 446.961H572.86L550.055 309.32L546.686 289.083H557.509L559.96 309.32L576.542 446.961Z" fill="#455A64"/>
<path opacity="0.1" d="M557.509 289.083L559.96 309.32H550.055L546.686 289.083H557.509Z" fill="black"/>
<path d="M620.428 446.961H616.747L593.941 309.32L590.572 289.083H601.395L603.846 309.32L620.428 446.961Z" fill="#455A64"/>
<path opacity="0.1" d="M603.846 309.32H593.941L590.572 289.083H601.395L603.846 309.32Z" fill="black"/>
<path d="M614.598 298.585H471.996V280.946H534.562L555.582 158.346H608.223L614.598 298.585Z" fill="#455A64"/>
<path opacity="0.1" d="M614.598 298.585H605.49L599.549 158.346H608.223L614.598 298.585Z" fill="black"/>
<path d="M367.369 405.589C370.223 407.267 458.228 425.694 462.02 424.278C463.463 423.743 466.892 411.057 470.594 395.612C471.391 392.276 472.197 388.83 473.004 385.322C478.219 362.559 483.222 338.279 483.222 338.279L424.398 325.776L415.794 373.162L413.898 383.563C413.898 383.563 377.062 391.609 373.058 393.611C369.074 395.622 364.504 403.911 367.369 405.589Z" fill="#EB9481"/>
<path d="M469.172 401.505C466.035 414.171 463.281 423.814 462.02 424.279C458.228 425.704 370.223 407.257 367.369 405.579C364.515 403.901 369.084 395.622 373.058 393.601C375.529 392.368 390.497 388.83 401.602 386.303C391.899 388.628 373.804 395.218 411.235 397.927C442.18 400.181 462.605 401.202 469.172 401.495V401.505Z" fill="#263238"/>
<path d="M446.79 447.84C449.977 448.73 539.757 444.08 543.065 441.735C544.326 440.856 542.208 421.115 541.27 417.637C538.082 405.872 521.581 354.048 521.581 354.048L461.516 356.979L486.188 414.655C486.188 414.655 452.61 431.839 449.251 434.801C445.912 437.762 443.603 446.951 446.79 447.84Z" fill="#EB9481"/>
<path d="M543.065 441.735C539.757 444.09 449.987 448.73 446.78 447.85C443.592 446.951 445.892 437.773 449.241 434.811C450.814 433.426 458.924 428.979 467.154 424.602C456.836 430.424 440.496 443.403 542.137 420.255C543.065 430.555 543.751 441.26 543.075 441.725L543.065 441.735Z" fill="#263238"/>
<path d="M586.063 272.749C568.17 292.722 508.045 276.944 504.454 284.899C501.287 291.903 542.319 404.497 542.319 404.497L476.666 411.593C476.666 411.593 419.99 287.254 440.254 251.33C451.198 231.922 499.411 239.665 528.51 236.107C537.285 235.036 541.411 216.902 541.411 216.902H593.406C593.406 216.902 606.529 249.925 586.074 272.759L586.063 272.749Z" fill="#263238"/>
<path d="M458.5 240.191L513.633 282.473C531.94 282.089 572.013 288.436 586.063 272.749C606.519 249.915 593.406 216.902 593.406 216.902H541.411C541.411 216.902 537.285 235.036 528.51 236.107C508.085 238.594 478.27 235.531 458.5 240.191Z" fill="#37474F"/>
<path d="M474.154 396.906C475.97 396.34 492.986 394.44 496.748 394.025C504.262 393.216 527.925 390.993 532.212 391.003C532.323 391.003 532.343 391.185 532.232 391.205C528.51 391.983 513.411 393.752 509.659 394.136C502.134 394.915 476.282 397.421 474.195 397.219C474.013 397.199 473.983 396.956 474.164 396.896L474.154 396.906Z" fill="#37474F"/>
<path d="M496.496 278.298C500.722 276.196 532.716 277.237 555.673 275.084C563.157 274.386 570.662 272.779 576.37 267.867C581.515 263.439 584.823 257.314 586.588 250.996C588.797 243.132 588.565 234.935 588.192 226.878C588.101 224.897 587.96 222.916 587.839 220.935C587.839 220.824 588.041 220.793 588.051 220.915C589.796 235.339 591.137 251.451 581.767 263.955C577.652 269.454 571.862 273.153 565.033 274.952C551.185 278.601 499.118 277.702 497.283 279.107C495.094 280.785 528.752 383.472 529.418 385.433C529.539 385.797 528.904 386.05 528.742 385.686C525.424 377.802 492.814 280.118 496.486 278.288L496.496 278.298Z" fill="#37474F"/>
<path d="M437.893 254.797C440.99 246.923 448.051 242.02 458.44 240.14C458.611 240.11 458.601 240.363 458.44 240.413C449.372 243.072 442.896 246.721 439.336 254.393C437.672 257.971 436.814 263.005 436.38 269.747C434.232 303.366 463.503 379.692 464.098 381.026C464.148 381.147 463.987 381.238 463.916 381.127C459.791 374.163 425.124 287.314 437.904 254.807L437.893 254.797Z" fill="#37474F"/>
<path d="M414.16 370.14L463.876 380.733C463.876 380.733 424.66 263.429 443.078 248.297C448.182 244.102 459.317 242.637 472.54 248.358C492.29 256.909 515.156 274.336 536.71 280.714C556.893 286.688 580.859 281.189 589.11 272.092C606.438 252.977 593.406 216.861 593.406 216.861L532.656 216.285C532.656 216.285 533.725 217.154 530.316 220.187C530.316 220.187 477.553 213.273 459.297 224.452C426.365 244.618 414.18 370.13 414.18 370.13L414.16 370.14Z" fill="#263238"/>
<path d="M562.512 221.066C562.562 220.925 562.754 220.965 562.764 221.107C562.865 223.816 562.744 226.474 563.379 229.143C563.984 231.68 565.134 233.954 566.98 235.814C570.904 239.786 576.522 241.141 581.656 242.758C581.928 242.839 581.878 243.324 581.575 243.274C575.876 242.394 569.875 240.949 565.709 236.663C563.793 234.692 562.512 232.175 562.017 229.476C561.523 226.767 561.604 223.684 562.501 221.066H562.512Z" fill="#37474F"/>
<path d="M444.298 246.064C451.944 241.252 463.886 244.911 469.605 247.105C469.726 247.155 469.666 247.347 469.545 247.297C464.28 245.396 451.187 242.526 444.187 247.499C428.009 258.982 449.664 337.521 463.856 380.743C464.078 381.42 463.543 381.238 463.241 380.592C460.901 375.467 442.604 320.853 437.823 284.717C437.086 279.157 433.264 252.998 444.278 246.064H444.298Z" fill="#37474F"/>
<path d="M419.829 356.898C421.331 356.858 434.212 359.708 437.056 360.345C442.735 361.629 455.888 365.045 458.964 366.218C459.045 366.248 458.994 366.42 458.903 366.41C455.958 366.127 449.099 364.621 446.265 363.964C440.597 362.64 421.16 357.97 419.738 357.212C419.617 357.141 419.677 356.908 419.829 356.898Z" fill="#37474F"/>
<path d="M446.739 244.022C451.883 241.201 458.006 240.747 463.715 241.444C469.767 242.192 475.526 244.345 481.063 246.882C492.693 252.209 503.768 258.719 515.418 264.025C526.997 269.292 539.353 273.416 552.112 273.81C563.016 274.144 576.824 272.223 583.834 262.388C594.637 247.236 588.343 221.127 588.222 219.439C588.222 219.307 588.383 219.317 588.424 219.439C596.805 251.542 586.023 264.005 578.741 269.251C572.961 273.416 564.66 274.467 559.173 274.932C546.484 276.003 533.755 272.89 521.994 268.2C509.941 263.389 498.634 256.909 487.075 250.986C476 245.305 463.654 239.453 451.006 242.707C449.573 243.071 448.161 243.577 446.8 244.153C446.729 244.183 446.689 244.062 446.749 244.032L446.739 244.022Z" fill="#37474F"/>
<path d="M572.81 173.356L568.21 173.154C568.079 171.86 567.787 170.617 567.333 169.515C565.497 164.987 561.816 161.378 558.941 157.729C558.941 157.709 558.911 157.729 558.921 157.76C561.594 161.328 564.135 165.755 565.558 170.233C565.86 171.183 566.022 172.133 566.092 173.063L563.228 172.942C563.066 170.112 562.38 167.393 560.958 164.926C560.918 164.856 560.807 164.946 560.837 165.027C561.987 167.504 562.249 170.172 562.189 172.902L537.305 171.82C536.922 169.536 536.69 167.19 536.68 164.795C536.68 164.522 536.307 164.562 536.317 164.825C536.317 167.18 536.408 169.505 536.67 171.8L534.592 171.699C534.33 167.777 534.411 163.865 535.157 159.63C535.187 159.498 534.996 159.458 534.975 159.589C534.128 163.471 533.543 167.595 533.533 171.648L516.305 170.91C517.395 168.363 518.182 165.634 518.827 163.016C518.888 162.793 518.575 162.723 518.514 162.945C517.738 165.846 516.588 168.383 515.307 170.85L512.755 170.748C514.782 166.271 516.316 161.601 516.729 156.729C516.739 156.526 516.447 156.506 516.416 156.708C515.72 161.965 513.148 166.311 510.607 170.637L504.121 170.364C506.431 166.311 510.385 162.632 511 157.851C511.666 152.483 506.925 149.916 505.543 145.398C503.223 137.827 507.016 132.217 511.746 127.041C516.094 122.26 515.71 116.782 516.84 110.686C517.657 106.198 518.958 101.225 521.308 97.3236C528.53 85.2647 541.159 86.973 541.169 87.1448C544.225 87.2257 546.988 88.1051 549.409 89.7123C549.419 89.7123 549.439 89.7123 549.45 89.7325C549.621 89.8336 549.772 89.9549 549.944 90.0863C552.546 91.9562 554.745 94.6955 556.46 98.2232L556.48 98.2637C556.974 99.2644 557.418 100.336 557.831 101.468C558.537 103.449 558.658 106.188 559.233 109.342C559.233 109.403 559.243 109.474 559.264 109.524C560.111 113.961 561.916 119.127 567.646 123.787C574.474 129.305 572.517 138.19 566.869 147.086C564.478 150.856 564.378 153.292 565.295 155.374C565.295 155.374 565.295 155.384 565.295 155.404C565.427 155.688 565.558 155.93 565.709 156.203C567.04 158.498 569.461 160.499 571.115 163.643C572.648 166.533 572.981 169.92 572.83 173.326L572.81 173.356Z" fill="#263238"/>
<path d="M530.628 88.9743C525.403 91.7439 521.379 96.3936 519.442 102.469C517.96 107.108 517.798 112.152 515.842 116.64C513.996 120.875 510.748 124.069 508.146 127.729C504.696 132.56 502.497 138.494 505.342 144.033C507.107 147.47 511.02 150.886 510.818 155.253C510.576 160.357 506.159 165.27 503.788 169.485C503.677 169.687 503.96 169.909 504.091 169.717C507.318 164.957 512.957 158.7 511.05 152.443C510.173 149.572 508.277 147.389 506.774 144.953C503.849 140.212 504.464 135.138 507.339 130.286C511.232 123.706 516.396 119.48 518.121 111.566C519.11 107.037 519.533 102.388 521.813 98.2838C523.971 94.3922 527.078 91.3396 530.759 89.2978C530.911 89.2068 530.79 88.9137 530.628 89.0047V88.9743Z" fill="#263238"/>
<path d="M569.078 162.43C567.202 159.751 564.882 157.79 565.901 153.727C566.607 150.906 568.513 148.491 569.824 145.984C573.092 139.737 574.958 131.883 571.761 125.475C569.955 121.866 566.879 120.987 564.277 118.348C561.13 115.154 559.97 110.211 558.951 105.663C557.428 98.8398 555.501 91.0768 548.622 89.5303C548.562 89.5202 548.542 89.6213 548.602 89.6415C557.367 92.1887 557.317 103.722 559.839 111.697C560.696 114.406 561.916 117.014 563.813 118.935C566.818 121.987 570.46 122.998 572.013 127.739C573.465 132.176 572.84 137.109 571.226 141.567C569.824 145.438 567.232 148.673 565.901 152.524C565.104 154.828 564.912 157.214 566.022 159.306C566.899 160.944 568.382 162.035 569.31 163.622C570.561 165.755 571.045 168.242 570.974 170.839C570.974 171.102 571.327 171.062 571.337 170.799C571.458 167.645 570.782 164.835 569.078 162.419V162.43Z" fill="#263238"/>
<path d="M548.784 146.59C545.818 158.932 526.846 212.222 499.229 216.892C489.859 218.479 473.872 185.345 483.292 144.579C483.575 143.376 511 143.679 512.331 150.401C512.473 151.119 511.847 169.798 511.071 169.495C510.112 169.111 522.862 155.394 538.96 142.203C546.575 135.967 550.549 139.232 548.784 146.6V146.59Z" fill="#EB9481"/>
<path d="M548.784 146.59C545.818 158.932 526.846 212.222 499.229 216.892C489.859 218.479 474.033 187.861 480.418 151.665L513.572 156.375C513.713 157.093 512.604 166.907 512.604 166.907C512.604 166.907 522.862 155.394 538.96 142.203C546.575 135.967 550.549 139.232 548.784 146.6V146.59Z" fill="#009688"/>
<path d="M512.563 166.998C511.968 176.551 511.171 186.093 510.133 195.604C509.84 198.253 509.578 200.911 509.295 203.559C509.295 203.65 509.437 203.66 509.457 203.579C510.486 198.899 511.232 194.169 511.767 189.408C512.291 184.698 512.725 179.917 512.785 175.176C512.826 172.447 512.816 169.718 512.745 166.998C512.745 166.877 512.573 166.887 512.563 166.998Z" fill="#263238"/>
<path d="M482.405 149.845C482.405 149.845 483.635 136.745 488.85 128.295C492.451 122.452 497.272 113.304 517.728 113.729C522.579 113.83 531.99 119.349 529.912 122.766C527.935 126.02 519.805 119.865 513.017 120.997C513.017 120.997 521.086 126.223 520.804 131.085C520.673 133.258 520.179 139.191 519.14 143.75C519.14 143.75 518.091 143.79 516.749 143.649C516.749 143.649 516.336 148.197 510.96 152.594L482.405 149.835V149.845Z" fill="#EB9481"/>
<path d="M493.177 123.271C496.607 122.21 503.919 120.077 510.506 120.42C517.818 120.805 531.808 123.514 531.475 128.921C531.233 132.884 525.797 132.328 525.797 132.328C525.797 132.328 531.344 134.673 530.336 138.201C529.418 141.425 525.242 140.728 525.242 140.728C525.242 140.728 528.359 142.729 526.886 145.66C525.111 149.188 516.85 143.578 511.968 145.59C510.869 146.044 493.177 123.271 493.177 123.271Z" fill="#EB9481"/>
<path d="M508.811 128.103C512.2 127.638 520.179 128.547 525.726 132.186C525.847 132.267 525.857 132.409 525.726 132.358C518.767 129.649 511.797 128.487 508.811 128.173C508.771 128.173 508.781 128.113 508.811 128.103Z" fill="#263238"/>
<path d="M509.951 119.855C513.34 119.39 521.318 120.299 526.866 123.938C526.987 124.019 526.997 124.161 526.866 124.11C519.906 121.401 512.937 120.239 509.951 119.925C509.911 119.925 509.921 119.865 509.951 119.855Z" fill="#263238"/>
<path d="M508.64 135.512C511.605 135.411 519.785 136.725 525.282 140.606C525.403 140.697 525.403 140.829 525.282 140.778C518.131 137.655 511.605 136.078 508.64 135.583C508.599 135.583 508.609 135.512 508.64 135.512Z" fill="#263238"/>
<path d="M516.669 145.216C516.164 144.842 511.988 143.972 508.125 145.256C508.035 145.286 508.055 145.428 508.156 145.428C510.566 145.297 512.563 145.286 512.604 145.286C510.697 149.592 505.997 152.483 503.929 153.514C503.798 153.575 503.899 153.777 504.03 153.737C508.065 152.635 511.988 149.491 512.916 145.297C513.461 145.327 516.306 145.438 516.638 145.327C516.689 145.307 516.709 145.236 516.669 145.206V145.216Z" fill="#263238"/>
<path opacity="0.1" d="M548.784 146.59C545.818 158.932 526.846 212.222 499.229 216.892C497.726 217.145 496.052 216.568 494.327 215.264L547.281 139.242C549.086 140.141 549.681 142.83 548.784 146.59Z" fill="black"/>
<path d="M524.758 221.521L526.876 195.725C526.876 195.725 519.221 187.447 523.427 177.096C525.555 171.85 535.571 149.613 543.61 140.586C550.357 133.005 560.585 137.958 564.65 142.972C576.32 157.365 582.473 175.145 595.898 218.58L524.758 221.531V221.521Z" fill="#009688"/>
<path d="M545.738 191.086C542.843 191.338 539.918 191.743 537.043 192.642C535.611 193.087 534.199 193.633 532.787 194.229C532.081 194.522 531.375 194.785 530.669 195.038C529.942 195.301 529.166 195.533 528.419 195.523C528.349 195.523 528.339 195.675 528.409 195.685C529.125 195.766 529.811 195.837 530.527 195.766C531.213 195.705 531.909 195.523 532.585 195.321C534.038 194.886 535.48 194.351 536.932 193.896C539.857 192.976 542.782 192.056 545.738 191.45C545.869 191.419 545.869 191.076 545.738 191.086Z" fill="#263238"/>
<path d="M552.536 195.453C550.206 194.927 547.826 194.563 545.455 194.442C544.265 194.381 543.075 194.432 541.875 194.523C541.3 194.563 540.735 194.624 540.16 194.705C539.535 194.785 538.899 194.988 538.274 195.058C538.213 195.058 538.193 195.22 538.264 195.22C538.859 195.19 539.454 195.301 540.039 195.321C540.634 195.341 541.229 195.351 541.824 195.372C543.015 195.412 544.205 195.463 545.395 195.483C547.775 195.523 550.156 195.594 552.526 195.766C552.657 195.766 552.667 195.493 552.546 195.463L552.536 195.453Z" fill="#263238"/>
<path d="M567.555 149.663C580.254 176.722 589.442 226.686 581.797 233.61C573.284 241.323 555.663 203.458 556.349 201.851C556.863 200.638 557.025 172.608 556.248 151.361C555.471 130.134 564.418 142.971 567.565 149.663H567.555Z" fill="#DD6A57"/>
<path d="M556.147 201.821C556.268 198.778 555.814 161.348 555.814 149.319C555.814 138.524 558.971 135.208 564.841 143.972C575.644 160.105 588.262 203.013 587.536 222.289C586.83 240.848 576.29 237.209 567.666 225.494C560.605 215.901 556.157 201.821 556.157 201.821H556.147Z" fill="#009688"/>
<path d="M556.288 206.784C555.249 192.45 554.906 177.996 555.239 163.622C556.278 177.955 556.621 192.42 556.288 206.784Z" fill="#263238"/>
<path d="M555.3 171.982C554.503 170.243 553.989 168.373 553.989 166.463C554.674 168.252 555.169 170.061 555.3 171.982Z" fill="#263238"/>
<path d="M579.648 233.257C572.205 236.774 560.424 231.508 529.519 221.036C525.242 219.591 527.33 186.588 531.97 187.902C537.82 189.56 560.182 197.242 561.745 198.01C574.938 204.499 584.702 230.871 579.648 233.257Z" fill="#EB9481"/>
<path d="M537.063 189.347C537.063 189.347 526.664 184.192 519.937 182.12C510.929 179.34 502.013 180.665 498.301 181.433C490.565 183.06 472.994 192.339 474.78 197.879C476.393 202.892 493.883 192.491 493.883 192.491C493.883 192.491 474.305 200.143 477.362 205.823C480.418 211.504 500.026 198.273 500.026 198.273C500.026 198.273 480.085 206.592 484.16 211.949C487.236 216.002 505.674 205.015 505.674 205.015C505.674 205.015 488.588 212.283 491.573 216.589C494.872 221.339 512.523 212.272 512.523 212.272C521.954 221.926 530.336 223.583 536.398 223.391L542.742 225.585L539.282 190.207L537.053 189.347H537.063Z" fill="#EB9481"/>
<path d="M500.49 189.418C498.16 190.237 495.79 191.045 493.54 192.066C491.291 193.087 489.072 194.189 486.924 195.412C481.658 198.424 478.834 201.133 479.026 200.982C483.585 197.474 491.594 193.694 493.843 192.673C496.092 191.652 498.281 190.52 500.53 189.499C500.591 189.469 500.54 189.398 500.49 189.418Z" fill="#263238"/>
<path d="M504.323 197.495C501.388 198.667 498.432 199.718 495.558 201.022C492.693 202.316 490.081 203.802 487.307 205.288C487.095 205.399 487.226 205.48 487.448 205.369C490.272 203.994 492.996 202.933 495.84 201.588C498.674 200.254 501.478 198.788 504.353 197.555C504.393 197.535 504.363 197.474 504.323 197.484V197.495Z" fill="#263238"/>
<path d="M508.851 203.842C504.282 205.399 499.996 207.805 495.86 210.261C495.658 210.382 495.84 210.463 496.052 210.352C500.328 208.138 503.677 206.369 508.912 204.004C508.993 203.964 508.952 203.812 508.862 203.842H508.851Z" fill="#263238"/>
<path d="M539.393 185.274L544.739 232.923C544.739 232.923 577.056 239.008 583.239 234.369C587.657 231.053 577.006 205.187 562.764 197.282L539.403 185.274H539.393Z" fill="#009688"/>
<path d="M576.249 212.576C575.301 209.503 570.924 201.942 562.764 197.252C562.693 197.211 562.612 197.312 562.683 197.363C568.422 201.447 574.978 209.745 576.138 212.626C576.169 212.697 576.28 212.646 576.259 212.576H576.249Z" fill="#263238"/>
<path d="M553.726 228.435C553.484 223.806 552.99 219.196 552.496 214.587C551.991 209.978 551.497 205.359 550.882 200.759C550.529 198.162 550.196 195.564 549.762 192.976C549.752 192.905 549.631 192.916 549.641 192.976C549.883 197.596 550.357 202.215 550.821 206.814C551.295 211.433 551.81 216.043 552.375 220.652C552.697 223.25 553.06 225.848 553.494 228.435C553.514 228.567 553.736 228.557 553.726 228.425V228.435Z" fill="#263238"/>
<path d="M539.091 184.587C540.795 185.163 559.405 194.482 564.609 198.424C564.67 198.465 564.166 198.526 564.105 198.475C561.725 196.463 541.249 186.588 539.706 185.587C539.696 185.729 540.039 190.176 540.009 190.318C539.988 190.409 539.847 190.449 539.807 190.338C539.716 190.075 538.869 184.496 539.091 184.566V184.587Z" fill="#263238"/>
<path d="M544.739 232.923C555.058 234.743 565.558 236.491 576.058 235.824C584.661 235.197 586.094 232.135 586.79 224.018C587.526 207.218 583.623 190.389 579.094 174.286C581.898 182.262 584.026 190.469 585.62 198.788C586.961 206.592 591.561 231.892 582.422 235.379C578.357 236.946 574 236.896 569.744 236.754C561.281 236.309 552.929 234.864 544.729 232.933L544.739 232.923Z" fill="#263238"/>
<path d="M556.883 139.252C556.954 140.697 547.392 151.371 541.148 152.847C539.111 153.322 541.643 142.254 541.643 142.254L541.229 141.496L535.44 130.842L546.343 118.439L547.947 116.751C547.947 116.751 549.339 119.774 551.033 123.554C551.114 123.726 551.195 123.908 551.275 124.09C551.376 124.302 551.477 124.504 551.558 124.696C551.82 125.262 552.082 125.828 552.334 126.404C552.526 126.839 552.718 127.274 552.899 127.739C553.101 128.204 553.282 128.659 553.474 129.124C555.33 133.743 556.843 138.655 556.883 139.262V139.252Z" fill="#EB9481"/>
<path d="M551.033 123.544C550.367 133.541 544.195 139.302 541.229 141.496L535.44 130.842L546.343 118.439L547.947 116.751C547.947 116.751 549.339 119.774 551.033 123.554V123.544Z" fill="#263238"/>
<path d="M514.53 114.487C515.115 135.775 527.905 137.827 532.484 137.695C536.64 137.574 550.791 136.644 552.405 115.407C554.019 94.1699 543.963 87.7109 534.431 87.4784C524.909 87.2459 513.945 93.1894 514.53 114.477V114.487Z" fill="#EB9481"/>
<path d="M516.659 110.99C517.153 110.909 517.597 110.747 518.081 110.616C518.626 110.464 519.069 110.403 519.453 109.959C519.654 109.716 519.614 109.261 519.402 109.039C518.908 108.523 518.192 108.544 517.536 108.695C516.82 108.857 516.306 109.17 515.862 109.757C515.428 110.323 516.003 111.111 516.659 111V110.99Z" fill="#263238"/>
<path d="M531.254 110.838C530.749 110.808 530.295 110.686 529.801 110.606C529.246 110.515 528.793 110.494 528.369 110.09C528.137 109.868 528.137 109.413 528.329 109.17C528.772 108.604 529.478 108.554 530.154 108.645C530.88 108.736 531.425 108.998 531.929 109.534C532.424 110.05 531.919 110.899 531.254 110.848V110.838Z" fill="#263238"/>
<path d="M528.147 115.417C528.147 115.356 528.258 115.478 528.258 115.538C528.258 116.984 528.48 118.651 529.801 119.096C529.842 119.106 529.842 119.187 529.791 119.177C528.188 118.995 527.895 116.781 528.137 115.407L528.147 115.417Z" fill="#263238"/>
<path d="M529.398 113.87C531.718 113.627 532.02 118.308 529.872 118.52C527.754 118.732 527.451 114.062 529.398 113.87Z" fill="#263238"/>
<path d="M530.326 114.062C530.749 114.305 531.183 114.74 531.677 114.76C532.252 114.78 532.646 114.265 532.989 113.769C533.029 113.719 533.069 113.759 533.069 113.82C533.14 114.709 532.857 115.659 531.909 115.851C531.042 116.033 530.366 115.275 530.084 114.396C530.033 114.234 530.164 113.971 530.326 114.072V114.062Z" fill="#263238"/>
<path d="M520.098 115.639C520.088 115.589 519.987 115.72 519.997 115.771C520.149 117.216 520.078 118.894 518.807 119.47C518.767 119.49 518.777 119.561 518.827 119.551C520.401 119.207 520.471 116.984 520.098 115.639Z" fill="#263238"/>
<path d="M518.696 114.224C516.366 114.224 516.517 118.894 518.686 118.904C520.814 118.904 520.653 114.234 518.696 114.224Z" fill="#263238"/>
<path d="M517.738 114.568C517.375 114.831 517.032 115.296 516.588 115.336C516.074 115.387 515.68 114.891 515.337 114.416C515.297 114.366 515.267 114.416 515.267 114.467C515.267 115.366 515.6 116.286 516.457 116.428C517.244 116.559 517.788 115.771 517.98 114.871C518.01 114.709 517.879 114.457 517.738 114.558V114.568Z" fill="#263238"/>
<path d="M530.255 126.596C530.003 127.011 529.781 127.547 529.287 127.718C528.813 127.88 528.177 127.809 527.693 127.749C527.643 127.749 527.613 127.799 527.653 127.84C528.157 128.284 529.004 128.426 529.63 128.143C530.235 127.87 530.406 127.243 530.417 126.617C530.417 126.526 530.306 126.526 530.265 126.586L530.255 126.596Z" fill="#263238"/>
<path d="M523.316 122.614C523.316 122.614 523.437 124.797 523.628 125.798C523.649 125.889 523.901 125.889 524.244 125.838C524.264 125.838 524.274 125.838 524.284 125.838C526.11 125.768 527.764 124.807 528.561 123.15C528.611 123.038 528.46 122.958 528.389 123.038C527.259 124.272 525.847 124.807 524.294 125.141C524.173 124.878 524.213 121.391 524.052 121.411C523.497 121.472 522.489 122.058 521.883 122.371C521.5 117.833 521.843 113.264 521.389 108.756C521.369 108.594 521.137 108.594 521.117 108.746C520.421 113.507 520.744 118.742 521.026 123.433C521.056 124.019 522.973 122.867 523.336 122.614H523.316Z" fill="#263238"/>
<path d="M552.123 118.166C547.18 116.579 546.333 111.717 546.333 111.717C540.221 109.999 536.499 105.895 536.116 105.471C536.317 105.885 537.739 108.897 538.526 110.413C524.819 109.665 519.342 99.9516 519.342 99.9516C515.569 104.854 515.065 107.745 514.621 109.211C514.621 109.211 513.451 101.003 516.951 94.9381C521.238 87.5187 528.45 87.8725 528.45 87.8725C528.45 87.8725 538.435 83.4048 547.654 91.1475C557.579 99.4968 552.123 118.166 552.123 118.166Z" fill="#263238"/>
<path d="M528.066 109.524C530.356 110.444 532.827 110.949 535.258 111.151C535.278 111.151 535.278 111.121 535.258 111.121C531.344 110.545 527.703 109.009 524.667 106.461C523.376 105.38 522.236 104.157 521.248 102.802C520.219 101.377 519.18 99.6586 518.807 97.9201C518.777 97.7886 518.575 97.8291 518.605 97.9605C518.999 99.79 519.382 101.478 520.36 103.105C521.278 104.652 522.499 106.047 523.911 107.149C525.171 108.139 526.584 108.918 528.076 109.524" fill="#263238"/>
<path d="M550.327 123.615C549.994 123.787 549.682 123.908 549.379 123.979C549.026 124.09 548.693 124.12 548.391 124.12C547.906 124.12 547.483 124.029 547.13 123.867C546.797 123.736 546.504 123.544 546.262 123.342C545.637 122.826 545.324 122.25 545.324 122.25L545.849 116.468C545.849 116.468 549.712 109.332 552.879 110.646C556.066 111.95 553.696 121.917 550.337 123.635L550.327 123.615Z" fill="#EB9481"/>
<path d="M552.123 113.466C552.183 113.456 552.203 113.537 552.153 113.557C549.803 114.841 548.774 117.277 548.138 119.753C548.764 118.753 549.702 118.146 551.023 118.874C551.094 118.914 551.043 119.015 550.973 119.015C549.944 118.914 549.228 119.177 548.643 120.057C548.229 120.683 547.977 121.451 547.705 122.149C547.614 122.381 547.2 122.311 547.261 122.048C547.261 122.028 547.261 122.007 547.271 121.987C546.847 118.854 548.784 114.164 552.123 113.466Z" fill="#263238"/>
<path d="M549.934 122.755C549.883 123.301 549.409 123.705 548.865 123.655C548.32 123.604 547.917 123.129 547.967 122.583C548.017 122.038 548.492 121.643 549.036 121.684C549.581 121.734 549.984 122.209 549.934 122.755Z" fill="white"/>
<path d="M551.77 121.047C551.739 121.431 551.396 121.714 551.013 121.684C550.63 121.654 550.347 121.31 550.378 120.926C550.408 120.542 550.751 120.259 551.134 120.289C551.517 120.319 551.8 120.663 551.77 121.047Z" fill="white"/>
<path d="M514.5 113.173C514.732 122.119 517.829 132.53 526.654 136.381C527.844 136.977 529.125 137.321 530.406 137.695C518.716 136.381 513.481 123.726 514.5 113.173Z" fill="#263238"/>
<path d="M125.082 289.083L128.451 309.32L151.257 446.961H154.938L138.346 309.32L135.895 289.083H125.082Z" fill="#455A64"/>
<path opacity="0.1" d="M135.895 289.083H125.082L128.451 309.32H138.346L135.895 289.083Z" fill="black"/>
<path d="M53.4584 446.961H57.1399L79.9454 309.32L83.3143 289.083H72.5016L70.0506 309.32L53.4584 446.961Z" fill="#455A64"/>
<path opacity="0.1" d="M72.5015 289.083L70.0505 309.319H79.9454L83.3142 289.083H72.5015Z" fill="black"/>
<path d="M9.57227 446.961H13.2538L36.0593 309.32L39.4282 289.083H28.6155L26.1645 309.32L9.57227 446.961Z" fill="#455A64"/>
<path opacity="0.1" d="M26.1645 309.319H36.0593L39.4282 289.083H28.6155L26.1645 309.319Z" fill="black"/>
<path d="M15.4122 298.585H158.004V280.946H95.4482L74.4179 158.346H21.7767L15.4122 298.585Z" fill="#455A64"/>
<path opacity="0.1" d="M15.4122 298.585H24.5202L30.4511 158.346H21.7767L15.4122 298.585Z" fill="black"/>
<path d="M179.973 445.808C176.785 446.213 89.235 428.048 86.4108 425.299C86.0679 424.996 87.5405 417.031 89.7293 406.154L89.7696 405.942C91.1313 399.048 114.814 342.929 114.814 342.929L171.631 356.999L147.555 409.136C147.555 409.136 158.388 416.495 167.698 423.51C167.698 423.52 167.718 423.53 167.718 423.54C173.467 427.846 178.43 431.718 179.489 432.991C182.252 436.307 183.14 445.444 179.963 445.818L179.973 445.808Z" fill="#AD6359"/>
<path d="M179.973 445.798C176.796 446.202 89.2452 428.038 86.4109 425.299C86.0679 424.986 87.5506 417.031 89.7394 406.144L89.7797 405.942C90.2841 403.375 93.9051 393.954 98.2322 383.148C107.582 385.372 141.09 393.378 153.274 396.764L147.575 409.116C147.575 409.116 158.408 416.475 167.718 423.49C167.718 423.5 167.728 423.5 167.728 423.51C173.477 427.816 178.44 431.697 179.499 432.961C182.262 436.286 183.16 445.424 179.973 445.788V445.798Z" fill="#EBEBEB"/>
<path d="M180.275 446.213C176.997 446.597 89.3863 428.2 86.4814 425.38C85.3719 424.319 86.895 410.501 91.2221 395.784L147.696 407.711C147.696 407.711 177.007 429.575 179.852 433.011C182.686 436.438 183.543 445.829 180.275 446.213Z" fill="#009688"/>
<path d="M179.751 442.432C165.136 438.986 105.878 426.472 91.1717 424.177C91.0506 424.157 91.0305 424.238 91.1515 424.268C105.555 427.998 164.914 440.037 179.7 442.675C180.013 442.736 180.064 442.503 179.751 442.432Z" fill="#263238"/>
<path d="M151.993 410.157C146.133 408.843 138.881 409.49 134.221 413.543C134.039 413.705 134.261 413.958 134.463 413.897C140.353 412.27 145.83 411.279 151.942 410.905C152.376 410.875 152.417 410.248 151.993 410.157Z" fill="#263238"/>
<path d="M156.159 412.876C150.298 411.562 143.046 412.209 138.386 416.263C138.205 416.424 138.427 416.677 138.628 416.616C144.519 414.989 149.996 413.998 156.108 413.624C156.542 413.594 156.582 412.967 156.159 412.876Z" fill="#263238"/>
<path d="M160.324 415.606C154.464 414.292 147.212 414.938 142.552 418.992C142.37 419.153 142.592 419.406 142.794 419.346C148.685 417.718 154.161 416.728 160.274 416.354C160.708 416.323 160.748 415.697 160.324 415.606Z" fill="#263238"/>
<path d="M164.5 418.335C158.64 417.021 151.388 417.667 146.728 421.721C146.546 421.882 146.768 422.135 146.97 422.075C152.86 420.447 158.337 419.457 164.45 419.083C164.883 419.052 164.924 418.426 164.5 418.335Z" fill="#263238"/>
<path opacity="0.1" d="M180.275 446.213C179.257 446.324 170.048 444.636 157.752 442.139L165.66 421.347C172.337 426.512 178.611 431.516 179.862 433.022C182.686 436.438 183.554 445.829 180.275 446.223V446.213Z" fill="black"/>
<path d="M149.824 410.521L89.5174 396.249C89.5174 396.249 140.151 284.534 135.734 278.652C133.525 275.71 77.3733 274.841 59.5102 259.659C36.3113 239.938 51.8747 209.796 51.8747 209.796L114.582 207.926C114.582 207.926 113.826 221.066 116.277 223.047C117.891 224.371 192.611 230.669 200.811 255.939C210.878 286.92 149.824 410.511 149.824 410.511V410.521Z" fill="#263238"/>
<path d="M146.455 273.446C145.195 272.364 143.298 272.233 141.725 271.97C132.677 270.454 123.62 268.917 114.572 267.401C106.1 265.976 97.5866 264.713 89.1543 263.075C82.1745 261.721 75.0736 259.901 69.0318 256.1C62.99 252.3 58.8041 246.589 56.6961 239.917C54.588 233.246 54.4367 226.08 55.1024 219.176C55.2638 217.488 55.5765 215.8 55.8892 214.132C55.9093 214 55.7076 213.96 55.6874 214.091C53.3877 226.979 53.186 241.939 62.8185 252.209C67.5087 257.212 73.9641 260.154 80.5404 262.064C87.9641 264.217 95.7306 265.228 103.346 266.512C112.393 268.028 121.451 269.554 130.509 271.06C134.866 271.788 139.284 272.354 143.611 273.264C144.438 273.436 145.376 273.678 145.971 274.305C146.788 275.174 146.566 276.408 146.355 277.449C145.921 279.592 145.346 281.704 144.731 283.797C139.788 300.717 104.254 380.086 103.275 381.946C103.174 382.138 103.477 382.289 103.588 382.097C111.889 367.259 138.245 306.267 143.722 290.256C145.124 286.172 146.415 282.028 147.283 277.802C147.595 276.276 147.777 274.558 146.455 273.426V273.446Z" fill="#37474F"/>
<path d="M152.608 395.864C150.964 395.096 135.128 391.316 131.639 390.497C124.649 388.85 102.59 384.028 98.5449 383.563C98.4339 383.553 98.4037 383.725 98.5046 383.765C101.924 384.958 115.964 388.385 119.454 389.193C126.464 390.8 150.551 396.168 152.548 396.198C152.719 396.198 152.78 395.955 152.618 395.885L152.608 395.864Z" fill="#37474F"/>
<path d="M268.451 447.163C265.415 448.194 176.009 447.86 172.69 445.738C172.297 445.505 172.156 437.409 172.136 426.31V426.088C172.105 419.062 169.947 359.021 169.947 359.021L225.906 358.556L229.396 417.678C229.396 417.678 241.47 422.722 251.99 427.745C252 427.755 252.02 427.755 252.02 427.776C258.506 430.848 264.144 433.658 265.435 434.689C268.804 437.388 271.487 446.162 268.451 447.163Z" fill="#AD6359"/>
<path d="M268.451 447.153C265.405 448.174 175.999 447.85 172.69 445.727C172.297 445.505 172.156 437.398 172.135 426.31V426.087C172.135 425.602 172.135 425.097 172.115 424.602C172.115 424.238 172.115 423.884 172.095 423.52C172.095 422.994 172.075 422.459 172.055 421.913C171.934 417.243 171.702 409.662 171.429 401.363L228.428 400.989L229.406 417.667C229.406 417.667 241.48 422.721 252 427.735C252.01 427.745 252.03 427.745 252.03 427.755C258.516 430.828 264.154 433.638 265.445 434.669C268.804 437.378 271.507 446.142 268.461 447.143L268.451 447.153Z" fill="#EBEBEB"/>
<path d="M268.824 447.496C265.687 448.527 176.17 447.982 172.771 445.798C171.48 444.979 170.219 431.142 171.54 415.848L229.255 416.273C229.255 416.273 262.318 431.849 265.798 434.649C269.258 437.449 271.961 446.475 268.834 447.507L268.824 447.496Z" fill="#009688"/>
<path d="M267.563 443.898C252.565 443.433 191.996 442.998 177.138 443.685C177.017 443.685 177.017 443.776 177.138 443.776C191.996 444.555 252.565 444.504 267.563 444.14C267.876 444.14 267.876 443.908 267.563 443.898Z" fill="#263238"/>
<path d="M233.945 417.809C227.944 417.688 220.964 419.77 217.202 424.672C217.061 424.864 217.323 425.067 217.504 424.976C222.951 422.206 228.125 420.144 234.046 418.547C234.46 418.436 234.379 417.819 233.945 417.809Z" fill="#263238"/>
<path d="M238.575 419.649C232.574 419.527 225.594 421.61 221.831 426.512C221.69 426.704 221.952 426.906 222.134 426.815C227.581 424.046 232.755 421.984 238.676 420.397C239.089 420.286 239.009 419.659 238.575 419.659V419.649Z" fill="#263238"/>
<path d="M243.195 421.488C237.193 421.367 230.213 423.449 226.451 428.352C226.31 428.544 226.572 428.746 226.754 428.655C232.2 425.885 237.375 423.823 243.295 422.236C243.709 422.125 243.628 421.498 243.195 421.498V421.488Z" fill="#263238"/>
<path d="M247.824 423.328C241.823 423.207 234.843 425.289 231.081 430.191C230.94 430.383 231.202 430.586 231.383 430.495C236.83 427.725 242.004 425.663 247.925 424.066C248.339 423.955 248.258 423.338 247.824 423.328Z" fill="#263238"/>
<path d="M234.994 415.848L169.422 415.262C169.422 415.262 170.209 311.24 165.257 304.902C158.66 296.452 66.3992 296.644 46.5995 269.079C28.8272 244.325 43.8257 209.29 43.8257 209.29L113.705 207.208C113.705 207.208 111.526 218.327 107.229 229.264C107.229 229.264 191.401 244.83 214.983 270.707C230.899 288.173 234.984 415.848 234.984 415.848H234.994Z" fill="#263238"/>
<path d="M119.514 224.462C117.497 224.816 115.5 225.635 113.594 226.363C111.586 227.131 109.609 228 107.683 228.94C103.86 230.81 100.219 232.943 96.6282 235.207C96.5172 235.278 96.6282 235.43 96.7391 235.379C100.522 233.408 104.425 231.639 108.339 229.951C110.225 229.142 112.101 228.324 113.987 227.515C115.883 226.696 117.901 225.999 119.696 224.988C119.928 224.857 119.807 224.412 119.524 224.462H119.514Z" fill="#37474F"/>
<path d="M115.329 207.178C114.532 210.372 113.826 213.596 112.918 216.76C112.504 218.216 112.091 219.691 111.536 221.107C111.072 222.299 110.376 223.654 108.994 223.917C107.411 224.22 106.957 222.865 107.088 221.551C107.229 220.086 107.602 218.62 107.895 217.185C108.228 215.527 108.561 213.869 108.863 212.201C109.014 211.372 109.166 210.534 109.307 209.705C109.347 209.492 109.499 207.895 109.61 207.44C109.62 207.481 109.65 207.511 109.7 207.511H109.751C109.751 207.511 109.842 207.471 109.852 207.42C109.872 207.299 109.862 207.269 109.771 207.178C109.731 207.137 109.67 207.137 109.63 207.168C109.327 207.329 109.307 207.754 109.206 208.057C108.944 208.866 108.682 209.674 108.45 210.493C108.006 212.019 107.582 213.546 107.189 215.092C106.805 216.629 106.422 218.175 106.049 219.712C105.767 220.864 105.434 222.077 105.736 223.26C106.079 224.553 107.108 225.2 108.238 225.301C108.187 225.402 108.117 225.504 108.066 225.615C107.925 225.928 107.824 226.262 107.703 226.585C107.582 226.919 107.471 227.242 107.38 227.586C107.34 227.748 107.31 227.909 107.29 228.081C107.269 228.263 107.31 228.445 107.29 228.637C107.249 228.92 107.643 229.102 107.784 228.819C107.865 228.657 107.986 228.526 108.086 228.374C108.187 228.212 108.258 228.02 108.318 227.838C108.429 227.515 108.52 227.202 108.601 226.868C108.682 226.545 108.782 226.221 108.843 225.898C108.883 225.706 108.883 225.504 108.903 225.311C109.549 225.251 110.195 225.018 110.739 224.614C111.687 223.896 112.242 222.795 112.646 221.693C113.13 220.359 113.503 218.984 113.876 217.619C114.804 214.243 115.591 210.806 115.914 207.319C115.944 206.945 115.429 206.814 115.339 207.198L115.329 207.178Z" fill="#37474F"/>
<path d="M73.7724 215.001C73.4799 216.588 73.2984 218.185 72.9353 219.762C72.5822 221.299 72.1586 222.835 71.6543 224.341C71.1701 225.776 70.575 227.212 69.7076 228.465C68.8704 229.668 67.7609 230.719 66.6111 231.629C64.3618 233.418 61.82 234.843 59.1168 235.814C57.7552 236.299 56.3632 236.723 54.9511 237.037C54.2148 237.199 53.4684 237.33 52.722 237.431C52.0967 237.512 51.4814 237.532 50.9266 237.845C50.6846 237.977 50.7249 238.351 50.9569 238.472C51.9151 238.937 53.2566 238.684 54.2652 238.573C55.4554 238.452 56.6456 238.25 57.8056 237.947C60.1456 237.35 62.4151 236.36 64.4929 235.116C66.5304 233.903 68.5779 232.387 70.0808 230.527C71.6442 228.607 72.5116 226.353 73.0664 223.957C73.7321 221.096 74.1961 217.983 74.0448 215.032C74.0448 214.86 73.7724 214.829 73.7422 215.011L73.7724 215.001Z" fill="#37474F"/>
<path d="M175.212 309.117C175.041 307.227 174.677 305.327 173.981 303.548C172.529 299.818 169.432 297.938 165.69 296.988C161.273 295.866 156.713 295.199 152.215 294.471C147.626 293.723 143.016 293.056 138.417 292.419C129.087 291.115 119.736 289.912 110.447 288.345C101.198 286.789 91.9886 284.868 83.0117 282.149C74.761 279.652 66.2884 276.559 59.6817 270.818C45.4598 258.466 44.9454 237.765 46.6803 220.439C46.9224 217.993 47.225 215.557 47.5175 213.111C47.5376 212.98 47.3359 212.939 47.3258 213.071C46.1961 222.825 44.895 232.64 45.8633 242.465C46.65 250.491 49.0002 258.557 53.6399 265.228C58.4512 272.152 65.5823 276.62 73.2783 279.743C81.6904 283.15 90.5866 285.444 99.4526 287.304C117.891 291.176 136.702 292.813 155.261 295.997C157.551 296.391 159.83 296.806 162.11 297.25C164.198 297.655 166.336 298.039 168.293 298.908C172.509 300.798 173.709 304.902 174.193 309.158C175.958 324.684 178.581 395.349 178.561 397.826C178.561 398.048 178.894 398.028 178.904 397.805C179.408 371.676 176.977 329.071 175.212 309.107V309.117Z" fill="#37474F"/>
<path d="M169.231 340.432C169.14 333.599 168.938 336.601 168.787 329.778C168.646 323.339 168.787 316.779 167.536 310.421C167.032 307.854 166.568 304.468 163.824 303.285C162.412 302.678 160.849 302.355 159.366 301.961C157.752 301.536 156.128 301.122 154.494 300.768C146.96 299.141 139.344 298.12 131.709 297.089C131.568 297.068 131.507 297.271 131.659 297.301C138.114 298.544 144.569 299.818 150.974 301.273C154.182 302.001 157.379 302.769 160.546 303.639C161.847 303.992 163.612 304.245 164.53 305.327C165.478 306.449 165.761 308.268 166.084 309.643C167.556 315.88 167.445 322.389 167.617 328.747C167.788 335.348 167.95 332.113 168.141 338.714C168.353 346.113 168.545 353.542 169.059 360.931C169.069 361.123 169.372 361.123 169.372 360.931C169.513 354.098 169.331 347.265 169.231 340.432Z" fill="#37474F"/>
<path d="M228.761 402.445C226.986 402.061 210.716 401.818 207.125 401.778C199.944 401.697 177.36 401.798 173.316 402.233C173.205 402.243 173.205 402.425 173.316 402.435C176.916 402.849 191.36 403.132 194.941 403.152C202.133 403.193 226.804 403.173 228.761 402.768C228.932 402.728 228.932 402.485 228.761 402.445Z" fill="#37474F"/>
<path d="M107.663 229.446C120.533 230.861 133.333 233.762 145.78 237.289C158.337 240.847 170.663 245.275 182.565 250.632C189.252 253.644 195.718 257.01 202.143 260.548C202.274 260.619 202.143 260.801 202.022 260.74C190.503 254.726 178.45 249.54 166.255 245.093C154.101 240.655 141.654 237.006 129.006 234.257C121.885 232.7 114.713 231.498 107.532 230.295C107.058 230.214 107.189 229.395 107.663 229.446Z" fill="#37474F"/>
<path d="M36.3314 229.981C36.5331 230.204 118.475 224.189 118.475 224.189L117.89 218.933C117.89 218.933 121.794 214.839 118.778 203.994C112.403 181.038 99.6743 135.239 95.3876 130.205C90.1729 124.089 81.1152 122.199 74.4481 126.131C60.4582 134.379 39.7708 193.946 34.304 208.027C31.6109 214.971 36.7348 219.378 37.5518 222.643C37.5518 222.643 36.0691 229.708 36.3213 229.991L36.3314 229.981Z" fill="#009688"/>
<path d="M114.501 218.58C80.4092 220.015 43.3617 222.653 40.3862 222.805C40.245 222.805 40.245 223.037 40.3862 223.027C76.1326 222.532 111.556 219.317 114.501 218.903C114.703 218.873 114.713 218.569 114.501 218.58Z" fill="#263238"/>
<path d="M91 145.043C85.987 144.154 80.4092 132.803 79.7435 125.828C79.7031 125.353 82.0432 121.522 84.6757 116.731C86.2593 113.82 87.9538 110.545 89.2853 107.441L106.684 120.541C106.684 120.541 101.984 126.222 99.6945 131.65C99.5028 132.105 99.3717 132.55 99.2809 132.985C99.2608 133.045 99.2507 133.126 99.2204 133.207C98.5749 135.795 95.8515 145.892 91 145.043Z" fill="#FFC4C0"/>
<path d="M99.281 132.985C99.2609 133.045 99.2508 133.116 99.2205 133.197C98.575 133.035 97.8992 132.772 97.173 132.459C86.0375 127.354 89.3156 112.425 90.4655 108.331L94.8127 111.606L106.684 120.552C106.684 120.552 101.974 126.232 99.6946 131.66C99.5029 132.115 99.3617 132.55 99.2709 132.985H99.281Z" fill="#263238"/>
<path d="M120.12 86.1034C120.12 86.1034 126 90.3083 125.667 97.202C125.334 104.096 122.228 110.686 121.582 110.888C120.937 111.09 120.12 86.1034 120.12 86.1034Z" fill="#263238"/>
<path d="M89.4769 87.6802C86.0677 94.7558 86.6729 116.812 91.2118 122.411C97.7881 130.528 110.194 133.126 117.487 124.837C124.558 116.801 123.267 88.0643 118.042 82.8081C110.356 75.0653 94.4999 77.2285 89.4668 87.6802H89.4769Z" fill="#FFC4C0"/>
<path d="M108.409 104.864C108.399 104.803 108.298 104.935 108.298 104.995C108.379 106.481 108.217 108.2 106.886 108.715C106.846 108.735 106.846 108.806 106.896 108.796C108.53 108.533 108.712 106.249 108.399 104.854L108.409 104.864Z" fill="#263238"/>
<path d="M107.047 103.348C104.657 103.216 104.576 108.018 106.795 108.139C108.974 108.25 109.055 103.459 107.047 103.348Z" fill="#263238"/>
<path d="M116.993 105.218C117.003 105.157 117.104 105.288 117.104 105.349C117.033 106.835 117.204 108.543 118.536 109.059C118.576 109.079 118.576 109.15 118.526 109.14C116.892 108.877 116.69 106.603 116.993 105.208V105.218Z" fill="#263238"/>
<path d="M118.334 103.691C120.725 103.55 120.836 108.351 118.617 108.483C116.438 108.614 116.327 103.813 118.334 103.691Z" fill="#263238"/>
<path d="M105.151 100.235C105.807 100.103 106.392 99.8606 107.037 99.6685C107.753 99.4461 108.349 99.335 108.843 98.7184C109.105 98.3848 109.034 97.7682 108.732 97.4852C108.046 96.818 107.098 96.8787 106.22 97.1112C105.272 97.3639 104.596 97.8086 104.021 98.6173C103.467 99.3956 104.284 100.417 105.151 100.245V100.235Z" fill="#263238"/>
<path d="M120.14 99.6382C119.474 99.5169 118.889 99.2945 118.243 99.1126C117.517 98.9003 116.922 98.8093 116.418 98.2028C116.145 97.8794 116.206 97.2628 116.498 96.9696C117.174 96.2823 118.122 96.3227 119.01 96.535C119.968 96.7675 120.644 97.192 121.239 97.9804C121.814 98.7385 121.017 99.7898 120.15 99.6281L120.14 99.6382Z" fill="#263238"/>
<path d="M105.756 117.762C106.089 118.136 106.402 118.641 106.936 118.722C107.451 118.803 108.066 118.611 108.55 118.459C108.601 118.449 108.641 118.5 108.611 118.54C108.187 119.086 107.35 119.379 106.674 119.217C106.009 119.056 105.726 118.449 105.605 117.823C105.585 117.732 105.706 117.711 105.756 117.762Z" fill="#263238"/>
<path d="M107.622 113.425C108.359 114.77 109.529 115.558 110.83 115.912C111.405 116.074 112.03 116.134 112.635 116.124C112.756 116.124 112.877 116.124 112.988 116.104C113.099 116.104 113.2 116.094 113.311 116.074C113.483 116.064 113.594 115.922 113.634 115.76C113.634 115.7 113.634 115.649 113.634 115.599V115.457C113.755 114.315 113.765 112.576 113.765 112.576C114.169 112.819 116.226 113.921 116.226 113.324C116.277 108.361 116.337 102.852 115.339 97.9096C115.318 97.7479 115.066 97.7681 115.066 97.9298C114.824 102.691 115.429 107.462 115.268 112.253C114.612 111.95 113.533 111.394 112.938 111.363C112.777 111.394 112.978 114.729 112.888 115.245C112.888 115.245 112.888 115.265 112.877 115.295C110.951 115.407 109.549 114.729 107.774 113.304C107.673 113.213 107.542 113.304 107.622 113.425Z" fill="#263238"/>
<path d="M111.98 115.498C111.98 115.498 110.89 116.761 109.509 117.135C108.994 117.277 108.46 117.307 107.905 117.115C106.775 116.721 106.815 115.659 107.098 114.77C107.32 114.032 107.713 113.415 107.713 113.415C107.713 113.415 109.287 115.124 111.98 115.498Z" fill="#263238"/>
<path d="M109.509 117.135C108.994 117.277 108.46 117.307 107.905 117.115C106.775 116.721 106.815 115.659 107.098 114.77C108.328 114.992 109.498 115.922 109.509 117.135Z" fill="#FF9ABB"/>
<path d="M89.4668 107.512C91.8573 108.301 94.7824 101.124 95.6195 98.3544C96.3659 95.9183 97.3342 88.1452 97.4553 87.6196C97.5864 87.094 107.784 94.7458 113.886 93.0982C119.988 91.4607 124.154 86.0933 124.295 83.5562C124.437 81.0191 117.053 74.3882 110.547 73.9131C104.042 73.438 95.0446 81.5346 95.0446 81.5346C95.0446 81.5346 98.121 78.017 98.0201 77.7238C97.9293 77.4307 93.6829 79.0177 92.8458 81.9995C92.8458 81.9995 93.7636 78.2494 93.4409 78.1686C93.1282 78.0877 89.7795 81.2515 90.4654 83.7078C90.4654 83.7078 86.6123 86.9019 86.1786 90.5004C85.7449 94.0888 86.6426 106.572 89.4466 107.502L89.4668 107.512Z" fill="#263238"/>
<path d="M118.223 91.9257C116.357 92.7343 114.491 93.6238 112.454 93.8462C110.245 94.0888 107.975 93.4823 105.948 92.6534C103.87 91.8044 101.994 90.5914 100.29 89.1257C98.8069 87.842 97.4957 86.3056 95.902 85.1533C95.5086 84.8702 95.0245 85.4363 95.2666 85.8204C97.647 89.5705 101.924 92.7545 106.079 94.1798C110.457 95.6757 114.622 94.7862 118.254 91.9762C118.274 91.956 118.254 91.9155 118.233 91.9257H118.223Z" fill="#263238"/>
<path d="M93.1987 105.915C93.1987 105.915 89.8298 98.041 86.3601 99.1124C82.8904 100.174 84.4336 110.888 87.8025 113.021C91.1713 115.144 93.1987 112.051 93.1987 112.051V105.915Z" fill="#FFC4C0"/>
<path d="M86.8746 102.165C86.814 102.145 86.7838 102.226 86.8342 102.256C89.1844 103.833 90.0316 106.491 90.4653 109.16C89.9005 108.048 88.9725 107.31 87.51 107.957C87.4293 107.987 87.4797 108.109 87.5504 108.109C88.6498 108.109 89.3659 108.442 89.9005 109.433C90.2737 110.13 90.4653 110.959 90.6872 111.727C90.7578 111.98 91.2016 111.95 91.1613 111.667C91.1613 111.646 91.1613 111.626 91.1613 111.606C91.9077 108.351 90.314 103.237 86.8746 102.175V102.165Z" fill="#263238"/>
<path d="M98.5043 136.209L93.0172 144.619L82.1138 120.299L78.7146 124.908L88.2968 151.856L92.9063 145.812L95.6498 151.634L99.0792 141.091L98.5043 136.209Z" fill="#EBEBEB"/>
<path d="M78.7145 124.908C81.7203 134.167 84.9177 143.355 88.1857 152.513L88.5387 152.048L93.1281 145.984L92.6439 145.933L95.4379 151.725L95.6799 152.22C96.85 148.531 97.9595 144.811 99.069 141.091C97.8485 144.579 96.6079 148.066 95.4278 151.563L95.8312 151.543L93.1583 145.69L92.9667 145.266L92.6742 145.64L88.0344 151.664L88.5891 151.755C85.4018 142.769 82.154 133.803 78.7145 124.918V124.908Z" fill="#263238"/>
<path d="M71.1195 141.971C76.899 165.906 94.3486 207.258 101.308 212.616C107.471 217.356 138.164 211.858 151.771 209.664C156.864 208.845 150.803 174.104 145.376 175.095C138.87 176.277 117.477 177.975 116.176 176.823C114.743 175.55 97.5359 150.502 85.0085 135.522C73.6613 121.947 68.9408 132.924 71.1195 141.971Z" fill="#FFC4C0"/>
<path d="M164.379 173.235C174.909 173.821 177.522 175.6 186.67 171.365C192.671 168.585 197.019 171.233 192.833 176.702C185.984 185.647 172.236 187.74 167.264 187.093L164.379 173.225V173.235Z" fill="#FFC4C0"/>
<path d="M135.219 177.753C135.219 177.753 147.999 173.619 159.275 173.134C167.082 172.8 184.138 173.963 196.827 193.562C199.843 198.212 200.841 206.975 193.166 201.173C187.719 197.049 185.51 192.794 181.899 190.974C181.899 190.974 181.849 202.275 177.088 205.116C174.96 206.389 169.069 209.715 164.107 211.655C164.107 211.655 163.401 210.685 162.664 209.331C162.664 209.331 157.964 211.565 150.379 209.3L135.189 177.763L135.219 177.753Z" fill="#FFC4C0"/>
<path d="M166.769 174.003C169.967 176.57 176.654 182.11 180.537 188.559C184.865 195.715 191.269 210.665 185.964 213.808C182.071 216.113 179.125 210.624 179.125 210.624C179.125 210.624 180.477 217.367 176.503 218.681C172.892 219.873 170.865 215.486 170.865 215.486C170.865 215.486 170.975 219.712 167.274 220.197C162.816 220.773 163.31 211.817 158.287 208.492C157.157 207.744 166.759 174.003 166.759 174.003H166.769Z" fill="#FFC4C0"/>
<path d="M172.236 191.874C174.849 194.775 179.095 202.902 179.216 210.473C179.216 210.645 179.095 210.736 179.055 210.584C177.148 202.275 173.779 194.947 172.166 191.915C172.145 191.874 172.206 191.844 172.236 191.874Z" fill="#263238"/>
<path d="M165.156 196.453C167.153 199.192 171.147 207.754 171.016 215.436C171.016 215.608 170.875 215.689 170.844 215.537C169.21 206.773 166.507 199.607 165.075 196.494C165.055 196.453 165.115 196.423 165.145 196.453H165.156Z" fill="#263238"/>
<path d="M148.674 216.073L142.037 172.992L116.942 175.58C108.046 163.622 90.2435 139.716 82.8501 132.368C74.1757 123.756 67.6397 129.224 70.1311 141.445C75.8198 169.384 95.3573 211.221 101.026 215.527C109.145 221.703 148.684 216.073 148.684 216.073H148.674Z" fill="#009688"/>
<path d="M138.658 214.283C137.731 211.494 135.834 199.516 135.39 196.524C134.957 193.592 133.595 181.473 133.151 178.4C133.131 178.228 133.363 178.147 133.383 178.319C133.867 181.351 138.86 211.281 138.81 214.253C138.81 214.354 138.689 214.374 138.658 214.283Z" fill="#263238"/>
<path d="M118.274 218.418C114.754 218.519 111.213 218.397 107.703 217.953C105.524 217.639 103.225 217.275 101.278 216.103C100.148 215.325 99.291 214.233 98.4639 213.172C90.5158 201.497 85.6541 187.881 80.4899 174.812C78.0288 168.191 75.6585 161.54 73.5302 154.798C75.8299 160.691 78.8962 168.757 81.2262 174.518C86.6123 187.477 91.4337 200.9 99.0489 212.737C100.088 214.132 101.127 215.577 102.741 216.184C104.324 216.861 106.059 217.205 107.774 217.508C111.233 218.084 114.764 218.306 118.274 218.408V218.418Z" fill="#263238"/>
<path d="M75.8099 161.439C74.8516 160.226 73.9338 158.922 73.5101 157.426C74.2263 158.77 75.1542 160.064 75.8099 161.439Z" fill="#263238"/>
<path d="M97.4149 150.209C104.203 158.123 109.942 166.917 116.68 174.872C116.781 175.004 116.942 175.115 117.033 175.216C118.153 175.266 119.454 175.115 120.674 175.024L127.785 174.337L142.027 172.942H142.068V172.972L142.199 174.155L141.997 172.982L142.037 173.012C134.362 174.134 126.676 175.186 118.939 175.863C118.213 175.903 117.548 176.014 116.801 175.903C116.509 175.772 116.347 175.57 116.145 175.378C109.438 167.503 103.679 158.416 97.4149 150.198V150.209Z" fill="#263238"/>
<path d="M99.1399 150.714C99.9468 152.028 100.713 153.443 100.955 154.98C100.401 153.554 99.6342 152.159 99.1399 150.714Z" fill="#263238"/>
<path d="M0.766602 447.032C202.082 446.415 427.908 446.405 629.234 447.032C427.918 447.658 202.092 447.648 0.766602 447.032Z" fill="#263238"/>
<path d="M350.236 85.5342C364.074 66.0288 359.513 38.9752 340.049 25.1082C320.585 11.2413 293.589 15.8123 279.752 35.3177C265.915 54.8231 270.476 81.8768 289.94 95.7437C309.403 109.611 336.399 105.04 350.236 85.5342Z" fill="#009688"/>
<path opacity="0.1" d="M358.132 63.937C359.539 41.148 342.245 21.5311 319.504 20.1213C296.764 18.7115 277.189 36.0427 275.782 58.8316C274.376 81.6206 291.67 101.238 314.41 102.647C337.15 104.057 356.725 86.7259 358.132 63.937Z" fill="black"/>
<path d="M355.37 66.1116C357.968 44.8784 342.897 25.5551 321.709 22.9517C300.522 20.3484 281.24 35.4508 278.642 56.6841C276.044 77.9173 291.114 97.2407 312.302 99.844C333.49 102.447 352.772 87.3448 355.37 66.1116Z" fill="white"/>
<path opacity="0.5" d="M354.761 53.1712C337.16 63.8554 308.232 81.3929 292.063 90.9955C287.525 87.1545 283.883 82.2925 281.503 76.7634L334.971 27.1026C344.927 32.3588 352.31 41.8401 354.751 53.1712H354.761Z" fill="#EBEBEB"/>
<path opacity="0.5" d="M355.608 62.7435C355.457 67.1709 354.569 71.4061 353.056 75.3281L304.853 98.1722C302.735 97.4748 300.697 96.5954 298.761 95.5543C313.326 87.1241 339.934 71.7801 355.608 62.7435Z" fill="#EBEBEB"/>
<path d="M317.35 25.4653H316.604V31.338H317.35V25.4653Z" fill="#263238"/>
<path d="M299.374 30.0797L298.727 30.4537L301.657 35.5397L302.304 35.1657L299.374 30.0797Z" fill="#263238"/>
<path d="M286.112 43.1001L285.738 43.7478L290.814 46.6842L291.187 46.0364L286.112 43.1001Z" fill="#263238"/>
<path d="M287 61.0152H281.14V61.7632H287V61.0152Z" fill="#263238"/>
<path d="M290.831 76.0937L285.756 79.0301L286.129 79.6779L291.204 76.7415L290.831 76.0937Z" fill="#263238"/>
<path d="M301.656 87.2252L298.728 92.3127L299.375 92.6864L302.302 87.5989L301.656 87.2252Z" fill="#263238"/>
<path d="M317.35 91.4404H316.604V97.3132H317.35V91.4404Z" fill="#263238"/>
<path d="M332.299 87.232L331.653 87.606L334.583 92.692L335.229 92.318L332.299 87.232Z" fill="#263238"/>
<path d="M343.124 76.071L342.75 76.7188L347.826 79.6552L348.199 79.0074L343.124 76.071Z" fill="#263238"/>
<path d="M352.824 61.0152H346.964V61.7632H352.824V61.0152Z" fill="#263238"/>
<path d="M347.828 43.0838L342.752 46.0201L343.126 46.6679L348.201 43.7315L347.828 43.0838Z" fill="#263238"/>
<path d="M334.591 30.0947L331.663 35.1822L332.31 35.5558L335.237 30.4683L334.591 30.0947Z" fill="#263238"/>
<path d="M317.542 28.1236L318.813 64.0072L315.151 63.9566L316.543 28.1135L317.542 28.1236Z" fill="#455A64"/>
<path d="M339.843 48.8755L315.756 64.2802L314.001 61.0557L339.369 47.9961L339.843 48.8755Z" fill="#263238"/>
<path d="M318.238 61.3892C318.238 62.0867 317.673 62.6426 316.987 62.6426C316.301 62.6426 315.736 62.0765 315.736 61.3892C315.736 60.7019 316.301 60.1358 316.987 60.1358C317.673 60.1358 318.238 60.7019 318.238 61.3892Z" fill="#009688"/>
<path d="M293.829 216.043H105.393V221.885H293.829V216.043Z" fill="#455A64"/>
<path d="M288.886 353.977H110.326V359.82H288.886V353.977Z" fill="#455A64"/>
<path d="M283.288 221.895H115.924V234.075H283.288V221.895Z" fill="#37474F"/>
<path d="M98.4842 446.961H94.1874L124.447 234.075H136.349L98.4842 446.961Z" fill="#455A64"/>
<path d="M300.738 446.961H305.035L274.775 234.076H262.873L300.738 446.961Z" fill="#455A64"/>
<path d="M336.171 221.895L524.607 221.895V216.053L336.171 216.053V221.895Z" fill="#455A64"/>
<path d="M341.114 359.82H519.674V353.977H341.114V359.82Z" fill="#455A64"/>
<path d="M346.712 234.065L514.076 234.065V221.885L346.712 221.885V234.065Z" fill="#37474F"/>
<path d="M531.526 446.961H535.823L505.563 234.076H493.661L531.526 446.961Z" fill="#455A64"/>
<path d="M329.262 446.961H324.965L355.225 234.075H367.127L329.262 446.961Z" fill="#455A64"/>
<path d="M261.794 216.042H205.431V212.414L253.755 209.927L237.314 150.805H230.395V144.69H241.954L261.794 216.042Z" fill="#DBDBDB"/>
<path d="M236.437 144.69L234.258 150.815H230.405V144.69H236.437Z" fill="#C7C7C7"/>
<path d="M232.891 83.1819L226.698 82.0563L205.35 200.013L211.543 201.139L232.891 83.1819Z" fill="#C7C7C7"/>
<path d="M239.362 112.647L227.934 175.792L211.533 201.143L232.886 83.182L239.362 112.647Z" fill="#DBDBDB"/>
<path d="M193.791 216.042V209.624L137.428 212.413V216.042H193.791Z" fill="#DBDBDB"/>
<path d="M368.206 216.042H424.579V212.413L376.245 209.927L392.686 150.805H399.605V144.69H388.056L368.206 216.042Z" fill="#DBDBDB"/>
<path d="M393.563 144.69L395.742 150.815H399.605V144.69H393.563Z" fill="#C7C7C7"/>
<path d="M418.468 201.154L424.661 200.028L403.313 82.0713L397.12 83.1969L418.468 201.154Z" fill="#C7C7C7"/>
<path d="M390.648 112.647L402.076 175.792L418.467 201.143L397.124 83.1822L390.648 112.647Z" fill="#DBDBDB"/>
<path d="M436.209 216.042V209.624L492.572 212.413V216.042H436.209Z" fill="#DBDBDB"/>
<path d="M367.54 216.113H403.388V207.895H367.54V216.113Z" fill="#263238"/>
<path d="M347.993 216.113H367.54V207.895H347.993V216.113Z" fill="#263238"/>
<path d="M367.54 215.264H403.388V208.754H367.54V215.264Z" fill="white"/>
<path d="M401.068 213.919C398.274 213.95 395.48 213.98 392.686 213.99L384.304 214.01L375.922 213.99C373.128 213.98 370.334 213.95 367.54 213.919C370.334 213.889 373.128 213.859 375.922 213.849L384.304 213.828L392.686 213.849C395.48 213.859 398.274 213.889 401.068 213.919Z" fill="#DBDBDB"/>
<path d="M401.068 212.646C398.274 212.676 395.48 212.706 392.686 212.716L384.304 212.736L375.922 212.716C373.128 212.706 370.334 212.676 367.54 212.646C370.334 212.615 373.128 212.585 375.922 212.575L384.304 212.555L392.686 212.575C395.48 212.585 398.274 212.615 401.068 212.646Z" fill="#DBDBDB"/>
<path d="M401.068 211.362C398.274 211.392 395.48 211.423 392.686 211.433L384.304 211.453L375.922 211.433C373.128 211.423 370.334 211.392 367.54 211.362C370.334 211.332 373.128 211.302 375.922 211.291L384.304 211.271L392.686 211.291C395.48 211.302 398.274 211.332 401.068 211.362Z" fill="#DBDBDB"/>
<path d="M401.068 210.088C398.274 210.119 395.48 210.149 392.686 210.159L384.304 210.179L375.922 210.159C373.128 210.149 370.334 210.119 367.54 210.088C370.334 210.058 373.128 210.028 375.922 210.018L384.304 209.998L392.686 210.018C395.48 210.028 398.274 210.058 401.068 210.088Z" fill="#DBDBDB"/>
<path d="M397.306 210.877V216.356L394.048 213.626L390.79 216.356V210.877C390.79 210.412 390.417 210.038 389.953 210.038H396.479C396.942 210.038 397.316 210.412 397.316 210.877H397.306Z" fill="#009688"/>
<path d="M403.569 202.012H343.958V207.905H403.569V202.012Z" fill="#37474F"/>
<path d="M397.245 202.012H391.687V207.905H397.245V202.012Z" fill="#455A64"/>
<path d="M388.046 202.012H385.888V207.905H388.046V202.012Z" fill="#455A64"/>
<path d="M374.076 202.012H411.174V192.915H374.076V202.012Z" fill="#009688"/>
<path d="M345.754 202.012H374.086V192.915H345.754V202.012Z" fill="#009688"/>
<path opacity="0.2" d="M345.754 202.012H374.086V192.915H345.754V202.012Z" fill="black"/>
<path d="M375.307 201.062H411.184V193.855H375.307V201.062Z" fill="white"/>
<path d="M408.854 199.576C406.06 199.626 403.267 199.667 400.462 199.687L392.071 199.717L383.679 199.687C380.885 199.667 378.091 199.636 375.287 199.576C378.081 199.526 380.875 199.485 383.679 199.465L392.071 199.435L400.462 199.465C403.256 199.485 406.05 199.515 408.854 199.576Z" fill="#DBDBDB"/>
<path d="M408.854 198.161C406.06 198.211 403.267 198.252 400.462 198.272L392.071 198.302L383.679 198.272C380.885 198.252 378.091 198.221 375.287 198.161C378.081 198.11 380.875 198.07 383.679 198.05L392.071 198.02L400.462 198.05C403.256 198.07 406.05 198.1 408.854 198.161Z" fill="#DBDBDB"/>
<path d="M408.854 196.746C406.06 196.796 403.267 196.837 400.462 196.857L392.071 196.887L383.679 196.857C380.885 196.837 378.091 196.806 375.287 196.746C378.081 196.695 380.875 196.655 383.679 196.635L392.071 196.605L400.462 196.635C403.256 196.655 406.05 196.685 408.854 196.746Z" fill="#DBDBDB"/>
<path d="M408.854 195.331C406.06 195.381 403.267 195.421 400.462 195.442L392.071 195.472L383.679 195.442C380.885 195.421 378.091 195.381 375.287 195.331C378.081 195.28 380.875 195.24 383.679 195.22L392.071 195.189L400.462 195.22C403.256 195.24 406.05 195.27 408.854 195.331Z" fill="#DBDBDB"/>
<path d="M382.105 183.808H349.546V192.905H382.105V183.808Z" fill="#455A64"/>
<path d="M400.553 183.808H382.095V192.905H400.553V183.808Z" fill="#455A64"/>
<path d="M382.105 184.748H349.546V191.955H382.105V184.748Z" fill="white"/>
<path d="M351.654 186.233C354.196 186.183 356.728 186.143 359.27 186.122L366.885 186.092L374.5 186.122C377.042 186.143 379.574 186.173 382.115 186.233C379.574 186.284 377.042 186.324 374.5 186.344L366.885 186.375L359.27 186.344C356.728 186.324 354.196 186.294 351.654 186.233Z" fill="#DBDBDB"/>
<path d="M351.654 187.648C354.196 187.598 356.728 187.558 359.27 187.538L366.885 187.507L374.5 187.538C377.042 187.558 379.574 187.588 382.115 187.648C379.574 187.699 377.042 187.739 374.5 187.759L366.885 187.79L359.27 187.759C356.728 187.739 354.196 187.709 351.654 187.648Z" fill="#DBDBDB"/>
<path d="M351.654 189.064C354.196 189.013 356.728 188.973 359.27 188.953L366.885 188.923L374.5 188.953C377.042 188.973 379.574 189.003 382.115 189.064C379.574 189.114 377.042 189.155 374.5 189.175L366.885 189.205L359.27 189.175C356.728 189.155 354.196 189.124 351.654 189.064Z" fill="#DBDBDB"/>
<path d="M351.654 190.479C354.196 190.428 356.728 190.388 359.27 190.368L366.885 190.338L374.5 190.368C377.042 190.388 379.574 190.428 382.115 190.479C379.574 190.529 377.042 190.57 374.5 190.59L366.885 190.62L359.27 190.59C356.728 190.57 354.196 190.539 351.654 190.479Z" fill="#DBDBDB"/>
<path d="M356.234 187.073V195.22L359.491 192.491L362.749 195.22V187.073C362.749 186.608 363.123 186.234 363.587 186.234H357.061C356.597 186.234 356.223 186.608 356.223 187.073H356.234Z" fill="#263238"/>
<path d="M200.256 107.734H152.85H136.903V115.629H128.511L136.903 124.039V144.801H200.256V139.656V107.734Z" fill="white"/>
<path d="M200.256 107.735C200.236 107.603 135.844 108.392 137.156 107.735L137.226 115.629V115.953H136.893L128.501 116.003L128.764 115.366L137.196 123.736L137.317 123.857V124.039L137.367 144.811L136.883 144.326C152.669 144.306 184.461 144.366 200.236 144.407L199.843 144.801C199.883 135.562 200.115 116.963 200.236 107.725L200.256 107.735ZM200.256 107.735C200.378 117.176 200.61 135.754 200.66 145.205C184.653 145.246 152.901 145.306 136.903 145.296H136.419V144.811L136.47 124.039L136.591 124.342L128.239 115.892L127.604 115.245H128.512L136.903 115.295L136.571 115.629L136.641 107.735V107.472C136.803 107.391 200.055 107.785 200.256 107.735Z" fill="#263238"/>
<path d="M179.216 126.263C179.216 127.819 180.477 129.073 182.02 129.073C183.563 129.073 184.824 127.809 184.824 126.263C184.824 124.716 183.563 123.453 182.02 123.453C180.477 123.453 179.216 124.716 179.216 126.263Z" fill="#263238"/>
<path d="M165.206 126.263C165.206 127.819 166.467 129.073 168.01 129.073C169.553 129.073 170.814 127.809 170.814 126.263C170.814 124.716 169.553 123.453 168.01 123.453C166.467 123.453 165.206 124.716 165.206 126.263Z" fill="#263238"/>
<path d="M151.186 126.263C151.186 127.819 152.447 129.073 153.99 129.073C155.533 129.073 156.794 127.809 156.794 126.263C156.794 124.716 155.533 123.453 153.99 123.453C152.447 123.453 151.186 124.716 151.186 126.263Z" fill="#263238"/>
</svg>
