<svg width="146" height="48" viewBox="0 0 146 48" fill="none" xmlns="http://www.w3.org/2000/svg">
<path d="M49.5367 44.4252C48.9682 45.057 48.0215 45.4032 47.1087 45.2667C46.1621 45.1246 45.443 44.5232 45.2959 43.7369C44.1313 37.5965 40.3389 32.6987 34.4976 28.8391C28.5954 24.9376 21.8025 23.017 14.2032 23.1531C11.3632 23.2038 8.56543 23.5268 5.91283 24.4362C4.78232 24.8228 3.5423 24.3901 3.04276 23.4877C2.55333 22.5965 2.9649 21.5836 4.08586 21.1081C7.33289 19.7308 10.5967 18.3758 13.8505 17.0124C14.9714 16.5425 16.1091 16.0976 17.2098 15.5998C18.222 15.143 19.135 15.2406 20.0961 15.7159C26.9058 19.074 33.7291 22.4182 40.549 25.7653C43.0604 26.9972 45.5614 28.243 48.0899 29.4528C49.0343 29.903 49.4476 30.5218 49.4649 31.4071C49.5416 35.3509 49.6623 39.295 49.7457 43.2389C49.753 43.6358 49.6143 44.0317 49.5435 44.428L49.5367 44.4252Z" fill="#009688"/>
<path d="M36.074 20.1313C32.6118 18.4537 29.1496 16.7788 25.6943 15.0929C25.3294 14.9159 24.9578 14.7056 24.6927 14.4432C23.7887 13.5419 24.1503 12.2997 25.5035 11.6821C28.7593 10.1982 32.0287 8.73391 35.2947 7.26123C39.1652 5.51531 43.0357 3.76663 46.9096 2.0235C48.898 1.13011 50.6206 1.96471 50.5934 3.81347C50.5277 8.14294 50.4551 12.4724 50.3689 16.7989C50.3358 18.5174 48.55 19.3289 46.7353 18.4549C44.4225 17.342 42.1132 16.2291 39.8212 15.0887C38.7264 14.5437 38.4331 13.4579 39.0795 12.5945C39.6947 11.7753 40.9702 11.4842 42.0281 11.9292C42.4957 12.1263 42.9389 12.3704 43.4168 12.5426C44.4752 12.9265 45.6321 12.4684 45.7518 11.5461C45.8713 10.6377 45.9055 9.70374 45.7957 8.7938C45.673 7.78952 44.4748 7.32704 43.3828 7.81052C41.0751 8.83765 38.7673 9.86755 36.4968 10.9476C34.3981 11.9456 34.1379 14.3001 35.9355 15.6397C36.3202 15.9278 36.76 16.1774 37.2068 16.3965C41.0918 18.2931 44.9872 20.1787 48.8791 22.0726C49.9775 22.6065 50.4642 23.4524 50.1572 24.2571C49.6896 25.4792 48.1559 25.9709 46.7538 25.3214C45.5051 24.7421 44.2808 24.127 43.0425 23.5284C40.7128 22.3988 38.3865 21.2719 36.0568 20.1423L36.0706 20.123L36.074 20.1313Z" fill="#009688"/>
<path d="M66.0997 19.85C64.7827 19.85 63.8899 18.5097 64.3972 17.2943L69.7477 4.47811C70.0585 3.7335 70.7864 3.24861 71.5933 3.24861H72.4379C73.2476 3.24861 73.9774 3.73679 74.2865 4.48516L79.5587 17.2507C80.0701 18.4891 79.1598 19.85 77.8199 19.85V19.85C77.0392 19.85 76.3397 19.3678 76.0619 18.6383L71.5262 6.72798C71.4054 6.41054 71.6398 6.07038 71.9795 6.07038V6.07038C72.3201 6.07038 72.5546 6.41233 72.4319 6.7301L67.8208 18.6698C67.5461 19.381 66.8622 19.85 66.0997 19.85V19.85ZM68.7709 16.8401C67.9397 16.8401 67.2659 16.1663 67.2659 15.3352V15.3352C67.2659 14.504 67.9397 13.8302 68.7709 13.8302H75.2906C76.1218 13.8302 76.7956 14.504 76.7956 15.3352V15.3352C76.7956 16.1663 76.1218 16.8401 75.2906 16.8401H68.7709Z" fill="white"/>
<path d="M84.2458 19.85C83.2001 19.85 82.3523 19.0022 82.3523 17.9564V4.67187C82.3523 3.62609 83.2001 2.77832 84.2458 2.77832V2.77832C85.2916 2.77832 86.1394 3.62609 86.1394 4.67187V17.9564C86.1394 19.0022 85.2916 19.85 84.2458 19.85V19.85Z" fill="white"/>
<path d="M93.831 20.0851C92.7254 20.0851 91.7353 19.8265 90.8607 19.3092C90.0026 18.7918 89.3178 18.0864 88.8063 17.1928C88.3112 16.2993 88.0637 15.2803 88.0637 14.1359C88.0637 12.9915 88.3112 11.9726 88.8063 11.079C89.3178 10.1855 90.0026 9.48001 90.8607 8.96269C91.7353 8.44536 92.7254 8.1867 93.831 8.1867C94.6396 8.1867 95.3656 8.33563 96.0092 8.63348C96.6693 8.93134 97.2056 9.34676 97.6181 9.87976C98.0306 10.3971 98.2617 10.9928 98.3112 11.6669V16.605C98.2617 17.2791 98.0306 17.8826 97.6181 18.4156C97.2221 18.9329 96.694 19.3405 96.0339 19.6384C95.3739 19.9362 94.6396 20.0851 93.831 20.0851ZM94.5983 16.8401C95.4069 16.8401 96.0587 16.5893 96.5537 16.0876C97.0488 15.5703 97.2963 14.9197 97.2963 14.1359C97.2963 13.6029 97.1808 13.1326 96.9498 12.725C96.7353 12.3175 96.4217 12.0039 96.0092 11.7845C95.6132 11.5493 95.1511 11.4317 94.6231 11.4317C94.095 11.4317 93.6247 11.5493 93.2122 11.7845C92.8161 12.0039 92.4944 12.3175 92.2468 12.725C92.0158 13.1326 91.9003 13.6029 91.9003 14.1359C91.9003 14.6532 92.0158 15.1157 92.2468 15.5233C92.4779 15.9309 92.7996 16.2522 93.2122 16.4874C93.6247 16.7225 94.0868 16.8401 94.5983 16.8401ZM99.0042 19.85C97.979 19.85 97.1478 19.0188 97.1478 17.9936V16.9726C97.1478 16.8376 97.1615 16.7029 97.1886 16.5707L97.6346 14.3968C97.689 14.1316 97.689 13.8581 97.6346 13.5929L97.1886 11.419C97.1615 11.2867 97.1478 11.1521 97.1478 11.017V10.2783C97.1478 9.253 97.979 8.42185 99.0042 8.42185V8.42185C100.029 8.42185 100.861 9.253 100.861 10.2783V17.9936C100.861 19.0189 100.029 19.85 99.0042 19.85V19.85Z" fill="white"/>
<path d="M108.555 19.897C107.757 19.897 107.035 19.4223 106.719 18.6893L103.391 10.9753C102.87 9.76793 103.756 8.42185 105.07 8.42185V8.42185C105.85 8.42185 106.545 8.91645 106.799 9.65364L109.272 16.8112C109.392 17.1592 109.133 17.522 108.765 17.522V17.522C108.395 17.522 108.137 17.1562 108.26 16.8075L110.798 9.63094C111.054 8.9063 111.739 8.42185 112.508 8.42185V8.42185C113.823 8.42185 114.701 9.77801 114.162 10.978L110.161 19.897H108.555ZM106.911 24.6705C105.634 24.6705 104.798 23.3331 105.358 22.1855L106.468 19.9102C107.088 18.6407 108.792 18.3959 109.744 19.4398L110.161 19.897L108.489 23.6466C108.211 24.2694 107.593 24.6705 106.911 24.6705V24.6705Z" fill="white"/>
<path d="M64.2731 40.5656C63.7741 40.5656 63.3696 40.1611 63.3696 39.6621V25.2909C63.3696 24.7919 63.7741 24.3875 64.2731 24.3875V24.3875C64.7721 24.3875 65.1766 24.7919 65.1766 25.2909V39.6621C65.1766 40.1611 64.7721 40.5656 64.2731 40.5656V40.5656ZM64.252 40.5656C63.8514 40.5656 63.5146 40.2649 63.4693 39.8668V39.8668C63.4162 39.3995 63.7817 38.9901 64.252 38.9901H73.7947C74.2298 38.9901 74.5824 39.3428 74.5824 39.7778V39.7778C74.5824 40.2129 74.2298 40.5656 73.7947 40.5656H64.252ZM65.322 33.0409C64.8999 33.0409 64.5578 32.6987 64.5578 32.2766V32.2766C64.5578 31.8546 64.8999 31.5124 65.322 31.5124H73.0261C73.4482 31.5124 73.7904 31.8546 73.7904 32.2766V32.2766C73.7904 32.6987 73.4482 33.0409 73.0261 33.0409H65.322ZM65.0204 25.9629C64.7649 25.9629 64.5578 25.7558 64.5578 25.5003V25.4293C64.5578 25.2768 64.4621 25.1408 64.3187 25.0891V25.0891C63.9375 24.9518 64.036 24.3875 64.4412 24.3875H73.6462C74.0812 24.3875 74.4339 24.7401 74.4339 25.1752V25.1752C74.4339 25.6103 74.0812 25.9629 73.6462 25.9629H65.0204Z" fill="#009688"/>
<path d="M85.8542 40.5656C85.5964 40.5656 85.3531 40.4461 85.1956 40.242L81.7094 35.7278C81.6098 35.5988 81.4936 35.4835 81.3638 35.3848V35.3848C81.247 35.2961 81.1412 35.1938 81.0485 35.0802L77.6178 30.8726C77.1743 30.3286 77.5614 29.5137 78.2632 29.5137V29.5137C78.5161 29.5137 78.7553 29.6286 78.9133 29.826L82.1439 33.862C82.2325 33.9727 82.3325 34.0736 82.4425 34.1631L82.454 34.1725C82.5668 34.2643 82.6692 34.3682 82.7594 34.4822L86.5067 39.2169C86.9385 39.7625 86.55 40.5656 85.8542 40.5656V40.5656ZM77.9794 40.5656C77.3097 40.5656 76.9389 39.7893 77.3598 39.2683L80.612 35.2425C80.9198 34.8615 81.5017 34.8647 81.8052 35.2492V35.2492C82.0239 35.5262 82.0242 35.9171 81.8059 36.1945L78.6055 40.2616C78.4544 40.4535 78.2237 40.5656 77.9794 40.5656V40.5656ZM83.337 34.4999C83.0323 34.8761 82.4593 34.8788 82.1511 34.5054V34.5054C81.9213 34.2271 81.917 33.8263 82.1406 33.5431L85.0827 29.8163C85.2336 29.6252 85.4638 29.5137 85.7073 29.5137V29.5137C86.3769 29.5137 86.7471 30.2901 86.3257 30.8104L83.337 34.4999Z" fill="#009688"/>
<path d="M95.8915 40.8007C95.0004 40.8007 94.2001 40.6283 93.4905 40.2834C92.7809 39.9385 92.1951 39.4682 91.7331 38.8725C91.2876 38.2611 91.0153 37.5557 90.9163 36.7562V33.2995C91.0153 32.4843 91.2958 31.7789 91.7578 31.1832C92.2199 30.5718 92.8057 30.1015 93.5153 29.7723C94.2413 29.4431 95.0334 29.2785 95.8915 29.2785C96.9641 29.2785 97.9294 29.5372 98.7875 30.0545C99.6456 30.5561 100.322 31.2459 100.817 32.1238C101.329 32.986 101.585 33.9658 101.585 35.0631C101.585 36.1448 101.337 37.1167 100.842 37.979C100.347 38.8412 99.6621 39.5309 98.7875 40.0482C97.9294 40.5499 96.9641 40.8007 95.8915 40.8007ZM95.5945 39.2252C96.4195 39.2252 97.1456 39.0528 97.7727 38.7079C98.3997 38.3474 98.8865 37.8535 99.2331 37.2265C99.5961 36.5837 99.7776 35.8548 99.7776 35.0396C99.7776 34.2088 99.5961 33.4798 99.2331 32.8527C98.8865 32.2257 98.3997 31.7319 97.7727 31.3713C97.1456 31.0108 96.4278 30.8305 95.6192 30.8305C94.8106 30.8305 94.0928 31.0108 93.4658 31.3713C92.8552 31.7319 92.3767 32.2257 92.0301 32.8527C91.6836 33.4798 91.5103 34.2088 91.5103 35.0396C91.5103 35.8548 91.6836 36.5837 92.0301 37.2265C92.3767 37.8535 92.8552 38.3474 93.4658 38.7079C94.0763 39.0528 94.7859 39.2252 95.5945 39.2252ZM90.743 45.2215C90.2645 45.2215 89.8767 44.8336 89.8767 44.3552V30.38C89.8767 29.9015 90.2645 29.5137 90.743 29.5137V29.5137C91.2215 29.5137 91.6093 29.9015 91.6093 30.38V32.3354L91.2958 34.7608C91.2739 34.9303 91.2738 35.1019 91.2955 35.2714L91.6093 37.7203V44.3552C91.6093 44.8336 91.2215 45.2215 90.743 45.2215V45.2215Z" fill="#009688"/>
<path d="M105.222 40.5656C104.744 40.5656 104.356 40.1777 104.356 39.6992V30.38C104.356 29.9015 104.744 29.5137 105.222 29.5137V29.5137C105.701 29.5137 106.088 29.9015 106.088 30.38V39.6992C106.088 40.1777 105.701 40.5656 105.222 40.5656V40.5656ZM106.114 33.5802C106.089 33.8363 105.826 34.0106 105.589 33.9098V33.9098C105.457 33.8534 105.37 33.7233 105.374 33.5795C105.413 32.2958 105.766 31.2697 106.435 30.5013C107.161 29.6861 108.151 29.2785 109.405 29.2785C109.983 29.2785 110.511 29.3804 110.989 29.5842C111.246 29.685 111.493 29.8195 111.73 29.9877C112.087 30.2407 112.08 30.7505 111.772 31.0616V31.0616C111.453 31.385 110.934 31.359 110.533 31.1457C110.44 31.0964 110.345 31.0541 110.247 31.0186C109.917 30.8932 109.537 30.8305 109.108 30.8305C108.217 30.8305 107.491 31.1127 106.93 31.677C106.467 32.1299 106.195 32.7643 106.114 33.5802Z" fill="#009688"/>
<path d="M119.13 40.8007C117.958 40.8007 116.911 40.5499 115.987 40.0482C115.062 39.5466 114.328 38.8568 113.784 37.979C113.256 37.1011 112.991 36.1135 112.991 35.0161C112.991 33.9344 113.256 32.9625 113.784 32.1003C114.312 31.2224 115.029 30.5326 115.937 30.031C116.845 29.5293 117.859 29.2785 118.982 29.2785C120.038 29.2785 120.97 29.5058 121.779 29.9604C122.604 30.4151 123.247 31.05 123.709 31.8651C124.188 32.6646 124.427 33.5895 124.427 34.6399C124.427 34.7653 124.419 34.9142 124.402 35.0866V35.0866C124.367 35.42 124.065 35.651 123.73 35.651H114.935C114.545 35.651 114.229 35.3352 114.229 34.9456V34.9456C114.229 34.556 114.545 34.2401 114.935 34.2401H122.914C123.066 34.2401 123.135 34.4303 123.018 34.5279V34.5279C122.911 34.6176 122.746 34.5393 122.74 34.3996C122.712 33.7363 122.565 33.1579 122.298 32.6646C122.001 32.0689 121.564 31.6143 120.986 31.3008C120.425 30.9716 119.741 30.807 118.932 30.807C118.09 30.807 117.356 30.9794 116.729 31.3243C116.102 31.6692 115.607 32.1551 115.244 32.7822C114.897 33.3936 114.724 34.1225 114.724 34.9691C114.724 35.8156 114.906 36.5602 115.269 37.203C115.648 37.8457 116.168 38.3474 116.828 38.7079C117.505 39.0685 118.28 39.2487 119.155 39.2487C119.864 39.2487 120.516 39.1312 121.11 38.896C121.446 38.7542 121.753 38.5747 122.031 38.3577C122.38 38.0849 122.89 38.0527 123.208 38.3614V38.3614C123.502 38.6472 123.522 39.1191 123.21 39.3852C122.773 39.7579 122.271 40.0652 121.704 40.3069C120.912 40.6361 120.054 40.8007 119.13 40.8007Z" fill="#009688"/>
<path d="M130.642 40.8007C130.015 40.8007 129.413 40.7223 128.835 40.5656C128.258 40.3931 127.729 40.158 127.251 39.8601C126.999 39.6976 126.764 39.5188 126.546 39.3236C126.241 39.0498 126.267 38.5799 126.561 38.2943V38.2943C126.882 37.9827 127.395 38.0116 127.737 38.2987C128.041 38.5533 128.366 38.7602 128.711 38.9195C129.305 39.1704 129.965 39.2958 130.692 39.2958C131.467 39.2958 132.069 39.1547 132.498 38.8725C132.944 38.5903 133.167 38.1984 133.167 37.6968C133.167 37.2265 133.01 36.8581 132.696 36.5916C132.383 36.3251 131.979 36.1135 131.484 35.9567C131.005 35.7999 130.493 35.651 129.949 35.5099C129.404 35.3531 128.885 35.165 128.39 34.9456C127.895 34.7104 127.49 34.389 127.177 33.9815C126.88 33.5739 126.731 33.0409 126.731 32.3825C126.731 31.7554 126.888 31.2146 127.201 30.7599C127.531 30.2896 127.994 29.9291 128.588 29.6783C129.198 29.4118 129.916 29.2785 130.741 29.2785C131.616 29.2785 132.408 29.4274 133.117 29.7253C133.598 29.927 134.014 30.1935 134.366 30.5246C134.654 30.7958 134.61 31.2468 134.323 31.5193V31.5193C133.993 31.833 133.468 31.7901 133.099 31.5238C132.887 31.371 132.654 31.2418 132.399 31.1362C131.888 30.901 131.31 30.7835 130.667 30.7835C129.924 30.7835 129.355 30.9245 128.959 31.2067C128.579 31.4732 128.39 31.8259 128.39 32.2649C128.39 32.6881 128.546 33.0252 128.86 33.276C129.173 33.5112 129.569 33.7071 130.048 33.8639C130.543 34.005 131.063 34.1539 131.607 34.3107C132.152 34.4517 132.672 34.6477 133.167 34.8985C133.662 35.1337 134.058 35.4629 134.355 35.8861C134.668 36.2937 134.825 36.8502 134.825 37.5557C134.825 38.5433 134.446 39.335 133.687 39.9307C132.944 40.5107 131.929 40.8007 130.642 40.8007Z" fill="#009688"/>
<path d="M141.133 40.8007C140.506 40.8007 139.903 40.7223 139.326 40.5656C138.748 40.3931 138.22 40.158 137.742 39.8601C137.49 39.6976 137.255 39.5188 137.037 39.3236C136.732 39.0498 136.757 38.5799 137.052 38.2943V38.2943C137.372 37.9827 137.885 38.0116 138.228 38.2987C138.532 38.5533 138.857 38.7602 139.202 38.9195C139.796 39.1704 140.456 39.2958 141.182 39.2958C141.958 39.2958 142.56 39.1547 142.989 38.8725C143.435 38.5903 143.657 38.1984 143.657 37.6968C143.657 37.2265 143.501 36.8581 143.187 36.5916C142.874 36.3251 142.469 36.1135 141.974 35.9567C141.496 35.7999 140.984 35.651 140.44 35.5099C139.895 35.3531 139.375 35.165 138.88 34.9456C138.385 34.7104 137.981 34.389 137.667 33.9815C137.37 33.5739 137.222 33.0409 137.222 32.3825C137.222 31.7554 137.379 31.2146 137.692 30.7599C138.022 30.2896 138.484 29.9291 139.078 29.6783C139.689 29.4118 140.407 29.2785 141.232 29.2785C142.106 29.2785 142.898 29.4274 143.608 29.7253C144.089 29.927 144.505 30.1935 144.857 30.5246C145.145 30.7958 145.1 31.2468 144.814 31.5193V31.5193C144.483 31.833 143.959 31.7901 143.589 31.5238C143.377 31.371 143.144 31.2418 142.89 31.1362C142.379 30.901 141.801 30.7835 141.157 30.7835C140.415 30.7835 139.846 30.9245 139.45 31.2067C139.07 31.4732 138.88 31.8259 138.88 32.2649C138.88 32.6881 139.037 33.0252 139.351 33.276C139.664 33.5112 140.06 33.7071 140.539 33.8639C141.034 34.005 141.554 34.1539 142.098 34.3107C142.643 34.4517 143.162 34.6477 143.657 34.8985C144.153 35.1337 144.549 35.4629 144.846 35.8861C145.159 36.2937 145.316 36.8502 145.316 37.5557C145.316 38.5433 144.936 39.335 144.177 39.9307C143.435 40.5107 142.42 40.8007 141.133 40.8007Z" fill="#009688"/>
</svg>
