<svg width="205" height="205" viewBox="0 0 205 205" fill="none" xmlns="http://www.w3.org/2000/svg">
<path d="M100.85 191.757C120.495 191.757 136.42 190.092 136.42 188.037C136.42 185.983 120.495 184.318 100.85 184.318C81.2054 184.318 65.2803 185.983 65.2803 188.037C65.2803 190.092 81.2054 191.757 100.85 191.757Z" fill="#009688"/>
<path opacity="0.5" d="M100.85 191.757C120.495 191.757 136.42 190.092 136.42 188.037C136.42 185.983 120.495 184.318 100.85 184.318C81.2054 184.318 65.2803 185.983 65.2803 188.037C65.2803 190.092 81.2054 191.757 100.85 191.757Z" fill="white"/>
<path d="M181.229 157.303V151.626H174.896V140.611H165.796V95.8718H157.092V122.914H149.179V113.234H138.498V138.272H134.146V146.283H123.861V143.28H127.023V141.61H113.967V143.614H115.552V152.295H108.824V135.933H85.0877V147.618H68.07V138.937H61.7418V148.622H48.2903V130.926H42.7526V124.918H32.8581V152.295H22.9683V158.303H16.6401V176.664H193.494V157.303H181.229Z" stroke="#376A66" stroke-miterlimit="10"/>
<path d="M36.7499 130.847H34.6111V132.986H36.7499V130.847Z" fill="#376A66"/>
<path d="M41.2043 130.847H39.0654V132.986H41.2043V130.847Z" fill="#376A66"/>
<path d="M36.7499 135.306H34.6111V137.445H36.7499V135.306Z" fill="#376A66"/>
<path d="M41.2043 135.306H39.0654V137.445H41.2043V135.306Z" fill="#376A66"/>
<path d="M46.0165 135.306H43.8777V137.445H46.0165V135.306Z" fill="#376A66"/>
<path d="M46.0165 139.76H43.8777V141.899H46.0165V139.76Z" fill="#376A66"/>
<path d="M46.0165 144.219H43.8777V146.358H46.0165V144.219Z" fill="#376A66"/>
<path d="M46.0165 148.673H43.8777V150.812H46.0165V148.673Z" fill="#376A66"/>
<path d="M46.0165 153.132H43.8777V155.271H46.0165V153.132Z" fill="#376A66"/>
<path d="M46.0165 157.591H43.8777V159.73H46.0165V157.591Z" fill="#376A66"/>
<path d="M36.7499 139.76H34.6111V141.899H36.7499V139.76Z" fill="#376A66"/>
<path d="M41.2043 139.76H39.0654V141.899H41.2043V139.76Z" fill="#376A66"/>
<path d="M36.7499 144.219H34.6111V146.358H36.7499V144.219Z" fill="#376A66"/>
<path d="M41.2043 144.219H39.0654V146.358H41.2043V144.219Z" fill="#376A66"/>
<path d="M36.7499 148.673H34.6111V150.812H36.7499V148.673Z" fill="#376A66"/>
<path d="M41.2043 148.673H39.0654V150.812H41.2043V148.673Z" fill="#376A66"/>
<path d="M36.7499 153.132H34.6111V155.271H36.7499V153.132Z" fill="#376A66"/>
<path d="M26.9438 155.629H24.8049V157.768H26.9438V155.629Z" fill="#376A66"/>
<path d="M57.7848 150.812H55.646V152.951H57.7848V150.812Z" fill="#376A66"/>
<path d="M62.0627 150.812H59.9238V152.951H62.0627V150.812Z" fill="#376A66"/>
<path d="M160.654 98.3967H158.515V100.536H160.654V98.3967Z" fill="#376A66"/>
<path d="M163.327 98.3967H161.188V100.536H163.327V98.3967Z" fill="#376A66"/>
<path d="M160.654 102.856H158.515V104.995H160.654V102.856Z" fill="#376A66"/>
<path d="M163.327 102.856H161.188V104.995H163.327V102.856Z" fill="#376A66"/>
<path d="M160.654 107.315H158.515V109.454H160.654V107.315Z" fill="#376A66"/>
<path d="M163.327 107.315H161.188V109.454H163.327V107.315Z" fill="#376A66"/>
<path d="M160.654 111.769H158.515V113.908H160.654V111.769Z" fill="#376A66"/>
<path d="M163.327 111.769H161.188V113.908H163.327V111.769Z" fill="#376A66"/>
<path d="M160.654 116.228H158.515V118.367H160.654V116.228Z" fill="#376A66"/>
<path d="M163.327 116.228H161.188V118.367H163.327V116.228Z" fill="#376A66"/>
<path d="M160.654 120.682H158.515V122.821H160.654V120.682Z" fill="#376A66"/>
<path d="M163.327 120.682H161.188V122.821H163.327V120.682Z" fill="#376A66"/>
<path d="M160.654 125.142H158.515V127.28H160.654V125.142Z" fill="#376A66"/>
<path d="M163.327 125.142H161.188V127.28H163.327V125.142Z" fill="#376A66"/>
<path d="M160.654 129.601H158.515V131.739H160.654V129.601Z" fill="#376A66"/>
<path d="M163.327 129.601H161.188V131.739H163.327V129.601Z" fill="#376A66"/>
<path d="M160.654 134.055H158.515V136.194H160.654V134.055Z" fill="#376A66"/>
<path d="M163.327 134.055H161.188V136.194H163.327V134.055Z" fill="#376A66"/>
<path d="M142.469 134.055H140.33V136.194H142.469V134.055Z" fill="#376A66"/>
<path d="M147.105 134.055H144.966V136.194H147.105V134.055Z" fill="#376A66"/>
<path d="M151.74 134.055H149.602V136.194H151.74V134.055Z" fill="#376A66"/>
<path d="M142.469 143.684H140.33V145.823H142.469V143.684Z" fill="#376A66"/>
<path d="M147.105 143.684H144.966V145.823H147.105V143.684Z" fill="#376A66"/>
<path d="M151.74 143.684H149.602V145.823H151.74V143.684Z" fill="#376A66"/>
<path d="M142.469 153.309H140.33V155.448H142.469V153.309Z" fill="#376A66"/>
<path d="M147.105 153.309H144.966V155.448H147.105V153.309Z" fill="#376A66"/>
<path d="M151.74 153.309H149.602V155.448H151.74V153.309Z" fill="#376A66"/>
<path d="M160.654 138.514H158.515V140.653H160.654V138.514Z" fill="#376A66"/>
<path d="M163.327 138.514H161.188V140.653H163.327V138.514Z" fill="#376A66"/>
<path d="M160.654 142.968H158.515V145.107H160.654V142.968Z" fill="#376A66"/>
<path d="M163.327 142.968H161.188V145.107H163.327V142.968Z" fill="#376A66"/>
<path d="M160.654 147.427H158.515V149.566H160.654V147.427Z" fill="#376A66"/>
<path d="M163.327 147.427H161.188V149.566H163.327V147.427Z" fill="#376A66"/>
<path d="M167.786 142.968H165.647V145.107H167.786V142.968Z" fill="#376A66"/>
<path d="M172.78 142.968H170.641V145.107H172.78V142.968Z" fill="#376A66"/>
<path d="M167.786 147.251H165.647V149.389H167.786V147.251Z" fill="#376A66"/>
<path d="M172.78 147.251H170.641V149.389H172.78V147.251Z" fill="#376A66"/>
<path d="M167.786 151.528H165.647V153.667H167.786V151.528Z" fill="#376A66"/>
<path d="M172.78 151.528H170.641V153.667H172.78V151.528Z" fill="#376A66"/>
<path d="M167.786 155.806H165.647V157.945H167.786V155.806Z" fill="#376A66"/>
<path d="M172.78 155.806H170.641V157.945H172.78V155.806Z" fill="#376A66"/>
<path d="M160.654 151.886H158.515V154.025H160.654V151.886Z" fill="#376A66"/>
<path d="M163.327 151.886H161.188V154.025H163.327V151.886Z" fill="#376A66"/>
<path d="M160.654 156.341H158.515V158.48H160.654V156.341Z" fill="#376A66"/>
<path d="M163.327 156.341H161.188V158.48H163.327V156.341Z" fill="#376A66"/>
<path d="M41.2043 153.132H39.0654V155.271H41.2043V153.132Z" fill="#376A66"/>
<path d="M36.7499 157.591H34.6111V159.73H36.7499V157.591Z" fill="#376A66"/>
<path d="M41.2043 157.591H39.0654V159.73H41.2043V157.591Z" fill="#376A66"/>
<path d="M36.7499 162.046H34.6111V164.185H36.7499V162.046Z" fill="#376A66"/>
<path d="M41.2043 162.046H39.0654V164.185H41.2043V162.046Z" fill="#376A66"/>
<path d="M36.7499 166.505H34.6111V168.644H36.7499V166.505Z" fill="#376A66"/>
<path d="M41.2043 166.505H39.0654V168.644H41.2043V166.505Z" fill="#376A66"/>
<path d="M153.879 167.844V176.664H136.052V159.126H153.879V166.272" stroke="#376A66" stroke-miterlimit="10"/>
<path d="M186.687 174V176.664H168.856V167.393H172.538" stroke="#376A66" stroke-miterlimit="10"/>
<path d="M174.71 167.393H186.687V172.554" stroke="#376A66" stroke-miterlimit="10"/>
<path d="M55.2834 167.393H67.9491V176.664H50.1177V167.393H53.591" stroke="#376A66" stroke-miterlimit="10"/>
<path d="M27.39 167.393H29.0825V176.664H22.4846V167.393H26.0602" stroke="#376A66" stroke-miterlimit="10"/>
<path d="M146.389 159.126H143.539V176.664H146.389V159.126Z" stroke="#376A66" stroke-miterlimit="10"/>
<path d="M124.233 161.511H121.434V156.875H130.882V161.511H126.772" stroke="#376A66" stroke-miterlimit="10"/>
<path d="M74.1888 153.667H63.3132V157.592H74.1888V153.667Z" stroke="#376A66" stroke-miterlimit="10"/>
<path d="M69.5531 153.667H68.4836V176.664H69.5531V153.667Z" stroke="#376A66" stroke-miterlimit="10"/>
<path d="M102.915 13.9682C87.0068 13.9682 71.7505 20.2875 60.502 31.5361C49.2534 42.7846 42.9341 58.0409 42.9341 73.9487C42.9341 103.869 98.265 174.381 98.265 174.381H102.915C102.915 174.381 162.895 107.073 162.895 73.9487C162.895 58.0409 156.576 42.7846 145.327 31.5361C134.079 20.2875 118.822 13.9682 102.915 13.9682ZM102.915 103.242C97.1211 103.242 91.4576 101.524 86.6404 98.3048C81.8232 95.0861 78.0687 90.5112 75.8516 85.1586C73.6345 79.806 73.0544 73.9162 74.1847 68.234C75.3149 62.5517 78.1048 57.3322 82.2015 53.2356C86.2981 49.1389 91.5176 46.349 97.1999 45.2187C102.882 44.0885 108.772 44.6686 114.125 46.8857C119.477 49.1028 124.052 52.8573 127.271 57.6745C130.489 62.4917 132.207 68.1551 132.207 73.9487C132.207 77.7955 131.45 81.6046 129.978 85.1586C128.506 88.7126 126.348 91.9418 123.628 94.6619C120.908 97.382 117.678 99.5397 114.125 101.012C110.571 102.484 106.761 103.242 102.915 103.242Z" fill="#376A66" stroke="#376A66" stroke-linecap="round" stroke-linejoin="round"/>
<path d="M98.265 13.9682C82.3571 13.9682 67.1008 20.2876 55.8523 31.5361C44.6038 42.7846 38.2844 58.0409 38.2844 73.9487C38.2844 107.073 98.265 174.381 98.265 174.381C98.265 174.381 158.246 107.073 158.246 73.9487C158.246 58.0409 151.926 42.7846 140.678 31.5361C129.429 20.2876 114.173 13.9682 98.265 13.9682ZM98.265 103.242C92.4714 103.242 86.8079 101.524 81.9907 98.3048C77.1736 95.0861 73.419 90.5112 71.2019 85.1586C68.9848 79.8061 68.4047 73.9162 69.535 68.234C70.6653 62.5517 73.4551 57.3323 77.5518 53.2356C81.6485 49.1389 86.868 46.349 92.5502 45.2188C98.2325 44.0885 104.122 44.6686 109.475 46.8857C114.827 49.1028 119.402 52.8573 122.621 57.6745C125.84 62.4917 127.558 68.1552 127.558 73.9487C127.558 81.7177 124.472 89.1684 118.978 94.6619C113.485 100.155 106.034 103.242 98.265 103.242Z" fill="#009688" stroke="#376A66" stroke-linecap="round" stroke-linejoin="round"/>
<path d="M79.4014 110.504L86.0271 99.2288L86.1434 103.297L82.1912 111.202L79.4014 110.504Z" fill="white" stroke="#376A66" stroke-linecap="round" stroke-linejoin="round"/>
<path d="M86.1434 148.594C85.7703 150.557 84.9138 152.397 83.6512 153.946C81.5356 156.564 78.6714 161.669 78.5366 166.523C78.4017 171.377 72.8035 184.81 73.422 185.805C74.0404 186.8 79.5223 188.172 81.6379 188.172C82.7492 188.172 84.5904 188.6 85.3251 187.516C85.3669 187.456 80.9776 185.192 80.6754 184.973C80.3732 184.755 77.9275 183.034 78.0065 182.816C78.0065 182.816 83.7442 167.267 86.6084 163.287C89.4726 159.307 91.5882 156.313 92.4576 153.825C93.3271 151.337 94.1083 148.98 94.1083 148.98L86.1434 148.594Z" fill="white"/>
<mask id="mask0_25_1136" style="mask-type:luminance" maskUnits="userSpaceOnUse" x="73" y="148" width="22" height="41">
<path d="M86.1434 148.594C85.7703 150.557 84.9138 152.397 83.6512 153.946C81.5356 156.564 78.6714 161.669 78.5366 166.523C78.4017 171.377 72.8035 184.81 73.422 185.805C74.0404 186.8 79.5223 188.172 81.6379 188.172C82.7492 188.172 84.5904 188.6 85.3251 187.516C85.3669 187.456 80.9776 185.192 80.6754 184.973C80.3732 184.755 77.9275 183.034 78.0065 182.816C78.0065 182.816 83.7442 167.267 86.6084 163.287C89.4726 159.307 91.5882 156.313 92.4576 153.825C93.3271 151.337 94.1083 148.98 94.1083 148.98L86.1434 148.594Z" fill="white"/>
</mask>
<g mask="url(#mask0_25_1136)">
<g style="mix-blend-mode:multiply">
<path d="M84.5857 152.616C86.9952 153.648 89.5264 154.368 92.1181 154.76C92.2576 154.439 92.3832 154.127 92.4901 153.83C93.3642 151.337 94.1082 148.971 94.1082 148.971L86.1433 148.599C85.8773 150.023 85.3492 151.385 84.5857 152.616Z" fill="#009688"/>
</g>
</g>
<path d="M86.1434 148.594C85.7703 150.557 84.9138 152.397 83.6512 153.946C81.5356 156.564 78.6714 161.669 78.5366 166.523C78.4017 171.377 72.8035 184.81 73.422 185.805C74.0404 186.8 79.5223 188.172 81.6379 188.172C82.7492 188.172 84.5904 188.6 85.3251 187.516C85.3669 187.456 80.9776 185.192 80.6754 184.973C80.3732 184.755 77.9275 183.034 78.0065 182.816C78.0065 182.816 83.7442 167.267 86.6084 163.287C89.4726 159.307 91.5882 156.313 92.4576 153.825C93.3271 151.337 94.1083 148.98 94.1083 148.98L86.1434 148.594Z" stroke="#376A66" stroke-linecap="round" stroke-linejoin="round"/>
<path d="M104.161 149.612C105.375 151.201 106.174 153.068 106.486 155.043C107.011 158.368 108.89 163.91 112.419 167.253C115.948 170.596 122.183 184.657 123.336 184.857C124.689 185.099 126.754 183.369 127.758 182.667C129.037 181.774 131.97 179.951 132.408 178.375C132.933 176.562 131.068 177.473 130.283 178.059C129.264 178.817 124.182 179.454 124.182 179.454C124.182 179.454 116.459 163.859 115.418 159.07C114.376 154.281 113.558 150.7 112.298 148.376C111.038 146.051 109.773 143.926 109.773 143.926L104.161 149.612Z" fill="white"/>
<mask id="mask1_25_1136" style="mask-type:luminance" maskUnits="userSpaceOnUse" x="104" y="143" width="29" height="42">
<path d="M104.161 149.612C105.375 151.201 106.174 153.068 106.486 155.043C107.011 158.368 108.89 163.91 112.419 167.253C115.948 170.596 122.183 184.657 123.336 184.857C124.689 185.099 126.754 183.369 127.758 182.667C129.037 181.774 131.97 179.951 132.408 178.375C132.933 176.562 131.068 177.473 130.283 178.059C129.264 178.817 124.182 179.454 124.182 179.454C124.182 179.454 116.459 163.859 115.418 159.07C114.376 154.281 113.558 150.7 112.298 148.376C111.038 146.051 109.773 143.926 109.773 143.926L104.161 149.612Z" fill="white"/>
</mask>
<g mask="url(#mask1_25_1136)">
<g style="mix-blend-mode:multiply">
<path d="M112.298 148.39C111.028 146.065 109.768 143.94 109.768 143.94L104.161 149.612C105.113 150.858 105.807 152.28 106.202 153.797C108.733 153.346 111.221 152.685 113.642 151.821C113.312 150.634 112.861 149.485 112.298 148.39Z" fill="#009688"/>
</g>
</g>
<path d="M104.161 149.612C105.375 151.201 106.174 153.068 106.486 155.043C107.011 158.368 108.89 163.91 112.419 167.253C115.948 170.596 122.183 184.657 123.336 184.857C124.689 185.099 126.754 183.369 127.758 182.667C129.037 181.774 131.97 179.951 132.408 178.375C132.933 176.562 131.068 177.473 130.283 178.059C129.264 178.817 124.182 179.454 124.182 179.454C124.182 179.454 116.459 163.859 115.418 159.07C114.376 154.281 113.558 150.7 112.298 148.376C111.038 146.051 109.773 143.926 109.773 143.926L104.161 149.612Z" stroke="#376A66" stroke-linecap="round" stroke-linejoin="round"/>
<path d="M132.412 178.375C132.938 176.562 131.073 177.473 130.287 178.059C129.269 178.817 124.187 179.454 124.187 179.454C124.187 179.454 123.638 178.245 122.838 176.422C121.848 177.206 120.752 177.846 119.584 178.324C121.327 181.76 122.773 184.778 123.341 184.876C124.694 185.117 126.758 183.388 127.762 182.686C129.027 181.774 131.961 179.952 132.412 178.375Z" fill="white" stroke="#376A66" stroke-linecap="round" stroke-linejoin="round"/>
<path d="M86.3107 123.747L81.9912 147.585C83.9395 148.832 86.0139 149.87 88.1799 150.682C91.5834 151.919 97.4792 151.612 97.4792 151.612L99.804 140.011L100.734 150.84C100.734 150.84 105.221 151.305 108.471 150.687C111.721 150.068 116.98 146.66 116.98 146.66L106.751 127.634L104.426 123.147L86.3247 122.682L86.3107 123.747Z" fill="white"/>
<mask id="mask2_25_1136" style="mask-type:luminance" maskUnits="userSpaceOnUse" x="81" y="122" width="36" height="30">
<path d="M86.3107 123.747L81.9912 147.585C83.9395 148.832 86.0139 149.87 88.1799 150.682C91.5834 151.919 97.4792 151.612 97.4792 151.612L99.804 140.011L100.734 150.84C100.734 150.84 105.221 151.305 108.471 150.687C111.721 150.068 116.98 146.66 116.98 146.66L106.751 127.634L104.426 123.147L86.3247 122.682L86.3107 123.747Z" fill="white"/>
</mask>
<g mask="url(#mask2_25_1136)">
<g style="mix-blend-mode:multiply">
<path d="M99.9529 137.43C101.524 135.464 102.092 123.9 102.092 123.9L86.3108 122.705V123.747L84.3394 134.566C88.7565 135.989 98.73 138.956 99.9529 137.43Z" fill="#009688"/>
</g>
</g>
<path d="M86.3107 123.747L81.9912 147.585C83.9395 148.832 86.0139 149.87 88.1799 150.682C91.5834 151.919 97.4792 151.612 97.4792 151.612L99.804 140.011L100.734 150.84C100.734 150.84 105.221 151.305 108.471 150.687C111.721 150.068 116.98 146.66 116.98 146.66L106.751 127.634L104.426 123.147L86.3247 122.682L86.3107 123.747Z" stroke="#376A66" stroke-miterlimit="10"/>
<path d="M112.995 104.925L121.83 107.25L125.433 96.5553L111.949 93.998L108.927 103.879L112.995 104.925Z" fill="#376A66" stroke="#376A66" stroke-linecap="round" stroke-linejoin="round"/>
<path d="M114.72 99.9774L120.337 101.349" stroke="white" stroke-linecap="round" stroke-linejoin="round"/>
<path d="M114.176 101.349L119.793 102.721" stroke="white" stroke-linecap="round" stroke-linejoin="round"/>
<path d="M103.812 105.506C103.812 105.506 106.602 103.995 107.532 102.716C108.462 101.437 109.508 99.2288 109.973 98.8801C110.438 98.5314 112.763 97.369 113.228 97.0202C113.693 96.6715 114.39 97.369 113.576 98.0664C112.763 98.7639 111.019 100.275 111.019 100.275C111.019 100.275 111.484 102.367 110.903 103.065C110.592 103.449 110.241 103.8 109.857 104.111L112.995 104.925C112.995 104.925 110.903 106.436 109.973 106.668C109.052 106.846 108.12 106.962 107.183 107.017L103.347 110.039L103.812 105.506Z" fill="white" stroke="#376A66" stroke-linecap="round" stroke-linejoin="round"/>
<path d="M91.258 80.1141C91.258 80.1141 87.5383 85.531 86.6084 91.8731C85.6784 98.2152 86.3015 123.747 86.3015 123.747C86.3015 123.747 91.2487 125.755 95.1358 125.755C99.0229 125.755 104.728 126.067 104.9 123.895C105.072 121.724 103.817 96.8203 102.11 90.7851C100.928 86.8472 99.2072 83.0919 96.9957 79.6259C96.9957 79.6259 93.1179 77.0175 91.258 80.1141Z" fill="#376A66" stroke="#376A66" stroke-linecap="round" stroke-linejoin="round"/>
<path d="M99.7435 84.8149L94.7451 116.665L99.1623 118.292L101.138 87.7209L99.7435 84.8149Z" fill="white" stroke="#376A66" stroke-linecap="round" stroke-linejoin="round"/>
<path d="M88.6775 67.7739C88.6775 67.7739 89.2959 70.7125 90.5374 72.2608C91.7788 73.8092 94.0943 74.5857 94.0943 74.5857L93.4294 78.1054L97.7629 80.7371L99.3531 73.1908L99.8181 64.2169C99.8181 64.2169 88.9658 66.0721 88.6775 67.7739Z" fill="white" stroke="#376A66" stroke-linecap="round" stroke-linejoin="round"/>
<path d="M88.6775 67.7739C88.6775 67.7739 89.2959 70.7125 90.5374 72.2608C91.7788 73.8091 94.0943 74.5856 94.0943 74.5856C94.0943 74.5856 97.8141 73.5023 98.1163 71.0287C98.3395 69.2432 98.0047 66.1791 97.7955 64.6028C94.6383 65.2259 88.9007 66.5417 88.6775 67.7739Z" fill="#376A66" stroke="#376A66" stroke-linecap="round" stroke-linejoin="round"/>
<path d="M95.0102 68.5412C95.0102 68.5412 93.4619 66.6813 92.5366 67.4578C91.6113 68.2343 91.9135 70.401 93.0016 71.4844C94.0896 72.5678 95.4798 71.6378 95.4798 71.6378C95.4798 71.6378 96.0982 73.6465 97.1816 74.5764C98.265 75.5063 101.975 76.1248 103.226 75.1948C104.477 74.2649 103.998 70.8613 103.998 70.8613C103.998 70.8613 106.165 69.778 106.011 69.0015C105.858 68.225 104.305 67.6066 104.305 66.9928C104.292 66.5245 104.241 66.0579 104.151 65.5979V64.3565L97.0375 65.9048C97.0375 65.9048 96.1029 69.4711 95.0102 68.5412Z" fill="white"/>
<mask id="mask3_25_1136" style="mask-type:luminance" maskUnits="userSpaceOnUse" x="91" y="64" width="16" height="12">
<path d="M95.0102 68.5412C95.0102 68.5412 93.4619 66.6813 92.5366 67.4578C91.6113 68.2343 91.9135 70.401 93.0016 71.4844C94.0896 72.5678 95.4798 71.6378 95.4798 71.6378C95.4798 71.6378 96.0982 73.6465 97.1816 74.5764C98.265 75.5063 101.975 76.1248 103.226 75.1948C104.477 74.2649 103.998 70.8613 103.998 70.8613C103.998 70.8613 106.165 69.778 106.011 69.0015C105.858 68.225 104.305 67.6066 104.305 66.9928C104.292 66.5245 104.241 66.0579 104.151 65.5979V64.3565L97.0375 65.9048C97.0375 65.9048 96.1029 69.4711 95.0102 68.5412Z" fill="white"/>
</mask>
<g mask="url(#mask3_25_1136)">
<g style="mix-blend-mode:multiply" opacity="0.5">
<g style="mix-blend-mode:multiply">
<path d="M97.0328 65.9189C96.8332 66.666 96.5427 67.3859 96.168 68.0624C98.9578 67.9368 101.938 67.7601 104.607 67.5277C104.443 67.3969 104.333 67.2095 104.3 67.0022C104.287 66.5339 104.236 66.0673 104.147 65.6073V64.3566L97.0328 65.9189Z" fill="#009688"/>
</g>
</g>
</g>
<path d="M95.0102 68.5412C95.0102 68.5412 93.4619 66.6813 92.5366 67.4578C91.6113 68.2343 91.9135 70.401 93.0016 71.4844C94.0896 72.5678 95.4798 71.6378 95.4798 71.6378C95.4798 71.6378 96.0982 73.6465 97.1816 74.5764C98.265 75.5063 101.975 76.1248 103.226 75.1948C104.477 74.2649 103.998 70.8613 103.998 70.8613C103.998 70.8613 106.165 69.778 106.011 69.0015C105.858 68.225 104.305 67.6066 104.305 66.9928C104.292 66.5245 104.241 66.0579 104.151 65.5979V64.3565L97.0375 65.9048C97.0375 65.9048 96.1029 69.4711 95.0102 68.5412Z" stroke="#376A66" stroke-linecap="round" stroke-linejoin="round"/>
<path d="M88.6775 67.7739L104.147 64.3564C104.147 64.3564 101.98 56.7729 99.3531 56.1545C96.726 55.5361 91.6161 55.2245 88.8309 58.0143C86.0458 60.8041 88.6775 67.7739 88.6775 67.7739Z" fill="white" stroke="#376A66" stroke-linecap="round" stroke-linejoin="round"/>
<path d="M99.0415 65.6072C101.08 66.06 103.148 66.3708 105.23 66.5372C108.02 66.6906 114.357 64.2123 112.814 64.0589C111.27 63.9055 104.147 64.3704 104.147 64.3704L99.0415 65.6072Z" fill="#376A66" stroke="#376A66" stroke-linecap="round" stroke-linejoin="round"/>
<path d="M91.881 76.864L90.4861 79.9607L97.4513 84.2895L98.8415 79.9607L91.881 76.864Z" fill="white" stroke="#376A66" stroke-linecap="round" stroke-linejoin="round"/>
<path d="M77.5415 109.226L102.301 115.619L99.7296 133.725C99.6876 134.021 99.5834 134.304 99.424 134.557C99.2645 134.81 99.0534 135.027 98.8044 135.192C98.5554 135.358 98.2743 135.469 97.9794 135.518C97.6845 135.567 97.3825 135.553 97.0933 135.478L74.5843 129.628C74.1618 129.519 73.7984 129.25 73.571 128.878C73.3436 128.505 73.2701 128.059 73.3661 127.634L77.5415 109.226Z" fill="white" stroke="#376A66" stroke-linecap="round" stroke-linejoin="round"/>
<path d="M77.5415 109.226C77.5415 109.226 83.3861 123.407 86.9664 125.267C90.5466 127.127 102.31 115.633 102.31 115.633" stroke="#376A66" stroke-linecap="round" stroke-linejoin="round"/>
<path d="M82.4561 103.014C82.4561 103.014 80.9078 106.417 81.3727 107.663C81.8377 108.909 101.022 115.865 101.022 115.865C101.022 115.865 101.176 118.492 101.641 119.12C102.039 119.801 102.351 120.529 102.571 121.287C102.571 121.287 101.641 123.454 102.106 123.919C102.571 124.383 103.965 121.752 103.965 120.98C103.965 120.208 104.119 116.028 103.659 114.935C103.198 113.843 90.0397 105.808 90.0397 105.808L82.4561 103.014Z" fill="white" stroke="#376A66" stroke-linecap="round" stroke-linejoin="round"/>
<path d="M90.9511 84.4475L81.9773 103.474L90.0212 105.799L96.5214 90.6362" fill="#376A66"/>
<path d="M90.9511 84.4475L81.9773 103.474L90.0212 105.799L96.5214 90.6362" stroke="#376A66" stroke-linecap="round" stroke-linejoin="round"/>
<path d="M90.0212 105.799L95.9449 92.5147" stroke="white" stroke-linecap="round" stroke-linejoin="round"/>
<path d="M93.9128 97.3922L96.8933 94.4117" stroke="white" stroke-linecap="round" stroke-linejoin="round"/>
<path d="M85.0786 147.088C88.7929 149.013 92.9663 149.877 97.1398 149.585" stroke="#376A66" stroke-linecap="round" stroke-linejoin="round"/>
<path d="M83.0605 145.87C83.0605 145.87 83.4186 146.139 84.0835 146.539" stroke="#376A66" stroke-linecap="round" stroke-linejoin="round"/>
<path d="M113.218 145.995C113.809 145.675 114.382 145.322 114.934 144.94" stroke="#376A66" stroke-linecap="round" stroke-linejoin="round"/>
<path d="M101.315 148.98C104.945 148.932 108.528 148.154 111.851 146.693" stroke="#376A66" stroke-linecap="round" stroke-linejoin="round"/>
<path d="M99.7715 139.992L103.11 134.213" stroke="#376A66" stroke-linecap="round" stroke-linejoin="round"/>
<path d="M99.9529 139.69L105.519 133.381" stroke="#376A66" stroke-linecap="round" stroke-linejoin="round"/>
<path d="M85.7574 137.184L85.2925 140.615C86.4344 141.414 87.6878 142.041 89.0122 142.475C91.2394 143.219 95.9867 143.126 95.9867 143.126L96.6376 139.871C96.6376 139.871 88.3798 138.941 86.7106 137.547" stroke="#376A66" stroke-linecap="round" stroke-linejoin="round"/>
<path d="M85.2041 141.913C85.2041 141.913 83.9022 145.07 84.7391 145.814C85.576 146.558 91.509 148.78 93.1085 148.603C94.708 148.427 95.61 144.521 95.61 144.521" stroke="#376A66" stroke-linecap="round" stroke-linejoin="round"/>
<path d="M132.412 178.375C132.938 176.562 131.073 177.473 130.287 178.059C129.269 178.817 124.187 179.454 124.187 179.454L123.568 178.059C122.637 178.878 121.57 179.529 120.416 179.984C121.769 182.672 122.852 184.783 123.327 184.862C124.68 185.103 126.744 183.374 127.749 182.672C129.027 181.774 131.961 179.952 132.412 178.375Z" fill="#376A66" stroke="#376A66" stroke-linecap="round" stroke-linejoin="round"/>
<path d="M128.548 180.914C126.456 182.002 124.015 183.323 122.606 184.062C122.913 184.527 123.159 184.829 123.327 184.857C124.68 185.099 126.744 183.369 127.748 182.667C129.027 181.774 131.961 179.952 132.398 178.375C132.621 177.613 132.398 177.334 132.049 177.311C131.278 178.603 130.078 180.133 128.548 180.914Z" fill="white" stroke="#376A66" stroke-linecap="round" stroke-linejoin="round"/>
<path d="M80.708 184.973C80.4849 184.806 77.9601 183.034 78.0391 182.816C78.0391 182.816 78.5459 181.453 79.3224 179.435C77.991 179.269 76.6891 178.918 75.4539 178.394C74.2171 182.151 73.1291 185.34 73.436 185.805C74.0544 186.8 79.5363 188.172 81.6519 188.172C82.7632 188.172 84.6044 188.6 85.3391 187.516C85.3809 187.456 80.9917 185.182 80.708 184.973Z" fill="white" stroke="#376A66" stroke-linecap="round" stroke-linejoin="round"/>
<path d="M85.3389 187.516C85.3808 187.456 80.9915 185.192 80.6893 184.973C80.387 184.755 77.9413 183.034 78.0204 182.816L78.5132 181.5C77.2319 181.267 75.9766 180.909 74.7656 180.43C73.8357 183.248 73.1801 185.424 73.4172 185.805C74.0356 186.8 79.5176 188.172 81.6331 188.172C82.763 188.172 84.6043 188.6 85.3389 187.516Z" fill="#376A66" stroke="#376A66" stroke-linecap="round" stroke-linejoin="round"/>
<path d="M80.9868 187.144C78.1366 186.972 74.9702 185.801 73.4218 185.159C73.3597 185.37 73.3597 185.594 73.4218 185.805C74.0402 186.8 79.5222 188.172 81.6378 188.172C82.749 188.172 84.5903 188.6 85.325 187.516C85.1175 187.37 84.8982 187.241 84.6694 187.131C83.4436 187.22 82.2132 187.225 80.9868 187.144Z" fill="white" stroke="#376A66" stroke-linecap="round" stroke-linejoin="round"/>
<path d="M98.2371 65.6211L95.7542 59.7207" stroke="black" stroke-linecap="round" stroke-linejoin="round"/>
<path d="M95.4426 58.6373C95.4426 58.6373 94.6661 56.9262 95.2892 56.1497" stroke="black" stroke-linecap="round" stroke-linejoin="round"/>
</svg>
