<svg width="205" height="205" viewBox="0 0 205 205" fill="none" xmlns="http://www.w3.org/2000/svg">
<path d="M157.548 119.943V119.913C153.494 118.566 147.274 119.024 146.35 119.575C145.368 120.233 144.524 121.077 143.866 122.059C141.682 125.157 140.117 128.647 139.255 132.338L95.163 136.437C93.5384 132.929 91.0891 129.785 88.6298 127.887C87.9271 127.298 87.1174 126.851 86.2451 126.57C85.8611 126.524 85.4724 126.538 85.0925 126.61C83.4927 121.975 81.2272 117.503 78.3954 117.22C72.4336 116.624 62.0302 118.621 59.1934 124.404C56.3566 130.187 55.4673 144.624 55.4673 144.624L53.48 146.612C52.0306 143.788 50.0146 141.293 47.558 139.284C46.8576 138.692 46.0472 138.245 45.1732 137.967C44.6764 137.828 42.6892 138.136 40.6075 138.817C40.523 138.737 40.4435 138.658 40.3541 138.583C38.3668 136.919 34.2929 136.01 32.0175 140.253C29.7421 144.495 32.4746 152.529 33.8359 154.347C34.497 155.276 35.326 156.073 36.2802 156.697C37.8849 160.672 40.7516 165.739 45.1633 165.973C46.6744 166.054 48.1854 165.81 49.5937 165.256C51.0021 164.702 52.2749 163.852 53.326 162.763C56.1877 159.782 56.4957 155.594 55.4176 151.495L55.8796 150.82C55.8796 150.82 56.9081 152.285 60.8478 151.694C61.9899 151.577 63.0727 151.128 63.9629 150.402C65.811 155.117 68.7969 159.842 73.5415 160.547C75.5778 160.859 77.6572 160.728 79.6385 160.164C81.6197 159.6 83.4562 158.616 85.0229 157.278C85.9336 156.492 86.7281 155.58 87.3828 154.571C90.0394 154.424 92.5421 153.278 94.3879 151.361C96.0395 149.6 96.984 147.292 97.0409 144.878L102.908 144.192C106.592 145.835 110.61 146.587 114.638 146.388C118.495 146.14 122.147 144.56 124.967 141.917L138.336 140.774C138.56 145.956 140.423 150.711 144.795 153.329C146.469 154.328 148.339 154.952 150.278 155.159C152.216 155.366 154.176 155.15 156.023 154.526C162.189 152.459 163.649 143.298 164.047 137.729C164.663 128.786 161.811 121.21 157.548 119.943Z" fill="#376A66" stroke="#376A66" stroke-width="0.75" stroke-linecap="round" stroke-linejoin="round"/>
<path d="M75.921 157.671C75.4084 158.326 74.7546 158.858 74.0083 159.226" stroke="white" stroke-width="0.5" stroke-linecap="round" stroke-linejoin="round"/>
<path d="M78.3304 145.897C78.3304 145.897 78.9216 152.355 76.7207 156.454" stroke="white" stroke-width="0.5" stroke-linecap="round" stroke-linejoin="round"/>
<path d="M80.0744 153.031C79.513 155.515 78.3951 157.925 76.229 158.993" stroke="white" stroke-width="0.5" stroke-linecap="round" stroke-linejoin="round"/>
<path d="M82.7724 145.405C82.7724 145.405 83.7661 156.141 78.4551 158.734" stroke="white" stroke-width="0.5" stroke-linecap="round" stroke-linejoin="round"/>
<path d="M84.9981 145.156C84.9981 145.156 85.9917 155.897 80.6758 158.486" stroke="white" stroke-width="0.5" stroke-linecap="round" stroke-linejoin="round"/>
<path d="M152.024 152.683C151.453 153.404 150.743 154.004 149.937 154.447" stroke="white" stroke-width="0.5" stroke-linecap="round" stroke-linejoin="round"/>
<path d="M156.018 139.274C156.018 139.274 155.7 146.622 152.972 151.297" stroke="white" stroke-width="0.5" stroke-linecap="round" stroke-linejoin="round"/>
<path d="M156.728 147.412C155.834 150.239 154.403 152.981 152.143 154.173" stroke="white" stroke-width="0.5" stroke-linecap="round" stroke-linejoin="round"/>
<path d="M160.429 138.728C160.429 138.728 159.898 150.969 154.348 153.9" stroke="white" stroke-width="0.5" stroke-linecap="round" stroke-linejoin="round"/>
<path d="M162.645 138.459C162.645 138.459 162.114 150.696 156.564 153.632" stroke="white" stroke-width="0.5" stroke-linecap="round" stroke-linejoin="round"/>
<path d="M46.564 164.314C46.1412 164.961 45.5837 165.51 44.9294 165.923" stroke="white" stroke-width="0.5" stroke-linecap="round" stroke-linejoin="round"/>
<path d="M47.349 153.865C47.349 153.865 48.75 159.33 47.1702 163.151" stroke="white" stroke-width="0.5" stroke-linecap="round" stroke-linejoin="round"/>
<path d="M49.9478 159.733C49.7242 161.944 48.9542 164.17 47.0315 165.392" stroke="white" stroke-width="0.5" stroke-linecap="round" stroke-linejoin="round"/>
<path d="M51.5425 152.802C51.5425 152.802 53.8775 161.869 49.1279 164.855" stroke="white" stroke-width="0.5" stroke-linecap="round" stroke-linejoin="round"/>
<path d="M53.6389 152.266C53.6389 152.266 55.9789 161.332 51.2244 164.323" stroke="white" stroke-width="0.5" stroke-linecap="round" stroke-linejoin="round"/>
<path d="M70.7636 142.215C71.9461 148.977 71.2058 154.76 69.1192 155.132C67.0325 155.505 64.3746 150.308 63.1922 143.546C62.0097 136.785 62.75 131.002 64.8416 130.629C66.9332 130.257 69.5812 135.448 70.7636 142.215Z" fill="#009688" stroke="#376A66" stroke-linecap="round" stroke-linejoin="round"/>
<path d="M69.7106 142.359C70.0385 144.953 69.7354 147.124 69.025 147.213C68.3145 147.303 67.4799 145.276 67.152 142.682C66.8241 140.089 67.152 137.913 67.8376 137.823C68.5232 137.734 69.3827 139.766 69.7106 142.359Z" fill="#009688" stroke="#376A66" stroke-linecap="round" stroke-linejoin="round"/>
<path d="M64.728 136.159C64.7985 135.288 64.9364 134.425 65.1404 133.576" stroke="#376A66" stroke-width="0.75" stroke-linecap="round" stroke-linejoin="round"/>
<path d="M68.022 152.693C66.6472 149.94 65.664 147.009 65.1008 143.984C64.7266 141.844 64.5751 139.671 64.6487 137.5" stroke="#376A66" stroke-width="0.75" stroke-linecap="round" stroke-linejoin="round"/>
<path d="M41.5251 162.31C43.027 161.894 43.1521 157.615 41.8045 152.752C40.4568 147.889 38.1469 144.285 36.645 144.701C35.1431 145.117 35.018 149.397 36.3656 154.259C37.7132 159.122 40.0232 162.727 41.5251 162.31Z" fill="#009688" stroke="#376A66" stroke-linecap="round" stroke-linejoin="round"/>
<path d="M41.3133 152.946C41.7853 154.794 41.7605 156.394 41.2537 156.523C40.7469 156.653 39.962 155.256 39.49 153.413C39.018 151.57 39.0429 149.96 39.5496 149.836C40.0564 149.712 40.8413 151.098 41.3133 152.946Z" stroke="#376A66" stroke-width="0.75" stroke-linecap="round" stroke-linejoin="round"/>
<path d="M37.1494 148.907C37.1217 148.271 37.1433 147.633 37.214 147" stroke="#376A66" stroke-width="0.75" stroke-linecap="round" stroke-linejoin="round"/>
<path d="M41.0196 160.578C39.7772 158.709 38.8023 156.675 38.1231 154.536C37.6589 153.022 37.3525 151.463 37.209 149.886" stroke="#376A66" stroke-width="0.75" stroke-linecap="round" stroke-linejoin="round"/>
<path d="M148.024 69.7643C142.788 58.9586 140.527 58.0196 137.045 57.8407C133.562 57.6619 125.34 56.6384 116.178 58.104C116.178 58.104 90.6221 57.6569 70.8487 69.6352C50.206 82.14 40.1604 93.1247 38.7544 98.8182C37.3484 104.512 32.5491 119.347 30.2737 127.852C27.9983 136.358 26.4482 143.85 29.3496 150.736C31.1034 154.899 32.9714 156.151 35.371 156.131C35.0039 155.472 34.6803 154.79 34.4022 154.089C32.0175 148.182 32.3057 139.731 35.0282 139.185C37.7508 138.638 39.3754 144.297 41.0198 150.467C41.3463 151.827 41.7884 153.157 42.3414 154.442C46.4103 152.907 52.9286 149.474 61.593 145.907C60.7705 140.487 60.7521 134.976 61.5384 129.551C62.8202 121.071 68.2404 119.198 70.6003 124.36C72.5528 128.612 73.2782 138.131 73.4719 141.341C76.9497 140.143 79.861 139.353 81.6545 139.244C81.6545 139.244 111.305 132.547 133.16 132.011C155.015 131.474 165.949 130.952 165.949 130.952C165.949 130.952 153.261 80.5502 148.024 69.7643Z" fill="white"/>
<mask id="mask0_25_1136" style="mask-type:luminance" maskUnits="userSpaceOnUse" x="27" y="57" width="139" height="100">
<path d="M148.024 69.7643C142.788 58.9586 140.527 58.0196 137.045 57.8407C133.562 57.6619 125.34 56.6384 116.178 58.104C116.178 58.104 90.6221 57.6569 70.8487 69.6352C50.206 82.14 40.1604 93.1247 38.7544 98.8182C37.3484 104.512 32.5491 119.347 30.2737 127.852C27.9983 136.358 26.4482 143.85 29.3496 150.736C31.1034 154.899 32.9714 156.151 35.371 156.131C35.0039 155.472 34.6803 154.79 34.4022 154.089C32.0175 148.182 32.3057 139.731 35.0282 139.185C37.7508 138.638 39.3754 144.297 41.0198 150.467C41.3463 151.827 41.7884 153.157 42.3414 154.442C46.4103 152.907 52.9286 149.474 61.593 145.907C60.7705 140.487 60.7521 134.976 61.5384 129.551C62.8202 121.071 68.2404 119.198 70.6003 124.36C72.5528 128.612 73.2782 138.131 73.4719 141.341C76.9497 140.143 79.861 139.353 81.6545 139.244C81.6545 139.244 111.305 132.547 133.16 132.011C155.015 131.474 165.949 130.952 165.949 130.952C165.949 130.952 153.261 80.5502 148.024 69.7643Z" fill="white"/>
</mask>
<g mask="url(#mask0_25_1136)">
<path d="M78.1518 121.9C78.1518 121.9 75.1461 126.014 71.4895 126.893C72.7812 131.633 73.3128 138.648 73.4768 141.301C76.5819 140.233 79.22 139.483 81.0284 139.264C81.2917 137.714 81.4507 136.725 81.4507 136.725L78.1518 121.9Z" fill="#009688"/>
<path opacity="0.2" d="M41.1493 150.914C42.5305 151.053 43.4496 151.65 46.2566 150.949C51.2248 149.712 47.6527 140.123 55.8949 136.209C57.4948 135.402 59.236 134.913 61.022 134.768C61.0961 133.013 61.2619 131.264 61.5188 129.526C61.7376 127.82 62.2415 126.162 63.0093 124.623C60.7587 123.932 60.3513 123.271 56.5159 125.095C48.2687 129.01 49.5058 139.11 44.5625 140.347C40.6177 141.341 40.3991 139.756 37.4033 140.491C38.8043 142.478 39.8874 146.349 40.9804 150.427C41.0649 150.611 41.1046 150.745 41.1493 150.914Z" fill="#009688"/>
<g style="mix-blend-mode:multiply">
<path opacity="0.2" d="M33.0363 142.424C30.7261 144.014 29.3499 146.398 28.5649 148.411C28.7779 149.204 29.04 149.984 29.3499 150.746C31.1037 154.909 32.9717 156.161 35.3713 156.141C35.0042 155.482 34.6806 154.8 34.4025 154.099C32.8872 150.338 32.4799 145.554 33.0363 142.424Z" fill="#009688"/>
</g>
<g style="mix-blend-mode:multiply" opacity="0.2">
<path d="M137.045 57.8408L136.145 57.7862C99.9124 67.0568 85.1719 110.727 80.0994 131.772C80.3726 133.864 80.6707 135.916 80.9936 137.913C81.6097 137.794 81.1824 139.244 81.6544 139.219C81.6544 139.219 111.304 132.522 133.159 131.986C155.014 131.449 165.949 130.928 165.949 130.928C165.949 130.928 153.261 80.5503 148.024 69.7644C142.788 58.9785 140.527 57.9998 137.045 57.8408Z" fill="#009688"/>
</g>
</g>
<path d="M148.024 69.7643C142.788 58.9586 140.527 58.0196 137.045 57.8407C133.562 57.6619 125.34 56.6384 116.178 58.104C116.178 58.104 90.6221 57.6569 70.8487 69.6352C50.206 82.14 40.1604 93.1247 38.7544 98.8182C37.3484 104.512 32.5491 119.347 30.2737 127.852C27.9983 136.358 26.4482 143.85 29.3496 150.736C31.1034 154.899 32.9714 156.151 35.371 156.131C35.0039 155.472 34.6803 154.79 34.4022 154.089C32.0175 148.182 32.3057 139.731 35.0282 139.185C37.7508 138.638 39.3754 144.297 41.0198 150.467C41.3463 151.827 41.7884 153.157 42.3414 154.442C46.4103 152.907 52.9286 149.474 61.593 145.907C60.7705 140.487 60.7521 134.976 61.5384 129.551C62.8202 121.071 68.2404 119.198 70.6003 124.36C72.5528 128.612 73.2782 138.131 73.4719 141.341C76.9497 140.143 79.861 139.353 81.6545 139.244C81.6545 139.244 111.305 132.547 133.16 132.011C155.015 131.474 165.949 130.952 165.949 130.952C165.949 130.952 153.261 80.5502 148.024 69.7643Z" stroke="#376A66" stroke-linecap="round" stroke-linejoin="round"/>
<path opacity="0.2" d="M39.5693 124.295C39.9104 124.579 40.3255 124.759 40.7657 124.815C41.2058 124.87 41.6527 124.798 42.0534 124.608C43.6184 123.982 43.7774 121.627 43.7774 121.627L46.1224 121.473L46.5943 114.115L41.4274 116.147C41.4274 116.147 40.0413 123.356 39.5693 124.295Z" fill="#009688"/>
<path d="M32.7922 145.812C31.3086 146.601 29.9059 147.532 28.604 148.594C28.81 149.322 29.0588 150.037 29.3492 150.736C31.103 154.899 32.971 156.151 35.3707 156.131C35.0035 155.472 34.6799 154.79 34.4019 154.089C33.3834 151.446 32.8385 148.644 32.7922 145.812Z" fill="#376A66" stroke="#376A66" stroke-width="0.75" stroke-linecap="round" stroke-linejoin="round"/>
<path d="M40.7065 141.708C40.572 141.708 40.4402 141.671 40.3248 141.602C40.2095 141.533 40.1148 141.434 40.0507 141.316C39.9602 141.144 39.9408 140.944 39.9966 140.758C40.0523 140.572 40.1788 140.416 40.3488 140.322C40.468 140.258 50.1361 134.266 58.1447 130.008C58.2312 129.962 58.3259 129.934 58.4233 129.924C58.5208 129.915 58.6192 129.925 58.7128 129.954C58.8065 129.982 58.8936 130.029 58.9691 130.091C59.0447 130.153 59.1073 130.23 59.1533 130.316C59.1993 130.403 59.2278 130.498 59.2372 130.595C59.2466 130.692 59.2368 130.791 59.2081 130.884C59.1795 130.978 59.1328 131.065 59.0705 131.141C59.0082 131.216 58.9317 131.279 58.8453 131.325C50.8415 135.578 41.1784 141.564 41.0592 141.629C40.9505 141.685 40.8289 141.713 40.7065 141.708Z" fill="#376A66" stroke="#376A66" stroke-miterlimit="10"/>
<path d="M53.346 91.9073L53.0032 100.438C52.9287 101.6 53.6043 102.162 54.4936 101.66L68.2306 92.7171C68.7356 92.365 69.1428 91.8902 69.414 91.3375C69.6851 90.7848 69.8113 90.1722 69.7807 89.5573L69.6962 80.0433C69.5969 79.1788 69.0106 78.8261 68.2902 79.1987C65.7068 80.5351 60.7187 85.0562 54.7569 89.2642C54.353 89.5844 54.0192 89.9843 53.7765 90.439C53.5338 90.8937 53.3872 91.3935 53.346 91.9073Z" fill="#009688" stroke="#376A66" stroke-linecap="round" stroke-linejoin="round"/>
<path d="M62.6265 89.5029L69.3385 91.1424" stroke="#376A66" stroke-linecap="round" stroke-linejoin="round"/>
<path d="M53.4453 101.7L57.5888 92.5485" stroke="#376A66" stroke-linecap="round" stroke-linejoin="round"/>
<path d="M53.425 91.6243L59.516 92.3844C60.147 92.4788 60.932 91.9571 61.5033 91.0529L69.4524 79.6708" stroke="#376A66" stroke-linecap="round" stroke-linejoin="round"/>
<path d="M87.432 76.0588L88.843 97.4219C88.8795 98.0386 89.0413 98.6413 89.3186 99.1934C89.5958 99.7454 89.9827 100.235 90.4556 100.633C90.9284 101.03 91.4773 101.327 92.0688 101.505C92.6602 101.684 93.2818 101.74 93.8956 101.67L141.352 95.5092C142.005 95.4339 142.635 95.2174 143.197 94.8749C143.759 94.5324 144.24 94.0719 144.606 93.5253C144.973 92.9787 145.217 92.3591 145.32 91.7091C145.424 91.0592 145.385 90.3945 145.207 89.761L139.215 68.5767C138.932 67.57 138.309 66.6922 137.452 66.092C136.596 65.4917 135.558 65.2059 134.515 65.2828C126.825 65.8492 108.378 67.5036 90.9644 71.3838C89.9188 71.6213 88.9908 72.2208 88.3445 73.0762C87.6981 73.9317 87.3749 74.9881 87.432 76.0588Z" fill="#009688" stroke="#376A66" stroke-linecap="round" stroke-linejoin="round"/>
<path d="M122.707 82.6817L144.373 92.946" stroke="#376A66" stroke-linecap="round" stroke-linejoin="round"/>
<path d="M90.6416 100.731L108.939 84.3558" stroke="#376A66" stroke-linecap="round" stroke-linejoin="round"/>
<path d="M87.5913 75.4976L113.848 86.2935C114.834 86.6961 115.916 86.8039 116.962 86.6037C118.007 86.4035 118.973 85.904 119.74 85.1657L138.455 67.4939" stroke="#376A66" stroke-linecap="round" stroke-linejoin="round"/>
<path d="M140.029 98.5331C144.489 98.4233 148.017 94.7809 147.909 90.3976C147.801 86.0143 144.098 82.5499 139.638 82.6596C135.178 82.7694 131.649 86.4118 131.757 90.7952C131.865 95.1785 135.568 98.6429 140.029 98.5331Z" fill="#376A66" stroke="#376A66" stroke-width="0.75" stroke-linecap="round" stroke-linejoin="round"/>
<path d="M138.963 94.3865H138.938C138.781 94.3869 138.626 94.3502 138.486 94.2794C138.347 94.2086 138.225 94.1057 138.133 93.9791L134.958 89.5972C134.803 89.3837 134.74 89.1175 134.781 88.8571C134.823 88.5967 134.966 88.3634 135.179 88.2086C135.393 88.0538 135.659 87.9901 135.919 88.0315C136.18 88.073 136.413 88.2162 136.568 88.4297L138.938 91.6987L144.601 83.8738C144.756 83.6604 144.99 83.5172 145.25 83.4757C145.51 83.4343 145.777 83.4979 145.99 83.6528C146.204 83.8076 146.347 84.0409 146.388 84.3013C146.43 84.5617 146.366 84.8279 146.211 85.0414L139.753 93.9841C139.661 94.1077 139.542 94.2084 139.405 94.2783C139.268 94.3481 139.116 94.3852 138.963 94.3865Z" fill="white" stroke="#376A66" stroke-linecap="round" stroke-linejoin="round"/>
<path d="M108.954 115.799C108.954 115.799 125.846 112.56 137.422 112.789L138.118 115.571C138.118 115.571 113.813 116.723 109.183 119.048L108.954 115.799Z" fill="#376A66" stroke="#376A66" stroke-width="0.75" stroke-linecap="round" stroke-linejoin="round"/>
<path d="M109.183 119.039L109.68 121.821C109.731 122.131 109.902 122.408 110.155 122.594C110.409 122.78 110.725 122.859 111.036 122.814C115.274 122.208 130.149 120.166 137.864 120.355C138.054 120.361 138.243 120.322 138.415 120.241C138.587 120.16 138.738 120.04 138.854 119.889C138.971 119.739 139.051 119.564 139.087 119.377C139.123 119.19 139.114 118.998 139.061 118.815L138.137 115.581" stroke="#376A66" stroke-linecap="round" stroke-linejoin="round"/>
<path d="M47.5429 114.125L47.4485 102.649L48.0199 90.8494C48.0242 90.7365 47.9943 90.625 47.9342 90.5294C47.874 90.4337 47.7865 90.3585 47.6829 90.3134C47.5794 90.2683 47.4646 90.2555 47.3536 90.2767C47.2427 90.2979 47.1407 90.352 47.061 90.4321C44.9247 92.6181 41.2681 95.9269 40.1851 98.6395C38.7791 102.152 37.1147 119.441 37.1147 119.441L47.5429 114.125Z" fill="#376A66" stroke="#376A66" stroke-width="0.75" stroke-linecap="round" stroke-linejoin="round"/>
<path d="M34.3128 111.82H32.6484C31.8006 111.82 31.1133 112.507 31.1133 113.355V121.93C31.1133 122.778 31.8006 123.465 32.6484 123.465H34.3128C35.1606 123.465 35.8479 122.778 35.8479 121.93V113.355C35.8479 112.507 35.1606 111.82 34.3128 111.82Z" fill="#376A66" stroke="#376A66" stroke-width="0.75" stroke-linecap="round" stroke-linejoin="round"/>
<path d="M35.3611 103.811C36.1489 103.962 36.9184 104.197 37.6564 104.512C38.2683 104.813 38.8244 105.216 39.3008 105.704L41.7849 102.42C41.7849 102.42 38.1433 100.895 37.4527 99.9656L36.7671 99.0316L35.3611 103.811Z" fill="white"/>
<mask id="mask1_25_1136" style="mask-type:luminance" maskUnits="userSpaceOnUse" x="35" y="99" width="7" height="7">
<path d="M35.3611 103.811C36.1489 103.962 36.9184 104.197 37.6564 104.512C38.2683 104.813 38.8244 105.216 39.3008 105.704L41.7849 102.42C41.7849 102.42 38.1433 100.895 37.4527 99.9656L36.7671 99.0316L35.3611 103.811Z" fill="white"/>
</mask>
<g mask="url(#mask1_25_1136)">
<g style="mix-blend-mode:multiply" opacity="0.5">
<path d="M37.4477 99.9655L36.8068 99.0762L36.7323 99.1259L35.3611 103.796C35.3611 103.796 35.6244 103.846 35.997 103.935L39.5493 101.362C38.7729 101.022 38.0617 100.549 37.4477 99.9655Z" fill="#009688"/>
</g>
</g>
<path d="M35.3611 103.811C36.1489 103.962 36.9184 104.197 37.6564 104.512C38.2683 104.813 38.8244 105.216 39.3008 105.704L41.7849 102.42C41.7849 102.42 38.1433 100.895 37.4527 99.9656L36.7671 99.0316L35.3611 103.811Z" stroke="#376A66" stroke-width="0.75" stroke-linecap="round" stroke-linejoin="round"/>
<path d="M40.6073 101.024L37.5718 104.894L37.9841 106.211L42.6095 101.406L40.6073 101.024Z" fill="#009688" stroke="#376A66" stroke-linecap="round" stroke-linejoin="round"/>
<path d="M35.7484 90.0891C33.6965 88.4993 28.3508 89.5128 27.3025 93.2787C26.6566 95.5988 27.0143 99.0766 27.0143 99.0766L33.1053 97.7848L33.6021 98.535C34.5958 100.025 36.747 99.0318 37.3034 98.535C37.6065 98.2717 37.5866 97.4967 37.5071 96.8558L37.7505 96.8011C37.7505 96.8011 37.7953 91.6839 35.7484 90.0891Z" fill="#376A66" stroke="#376A66" stroke-width="0.75" stroke-linecap="round" stroke-linejoin="round"/>
<path d="M33.4733 97.3279C30.7999 97.0301 28.0938 97.2872 25.5242 98.0831C21.5497 99.4145 20.9386 100.567 23.7854 100.498C26.6322 100.428 33.4733 97.3279 33.4733 97.3279Z" fill="#376A66" stroke="#376A66" stroke-width="0.75" stroke-linecap="round" stroke-linejoin="round"/>
<path d="M28.5645 95.8819C29.0282 95.8819 29.4041 95.3681 29.4041 94.7342C29.4041 94.1004 29.0282 93.5866 28.5645 93.5866C28.1008 93.5866 27.7249 94.1004 27.7249 94.7342C27.7249 95.3681 28.1008 95.8819 28.5645 95.8819Z" fill="#009688"/>
<path d="M47.4487 102.649C47.4487 102.649 42.0085 101.267 40.3343 102.539C38.66 103.811 38.2327 105.913 38.7693 108.461C39.3059 111.01 40.6125 117.712 40.6125 117.712L47.5431 114.125L47.4487 102.649Z" fill="#376A66" stroke="#376A66" stroke-width="0.75" stroke-linecap="round" stroke-linejoin="round"/>
<path d="M38.8142 116.644C38.8142 116.644 38.5211 119.218 38.1783 119.58C37.8355 119.943 28.7934 112.347 28.242 111.631C27.6905 110.916 28.0681 108.362 28.242 107.562C28.4159 106.762 28.1227 106.325 27.2483 106.877C26.374 107.428 26.6075 109.723 26.6075 109.723C26.6075 109.723 23.9395 109.083 23.408 109.008C22.8764 108.933 22.4143 109.594 22.4938 110.121C22.5733 110.647 23.2738 110.692 23.2738 110.692C23.0946 111.455 23.1447 112.253 23.4179 112.987C23.8849 113.951 24.4115 114.557 25.4052 114.796C26.4303 114.956 27.4683 115.019 28.5053 114.985C28.5053 114.985 33.1257 119.386 34.4671 121.031C35.8085 122.675 38.6354 124.911 40.0414 124.509C41.4474 124.106 42.7888 117.086 42.7888 117.086L38.8142 116.644Z" fill="white"/>
<mask id="mask2_25_1136" style="mask-type:luminance" maskUnits="userSpaceOnUse" x="22" y="106" width="21" height="19">
<path d="M38.8133 116.644C38.8133 116.644 38.5202 119.218 38.1773 119.58C37.8345 119.943 28.7925 112.347 28.241 111.631C27.6895 110.916 28.0671 108.362 28.241 107.562C28.4149 106.762 28.1218 106.325 27.2474 106.877C26.373 107.428 26.6065 109.723 26.6065 109.723C26.6065 109.723 23.9386 109.083 23.407 109.008C22.8754 108.933 22.4133 109.594 22.4928 110.121C22.5723 110.647 23.2728 110.692 23.2728 110.692C23.0936 111.455 23.1437 112.253 23.4169 112.987C23.8839 113.951 24.4105 114.557 25.4042 114.796C26.4294 114.956 27.4673 115.019 28.5043 114.985C28.5043 114.985 33.1247 119.386 34.4661 121.031C35.8075 122.675 38.6344 124.911 40.0404 124.509C41.4464 124.106 42.7878 117.086 42.7878 117.086L38.8133 116.644Z" fill="white"/>
</mask>
<g mask="url(#mask2_25_1136)">
<g style="mix-blend-mode:multiply" opacity="0.5">
<path d="M38.1771 119.58L40.8202 120.46C40.904 121.014 40.7869 121.58 40.4899 122.056C40.1928 122.531 39.7356 122.885 39.2006 123.053C38.0331 123.441 35.9365 122.114 34.446 120.996L34.4908 121.051C35.857 122.7 38.6591 124.931 40.065 124.529C41.471 124.126 42.8124 117.106 42.8124 117.106L38.8131 116.609C38.8131 116.609 38.5199 119.218 38.1771 119.58Z" fill="#009688"/>
</g>
</g>
<path d="M38.8142 116.644C38.8142 116.644 38.5211 119.218 38.1783 119.58C37.8355 119.943 28.7934 112.347 28.242 111.631C27.6905 110.916 28.0681 108.362 28.242 107.562C28.4159 106.762 28.1227 106.325 27.2483 106.877C26.374 107.428 26.6075 109.723 26.6075 109.723C26.6075 109.723 23.9395 109.083 23.408 109.008C22.8764 108.933 22.4143 109.594 22.4938 110.121C22.5733 110.647 23.2738 110.692 23.2738 110.692C23.0946 111.455 23.1447 112.253 23.4179 112.987C23.8849 113.951 24.4115 114.557 25.4052 114.796C26.4303 114.956 27.4683 115.019 28.5053 114.985C28.5053 114.985 33.1257 119.386 34.4671 121.031C35.8085 122.675 38.6354 124.911 40.0414 124.509C41.4474 124.106 42.7888 117.086 42.7888 117.086L38.8142 116.644Z" stroke="#376A66" stroke-width="0.75" stroke-linecap="round" stroke-linejoin="round"/>
<path d="M29.7767 113.027L28.5049 115.004L29.1557 115.446L30.4574 113.583L29.7767 113.027Z" fill="#376A66" stroke="#376A66" stroke-miterlimit="10"/>
<path d="M29.3393 114.89C29.6137 114.89 29.8362 114.668 29.8362 114.393C29.8362 114.119 29.6137 113.897 29.3393 113.897C29.065 113.897 28.8425 114.119 28.8425 114.393C28.8425 114.668 29.065 114.89 29.3393 114.89Z" fill="white" stroke="#376A66" stroke-width="0.75" stroke-linecap="round" stroke-linejoin="round"/>
<path d="M28.1223 99.7125C28.1223 99.7125 28.4254 100.463 28.9321 101.779C29.4389 103.096 32.1614 105.873 33.4929 106.032C34.8244 106.191 36.4192 101.352 36.6725 100.353C36.757 100.025 36.8415 99.4989 36.8415 99.4989C36.8415 99.4989 38.5157 98.7089 38.1282 97.755C37.7407 96.8011 36.9557 96.3639 36.5831 96.6571C36.2105 96.9502 36.1459 98.1873 35.5895 98.1972C35.033 98.2071 34.73 98.0332 34.2381 97.3774C33.7463 96.7216 28.6489 98.0829 28.1223 99.7125Z" fill="white"/>
<mask id="mask3_25_1136" style="mask-type:luminance" maskUnits="userSpaceOnUse" x="28" y="96" width="11" height="11">
<path d="M28.1223 99.7125C28.1223 99.7125 28.4254 100.463 28.9321 101.779C29.4389 103.096 32.1614 105.873 33.4929 106.032C34.8244 106.191 36.4192 101.352 36.6725 100.353C36.757 100.025 36.8415 99.4989 36.8415 99.4989C36.8415 99.4989 38.5157 98.7089 38.1282 97.755C37.7407 96.8011 36.9557 96.3639 36.5831 96.6571C36.2105 96.9502 36.1459 98.1873 35.5895 98.1972C35.033 98.2071 34.73 98.0332 34.2381 97.3774C33.7463 96.7216 28.6489 98.0829 28.1223 99.7125Z" fill="white"/>
</mask>
<g mask="url(#mask3_25_1136)">
<path opacity="0.5" d="M34.2279 97.3773C33.7311 96.7264 28.6487 98.0877 28.1221 99.7123L28.4102 100.448C30.353 99.2759 32.4643 98.4096 34.6701 97.879C34.5053 97.728 34.3571 97.5598 34.2279 97.3773Z" fill="#009688"/>
<g style="mix-blend-mode:multiply">
<path opacity="0.5" d="M38.0634 97.6208C37.656 96.7662 36.9357 96.3787 36.573 96.6569C36.3457 96.9535 36.177 97.2908 36.0762 97.6506C36.7361 97.5767 37.4016 97.5667 38.0634 97.6208Z" fill="#009688"/>
</g>
</g>
<path d="M28.1223 99.7125C28.1223 99.7125 28.4254 100.463 28.9321 101.779C29.4389 103.096 32.1614 105.873 33.4929 106.032C34.8244 106.191 36.4192 101.352 36.6725 100.353C36.757 100.025 36.8415 99.4989 36.8415 99.4989C36.8415 99.4989 38.5157 98.7089 38.1282 97.755C37.7407 96.8011 36.9557 96.3639 36.5831 96.6571C36.2105 96.9502 36.1459 98.1873 35.5895 98.1972C35.033 98.2071 34.73 98.0332 34.2381 97.3774C33.7463 96.7216 28.6489 98.0829 28.1223 99.7125Z" stroke="#376A66" stroke-width="0.75" stroke-linecap="round" stroke-linejoin="round"/>
<path d="M29.9256 100.07C30.015 100.373 29.9852 100.651 29.8659 100.686C29.7467 100.721 29.5728 100.502 29.4834 100.189C29.394 99.8763 29.4238 99.608 29.543 99.5733C29.6622 99.5385 29.8361 99.777 29.9256 100.07Z" fill="#376A66" stroke="#376A66" stroke-miterlimit="10"/>
<path d="M29.0015 99.2256C29.697 99.0269 29.9951 99.5485 30.0796 100.03L30.2087 100.602L30.641 102.813L31.2968 102.534" stroke="#376A66" stroke-width="0.5" stroke-linecap="round" stroke-linejoin="round"/>
<path d="M31.8333 99.3946C31.9843 99.2288 32.1724 99.101 32.3822 99.0216C32.592 98.9421 32.8175 98.9133 33.0405 98.9375" stroke="#376A66" stroke-width="0.5" stroke-linecap="round" stroke-linejoin="round"/>
<path d="M32.4097 98.0183C32.1271 98.0774 31.8677 98.2173 31.663 98.421C31.4584 98.6248 31.3174 98.8836 31.2571 99.166" stroke="#376A66" stroke-width="0.5" stroke-linecap="round" stroke-linejoin="round"/>
<path d="M31.8887 103.25C31.8887 103.25 33.3294 102.962 33.4437 101.928" stroke="#376A66" stroke-width="0.5" stroke-linecap="round" stroke-linejoin="round"/>
<path d="M44.1198 120.37L36.8464 118.343C36.8464 118.343 37.4873 105.923 38.6101 103.821C40.3589 100.557 44.3682 102.028 45.1234 106.131C45.8289 110.007 44.1198 120.37 44.1198 120.37Z" fill="#009688" stroke="#376A66" stroke-linecap="round" stroke-linejoin="round"/>
<path d="M37.02 116.962C37.02 116.962 40.9946 117.876 43.4141 118.671" stroke="#376A66" stroke-width="0.5" stroke-linecap="round" stroke-linejoin="round"/>
<path d="M43.3152 101.65C43.3152 101.65 45.68 101.834 47.2251 103.105" stroke="#009688" stroke-width="0.5" stroke-linecap="round" stroke-linejoin="round"/>
<path d="M84.9882 133.421C84.9882 133.421 74.3961 137.157 73.4273 138.176C72.4585 139.194 72.5579 143.169 74.8432 145.102C77.1286 147.034 93.4192 142.652 105.065 141.375C116.71 140.099 142.276 138.221 152.709 137.714C163.143 137.207 167.887 138.583 168.801 135.329C169.715 132.075 169.601 128.597 167.614 127.892C165.627 127.186 129.419 121.389 84.9882 133.421Z" fill="#376A66" stroke="#376A66" stroke-width="0.75" stroke-linecap="round" stroke-linejoin="round"/>
<path d="M72.6716 140.347C72.6716 140.347 73.1684 144.654 75.8165 145.315C78.4645 145.976 109.933 140.014 128.479 139.353C147.025 138.693 163.256 138.196 163.256 138.196" stroke="white" stroke-width="0.5" stroke-linecap="round" stroke-linejoin="round"/>
<path d="M88.0432 142.533C100.344 139.552 125.647 135.339 168.225 136.536" stroke="white" stroke-width="0.5" stroke-linecap="round" stroke-linejoin="round"/>
<path d="M77.9583 145.156C77.9583 145.156 80.7851 144.471 85.0826 143.298" stroke="white" stroke-width="0.5" stroke-linecap="round" stroke-linejoin="round"/>
<path d="M80.5514 145.648C80.6851 147.495 80.6352 149.351 80.4023 151.188" stroke="white" stroke-width="0.5" stroke-linecap="round" stroke-linejoin="round"/>
<path d="M80.0995 66.202C80.0995 66.202 77.7297 68.9792 77.5459 71.4682" stroke="#376A66" stroke-width="0.75" stroke-linecap="round" stroke-linejoin="round"/>
<path d="M77.2975 73.4755C77.2975 73.4755 75.5139 101.849 80.2337 132.045" stroke="#376A66" stroke-width="0.75" stroke-linecap="round" stroke-linejoin="round"/>
<path d="M77.8585 106.261C77.8585 106.261 74.0082 107.602 73.9585 109.341C73.8293 114.016 74.3212 123.992 75.3396 124.961C76.3581 125.929 79.5228 123.366 79.5228 123.366C79.5228 123.366 83.9942 123.753 84.491 122.75C84.9878 121.746 83.1248 107.622 82.8465 106.39C82.5683 105.158 77.8585 106.261 77.8585 106.261Z" fill="#009688" stroke="#376A66" stroke-linecap="round" stroke-linejoin="round"/>
<path d="M158.283 112.987C159.285 113.477 160.374 113.764 161.488 113.832C160.256 109.202 158.86 104.045 157.419 98.8977C156.117 98.8082 154.438 98.8082 154.473 99.3945C154.498 100.398 157.026 112.262 158.283 112.987Z" fill="#009688" stroke="#376A66" stroke-linecap="round" stroke-linejoin="round"/>
<path d="M77.3074 107.721C77.3074 107.721 77.4763 116.664 78.1371 120.142" stroke="#376A66" stroke-width="0.75" stroke-linecap="round" stroke-linejoin="round"/>
<path d="M123.75 109.788C123.75 109.788 145.917 106.216 171.747 110.782" stroke="#376A66" stroke-linecap="round" stroke-linejoin="round"/>
<path d="M191.238 123.793C192.763 124.25 194.263 124.732 195.709 125.249" stroke="#376A66" stroke-linecap="round" stroke-linejoin="round"/>
<path d="M151.437 117.046C151.437 117.046 169.014 118.114 185.847 122.322" stroke="#376A66" stroke-linecap="round" stroke-linejoin="round"/>
<path d="M97.9399 157.979C112.413 155.767 127.117 155.505 141.66 157.199" stroke="#376A66" stroke-linecap="round" stroke-linejoin="round"/>
<path d="M96.1218 155.639C96.1218 155.639 106.525 154.338 109.908 154.079" stroke="#376A66" stroke-linecap="round" stroke-linejoin="round"/>
<path d="M165.795 59.1472C167.286 59.3608 168.776 59.644 170.128 59.9669" stroke="#376A66" stroke-linecap="round" stroke-linejoin="round"/>
<path d="M144.377 58.6556C150.499 58.2232 156.644 58.2647 162.759 58.7798" stroke="#376A66" stroke-linecap="round" stroke-linejoin="round"/>
<path d="M64.2209 118.84C64.2209 118.84 79.0658 111.81 100.543 109.858" stroke="#376A66" stroke-linecap="round" stroke-linejoin="round"/>
<path d="M89.2207 105.947C89.2207 105.947 98.2081 103.607 111.881 102.822" stroke="#376A66" stroke-linecap="round" stroke-linejoin="round"/>
<path d="M63.9773 155.585C65.7814 158.816 68.6928 161.286 72.1748 162.54" stroke="#376A66" stroke-linecap="round" stroke-linejoin="round"/>
<path d="M63.4805 157.82C63.4805 157.82 65.7161 161.298 68.697 162.788" stroke="#376A66" stroke-linecap="round" stroke-linejoin="round"/>
<path d="M136.761 145.4C136.761 145.4 138.251 152.355 144.213 155.336" stroke="#376A66" stroke-linecap="round" stroke-linejoin="round"/>
<path d="M137.507 151.61C138.688 153.34 140.32 154.715 142.227 155.585" stroke="#376A66" stroke-linecap="round" stroke-linejoin="round"/>
<path d="M39.2163 165.004C39.2163 165.004 40.7068 167.488 45.9233 167.488" stroke="#376A66" stroke-linecap="round" stroke-linejoin="round"/>
<path d="M38.2227 166.494C40.1232 168.075 42.4658 169.029 44.9297 169.227" stroke="#376A66" stroke-linecap="round" stroke-linejoin="round"/>
<path d="M105.383 160.364C92.1886 161.082 79.0909 163.041 66.2639 166.216L66.5719 166.678C66.5719 166.678 77.5019 164.358 97.7025 169.326C117.903 174.295 119.235 178.269 141.422 178.269C163.61 178.269 185.142 172.973 185.142 172.973L182.45 171.483C162.527 163.052 135.222 158.695 105.383 160.364Z" fill="#009688"/>
<path opacity="0.5" d="M105.383 160.364C92.1886 161.082 79.0909 163.041 66.2639 166.216L66.5719 166.678C66.5719 166.678 77.5019 164.358 97.7025 169.326C117.903 174.295 119.235 178.269 141.422 178.269C163.61 178.269 185.142 172.973 185.142 172.973L182.45 171.483C162.527 163.052 135.222 158.695 105.383 160.364Z" fill="white"/>
<path d="M56.7747 171.731C56.7747 171.731 82.8576 167.756 105.463 182.909" stroke="#376A66" stroke-linecap="round" stroke-linejoin="round"/>
<path d="M84.0994 177.444C84.0994 177.444 94.7809 180.674 101.24 187.629" stroke="#376A66" stroke-linecap="round" stroke-linejoin="round"/>
<path d="M147.195 164.775C147.195 164.775 162.348 166.266 176.01 174.463" stroke="#376A66" stroke-linecap="round" stroke-linejoin="round"/>
<path d="M194.442 177.613C197.171 179.283 199.769 181.158 202.213 183.222" stroke="#376A66" stroke-linecap="round" stroke-linejoin="round"/>
<path d="M16.6863 189.333C34.7953 173.932 67.5156 162.505 105.383 160.364C139.947 158.401 171.122 164.592 191.332 175.765" stroke="#376A66" stroke-linecap="round" stroke-linejoin="round"/>
<path d="M127.074 164.527C127.074 164.527 142.723 165.272 153.157 168.75" stroke="#376A66" stroke-linecap="round" stroke-linejoin="round"/>
<path d="M56.1177 46.5829C56.1177 46.5829 55.6209 39.712 45.5604 39.4636C35.4998 39.2151 38.1926 46.3395 35.4948 48.0585C32.7971 49.7775 32.0569 47.0648 29.3542 48.7938C26.6515 50.5227 27.8637 53.9507 25.6728 54.4426C23.4818 54.9344 20.5158 52.2318 17.8181 53.9458C15.1204 55.6598 15.1154 57.1353 13.8883 57.1353C12.6611 57.1353 10.2069 56.1417 8.73628 57.1353C7.2657 58.129 5.54175 59.3313 5.54175 59.3313H67.6439C67.6439 59.3313 68.3792 57.1204 65.6566 55.6498C62.9341 54.1793 61.7268 55.4014 60.7481 54.1594C59.7693 52.9174 63.4806 49.7775 56.1177 46.5829Z" fill="#009688"/>
<path d="M93.0163 20.2864C93.0163 20.2864 92.7182 16.1529 86.667 16.0039C80.6158 15.8548 82.2354 20.1424 80.6108 21.1757C78.9862 22.2091 78.544 20.5845 76.9194 21.6179C75.2948 22.6513 76.0351 24.7181 74.7036 25.0112C73.3722 25.3043 71.6035 23.6847 69.9789 24.7181C68.3543 25.7514 68.3543 26.6358 67.614 26.6358C66.8738 26.6358 65.3982 26.0495 64.5139 26.6358C63.6296 27.222 62.5962 27.9672 62.5962 27.9672H99.9568C99.9568 27.9672 100.399 26.6358 98.7744 25.7514C97.1498 24.8671 96.4145 25.6024 95.8233 24.8671C95.2321 24.1318 97.4479 22.2091 93.0163 20.2864Z" fill="#009688"/>
<path opacity="0.7" d="M56.1177 46.5829C56.1177 46.5829 55.6209 39.712 45.5604 39.4636C35.4998 39.2151 38.1926 46.3395 35.4948 48.0585C32.7971 49.7775 32.0569 47.0648 29.3542 48.7938C26.6515 50.5227 27.8637 53.9507 25.6728 54.4426C23.4818 54.9344 20.5158 52.2318 17.8181 53.9458C15.1204 55.6598 15.1154 57.1353 13.8883 57.1353C12.6611 57.1353 10.2069 56.1417 8.73628 57.1353C7.2657 58.129 5.54175 59.3313 5.54175 59.3313H67.6439C67.6439 59.3313 68.3792 57.1204 65.6566 55.6498C62.9341 54.1793 61.7268 55.4014 60.7481 54.1594C59.7693 52.9174 63.4806 49.7775 56.1177 46.5829Z" fill="white"/>
<path opacity="0.8" d="M93.0163 20.2864C93.0163 20.2864 92.7182 16.1529 86.667 16.0039C80.6158 15.8548 82.2354 20.1424 80.6108 21.1757C78.9862 22.2091 78.544 20.5845 76.9194 21.6179C75.2948 22.6513 76.0351 24.7181 74.7036 25.0112C73.3722 25.3043 71.6035 23.6847 69.9789 24.7181C68.3543 25.7514 68.3543 26.6358 67.614 26.6358C66.8738 26.6358 65.3982 26.0495 64.5139 26.6358C63.6296 27.222 62.5962 27.9672 62.5962 27.9672H99.9568C99.9568 27.9672 100.399 26.6358 98.7744 25.7514C97.1498 24.8671 96.4145 25.6024 95.8233 24.8671C95.2321 24.1318 97.4479 22.2091 93.0163 20.2864Z" fill="white"/>
</svg>
