<svg width="201" height="175" viewBox="0 0 201 175" fill="none" xmlns="http://www.w3.org/2000/svg">
<g id="mail-sent/bro">
<g id="Character--inject-1">
<path id="Vector" d="M155.275 104.609V104.58C151.221 103.233 145.001 103.69 144.077 104.242C143.094 104.9 142.25 105.743 141.593 106.726C139.409 109.824 137.844 113.314 136.982 117.005L92.8898 121.104C91.2652 117.596 88.8159 114.451 86.3567 112.554C85.654 111.965 84.8443 111.518 83.972 111.237C83.588 111.191 83.1992 111.205 82.8193 111.277C81.2196 106.641 78.9541 102.17 76.1223 101.887C70.1605 101.291 59.7571 103.288 56.9203 109.071C54.0835 114.854 53.1942 129.291 53.1942 129.291L51.2069 131.279C49.7575 128.455 47.7415 125.96 45.2848 123.951C44.5845 123.359 43.774 122.911 42.9001 122.634C42.4033 122.495 40.416 122.803 38.3344 123.484C38.2499 123.404 38.1704 123.325 38.081 123.25C36.0937 121.586 32.0198 120.677 29.7444 124.919C27.469 129.162 30.2015 137.196 31.5627 139.014C32.2238 139.943 33.0529 140.74 34.0071 141.364C35.6118 145.339 38.4784 150.406 42.8902 150.64C44.4013 150.721 45.9122 150.476 47.3206 149.923C48.7289 149.369 50.0018 148.519 51.0529 147.43C53.9145 144.449 54.2226 140.261 53.1445 136.162L53.6065 135.487C53.6065 135.487 54.6349 136.952 58.5747 136.361C59.7168 136.243 60.7995 135.794 61.6897 135.069C63.5379 139.784 66.5238 144.509 71.2684 145.214C73.3046 145.526 75.3841 145.395 77.3653 144.831C79.3466 144.267 81.183 143.283 82.7498 141.945C83.6604 141.159 84.455 140.247 85.1097 139.238C87.7663 139.091 90.2689 137.944 92.1148 136.028C93.7664 134.267 94.7109 131.959 94.7678 129.545L100.635 128.859C104.318 130.502 108.337 131.254 112.365 131.055C116.222 130.807 119.874 129.227 122.694 126.584L136.063 125.441C136.287 130.623 138.15 135.377 142.522 137.996C144.196 138.995 146.066 139.619 148.005 139.826C149.943 140.032 151.903 139.817 153.75 139.193C159.915 137.126 161.376 127.965 161.774 122.396C162.39 113.453 159.538 105.876 155.275 104.609Z" fill="#376A66" stroke="#376A66" stroke-width="0.75" stroke-linecap="round" stroke-linejoin="round"/>
<path id="Vector_2" d="M73.6479 142.338C73.1352 142.993 72.4814 143.525 71.7351 143.893" stroke="white" stroke-width="0.5" stroke-linecap="round" stroke-linejoin="round"/>
<path id="Vector_3" d="M76.0573 130.564C76.0573 130.564 76.6486 137.022 74.4477 141.121" stroke="white" stroke-width="0.5" stroke-linecap="round" stroke-linejoin="round"/>
<path id="Vector_4" d="M77.8012 137.698C77.2398 140.182 76.122 142.591 73.9558 143.66" stroke="white" stroke-width="0.5" stroke-linecap="round" stroke-linejoin="round"/>
<path id="Vector_5" d="M80.4992 130.072C80.4992 130.072 81.4928 140.808 76.1819 143.401" stroke="white" stroke-width="0.5" stroke-linecap="round" stroke-linejoin="round"/>
<path id="Vector_6" d="M82.725 129.823C82.725 129.823 83.7186 140.564 78.4027 143.153" stroke="white" stroke-width="0.5" stroke-linecap="round" stroke-linejoin="round"/>
<path id="Vector_7" d="M149.751 137.35C149.18 138.071 148.47 138.67 147.664 139.113" stroke="white" stroke-width="0.5" stroke-linecap="round" stroke-linejoin="round"/>
<path id="Vector_8" d="M153.745 123.941C153.745 123.941 153.427 131.289 150.699 135.964" stroke="white" stroke-width="0.5" stroke-linecap="round" stroke-linejoin="round"/>
<path id="Vector_9" d="M154.455 132.079C153.561 134.906 152.13 137.648 149.87 138.84" stroke="white" stroke-width="0.5" stroke-linecap="round" stroke-linejoin="round"/>
<path id="Vector_10" d="M158.156 123.394C158.156 123.394 157.625 135.636 152.075 138.567" stroke="white" stroke-width="0.5" stroke-linecap="round" stroke-linejoin="round"/>
<path id="Vector_11" d="M160.372 123.126C160.372 123.126 159.841 135.363 154.291 138.299" stroke="white" stroke-width="0.5" stroke-linecap="round" stroke-linejoin="round"/>
<path id="Vector_12" d="M44.2908 148.981C43.868 149.628 43.3105 150.177 42.6563 150.59" stroke="white" stroke-width="0.5" stroke-linecap="round" stroke-linejoin="round"/>
<path id="Vector_13" d="M45.0759 138.532C45.0759 138.532 46.4769 143.997 44.897 147.818" stroke="white" stroke-width="0.5" stroke-linecap="round" stroke-linejoin="round"/>
<path id="Vector_14" d="M47.6747 144.4C47.4512 146.611 46.6811 148.836 44.7584 150.059" stroke="white" stroke-width="0.5" stroke-linecap="round" stroke-linejoin="round"/>
<path id="Vector_15" d="M49.2694 137.469C49.2694 137.469 51.6044 146.536 46.8548 149.522" stroke="white" stroke-width="0.5" stroke-linecap="round" stroke-linejoin="round"/>
<path id="Vector_16" d="M51.3658 136.932C51.3658 136.932 53.7058 145.999 48.9513 148.99" stroke="white" stroke-width="0.5" stroke-linecap="round" stroke-linejoin="round"/>
<path id="Vector_17" d="M68.4906 126.882C69.673 133.644 68.9328 139.426 66.8461 139.799C64.7595 140.172 62.1015 134.975 60.9191 128.213C59.7367 121.452 60.4769 115.669 62.5685 115.296C64.6601 114.923 67.3082 120.115 68.4906 126.882Z" fill="#009688" stroke="#376A66" stroke-linecap="round" stroke-linejoin="round"/>
<path id="Vector_18" d="M67.4376 127.026C67.7655 129.619 67.4624 131.791 66.752 131.88C66.0415 131.969 65.2069 129.942 64.879 127.349C64.5511 124.756 64.879 122.58 65.5646 122.49C66.2502 122.401 67.1097 124.433 67.4376 127.026Z" fill="#009688" stroke="#376A66" stroke-linecap="round" stroke-linejoin="round"/>
<path id="Vector_19" d="M62.4548 120.826C62.5253 119.955 62.6632 119.092 62.8672 118.242" stroke="#376A66" stroke-width="0.75" stroke-linecap="round" stroke-linejoin="round"/>
<path id="Vector_20" d="M65.7489 137.36C64.3741 134.607 63.3909 131.676 62.8277 128.651C62.4535 126.511 62.302 124.338 62.3755 122.167" stroke="#376A66" stroke-width="0.75" stroke-linecap="round" stroke-linejoin="round"/>
<path id="Vector_21" d="M39.2521 146.977C40.754 146.561 40.8791 142.282 39.5314 137.419C38.1838 132.556 35.8738 128.952 34.3719 129.368C32.8701 129.784 32.745 134.064 34.0926 138.926C35.4402 143.789 37.7502 147.393 39.2521 146.977Z" fill="#009688" stroke="#376A66" stroke-linecap="round" stroke-linejoin="round"/>
<path id="Vector_22" d="M39.0401 137.613C39.5121 139.461 39.4872 141.061 38.9805 141.19C38.4737 141.319 37.6887 139.923 37.2168 138.08C36.7448 136.237 36.7696 134.627 37.2764 134.503C37.7831 134.379 38.5681 135.765 39.0401 137.613Z" stroke="#376A66" stroke-width="0.75" stroke-linecap="round" stroke-linejoin="round"/>
<path id="Vector_23" d="M34.8762 133.574C34.8485 132.938 34.8701 132.3 34.9408 131.667" stroke="#376A66" stroke-width="0.75" stroke-linecap="round" stroke-linejoin="round"/>
<path id="Vector_24" d="M38.7463 145.244C37.504 143.376 36.5291 141.342 35.8499 139.203C35.3856 137.689 35.0793 136.13 34.9357 134.553" stroke="#376A66" stroke-width="0.75" stroke-linecap="round" stroke-linejoin="round"/>
<path id="Vector_25" d="M145.751 54.4312C140.515 43.6254 138.254 42.6865 134.772 42.5076C131.289 42.3287 123.066 41.3053 113.905 42.7709C113.905 42.7709 88.3489 42.3238 68.5756 54.302C47.9329 66.8069 37.8872 77.7915 36.4812 83.4851C35.0752 89.1786 30.276 104.014 28.0006 112.519C25.7251 121.025 24.1751 128.517 27.0765 135.402C28.8302 139.566 30.6983 140.818 33.0979 140.798C32.7308 140.139 32.4071 139.457 32.1291 138.756C29.7444 132.849 30.0325 124.398 32.7551 123.851C35.4777 123.305 37.1022 128.964 38.7467 135.134C39.0731 136.494 39.5153 137.824 40.0682 139.109C44.1372 137.574 50.6554 134.141 59.3199 130.573C58.4974 125.154 58.4789 119.643 59.2653 114.218C60.547 105.737 65.9673 103.864 68.3272 109.026C70.2797 113.279 71.005 122.798 71.1988 126.008C74.6765 124.81 77.5879 124.02 79.3814 123.911C79.3814 123.911 109.031 117.214 130.886 116.677C152.741 116.141 163.676 115.619 163.676 115.619C163.676 115.619 150.988 65.2171 145.751 54.4312Z" fill="white"/>
<g id="Clip path group">
<mask id="mask0_132_1249" style="mask-type:luminance" maskUnits="userSpaceOnUse" x="25" y="41" width="139" height="100">
<g id="clip-path--inject-1">
<path id="Vector_26" d="M145.751 54.4312C140.515 43.6254 138.254 42.6865 134.772 42.5076C131.289 42.3287 123.066 41.3053 113.905 42.7709C113.905 42.7709 88.3489 42.3238 68.5756 54.302C47.9329 66.8069 37.8872 77.7915 36.4812 83.4851C35.0752 89.1786 30.276 104.014 28.0006 112.519C25.7251 121.025 24.1751 128.517 27.0765 135.402C28.8302 139.566 30.6983 140.818 33.0979 140.798C32.7308 140.139 32.4071 139.457 32.1291 138.756C29.7444 132.849 30.0325 124.398 32.7551 123.851C35.4777 123.305 37.1022 128.964 38.7467 135.134C39.0731 136.494 39.5153 137.824 40.0682 139.109C44.1372 137.574 50.6554 134.141 59.3199 130.573C58.4974 125.154 58.4789 119.643 59.2653 114.218C60.547 105.737 65.9673 103.864 68.3272 109.026C70.2797 113.279 71.005 122.798 71.1988 126.008C74.6765 124.81 77.5879 124.02 79.3814 123.911C79.3814 123.911 109.031 117.214 130.886 116.677C152.741 116.141 163.676 115.619 163.676 115.619C163.676 115.619 150.988 65.2171 145.751 54.4312Z" fill="white"/>
</g>
</mask>
<g mask="url(#mask0_132_1249)">
<g id="Group">
<path id="Vector_27" d="M75.8787 106.567C75.8787 106.567 72.8729 110.681 69.2164 111.56C70.5081 116.3 71.0397 123.315 71.2036 125.968C74.3087 124.9 76.9468 124.15 78.7553 123.931C79.0186 122.381 79.1776 121.392 79.1776 121.392L75.8787 106.567Z" fill="#009688"/>
<path id="Vector_28" opacity="0.2" d="M38.8763 135.581C40.2575 135.72 41.1766 136.317 43.9836 135.616C48.9518 134.379 45.3796 124.79 53.6218 120.875C55.2218 120.069 56.9629 119.579 58.749 119.435C58.8231 117.68 58.9889 115.931 59.2458 114.193C59.4646 112.487 59.9684 110.829 60.7363 109.29C58.4857 108.599 58.0783 107.938 54.2429 109.762C45.9957 113.677 47.2328 123.777 42.2894 125.014C38.3447 126.008 38.1261 124.423 35.1303 125.158C36.5313 127.145 37.6144 131.015 38.7074 135.094C38.7918 135.278 38.8316 135.412 38.8763 135.581Z" fill="#009688"/>
<g id="Group_2" style="mix-blend-mode:multiply">
<path id="Vector_29" opacity="0.2" d="M30.7632 127.091C28.453 128.681 27.0768 131.065 26.2918 133.077C26.5047 133.871 26.7669 134.651 27.0768 135.412C28.8305 139.576 30.6986 140.828 33.0982 140.808C32.7311 140.149 32.4074 139.467 32.1294 138.766C30.6141 135.005 30.2067 130.221 30.7632 127.091Z" fill="#009688"/>
</g>
<g id="Vector_30" style="mix-blend-mode:multiply" opacity="0.2">
<path d="M134.771 42.5077L133.872 42.453C97.6394 51.7236 82.8988 95.3938 77.8263 116.439C78.0996 118.531 78.3977 120.582 78.7206 122.58C79.3366 122.46 78.9094 123.911 79.3814 123.886C79.3814 123.886 109.031 117.189 130.886 116.653C152.741 116.116 163.676 115.594 163.676 115.594C163.676 115.594 150.988 65.2172 145.751 54.4313C140.515 43.6454 138.254 42.6666 134.771 42.5077Z" fill="#009688"/>
</g>
</g>
</g>
</g>
<path id="Vector_31" d="M145.751 54.4312C140.515 43.6254 138.254 42.6865 134.772 42.5076C131.289 42.3287 123.066 41.3053 113.905 42.7709C113.905 42.7709 88.3489 42.3238 68.5756 54.302C47.9329 66.8069 37.8872 77.7915 36.4812 83.4851C35.0752 89.1786 30.276 104.014 28.0006 112.519C25.7251 121.025 24.1751 128.517 27.0765 135.402C28.8302 139.566 30.6983 140.818 33.0979 140.798C32.7308 140.139 32.4071 139.457 32.1291 138.756C29.7444 132.849 30.0325 124.398 32.7551 123.851C35.4777 123.305 37.1022 128.964 38.7467 135.134C39.0731 136.494 39.5153 137.824 40.0682 139.109C44.1372 137.574 50.6554 134.141 59.3199 130.573C58.4974 125.154 58.4789 119.643 59.2653 114.218C60.547 105.737 65.9673 103.864 68.3272 109.026C70.2797 113.279 71.005 122.798 71.1988 126.008C74.6765 124.81 77.5879 124.02 79.3814 123.911C79.3814 123.911 109.031 117.214 130.886 116.677C152.741 116.141 163.676 115.619 163.676 115.619C163.676 115.619 150.988 65.2171 145.751 54.4312Z" stroke="#376A66" stroke-linecap="round" stroke-linejoin="round"/>
<path id="Vector_32" opacity="0.2" d="M37.2961 108.962C37.6372 109.246 38.0523 109.426 38.4924 109.481C38.9326 109.537 39.3794 109.465 39.7802 109.275C41.3452 108.649 41.5042 106.294 41.5042 106.294L43.8491 106.14L44.3211 98.7822L39.1542 100.814C39.1542 100.814 37.7681 108.023 37.2961 108.962Z" fill="#009688"/>
<path id="Vector_33" d="M30.519 130.479C29.0355 131.267 27.6328 132.199 26.3309 133.261C26.5369 133.989 26.7857 134.704 27.0761 135.402C28.8299 139.566 30.6979 140.818 33.0975 140.798C32.7304 140.139 32.4068 139.457 32.1287 138.756C31.1102 136.113 30.5654 133.311 30.519 130.479Z" fill="#376A66" stroke="#376A66" stroke-width="0.75" stroke-linecap="round" stroke-linejoin="round"/>
<path id="Vector_34" d="M38.4335 126.375C38.299 126.375 38.1672 126.338 38.0518 126.269C37.9365 126.2 37.8418 126.101 37.7777 125.983C37.6872 125.811 37.6678 125.611 37.7235 125.425C37.7793 125.239 37.9058 125.083 38.0758 124.989C38.195 124.925 47.863 118.933 55.8717 114.675C55.9582 114.629 56.0528 114.601 56.1503 114.591C56.2478 114.582 56.3461 114.592 56.4398 114.62C56.5335 114.649 56.6206 114.696 56.6961 114.758C56.7717 114.82 56.8343 114.897 56.8803 114.983C56.9263 115.07 56.9548 115.164 56.9642 115.262C56.9736 115.359 56.9637 115.458 56.9351 115.551C56.9065 115.645 56.8598 115.732 56.7975 115.808C56.7352 115.883 56.6587 115.946 56.5723 115.992C48.5685 120.245 38.9054 126.231 38.7862 126.296C38.6774 126.352 38.5559 126.38 38.4335 126.375Z" fill="#376A66" stroke="#376A66" stroke-miterlimit="10"/>
<path id="Vector_35" d="M51.0728 76.5742L50.73 85.1046C50.6555 86.2671 51.3311 86.8285 52.2204 86.3268L65.9574 77.384C66.4624 77.0319 66.8696 76.5572 67.1408 76.0045C67.4119 75.4518 67.5381 74.8392 67.5075 74.2243L67.423 64.7102C67.3237 63.8458 66.7374 63.493 66.017 63.8657C63.4336 65.2021 58.4456 69.7231 52.4837 73.9312C52.0798 74.2513 51.7461 74.6512 51.5033 75.1059C51.2606 75.5606 51.114 76.0604 51.0728 76.5742Z" fill="#009688" stroke="#376A66" stroke-linecap="round" stroke-linejoin="round"/>
<path id="Vector_36" d="M60.3533 74.1698L67.0653 75.8093" stroke="#376A66" stroke-linecap="round" stroke-linejoin="round"/>
<path id="Vector_37" d="M51.1721 86.3668L55.3155 77.2155" stroke="#376A66" stroke-linecap="round" stroke-linejoin="round"/>
<path id="Vector_38" d="M51.152 76.2912L57.243 77.0513C57.8739 77.1457 58.6589 76.6241 59.2302 75.7198L67.1793 64.3378" stroke="#376A66" stroke-linecap="round" stroke-linejoin="round"/>
<path id="Vector_39" d="M85.1588 60.7258L86.5698 82.0889C86.6063 82.7056 86.7681 83.3083 87.0454 83.8603C87.3227 84.4124 87.7095 84.9021 88.1824 85.2996C88.6552 85.6972 89.2041 85.9941 89.7956 86.1724C90.387 86.3507 91.0086 86.4066 91.6224 86.3367L139.078 80.1762C139.732 80.1008 140.362 79.8844 140.924 79.5419C141.486 79.1994 141.967 78.7389 142.333 78.1923C142.7 77.6457 142.943 77.026 143.047 76.3761C143.151 75.7262 143.112 75.0615 142.934 74.428L136.942 53.2437C136.658 52.237 136.036 51.3592 135.179 50.7589C134.323 50.1587 133.285 49.8728 132.242 49.9498C124.551 50.5162 106.105 52.1706 88.6912 56.0507C87.6456 56.2882 86.7176 56.8877 86.0713 57.7432C85.4249 58.5987 85.1017 59.6551 85.1588 60.7258Z" fill="#009688" stroke="#376A66" stroke-linecap="round" stroke-linejoin="round"/>
<path id="Vector_40" d="M120.433 67.3486L142.1 77.6129" stroke="#376A66" stroke-linecap="round" stroke-linejoin="round"/>
<path id="Vector_41" d="M88.3685 85.3978L106.666 69.0227" stroke="#376A66" stroke-linecap="round" stroke-linejoin="round"/>
<path id="Vector_42" d="M85.3182 60.1646L111.575 70.9605C112.561 71.3631 113.642 71.4709 114.688 71.2707C115.734 71.0705 116.7 70.5709 117.467 69.8327L136.182 52.1609" stroke="#376A66" stroke-linecap="round" stroke-linejoin="round"/>
<path id="Vector_43" d="M137.755 83.2C142.216 83.0902 145.744 79.4478 145.636 75.0644C145.528 70.6811 141.825 67.2167 137.365 67.3265C132.905 67.4363 129.376 71.0787 129.484 75.462C129.592 79.8453 133.295 83.3097 137.755 83.2Z" fill="#376A66" stroke="#376A66" stroke-width="0.75" stroke-linecap="round" stroke-linejoin="round"/>
<path id="Vector_44" d="M136.689 79.0534H136.665C136.508 79.0538 136.353 79.0171 136.213 78.9463C136.073 78.8755 135.952 78.7726 135.86 78.646L132.685 74.2641C132.53 74.0506 132.467 73.7844 132.508 73.524C132.55 73.2636 132.693 73.0303 132.906 72.8755C133.12 72.7207 133.386 72.657 133.646 72.6984C133.907 72.7399 134.14 72.8831 134.295 73.0966L136.665 76.3656L142.328 68.5407C142.483 68.3273 142.716 68.1841 142.977 68.1426C143.237 68.1012 143.504 68.1648 143.717 68.3197C143.93 68.4745 144.074 68.7078 144.115 68.9682C144.157 69.2286 144.093 69.4948 143.938 69.7083L137.479 78.651C137.388 78.7746 137.269 78.8753 137.132 78.9452C136.995 79.015 136.843 79.0521 136.689 79.0534Z" fill="white" stroke="#376A66" stroke-linecap="round" stroke-linejoin="round"/>
<path id="Vector_45" d="M106.681 100.466C106.681 100.466 123.573 97.227 135.149 97.4555L135.844 100.238C135.844 100.238 111.54 101.39 106.91 103.715L106.681 100.466Z" fill="#376A66" stroke="#376A66" stroke-width="0.75" stroke-linecap="round" stroke-linejoin="round"/>
<path id="Vector_46" d="M106.91 103.706L107.406 106.488C107.458 106.798 107.629 107.075 107.882 107.261C108.136 107.447 108.452 107.526 108.763 107.481C113.001 106.875 127.875 104.833 135.591 105.022C135.781 105.028 135.97 104.989 136.142 104.908C136.314 104.827 136.464 104.706 136.581 104.556C136.698 104.406 136.777 104.231 136.813 104.044C136.849 103.857 136.841 103.665 136.788 103.482L135.864 100.248" stroke="#376A66" stroke-linecap="round" stroke-linejoin="round"/>
<path id="Vector_47" d="M45.2699 98.7922L45.1755 87.3158L45.7468 75.5164C45.7511 75.4035 45.7212 75.292 45.6611 75.1963C45.601 75.1007 45.5134 75.0254 45.4098 74.9804C45.3063 74.9353 45.1915 74.9225 45.0806 74.9437C44.9696 74.9648 44.8676 75.019 44.788 75.099C42.6516 77.285 38.9951 80.5938 37.912 83.3064C36.506 86.8189 34.8417 104.108 34.8417 104.108L45.2699 98.7922Z" fill="#376A66" stroke="#376A66" stroke-width="0.75" stroke-linecap="round" stroke-linejoin="round"/>
<path id="Vector_48" d="M32.0397 96.4869H30.3753C29.5275 96.4869 28.8402 97.1743 28.8402 98.0221V106.597C28.8402 107.445 29.5275 108.132 30.3753 108.132H32.0397C32.8875 108.132 33.5748 107.445 33.5748 106.597V98.0221C33.5748 97.1743 32.8875 96.4869 32.0397 96.4869Z" fill="#376A66" stroke="#376A66" stroke-width="0.75" stroke-linecap="round" stroke-linejoin="round"/>
<path id="Vector_49" d="M33.088 88.4779C33.8759 88.629 34.6454 88.8638 35.3833 89.1784C35.9953 89.4795 36.5514 89.8827 37.0278 90.3707L39.5119 87.0868C39.5119 87.0868 35.8702 85.5615 35.1796 84.6325L34.494 83.6985L33.088 88.4779Z" fill="white"/>
<g id="Clip path group_2">
<mask id="mask1_132_1249" style="mask-type:luminance" maskUnits="userSpaceOnUse" x="33" y="83" width="7" height="8">
<g id="clip-path-2--inject-1">
<path id="Vector_50" d="M33.088 88.4779C33.8759 88.629 34.6454 88.8638 35.3833 89.1784C35.9953 89.4795 36.5514 89.8827 37.0278 90.3707L39.5119 87.0868C39.5119 87.0868 35.8702 85.5615 35.1796 84.6325L34.494 83.6985L33.088 88.4779Z" fill="white"/>
</g>
</mask>
<g mask="url(#mask1_132_1249)">
<g id="Group_3">
<g id="Vector_51" style="mix-blend-mode:multiply" opacity="0.5">
<path d="M35.1748 84.6323L34.5339 83.743L34.4593 83.7927L33.0881 88.4628C33.0881 88.4628 33.3514 88.5125 33.7241 88.6019L37.2763 86.0284C36.5 85.6888 35.7888 85.2163 35.1748 84.6323Z" fill="#009688"/>
</g>
</g>
</g>
</g>
<path id="Vector_52" d="M33.088 88.4779C33.8759 88.629 34.6454 88.8638 35.3833 89.1784C35.9953 89.4795 36.5514 89.8827 37.0278 90.3707L39.5119 87.0868C39.5119 87.0868 35.8702 85.5615 35.1796 84.6325L34.494 83.6985L33.088 88.4779Z" stroke="#376A66" stroke-width="0.75" stroke-linecap="round" stroke-linejoin="round"/>
<path id="Vector_53" d="M38.3343 85.6908L35.2987 89.561L35.7111 90.8776L40.3364 86.0733L38.3343 85.6908Z" fill="#009688" stroke="#376A66" stroke-linecap="round" stroke-linejoin="round"/>
<path id="Vector_54" d="M33.4751 74.7561C31.4233 73.1663 26.0775 74.1798 25.0292 77.9456C24.3834 80.2658 24.7411 83.7435 24.7411 83.7435L30.832 82.4518L31.3289 83.202C32.3225 84.6924 34.4737 83.6988 35.0302 83.202C35.3332 82.9387 35.3133 82.1636 35.2338 81.5227L35.4773 81.4681C35.4773 81.4681 35.522 76.3509 33.4751 74.7561Z" fill="#376A66" stroke="#376A66" stroke-width="0.75" stroke-linecap="round" stroke-linejoin="round"/>
<path id="Vector_55" d="M31.2001 81.9948C28.5267 81.697 25.8206 81.9541 23.2511 82.75C19.2765 84.0815 18.6654 85.2341 21.5122 85.1645C24.359 85.095 31.2001 81.9948 31.2001 81.9948Z" fill="#376A66" stroke="#376A66" stroke-width="0.75" stroke-linecap="round" stroke-linejoin="round"/>
<path id="Vector_56" d="M26.2912 80.5488C26.7549 80.5488 27.1308 80.035 27.1308 79.4012C27.1308 78.7674 26.7549 78.2535 26.2912 78.2535C25.8275 78.2535 25.4516 78.7674 25.4516 79.4012C25.4516 80.035 25.8275 80.5488 26.2912 80.5488Z" fill="#009688"/>
<path id="Vector_57" d="M45.1756 87.3155C45.1756 87.3155 39.7355 85.9344 38.0612 87.2062C36.3869 88.4781 35.9597 90.5796 36.4962 93.1283C37.0328 95.677 38.3394 102.379 38.3394 102.379L45.27 98.792L45.1756 87.3155Z" fill="#376A66" stroke="#376A66" stroke-width="0.75" stroke-linecap="round" stroke-linejoin="round"/>
<path id="Vector_58" d="M36.541 101.311C36.541 101.311 36.2479 103.885 35.9051 104.247C35.5623 104.61 26.5202 97.0136 25.9687 96.2981C25.4173 95.5827 25.7948 93.0291 25.9687 92.2292C26.1426 91.4293 25.8495 90.9921 24.9751 91.5436C24.1007 92.0951 24.3342 94.3904 24.3342 94.3904C24.3342 94.3904 21.6663 93.7495 21.1347 93.675C20.6031 93.6004 20.1411 94.2612 20.2206 94.7878C20.3 95.3144 21.0006 95.3592 21.0006 95.3592C20.8213 96.1217 20.8715 96.9203 21.1446 97.6545C21.6116 98.6183 22.1383 99.2244 23.1319 99.4629C24.1571 99.6228 25.195 99.686 26.232 99.6517C26.232 99.6517 30.8524 104.053 32.1938 105.698C33.5353 107.342 36.3621 109.578 37.7681 109.176C39.1741 108.773 40.5155 101.753 40.5155 101.753L36.541 101.311Z" fill="white"/>
<g id="Clip path group_3">
<mask id="mask2_132_1249" style="mask-type:luminance" maskUnits="userSpaceOnUse" x="20" y="91" width="21" height="19">
<g id="clip-path-3--inject-1">
<path id="Vector_59" d="M36.5401 101.311C36.5401 101.311 36.247 103.885 35.9042 104.247C35.5614 104.61 26.5193 97.0136 25.9679 96.2981C25.4164 95.5827 25.794 93.0291 25.9679 92.2292C26.1418 91.4293 25.8486 90.9921 24.9742 91.5436C24.0998 92.0951 24.3333 94.3904 24.3333 94.3904C24.3333 94.3904 21.6654 93.7495 21.1338 93.675C20.6022 93.6004 20.1402 94.2612 20.2197 94.7878C20.2992 95.3144 20.9997 95.3592 20.9997 95.3592C20.8205 96.1217 20.8706 96.9203 21.1438 97.6545C21.6108 98.6183 22.1374 99.2244 23.131 99.4629C24.1562 99.6228 25.1942 99.686 26.2312 99.6517C26.2312 99.6517 30.8516 104.053 32.193 105.698C33.5344 107.342 36.3613 109.578 37.7673 109.176C39.1733 108.773 40.5147 101.753 40.5147 101.753L36.5401 101.311Z" fill="white"/>
</g>
</mask>
<g mask="url(#mask2_132_1249)">
<g id="Group_4">
<g id="Vector_60" style="mix-blend-mode:multiply" opacity="0.5">
<path d="M35.9041 104.247L38.5472 105.127C38.631 105.681 38.5139 106.247 38.2168 106.723C37.9198 107.198 37.4625 107.552 36.9276 107.72C35.7601 108.108 33.6635 106.781 32.173 105.663L32.2178 105.718C33.584 107.367 36.386 109.598 37.792 109.196C39.198 108.793 40.5394 101.773 40.5394 101.773L36.5401 101.276C36.5401 101.276 36.2469 103.885 35.9041 104.247Z" fill="#009688"/>
</g>
</g>
</g>
</g>
<path id="Vector_61" d="M36.541 101.311C36.541 101.311 36.2479 103.885 35.9051 104.247C35.5623 104.61 26.5202 97.0136 25.9687 96.2981C25.4173 95.5827 25.7948 93.0291 25.9687 92.2292C26.1426 91.4293 25.8495 90.9921 24.9751 91.5436C24.1007 92.0951 24.3342 94.3904 24.3342 94.3904C24.3342 94.3904 21.6663 93.7495 21.1347 93.675C20.6031 93.6004 20.1411 94.2612 20.2206 94.7878C20.3 95.3144 21.0006 95.3592 21.0006 95.3592C20.8213 96.1217 20.8715 96.9203 21.1446 97.6545C21.6116 98.6183 22.1383 99.2244 23.1319 99.4629C24.1571 99.6228 25.195 99.686 26.232 99.6517C26.232 99.6517 30.8524 104.053 32.1938 105.698C33.5353 107.342 36.3621 109.578 37.7681 109.176C39.1741 108.773 40.5155 101.753 40.5155 101.753L36.541 101.311Z" stroke="#376A66" stroke-width="0.75" stroke-linecap="round" stroke-linejoin="round"/>
<path id="Vector_62" d="M27.5036 97.6938L26.2317 99.6712L26.8825 100.113L28.1842 98.2503L27.5036 97.6938Z" fill="#376A66" stroke="#376A66" stroke-miterlimit="10"/>
<path id="Vector_63" d="M27.0661 99.5571C27.3405 99.5571 27.5629 99.3347 27.5629 99.0603C27.5629 98.7859 27.3405 98.5635 27.0661 98.5635C26.7917 98.5635 26.5693 98.7859 26.5693 99.0603C26.5693 99.3347 26.7917 99.5571 27.0661 99.5571Z" fill="white" stroke="#376A66" stroke-width="0.75" stroke-linecap="round" stroke-linejoin="round"/>
<path id="Vector_64" d="M25.8491 84.3794C25.8491 84.3794 26.1521 85.1295 26.6589 86.4461C27.1656 87.7627 29.8882 90.5399 31.2197 90.6989C32.5511 90.8578 34.1459 86.0189 34.3993 85.0202C34.4837 84.6924 34.5682 84.1657 34.5682 84.1657C34.5682 84.1657 36.2425 83.3758 35.855 82.4219C35.4674 81.468 34.6825 81.0308 34.3099 81.3239C33.9372 81.6171 33.8727 82.8541 33.3162 82.8641C32.7598 82.874 32.4567 82.7001 31.9649 82.0443C31.473 81.3885 26.3757 82.7498 25.8491 84.3794Z" fill="white"/>
<g id="Clip path group_4">
<mask id="mask3_132_1249" style="mask-type:luminance" maskUnits="userSpaceOnUse" x="25" y="81" width="11" height="10">
<g id="clip-path-4--inject-1">
<path id="Vector_65" d="M25.8493 84.3794C25.8493 84.3794 26.1523 85.1295 26.6591 86.4461C27.1658 87.7627 29.8884 90.5399 31.2199 90.6989C32.5513 90.8578 34.1461 86.0189 34.3995 85.0202C34.484 84.6924 34.5684 84.1657 34.5684 84.1657C34.5684 84.1657 36.2427 83.3758 35.8552 82.4219C35.4677 81.468 34.6827 81.0308 34.3101 81.3239C33.9375 81.6171 33.8729 82.8541 33.3164 82.8641C32.76 82.874 32.4569 82.7001 31.9651 82.0443C31.4732 81.3885 26.3759 82.7498 25.8493 84.3794Z" fill="white"/>
</g>
</mask>
<g mask="url(#mask3_132_1249)">
<g id="Group_5">
<path id="Vector_66" opacity="0.5" d="M31.9551 82.0441C31.4583 81.3933 26.3759 82.7546 25.8492 84.3792L26.1374 85.1145C28.0802 83.9428 30.1914 83.0765 32.3973 82.5459C32.2325 82.3948 32.0843 82.2266 31.9551 82.0441Z" fill="#009688"/>
<g id="Group_6" style="mix-blend-mode:multiply">
<path id="Vector_67" opacity="0.5" d="M35.7906 82.2876C35.3832 81.433 34.6628 81.0455 34.3001 81.3237C34.0728 81.6203 33.9042 81.9576 33.8033 82.3174C34.4632 82.2434 35.1287 82.2335 35.7906 82.2876Z" fill="#009688"/>
</g>
</g>
</g>
</g>
<path id="Vector_68" d="M25.8491 84.3794C25.8491 84.3794 26.1521 85.1295 26.6589 86.4461C27.1656 87.7627 29.8882 90.5399 31.2197 90.6989C32.5511 90.8578 34.1459 86.0189 34.3993 85.0202C34.4837 84.6924 34.5682 84.1657 34.5682 84.1657C34.5682 84.1657 36.2425 83.3758 35.855 82.4219C35.4674 81.468 34.6825 81.0308 34.3099 81.3239C33.9372 81.6171 33.8727 82.8541 33.3162 82.8641C32.7598 82.874 32.4567 82.7001 31.9649 82.0443C31.473 81.3885 26.3757 82.7498 25.8491 84.3794Z" stroke="#376A66" stroke-width="0.75" stroke-linecap="round" stroke-linejoin="round"/>
<path id="Vector_69" d="M27.6526 84.737C27.742 85.0401 27.7122 85.3183 27.5929 85.3531C27.4737 85.3878 27.2998 85.1692 27.2104 84.8563C27.121 84.5433 27.1508 84.275 27.27 84.2402C27.3892 84.2054 27.5631 84.4439 27.6526 84.737Z" fill="#376A66" stroke="#376A66" stroke-miterlimit="10"/>
<path id="Vector_70" d="M26.7283 83.8925C27.4239 83.6938 27.722 84.2154 27.8064 84.6973L27.9356 85.2687L28.3678 87.4795L29.0236 87.2013" stroke="#376A66" stroke-width="0.5" stroke-linecap="round" stroke-linejoin="round"/>
<path id="Vector_71" d="M29.5602 84.0614C29.7113 83.8956 29.8994 83.7679 30.1092 83.6884C30.319 83.609 30.5445 83.5802 30.7675 83.6044" stroke="#376A66" stroke-width="0.5" stroke-linecap="round" stroke-linejoin="round"/>
<path id="Vector_72" d="M30.1366 82.6852C29.8539 82.7443 29.5946 82.8842 29.3899 83.0879C29.1853 83.2917 29.0443 83.5504 28.984 83.8328" stroke="#376A66" stroke-width="0.5" stroke-linecap="round" stroke-linejoin="round"/>
<path id="Vector_73" d="M29.6154 87.9167C29.6154 87.9167 31.0562 87.6286 31.1705 86.5952" stroke="#376A66" stroke-width="0.5" stroke-linecap="round" stroke-linejoin="round"/>
<path id="Vector_74" d="M41.8468 105.037L34.5734 103.01C34.5734 103.01 35.2143 90.5897 36.3371 88.4881C38.0859 85.224 42.0952 86.6946 42.8504 90.7983C43.5558 94.6735 41.8468 105.037 41.8468 105.037Z" fill="#009688" stroke="#376A66" stroke-linecap="round" stroke-linejoin="round"/>
<path id="Vector_75" d="M34.747 101.629C34.747 101.629 38.7215 102.543 41.141 103.338" stroke="#376A66" stroke-width="0.5" stroke-linecap="round" stroke-linejoin="round"/>
<path id="Vector_76" d="M41.0421 86.3168C41.0421 86.3168 43.4069 86.5006 44.952 87.7725" stroke="#009688" stroke-width="0.5" stroke-linecap="round" stroke-linejoin="round"/>
<path id="Vector_77" d="M82.7152 118.088C82.7152 118.088 72.1231 121.824 71.1543 122.843C70.1855 123.861 70.2849 127.836 72.5702 129.769C74.8556 131.701 91.1462 127.319 102.792 126.042C114.437 124.766 140.003 122.888 150.436 122.381C160.87 121.874 165.614 123.25 166.528 119.996C167.442 116.742 167.328 113.264 165.341 112.559C163.354 111.853 127.146 106.055 82.7152 118.088Z" fill="#376A66" stroke="#376A66" stroke-width="0.75" stroke-linecap="round" stroke-linejoin="round"/>
<path id="Vector_78" d="M70.3985 125.014C70.3985 125.014 70.8953 129.321 73.5434 129.982C76.1914 130.643 107.66 124.681 126.206 124.02C144.752 123.359 160.983 122.863 160.983 122.863" stroke="white" stroke-width="0.5" stroke-linecap="round" stroke-linejoin="round"/>
<path id="Vector_79" d="M85.7702 127.2C98.0714 124.219 123.374 120.006 165.952 121.203" stroke="white" stroke-width="0.5" stroke-linecap="round" stroke-linejoin="round"/>
<path id="Vector_80" d="M75.6851 129.823C75.6851 129.823 78.512 129.137 82.8094 127.965" stroke="white" stroke-width="0.5" stroke-linecap="round" stroke-linejoin="round"/>
<path id="Vector_81" d="M78.2781 130.315C78.4118 132.162 78.3619 134.018 78.1291 135.855" stroke="white" stroke-width="0.5" stroke-linecap="round" stroke-linejoin="round"/>
<path id="Vector_82" d="M77.8265 50.8689C77.8265 50.8689 75.4567 53.6461 75.2729 56.1352" stroke="#376A66" stroke-width="0.75" stroke-linecap="round" stroke-linejoin="round"/>
<path id="Vector_83" d="M75.0245 58.1425C75.0245 58.1425 73.2409 86.5157 77.9606 116.712" stroke="#376A66" stroke-width="0.75" stroke-linecap="round" stroke-linejoin="round"/>
<path id="Vector_84" d="M75.5853 90.9274C75.5853 90.9274 71.735 92.2688 71.6853 94.0077C71.5562 98.6828 72.048 108.659 73.0665 109.628C74.085 110.596 77.2497 108.033 77.2497 108.033C77.2497 108.033 81.721 108.42 82.2178 107.417C82.7147 106.413 80.8516 92.2887 80.5734 91.0566C80.2952 89.8245 75.5853 90.9274 75.5853 90.9274Z" fill="#009688" stroke="#376A66" stroke-linecap="round" stroke-linejoin="round"/>
<path id="Vector_85" d="M156.01 97.6543C157.012 98.1439 158.101 98.4309 159.215 98.4989C157.982 93.8685 156.586 88.7116 155.146 83.5645C153.844 83.4751 152.165 83.4751 152.199 84.0614C152.224 85.0649 154.753 96.9289 156.01 97.6543Z" fill="#009688" stroke="#376A66" stroke-linecap="round" stroke-linejoin="round"/>
<path id="Vector_86" d="M75.0342 92.3881C75.0342 92.3881 75.2031 101.331 75.8639 104.808" stroke="#376A66" stroke-width="0.75" stroke-linecap="round" stroke-linejoin="round"/>
<path id="Vector_87" d="M121.476 94.4549C121.476 94.4549 143.644 90.8827 169.474 95.4485" stroke="#376A66" stroke-linecap="round" stroke-linejoin="round"/>
<path id="Vector_88" d="M188.964 108.46C190.49 108.917 191.99 109.399 193.436 109.916" stroke="#376A66" stroke-linecap="round" stroke-linejoin="round"/>
<path id="Vector_89" d="M149.164 101.713C149.164 101.713 166.741 102.781 183.573 106.989" stroke="#376A66" stroke-linecap="round" stroke-linejoin="round"/>
<path id="Vector_90" d="M95.6668 142.646C110.14 140.434 124.844 140.172 139.387 141.866" stroke="#376A66" stroke-linecap="round" stroke-linejoin="round"/>
<path id="Vector_91" d="M93.8486 140.306C93.8486 140.306 104.252 139.005 107.635 138.746" stroke="#376A66" stroke-linecap="round" stroke-linejoin="round"/>
<path id="Vector_92" d="M163.522 43.8141C165.013 44.0277 166.503 44.3109 167.854 44.6338" stroke="#376A66" stroke-linecap="round" stroke-linejoin="round"/>
<path id="Vector_93" d="M142.104 43.3225C148.226 42.8901 154.371 42.9317 160.486 43.4467" stroke="#376A66" stroke-linecap="round" stroke-linejoin="round"/>
<path id="Vector_94" d="M61.9478 103.507C61.9478 103.507 76.7926 96.4769 98.27 94.5244" stroke="#376A66" stroke-linecap="round" stroke-linejoin="round"/>
<path id="Vector_95" d="M86.9476 90.6144C86.9476 90.6144 95.935 88.2744 109.607 87.4894" stroke="#376A66" stroke-linecap="round" stroke-linejoin="round"/>
<path id="Vector_96" d="M61.7042 140.251C63.5084 143.483 66.4197 145.953 69.9017 147.207" stroke="#376A66" stroke-linecap="round" stroke-linejoin="round"/>
<path id="Vector_97" d="M61.2074 142.487C61.2074 142.487 63.4431 145.965 66.424 147.455" stroke="#376A66" stroke-linecap="round" stroke-linejoin="round"/>
<path id="Vector_98" d="M134.488 130.067C134.488 130.067 135.978 137.022 141.94 140.003" stroke="#376A66" stroke-linecap="round" stroke-linejoin="round"/>
<path id="Vector_99" d="M135.234 136.277C136.415 138.007 138.047 139.382 139.953 140.252" stroke="#376A66" stroke-linecap="round" stroke-linejoin="round"/>
<path id="Vector_100" d="M36.9432 149.671C36.9432 149.671 38.4336 152.155 43.6502 152.155" stroke="#376A66" stroke-linecap="round" stroke-linejoin="round"/>
<path id="Vector_101" d="M35.9496 151.161C37.8501 152.742 40.1927 153.696 42.6566 153.894" stroke="#376A66" stroke-linecap="round" stroke-linejoin="round"/>
</g>
<g id="Floor--inject-1">
<path id="Vector_102" d="M103.11 145.031C89.9157 145.749 76.818 147.708 63.991 150.883L64.299 151.345C64.299 151.345 75.229 149.025 95.4296 153.993C115.63 158.962 116.962 162.936 139.149 162.936C161.337 162.936 182.869 157.64 182.869 157.64L180.177 156.15C160.254 147.719 132.949 143.361 103.11 145.031Z" fill="#009688"/>
<path id="Vector_103" opacity="0.5" d="M103.11 145.031C89.9157 145.749 76.818 147.708 63.991 150.883L64.299 151.345C64.299 151.345 75.229 149.025 95.4296 153.993C115.63 158.962 116.962 162.936 139.149 162.936C161.337 162.936 182.869 157.64 182.869 157.64L180.177 156.15C160.254 147.719 132.949 143.361 103.11 145.031Z" fill="white"/>
<path id="Vector_104" d="M54.5017 156.398C54.5017 156.398 80.5846 152.423 103.19 167.576" stroke="#376A66" stroke-linecap="round" stroke-linejoin="round"/>
<path id="Vector_105" d="M81.8263 162.111C81.8263 162.111 92.5079 165.341 98.9665 172.296" stroke="#376A66" stroke-linecap="round" stroke-linejoin="round"/>
<path id="Vector_106" d="M144.922 149.442C144.922 149.442 160.075 150.933 173.737 159.13" stroke="#376A66" stroke-linecap="round" stroke-linejoin="round"/>
<path id="Vector_107" d="M192.169 162.28C194.898 163.95 197.496 165.825 199.94 167.889" stroke="#376A66" stroke-linecap="round" stroke-linejoin="round"/>
<path id="Vector_108" d="M14.4133 174C32.5223 158.599 65.2426 147.172 103.11 145.031C137.674 143.068 168.849 149.259 189.059 160.432" stroke="#376A66" stroke-linecap="round" stroke-linejoin="round"/>
<path id="Vector_109" d="M124.801 149.194C124.801 149.194 140.45 149.939 150.884 153.417" stroke="#376A66" stroke-linecap="round" stroke-linejoin="round"/>
</g>
<g id="Clouds--inject-1">
<path id="Vector_110" d="M53.8445 31.2497C53.8445 31.2497 53.3477 24.3788 43.2872 24.1304C33.2266 23.882 35.9194 31.0063 33.2217 32.7253C30.5239 34.4443 29.7837 31.7317 27.081 33.4606C24.3783 35.1895 25.5905 38.6175 23.3996 39.1094C21.2086 39.6012 18.2426 36.8986 15.5449 38.6126C12.8472 40.3266 12.8422 41.8021 11.6151 41.8021C10.3879 41.8021 7.93367 40.8085 6.46309 41.8021C4.99251 42.7958 3.26855 43.9981 3.26855 43.9981H65.3707C65.3707 43.9981 66.106 41.7872 63.3834 40.3167C60.6609 38.8461 59.4536 40.0682 58.4749 38.8262C57.4961 37.5842 61.2074 34.4443 53.8445 31.2497Z" fill="#009688"/>
<path id="Vector_111" d="M90.7432 4.95335C90.7432 4.95335 90.4451 0.81983 84.3939 0.670785C78.3426 0.52174 79.9623 4.80927 78.3377 5.84265C76.7131 6.87603 76.2709 5.25144 74.6463 6.28482C73.0217 7.31819 73.762 9.38495 72.4305 9.67808C71.0991 9.9712 69.3304 8.35158 67.7058 9.38496C66.0812 10.4183 66.0812 11.3027 65.3409 11.3027C64.6007 11.3027 63.1251 10.7164 62.2408 11.3027C61.3565 11.8889 60.3231 12.6341 60.3231 12.6341H97.6837C97.6837 12.6341 98.1259 11.3027 96.5013 10.4183C94.8767 9.534 94.1414 10.2693 93.5502 9.534C92.959 8.79871 95.1748 6.87603 90.7432 4.95335Z" fill="#009688"/>
<path id="Vector_112" opacity="0.7" d="M53.8445 31.2497C53.8445 31.2497 53.3477 24.3788 43.2872 24.1304C33.2266 23.882 35.9194 31.0063 33.2217 32.7253C30.5239 34.4443 29.7837 31.7317 27.081 33.4606C24.3783 35.1895 25.5905 38.6175 23.3996 39.1094C21.2086 39.6012 18.2426 36.8986 15.5449 38.6126C12.8472 40.3266 12.8422 41.8021 11.6151 41.8021C10.3879 41.8021 7.93367 40.8085 6.46309 41.8021C4.99251 42.7958 3.26855 43.9981 3.26855 43.9981H65.3707C65.3707 43.9981 66.106 41.7872 63.3834 40.3167C60.6609 38.8461 59.4536 40.0682 58.4749 38.8262C57.4961 37.5842 61.2074 34.4443 53.8445 31.2497Z" fill="white"/>
<path id="Vector_113" opacity="0.8" d="M90.7432 4.95335C90.7432 4.95335 90.4451 0.81983 84.3939 0.670785C78.3426 0.52174 79.9623 4.80927 78.3377 5.84265C76.7131 6.87603 76.2709 5.25144 74.6463 6.28482C73.0217 7.31819 73.762 9.38495 72.4305 9.67808C71.0991 9.9712 69.3304 8.35158 67.7058 9.38496C66.0812 10.4183 66.0812 11.3027 65.3409 11.3027C64.6007 11.3027 63.1251 10.7164 62.2408 11.3027C61.3565 11.8889 60.3231 12.6341 60.3231 12.6341H97.6837C97.6837 12.6341 98.1259 11.3027 96.5013 10.4183C94.8767 9.534 94.1414 10.2693 93.5502 9.534C92.959 8.79871 95.1748 6.87603 90.7432 4.95335Z" fill="white"/>
</g>
</g>
</svg>
