<svg width="624" height="800" viewBox="0 0 624 800" fill="none" xmlns="http://www.w3.org/2000/svg">
<path fill-rule="evenodd" clip-rule="evenodd" d="M312 0C483.822 0 623.111 125.356 623.111 280C623.111 532.511 312 800 312 800C312 800 0.888916 534.756 0.888916 280C0.888916 125.356 140.178 0 312 0Z" fill="#009688" fill-opacity="0.45"/>
<path d="M312 466.667C397.911 466.667 467.556 397.022 467.556 311.111C467.556 225.2 397.911 155.556 312 155.556C226.089 155.556 156.444 225.2 156.444 311.111C156.444 397.022 226.089 466.667 312 466.667Z" fill="white"/>
<path d="M398.804 428.734C396.909 432.307 391.786 433.808 387.475 433.216C383.019 432.603 379.562 429.643 378.791 425.71C372.668 394.968 354.342 370.759 326.478 351.942C298.323 332.934 266.19 323.969 230.475 325.407C217.126 325.957 204.006 327.859 191.636 332.68C186.367 334.731 180.495 332.68 178.037 328.198C175.642 323.779 177.475 318.641 182.702 316.146C197.821 308.894 213.023 301.769 228.184 294.58C233.411 292.106 238.701 289.759 243.824 287.138C248.53 284.749 252.841 285.129 257.402 287.434C289.764 303.629 322.188 319.74 354.613 335.873C366.546 341.814 378.437 347.819 390.453 353.633C394.951 355.79 396.95 358.877 397.117 363.317C397.888 383.128 398.866 402.918 399.679 422.729C399.762 424.716 399.845 426.704 398.825 428.712L398.804 428.734Z" fill="#009688"/>
<path d="M332.976 308.048C316.524 299.972 300.072 291.895 283.662 283.776C281.934 282.93 280.164 281.894 278.893 280.604C274.541 276.164 276.124 269.885 282.413 266.65C297.573 258.869 312.776 251.173 327.978 243.456C345.992 234.301 364.005 225.125 382.04 215.97C391.286 211.276 399.491 215.293 399.554 224.596C399.7 246.353 399.804 268.109 399.845 289.865C399.866 298.513 391.557 302.763 382.935 298.555C371.94 293.206 360.965 287.835 350.073 282.338C344.867 279.716 343.368 274.283 346.325 269.885C349.136 265.699 355.092 264.113 360.111 266.248C362.339 267.2 364.443 268.384 366.713 269.187C371.732 271.006 377.125 268.595 377.583 263.944C378.042 259.377 378.104 254.662 377.5 250.116C376.813 245.084 371.148 242.885 366.046 245.422C355.301 250.814 344.555 256.226 333.997 261.872C324.23 267.094 323.251 278.955 331.852 285.51C333.684 286.926 335.787 288.131 337.912 289.189C356.383 298.322 374.876 307.414 393.39 316.527C398.617 319.106 400.991 323.293 399.616 327.373C397.555 333.568 390.391 336.19 383.727 333.061C377.792 330.27 371.981 327.31 366.088 324.434C355.009 319.001 343.972 313.567 332.893 308.133L332.955 308.027V308.069L332.976 308.048Z" fill="url(#paint0_linear_64_16)"/>
<defs>
<linearGradient id="paint0_linear_64_16" x1="416.585" y1="227.076" x2="323.133" y2="311.535" gradientUnits="userSpaceOnUse">
<stop stop-color="#26A69A"/>
<stop offset="1" stop-color="#81C784"/>
</linearGradient>
</defs>
</svg>
