<svg width="205" height="205" viewBox="0 0 205 205" fill="none" xmlns="http://www.w3.org/2000/svg">
<path d="M2 186.558H202.465" stroke="#376A66" stroke-linecap="round" stroke-linejoin="round"/>
<path d="M156.275 118.935V118.986C156.275 119.07 156.293 119.158 156.331 119.252C156.539 120.273 156.695 121.305 156.797 122.342C156.885 123.233 156.955 124.249 156.974 125.381C157.018 127.999 156.839 130.616 156.438 133.203C156.335 133.884 156.214 134.602 156.07 135.32C155.841 136.504 155.562 137.744 155.217 139.025C155.063 139.622 154.886 140.233 154.699 140.848L154.48 141.599C154.396 141.902 154.312 142.205 154.233 142.531C153.697 144.602 153.269 146.699 152.951 148.814C152.555 151.448 152.308 154.063 152.173 156.538C151.991 159.839 152 162.887 152.08 165.395C152.077 165.437 152.077 165.479 152.08 165.521C152.163 168.071 152.322 170.071 152.429 171.208C152.49 171.875 152.532 172.252 152.536 172.275" stroke="#376A66" stroke-linecap="round" stroke-linejoin="round"/>
<path d="M156.289 119C155.591 118.38 154.75 117.943 153.842 117.728Z" fill="white"/>
<path d="M156.289 119C155.591 118.38 154.75 117.943 153.842 117.728" stroke="#376A66" stroke-linecap="round" stroke-linejoin="round"/>
<path d="M156.811 122.356L158.051 121.233" stroke="#376A66" stroke-linecap="round" stroke-linejoin="round"/>
<path d="M155.231 139.03C155.165 138.703 155.069 138.383 154.942 138.075C154.758 137.622 154.508 137.2 154.2 136.821C153.971 136.536 153.709 136.278 153.422 136.052" stroke="#376A66" stroke-linecap="round" stroke-linejoin="round"/>
<path d="M154.238 142.526C154.413 142.091 154.676 141.696 155.011 141.367C155.345 141.037 155.744 140.78 156.181 140.611" stroke="#376A66" stroke-linecap="round" stroke-linejoin="round"/>
<path d="M152.084 159.867C152.499 159.363 152.811 157.457 152.979 156.431C153.021 156.189 153.054 155.965 153.086 155.83" fill="white"/>
<path d="M152.084 159.867C152.499 159.363 152.811 157.457 152.979 156.431C153.021 156.189 153.054 155.965 153.086 155.83" stroke="#376A66" stroke-linecap="round" stroke-linejoin="round"/>
<path d="M148.891 163.326C149.029 163.312 149.168 163.312 149.306 163.326C149.917 163.385 150.499 163.609 150.992 163.975C151.485 164.34 151.869 164.833 152.103 165.4" fill="white"/>
<path d="M148.891 163.326C149.029 163.312 149.168 163.312 149.306 163.326C149.917 163.385 150.499 163.609 150.992 163.975C151.485 164.34 151.869 164.833 152.103 165.4" stroke="#376A66" stroke-linecap="round" stroke-linejoin="round"/>
<path d="M156.084 135.357C156.084 135.357 156.303 127.792 152.149 125.046" stroke="#376A66" stroke-linecap="round" stroke-linejoin="round"/>
<path d="M156.438 151.574C156.983 153.341 153.175 156.702 153.175 156.702C153.175 156.702 148.145 156.072 147.581 154.31C147.017 152.548 148.308 149.649 150.751 148.903C153.194 148.157 155.911 149.807 156.438 151.574Z" fill="#009688"/>
<path d="M160.675 130.164C160.209 132.029 156.592 133.366 156.592 133.366C156.592 133.366 154.107 130.462 154.573 128.589C155.039 126.715 157.048 124.654 158.736 125.088C160.423 125.521 161.16 128.29 160.675 130.164Z" fill="#009688"/>
<path d="M146.23 158.165C148.49 159.042 149.875 163.041 149.875 163.041C149.875 163.041 146.146 165.05 143.89 164.169C141.633 163.288 139.228 160.808 139.881 159.154C140.533 157.499 143.969 157.266 146.23 158.165Z" fill="#009688"/>
<path d="M151.185 136.164C151.642 136.548 152.167 136.845 152.732 137.04C153.016 137.132 153.32 137.144 153.61 137.075C153.9 137.006 154.166 136.858 154.378 136.648C154.844 136.094 154.732 135.25 154.429 134.555C153.823 133.227 151.595 130.966 149.884 131.614C147.414 132.56 150.085 135.357 151.185 136.164Z" fill="#009688"/>
<path d="M156.242 139.552C155.916 139.953 155.571 140.461 155.753 140.951C155.854 141.156 156.021 141.323 156.226 141.424C156.432 141.525 156.665 141.555 156.89 141.51C157.337 141.404 157.755 141.198 158.111 140.909C158.983 140.303 160.773 139.044 159.631 137.846C158.489 136.648 156.904 138.709 156.242 139.552Z" fill="#009688"/>
<path d="M148.947 122.645C148.759 122.656 148.579 122.726 148.432 122.845C148.286 122.963 148.181 123.125 148.131 123.307C148.057 123.741 148.416 124.118 148.761 124.384C149.628 125.055 152.233 126.854 152.811 125.116C153.361 123.475 150.094 122.519 148.947 122.645Z" fill="#009688"/>
<path d="M153.743 116.93C153.207 116.982 152.671 116.786 152.131 116.819C151.59 116.851 150.998 117.285 151.114 117.816C151.231 118.347 151.832 118.464 152.326 118.492C153.177 118.547 154.031 118.489 154.867 118.319C155.065 118.301 155.248 118.207 155.38 118.058C155.599 117.737 155.254 117.308 154.881 117.196C154.498 117.145 154.122 117.055 153.757 116.926L153.743 116.93Z" fill="#009688"/>
<path d="M158.993 120.627C159.529 120.627 160.051 120.413 160.591 120.408C161.132 120.403 161.757 120.799 161.668 121.34C161.58 121.881 161.002 122.035 160.508 122.095C159.663 122.207 158.807 122.207 157.962 122.095C157.762 122.091 157.572 122.009 157.431 121.867C157.193 121.564 157.51 121.112 157.869 120.972C158.249 120.901 158.62 120.787 158.974 120.632L158.993 120.627Z" fill="#009688"/>
<path d="M158.461 160.351C158.585 160.223 158.75 160.142 158.927 160.123C159.047 160.134 159.159 160.187 159.244 160.272C159.329 160.357 159.382 160.469 159.394 160.589C159.419 160.819 159.391 161.053 159.31 161.27C158.941 162.496 154.839 171.348 153.893 169.758C153.338 168.826 154.709 165.707 155.114 164.826C155.888 163.107 157.031 161.58 158.461 160.351Z" fill="#009688"/>
<path d="M156.462 119.508C156.462 119.508 156.214 117.359 156.732 117.178" stroke="#376A66" stroke-linecap="round" stroke-linejoin="round"/>
<path d="M156.004 117.266C156.269 116.507 156.725 115.829 157.328 115.299C157.976 114.833 159.016 114.795 159.486 115.443C160.013 116.166 159.486 117.261 158.68 117.648C157.874 118.035 156.923 117.919 156.037 117.793C156.037 117.662 156.037 117.532 156.037 117.401L156.004 117.266Z" fill="#009688"/>
<path d="M158.214 186.451C153.82 187.192 149.332 187.192 144.938 186.451L139.773 171.213H163.379L158.214 186.451Z" fill="white" stroke="#376A66" stroke-linecap="round" stroke-linejoin="round"/>
<path d="M68.1271 76.3571V76.4084C68.1457 76.4923 68.1643 76.5809 68.183 76.6741C68.3942 77.6951 68.5498 78.7268 68.6491 79.7646C68.7377 80.655 68.803 81.6712 68.8263 82.8039C68.8741 85.4151 68.6994 88.0256 68.3042 90.6071C68.2016 91.2877 68.0804 92.0056 67.9359 92.7234C67.7075 93.9074 67.4232 95.1474 67.0829 96.4293C66.9244 97.0259 66.7519 97.6366 66.5655 98.2519C66.4909 98.5036 66.4163 98.7506 66.3464 99.0024C66.2765 99.2541 66.1739 99.6084 66.0947 99.9347C65.5593 102.006 65.1314 104.103 64.8128 106.218C64.4166 108.852 64.1742 111.467 64.039 113.942C63.8572 117.243 63.8618 120.291 63.9458 122.799V122.925C64.0343 125.475 64.1881 127.474 64.3 128.616C64.356 129.278 64.4026 129.656 64.4026 129.679" stroke="#376A66" stroke-linecap="round" stroke-linejoin="round"/>
<path d="M68.1365 76.4224C67.8021 76.1296 67.4362 75.8748 67.0457 75.6626C66.6151 75.4357 66.1579 75.2634 65.6846 75.1498" fill="white"/>
<path d="M68.1365 76.4224C67.8021 76.1296 67.4362 75.8748 67.0457 75.6626C66.6151 75.4357 66.1579 75.2634 65.6846 75.1498" stroke="#376A66" stroke-linecap="round" stroke-linejoin="round"/>
<path d="M68.6587 79.7789L69.9033 78.6555" stroke="#376A66" stroke-linecap="round" stroke-linejoin="round"/>
<path d="M67.0828 96.4526C67.0163 96.1252 66.9179 95.8052 66.7892 95.497C66.6054 95.0447 66.3556 94.6221 66.048 94.243C65.8183 93.9582 65.5571 93.7002 65.2695 93.4739" stroke="#376A66" stroke-linecap="round" stroke-linejoin="round"/>
<path d="M66.0901 99.9301C66.264 99.4945 66.5261 99.0995 66.8597 98.7699C67.1934 98.4402 67.5916 98.183 68.0292 98.0143" stroke="#376A66" stroke-linecap="round" stroke-linejoin="round"/>
<path d="M63.9316 117.289C64.3465 116.786 64.6635 114.879 64.8313 113.854C64.8686 113.611 64.9059 113.388 64.9338 113.252" fill="white"/>
<path d="M63.9316 117.289C64.3465 116.786 64.6635 114.879 64.8313 113.854C64.8686 113.611 64.9059 113.388 64.9338 113.252" stroke="#376A66" stroke-linecap="round" stroke-linejoin="round"/>
<path d="M60.7385 120.729C60.878 120.715 61.0186 120.715 61.1581 120.729C61.7682 120.79 62.3504 121.015 62.8428 121.38C63.3353 121.746 63.7196 122.238 63.9549 122.804" fill="white"/>
<path d="M60.7385 120.729C60.878 120.715 61.0186 120.715 61.1581 120.729C61.7682 120.79 62.3504 121.015 62.8428 121.38C63.3353 121.746 63.7196 122.238 63.9549 122.804" stroke="#376A66" stroke-linecap="round" stroke-linejoin="round"/>
<path d="M67.9313 92.7608C67.9313 92.7608 68.1551 85.1953 63.9971 82.4497" stroke="#376A66" stroke-linecap="round" stroke-linejoin="round"/>
<path d="M68.3088 108.997C68.8496 110.763 65.0458 114.124 65.0458 114.124C65.0458 114.124 60.0115 113.495 59.4521 111.733C58.8927 109.971 60.184 107.071 62.6219 106.326C65.0598 105.58 67.7634 107.235 68.3088 108.997Z" fill="#009688"/>
<path d="M72.5321 87.5865C72.066 89.4511 68.4487 90.7889 68.4487 90.7889C68.4487 90.7889 65.9362 87.8849 66.421 86.011C66.9058 84.1371 68.8916 82.0767 70.579 82.5102C72.2664 82.9438 72.9983 85.7126 72.5321 87.5865Z" fill="#009688"/>
<path d="M58.0815 115.588C60.3423 116.469 61.7314 120.464 61.7314 120.464C61.7314 120.464 58.0022 122.473 55.7414 121.592C53.4806 120.711 51.08 118.231 51.7373 116.576C52.3945 114.921 55.816 114.707 58.0815 115.588Z" fill="#009688"/>
<path d="M63.0369 93.5859C63.4928 93.9705 64.0159 94.2676 64.5798 94.4622C64.8636 94.5541 65.1672 94.5662 65.4574 94.4971C65.7476 94.428 66.0133 94.2805 66.2253 94.0706C66.6914 93.5159 66.5795 92.6722 66.2766 91.9777C65.6706 90.6492 63.4471 88.3884 61.7317 89.0363C59.2658 89.9733 61.9321 92.7701 63.0369 93.5859Z" fill="#009688"/>
<path d="M68.0896 96.9795C67.768 97.3803 67.423 97.9117 67.6002 98.3779C67.7015 98.5835 67.868 98.7498 68.0737 98.851C68.2795 98.9521 68.5128 98.9825 68.7376 98.9373C69.185 98.8321 69.6026 98.6264 69.9589 98.3359C70.8305 97.7346 72.6205 96.4714 71.4785 95.2734C70.3364 94.0754 68.7749 96.1311 68.0896 96.9795Z" fill="#009688"/>
<path d="M60.7947 80.0676C60.6067 80.0793 60.4271 80.1493 60.2808 80.268C60.1346 80.3867 60.029 80.548 59.9789 80.7296C59.9043 81.1631 60.2633 81.5407 60.6129 81.8064C61.4799 82.4776 64.081 84.2769 64.6637 82.5382C65.209 80.8974 61.946 79.9418 60.7947 80.0676Z" fill="#009688"/>
<path d="M65.5916 74.3529C65.0555 74.4041 64.5194 74.2084 63.9834 74.241C63.4473 74.2736 62.846 74.7071 62.9672 75.2385C63.0884 75.7699 63.6804 75.8865 64.1791 75.9144C65.0283 75.969 65.881 75.911 66.715 75.742C66.9142 75.7234 67.0991 75.6301 67.2324 75.4809C67.4468 75.1593 67.1019 74.7304 66.7336 74.6186C66.3492 74.5678 65.9712 74.4772 65.6055 74.3482L65.5916 74.3529Z" fill="#009688"/>
<path d="M70.8402 78.0492C71.3809 78.0492 71.903 77.8348 72.4391 77.8301C72.9751 77.8254 73.6044 78.2217 73.5205 78.7624C73.4366 79.3031 72.8493 79.4569 72.3552 79.5175C71.5105 79.6294 70.6547 79.6294 69.81 79.5175C69.61 79.513 69.4196 79.4311 69.2786 79.2891C69.0409 78.9861 69.3579 78.534 69.7215 78.3941C70.1011 78.3218 70.4717 78.2077 70.8262 78.0539L70.8402 78.0492Z" fill="#009688"/>
<path d="M70.3086 117.774C70.4326 117.646 70.5975 117.565 70.7748 117.546C70.8936 117.56 71.0043 117.613 71.0889 117.698C71.1735 117.782 71.227 117.893 71.2409 118.012C71.265 118.242 71.2347 118.476 71.1524 118.692C70.7888 119.918 66.682 128.77 65.7404 127.181C65.1811 126.249 66.5515 123.13 66.9571 122.249C67.7323 120.53 68.8766 119.002 70.3086 117.774Z" fill="#009688"/>
<path d="M68.3089 76.9399C68.3089 76.9399 68.0618 74.791 68.5839 74.6092" stroke="#376A66" stroke-linecap="round" stroke-linejoin="round"/>
<path d="M67.8706 74.6884C68.1315 73.9278 68.5881 73.2493 69.1945 72.7212C69.8424 72.2551 70.8772 72.2178 71.348 72.8657C71.8748 73.5883 71.348 74.6837 70.5416 75.0706C69.7352 75.4575 68.7889 75.3409 67.9032 75.2151C67.9032 75.0846 67.9032 74.9541 67.9032 74.8235L67.8706 74.6884Z" fill="#009688"/>
<path d="M9.06665 127.885V81.825" stroke="#376A66" stroke-linecap="round" stroke-linejoin="round"/>
<path d="M152.872 127.885H147.18" stroke="#376A66" stroke-linecap="round" stroke-linejoin="round"/>
<path d="M197.505 127.885H185.912" stroke="#376A66" stroke-linecap="round" stroke-linejoin="round"/>
<path d="M146.658 57.9119H167.201V38.3432" stroke="#376A66" stroke-linecap="round" stroke-linejoin="round"/>
<path d="M26.9246 51.9356H48.7494V67.8544H72.6719" stroke="#376A66" stroke-linecap="round" stroke-linejoin="round"/>
<path d="M14.05 105.845V70.6701" stroke="#376A66" stroke-linecap="round" stroke-linejoin="round"/>
<path d="M23.8015 55.4039V82.9716" stroke="#376A66" stroke-linecap="round" stroke-linejoin="round"/>
<path d="M33.5488 55.4039V79.7738" stroke="#376A66" stroke-linecap="round" stroke-linejoin="round"/>
<path d="M43.2959 55.4039V98.0327" stroke="#376A66" stroke-linecap="round" stroke-linejoin="round"/>
<path d="M89.9893 49.3581V21.3289H129.672V49.3581" stroke="#376A66" stroke-linecap="round" stroke-linejoin="round"/>
<path d="M92.8982 35.2525V24.657H100.235" stroke="#376A66" stroke-linecap="round" stroke-linejoin="round"/>
<path d="M101.848 35.2527V24.6572H109.185" stroke="#376A66" stroke-linecap="round" stroke-linejoin="round"/>
<path d="M110.798 35.2527V24.6572H118.135" stroke="#376A66" stroke-linecap="round" stroke-linejoin="round"/>
<path d="M119.748 35.2525V24.657H127.085" stroke="#376A66" stroke-linecap="round" stroke-linejoin="round"/>
<path d="M92.8982 49.3581V38.7627H100.235" stroke="#376A66" stroke-linecap="round" stroke-linejoin="round"/>
<path d="M101.848 49.3581V38.7627H109.185" stroke="#376A66" stroke-linecap="round" stroke-linejoin="round"/>
<path d="M110.798 49.3581V38.7627H118.135" stroke="#376A66" stroke-linecap="round" stroke-linejoin="round"/>
<path d="M119.748 49.3581V38.7627H127.085" stroke="#376A66" stroke-linecap="round" stroke-linejoin="round"/>
<path d="M170.38 40.7671V75.891" stroke="#376A66" stroke-linecap="round" stroke-linejoin="round"/>
<path d="M184.789 125.311H185.912" stroke="#376A66" stroke-linecap="round" stroke-linejoin="round"/>
<path d="M179.018 50.8543V90.1782" stroke="#376A66" stroke-linecap="round" stroke-linejoin="round"/>
<path d="M187.66 115.271V125.311H194.554" stroke="#376A66" stroke-linecap="round" stroke-linejoin="round"/>
<path d="M187.66 63.6732V90.3786" stroke="#376A66" stroke-linecap="round" stroke-linejoin="round"/>
<path d="M196.298 83.9365V125.311H197.869" stroke="#376A66" stroke-linecap="round" stroke-linejoin="round"/>
<path d="M91.0334 128.729H2V186.558H91.0334V128.729Z" fill="white" stroke="#376A66" stroke-linecap="round" stroke-linejoin="round"/>
<path d="M2 128.729L46.5167 157.643L91.0334 128.729H2Z" fill="white" stroke="#376A66" stroke-linecap="round" stroke-linejoin="round"/>
<path d="M33.1337 148.95L2 186.558" stroke="#376A66" stroke-linecap="round" stroke-linejoin="round"/>
<path d="M60.1421 148.95L91.2758 186.558" stroke="#376A66" stroke-linecap="round" stroke-linejoin="round"/>
<path d="M138.678 54.938H117.981C117.385 54.9387 116.8 55.0991 116.287 55.4024C115.774 55.7057 115.351 56.1409 115.063 56.6628C114.555 57.5807 113.81 58.3457 112.906 58.8784C112.001 59.411 110.971 59.692 109.922 59.692C108.872 59.692 107.842 59.411 106.938 58.8784C106.034 58.3457 105.289 57.5807 104.78 56.6628C104.494 56.1341 104.071 55.6926 103.555 55.3849C103.039 55.0772 102.449 54.9147 101.848 54.9147H81.1747C80.6072 54.9073 80.0439 55.0118 79.5168 55.2221C78.9897 55.4325 78.5092 55.7446 78.1027 56.1407C77.6962 56.5368 77.3718 57.009 77.1478 57.5305C76.9239 58.052 76.8049 58.6125 76.7976 59.1799V175.912C76.8136 177.057 77.2834 178.15 78.104 178.949C78.9247 179.749 80.029 180.19 81.1747 180.177H138.678C139.824 180.19 140.929 179.749 141.75 178.95C142.572 178.15 143.043 177.058 143.06 175.912V59.2032C143.044 58.0568 142.573 56.9635 141.752 56.1637C140.93 55.364 139.825 54.9231 138.678 54.938Z" fill="#009688"/>
<path d="M145.078 57.912C145.081 57.1257 144.928 56.3466 144.629 55.6194C144.329 54.8922 143.89 54.2312 143.334 53.6743C142.779 53.1174 142.12 52.6756 141.393 52.3741C140.667 52.0726 139.889 51.9174 139.102 51.9174H80.755C79.9705 51.9168 79.1935 52.0708 78.4685 52.3706C77.7435 52.6704 77.0846 53.1102 76.5297 53.6647C75.9747 54.2193 75.5344 54.8778 75.234 55.6025C74.9337 56.3273 74.7791 57.1042 74.7791 57.8887V180.573C74.7791 182.157 75.4082 183.676 76.528 184.795C77.6478 185.915 79.1667 186.544 80.7503 186.544H139.102C140.686 186.544 142.206 185.915 143.326 184.796C144.447 183.676 145.077 182.157 145.078 180.573V57.912ZM143.06 175.912C143.043 177.058 142.572 178.15 141.75 178.95C140.929 179.749 139.824 180.19 138.678 180.177H81.1745C80.0288 180.19 78.9245 179.749 78.1039 178.949C77.2833 178.15 76.8134 177.057 76.7974 175.912V59.2032C76.8047 58.6358 76.9238 58.0753 77.1477 57.5538C77.3716 57.0323 77.6961 56.5601 78.1025 56.164C78.509 55.7679 78.9895 55.4558 79.5166 55.2455C80.0437 55.0351 80.6071 54.9306 81.1745 54.938H101.857C102.458 54.9379 103.047 55.1003 103.562 55.4081C104.078 55.7158 104.5 56.1575 104.785 56.6861C105.293 57.604 106.038 58.369 106.942 58.9017C107.847 59.4343 108.877 59.7153 109.926 59.7153C110.976 59.7153 112.006 59.4343 112.91 58.9017C113.814 58.369 114.559 57.604 115.068 56.6861C115.355 56.1635 115.778 55.7278 116.291 55.4244C116.804 55.121 117.39 54.9611 117.986 54.9613H138.683C139.25 54.9539 139.814 55.0584 140.341 55.2688C140.868 55.4791 141.348 55.7912 141.755 56.1873C142.161 56.5834 142.486 57.0556 142.71 57.5771C142.933 58.0986 143.052 58.6591 143.06 59.2265V175.912Z" fill="#376A66"/>
<path opacity="0.2" d="M125.253 51.9362L86.4932 186.554L101.885 186.54L139.209 51.9362H125.253Z" fill="white"/>
<path opacity="0.2" d="M119.473 51.9362L78.4941 186.558L80.7363 186.544L120.946 51.9362H119.473Z" fill="white"/>
<path d="M120.382 152.013C120.41 153.347 120.172 154.673 119.68 155.914C119.188 157.155 118.453 158.285 117.517 159.237C116.582 160.189 115.466 160.944 114.234 161.458C113.002 161.973 111.68 162.235 110.346 162.23C107.622 162.22 105.011 161.146 103.069 159.237C101.127 157.328 100.008 154.735 99.9507 152.013C99.9227 150.679 100.162 149.352 100.654 148.112C101.146 146.872 101.882 145.743 102.817 144.791C103.752 143.84 104.868 143.085 106.099 142.571C107.331 142.057 108.653 141.795 109.987 141.799C112.71 141.808 115.321 142.882 117.263 144.79C119.205 146.698 120.325 149.29 120.382 152.013Z" fill="white" stroke="#376A66" stroke-linecap="round" stroke-linejoin="round"/>
<path d="M106.817 159.639C105.868 159.288 104.998 158.752 104.258 158.063C103.511 157.346 102.933 156.472 102.566 155.504C102.147 154.419 101.94 153.264 101.955 152.101C101.949 151.11 102.125 150.125 102.473 149.197C102.789 148.339 103.263 147.549 103.871 146.866C105.069 145.555 106.617 144.614 108.332 144.153C109.174 143.926 110.042 143.812 110.914 143.813C111.639 143.81 112.36 143.896 113.063 144.069C113.742 144.236 114.391 144.505 114.989 144.866C115.58 145.222 116.111 145.67 116.559 146.195C117.027 146.76 117.384 147.409 117.613 148.106C117.874 148.902 118.003 149.735 117.995 150.572C117.985 152.19 117.402 153.753 116.35 154.982C115.897 155.495 115.361 155.928 114.765 156.264C114.251 156.559 113.67 156.719 113.077 156.73C112.668 156.735 112.268 156.606 111.94 156.362C111.775 156.239 111.641 156.081 111.548 155.898C111.455 155.715 111.406 155.513 111.404 155.308C111.098 155.773 110.678 156.152 110.185 156.409C109.691 156.666 109.14 156.792 108.584 156.776C108.146 156.796 107.71 156.717 107.306 156.546C106.903 156.375 106.543 156.116 106.253 155.788C105.671 155.112 105.363 154.242 105.391 153.35C105.394 152.616 105.522 151.888 105.768 151.197C106.013 150.5 106.36 149.843 106.798 149.248C107.235 148.664 107.791 148.179 108.43 147.826C109.068 147.466 109.79 147.278 110.523 147.281C111.033 147.276 111.536 147.398 111.987 147.635C112.424 147.869 112.779 148.232 113.003 148.675L113.096 148.363C113.17 148.144 113.328 147.963 113.536 147.861C113.743 147.759 113.982 147.743 114.201 147.817C114.285 147.846 114.365 147.887 114.438 147.938C114.508 147.994 114.563 148.065 114.6 148.146C114.636 148.227 114.653 148.316 114.648 148.404C114.648 148.492 114.634 148.578 114.606 148.661L113.096 153.686C112.963 154.069 112.877 154.466 112.84 154.87C112.826 154.945 112.831 155.023 112.854 155.096C112.877 155.169 112.918 155.235 112.973 155.288C113.027 155.342 113.095 155.381 113.168 155.402C113.242 155.424 113.319 155.426 113.394 155.411C113.929 155.376 114.43 155.138 114.793 154.744C115.296 154.246 115.683 153.643 115.925 152.977C116.215 152.251 116.363 151.475 116.364 150.693C116.37 150.004 116.269 149.319 116.065 148.661C115.894 148.094 115.622 147.562 115.264 147.09C114.924 146.66 114.512 146.293 114.047 146.004C113.583 145.711 113.077 145.493 112.546 145.356C112.001 145.213 111.44 145.141 110.877 145.141C110.163 145.142 109.452 145.243 108.766 145.44C108.058 145.64 107.385 145.943 106.766 146.339C106.142 146.733 105.577 147.213 105.088 147.766C104.584 148.348 104.192 149.018 103.932 149.742C103.639 150.531 103.492 151.367 103.498 152.208C103.483 153.205 103.663 154.195 104.03 155.122C104.345 155.924 104.843 156.642 105.484 157.219C106.103 157.757 106.818 158.173 107.591 158.445C108.407 158.734 109.266 158.879 110.131 158.874C111.056 158.874 111.975 158.734 112.858 158.459C112.946 158.427 113.04 158.412 113.133 158.413C113.221 158.411 113.307 158.428 113.388 158.463C113.468 158.497 113.54 158.549 113.599 158.613C113.659 158.675 113.706 158.748 113.737 158.828C113.768 158.908 113.783 158.993 113.781 159.079C113.792 159.215 113.754 159.35 113.674 159.459C113.593 159.569 113.476 159.646 113.343 159.676C112.243 160.012 111.1 160.188 109.95 160.198C108.881 160.196 107.82 160.007 106.817 159.639ZM110.667 154.805C111.128 154.474 111.47 154.003 111.642 153.462L112.616 150.036L112.551 149.896C112.49 149.784 112.416 149.679 112.332 149.584C112.215 149.449 112.087 149.324 111.949 149.211C111.775 149.072 111.578 148.963 111.367 148.889C110.815 148.697 110.211 148.718 109.674 148.95C109.381 149.074 109.111 149.249 108.877 149.467C108.635 149.694 108.419 149.947 108.234 150.222C108.049 150.509 107.893 150.814 107.768 151.131C107.637 151.449 107.536 151.779 107.465 152.115C107.395 152.435 107.359 152.762 107.358 153.089C107.354 153.3 107.366 153.51 107.395 153.719C107.417 153.904 107.457 154.087 107.516 154.264C107.567 154.429 107.641 154.586 107.735 154.73C107.82 154.86 107.927 154.974 108.052 155.066C108.186 155.162 108.336 155.233 108.495 155.275C108.681 155.33 108.875 155.355 109.069 155.35C109.652 155.357 110.221 155.17 110.686 154.819L110.667 154.805Z" fill="#009688" stroke="#376A66" stroke-linecap="round" stroke-linejoin="round"/>
<path d="M120.153 116.991C120.181 118.325 119.942 119.651 119.45 120.891C118.958 122.132 118.222 123.261 117.287 124.212C116.352 125.164 115.236 125.919 114.005 126.433C112.773 126.947 111.452 127.209 110.117 127.204C107.395 127.195 104.783 126.122 102.841 124.214C100.899 122.305 99.7795 119.713 99.7224 116.991C99.6931 115.657 99.9314 114.33 100.423 113.089C100.915 111.848 101.65 110.718 102.585 109.766C103.521 108.813 104.637 108.058 105.869 107.544C107.101 107.03 108.424 106.768 109.758 106.773C112.482 106.784 115.093 107.858 117.035 109.767C118.977 111.676 120.096 114.269 120.153 116.991Z" fill="white" stroke="#376A66" stroke-linecap="round" stroke-linejoin="round"/>
<path d="M116.35 116.059C113.148 113.961 106.869 113.961 103.815 116.059C103.257 116.164 102.755 116.466 102.401 116.91C102.046 117.354 101.864 117.91 101.886 118.478C101.932 119.835 107.568 119.835 107.521 118.478C107.494 117.911 107.277 117.369 106.906 116.94C109.02 116.483 111.206 116.483 113.32 116.94C112.976 117.377 112.798 117.922 112.817 118.478C112.863 119.835 118.499 119.835 118.448 118.478C118.421 117.898 118.2 117.343 117.819 116.904C117.438 116.465 116.921 116.167 116.35 116.059Z" fill="#009688" stroke="#376A66" stroke-linecap="round" stroke-linejoin="round"/>
<path d="M120.153 82.972C120.209 85.4845 118.839 87.7313 116.639 89.2276V95.3294L112.262 90.9477C111.554 91.0742 110.836 91.1366 110.117 91.1341C104.477 91.1341 99.8202 87.4796 99.7223 82.972C99.6244 78.4644 104.113 74.8145 109.758 74.8145C115.403 74.8145 120.079 78.4877 120.153 82.972Z" fill="white" stroke="#376A66" stroke-linecap="round" stroke-linejoin="round"/>
<path d="M105.586 82.9719C105.587 83.234 105.51 83.4904 105.366 83.7087C105.221 83.927 105.014 84.0974 104.772 84.1983C104.531 84.2992 104.264 84.3261 104.007 84.2756C103.75 84.225 103.514 84.0993 103.328 83.9143C103.143 83.7294 103.016 83.4935 102.965 83.2366C102.913 82.9797 102.939 82.7132 103.039 82.4711C103.139 82.2289 103.309 82.0219 103.527 81.8762C103.744 81.7305 104.001 81.6527 104.263 81.6527C104.613 81.6527 104.949 81.7916 105.197 82.0388C105.445 82.2861 105.585 82.6216 105.586 82.9719Z" fill="#009688" stroke="#376A66" stroke-linecap="round" stroke-linejoin="round"/>
<path d="M111.25 82.9721C111.251 83.2342 111.174 83.4906 111.029 83.7089C110.884 83.9272 110.678 84.0976 110.436 84.1985C110.194 84.2994 109.928 84.3263 109.671 84.2758C109.414 84.2252 109.178 84.0995 108.992 83.9146C108.806 83.7296 108.68 83.4937 108.628 83.2368C108.577 82.9799 108.603 82.7134 108.703 82.4713C108.803 82.2291 108.973 82.0221 109.19 81.8764C109.408 81.7307 109.664 81.653 109.926 81.653C110.277 81.653 110.613 81.7918 110.861 82.0391C111.109 82.2863 111.249 82.6218 111.25 82.9721Z" fill="#009688" stroke="#376A66" stroke-linecap="round" stroke-linejoin="round"/>
<path d="M116.914 82.9719C116.915 83.234 116.838 83.4904 116.693 83.7087C116.548 83.927 116.342 84.0974 116.1 84.1983C115.858 84.2992 115.592 84.3261 115.335 84.2756C115.077 84.225 114.841 84.0993 114.656 83.9143C114.47 83.7294 114.343 83.4935 114.292 83.2366C114.24 82.9797 114.266 82.7132 114.366 82.4711C114.466 82.2289 114.636 82.0219 114.854 81.8762C115.072 81.7305 115.328 81.6527 115.59 81.6527C115.94 81.6527 116.276 81.7916 116.524 82.0388C116.773 82.2861 116.913 82.6216 116.914 82.9719Z" fill="#009688" stroke="#376A66" stroke-linecap="round" stroke-linejoin="round"/>
<path d="M52.8609 101.576C52.6954 101.883 52.4569 102.146 52.1663 102.34C50.0158 104.055 47.8156 105.701 45.5657 107.276C44.7406 107.854 43.8829 108.451 43.0858 109.099C38.2939 112.306 41.2213 113.089 38.2939 119.876C37.604 121.498 37.7298 129.446 37.7298 129.446H37.4921C36.931 128.892 36.3346 128.375 35.7068 127.899C35.6201 127.84 35.5298 127.787 35.4364 127.74C35.3489 127.695 35.2543 127.665 35.1567 127.652C34.6906 127.624 32.9146 127.838 31.1199 127.721L30.6538 127.684C30.3928 127.656 30.1364 127.624 29.88 127.577C29.6236 127.53 29.3766 127.479 29.1388 127.414C27.4357 126.868 25.7657 126.223 24.1371 125.484L23.326 125.134L22.9251 124.962L22.5615 124.803L22.3005 124.692L22.0488 124.584C21.6246 124.407 21.2284 124.244 20.8648 124.118C20.6981 124.058 20.5285 124.007 20.3567 123.964C20.3567 124.347 20.2961 124.738 20.2448 125.12C20.0211 126.943 19.5223 128.626 18.632 128.85C18.6136 128.854 18.5944 128.854 18.576 128.85C18.4976 128.864 18.418 128.872 18.3383 128.873H18.2684C18.0711 128.869 17.8759 128.833 17.6903 128.766C16.8823 128.421 16.222 127.802 15.8258 127.018C15.6487 126.687 15.5498 126.32 15.5368 125.945C15.5368 124.589 15.1592 116.585 15.1592 114.255C15.1592 111.924 15.6253 107.845 16.786 106.33C17.2396 105.688 17.8125 105.139 18.4735 104.713C19.3239 104.004 20.2994 103.46 21.3496 103.109C22.5895 102.704 25.3631 101.669 27.2976 100.937L24.3748 102.065C25.116 103.333 26.7056 105.328 29.5723 105.584C32.2666 105.813 33.9354 103.375 34.7885 101.594C34.8631 101.622 39.5525 100.732 40.6386 100.783C44.1766 100.937 47.062 99.021 48.3672 98.2612C48.7609 98.026 49.2027 97.8828 49.6595 97.8423C50.1164 97.8017 50.5764 97.865 51.0054 98.0272C51.4344 98.1895 51.8211 98.4466 52.1367 98.7793C52.4524 99.112 52.6888 99.5118 52.8282 99.9487V99.9906C53.0322 100.497 53.0438 101.061 52.8609 101.576Z" fill="#009688" stroke="#376A66" stroke-linecap="round" stroke-linejoin="round"/>
<path d="M34.7371 101.622L34.5227 101.548" stroke="#376A66" stroke-linecap="round" stroke-linejoin="round"/>
<path d="M38.7132 131.497C38.7154 131.516 38.7154 131.535 38.7132 131.553C38.6943 131.598 38.6655 131.639 38.6289 131.671C38.5924 131.703 38.549 131.727 38.502 131.741C38.455 131.754 38.4056 131.757 38.3575 131.749C38.3093 131.74 38.2636 131.721 38.2237 131.693C38.0093 131.572 37.6784 130.793 37.6784 130.793L37.3101 130.411L37.0677 130.155C37.105 130.248 37.3987 130.961 37.2448 131.292C37.237 131.315 37.2243 131.336 37.2075 131.353C37.1046 131.49 36.9709 131.602 36.8171 131.679C36.6634 131.756 36.4938 131.796 36.3219 131.796C36.1214 131.796 35.5341 131.866 35.0213 131.898H34.9654C34.8101 131.907 34.6545 131.907 34.4993 131.898C34.0854 131.845 33.6861 131.71 33.3246 131.502C32.5045 131.382 31.6966 131.19 30.9099 130.929L30.7701 130.854L30.6442 130.779C30.5615 130.73 30.4848 130.67 30.4158 130.602C30.1318 130.366 29.8905 130.082 29.7026 129.763C29.7026 129.763 27.8101 129.684 25.2696 129.488C24.3373 129.418 23.3305 129.33 22.2863 129.227C20.6828 129.064 19.3589 129.073 18.3194 128.929H18.2448C18.0397 128.901 17.8486 128.864 17.6668 128.822C17.2232 128.735 16.8129 128.525 16.4831 128.216C16.1534 127.907 15.9174 127.511 15.8022 127.074C15.7412 126.867 15.6914 126.657 15.6531 126.444L16.4642 125.046C16.8869 124.707 17.3583 124.433 17.8626 124.235C18.6449 123.908 19.5088 123.828 20.3378 124.006C20.5097 124.049 20.6792 124.1 20.8459 124.16C21.2095 124.3 21.6057 124.463 22.0299 124.626L22.2863 124.734L22.5473 124.845L22.9109 125.004C24.9853 125.862 27.4605 126.966 29.1153 127.433C29.6123 127.563 30.1189 127.653 30.6303 127.703L31.0964 127.74C32.8911 127.857 34.6624 127.642 35.1332 127.67C35.604 127.698 36.7554 128.794 37.4919 129.47C37.6923 129.656 37.8695 129.81 37.9907 129.903L38.0466 129.95L38.0886 129.987C38.3555 130.261 38.5425 130.603 38.6293 130.975C38.666 131.1 38.6909 131.228 38.7039 131.358C38.7123 131.404 38.7155 131.451 38.7132 131.497Z" fill="white" stroke="#376A66" stroke-linecap="round" stroke-linejoin="round"/>
<path d="M38.7135 131.497C38.7157 131.516 38.7157 131.535 38.7135 131.553C38.6941 131.598 38.6649 131.638 38.6282 131.67C38.5914 131.702 38.548 131.725 38.501 131.738C38.4541 131.751 38.4049 131.753 38.3569 131.745C38.309 131.736 38.2636 131.717 38.224 131.688C37.9935 131.421 37.8092 131.117 37.6786 130.789L37.3104 130.411L37.068 130.16C37.1006 130.234 37.4036 130.961 37.2498 131.297C37.242 131.32 37.2292 131.34 37.2125 131.358C37.1608 131.426 37.1014 131.489 37.0353 131.544C36.8344 131.705 36.5846 131.794 36.3268 131.796C36.1217 131.796 35.539 131.861 35.0309 131.898H34.9657C34.8104 131.907 34.6548 131.907 34.4995 131.898C34.0882 131.843 33.6911 131.71 33.3295 131.507C32.5095 131.384 31.7016 131.191 30.9149 130.929L30.7797 130.863L30.6538 130.789C30.5732 130.736 30.4969 130.677 30.4254 130.612C30.1372 130.373 29.8927 130.086 29.7029 129.763C29.7029 129.763 27.8663 129.684 25.3771 129.493C24.4448 129.423 23.368 129.33 22.2866 129.223C20.8136 129.078 19.5969 129.036 18.6134 128.882L18.3104 128.826L17.9608 128.747C17.8802 128.176 17.9393 127.594 18.1332 127.05C18.3139 126.592 18.5941 126.179 18.9537 125.842C19.3132 125.505 19.7431 125.253 20.2122 125.102C20.7945 124.888 21.3911 124.715 21.9976 124.584L22.2493 124.692L22.5103 124.804L22.8739 124.962C24.9855 125.871 27.4328 126.971 29.0923 127.423C29.5889 127.554 30.0957 127.643 30.6072 127.689L31.0734 127.726C32.868 127.847 34.6394 127.633 35.1102 127.661C35.581 127.689 36.7277 128.78 37.4409 129.456C37.6027 129.61 37.7723 129.757 37.949 129.894L38.0049 129.936L38.0469 129.973C38.3189 130.243 38.5068 130.587 38.5876 130.961C38.6243 131.086 38.6493 131.214 38.6622 131.344C38.686 131.392 38.7033 131.444 38.7135 131.497Z" fill="white" stroke="#376A66" stroke-linecap="round" stroke-linejoin="round"/>
<path d="M33.1335 130.257C33.1335 130.257 34.1917 130.807 34.6112 130.998C35.0307 131.19 34.9935 131.959 34.9935 131.959" fill="white"/>
<path d="M33.1335 130.257C33.1335 130.257 34.1917 130.807 34.6112 130.998C35.0307 131.19 34.9935 131.959 34.9935 131.959" stroke="#376A66" stroke-linecap="round" stroke-linejoin="round"/>
<path d="M34.2664 129.512C34.932 129.987 35.573 130.495 36.1869 131.036C36.2765 131.141 36.335 131.269 36.3556 131.406C36.3762 131.543 36.3581 131.683 36.3034 131.81" fill="white"/>
<path d="M34.2664 129.512C34.932 129.987 35.573 130.495 36.1869 131.036C36.2765 131.141 36.335 131.269 36.3556 131.406C36.3762 131.543 36.3581 131.683 36.3034 131.81" stroke="#376A66" stroke-linecap="round" stroke-linejoin="round"/>
<path d="M37.0542 130.15C36.5027 129.559 35.9191 128.999 35.3062 128.472Z" fill="white"/>
<path d="M37.0542 130.15C36.5027 129.559 35.9191 128.999 35.3062 128.472" stroke="#376A66" stroke-linecap="round" stroke-linejoin="round"/>
<path d="M34.7327 101.632C33.889 103.408 32.2155 105.827 29.5212 105.617C26.6684 105.375 25.0649 103.366 24.3237 102.093C25.3492 101.702 26.3887 101.301 27.2418 100.965C27.2418 100.098 27.2138 99.0586 27.1206 98.0284C27.1206 97.8047 27.074 97.5623 27.0507 97.3525C27.0274 97.1428 26.9994 96.9936 26.9714 96.8211H32.3927C32.3927 96.8211 32.36 97.0355 32.3181 97.3945C32.2855 97.7161 32.2435 98.145 32.2109 98.6298C32.1689 99.273 32.141 100.028 32.1596 100.741C32.4206 100.83 32.6863 100.928 32.952 101.03L33.4648 101.208C33.6699 101.282 33.8703 101.347 34.0848 101.417L34.5509 101.557C34.613 101.578 34.6737 101.603 34.7327 101.632Z" fill="white" stroke="#376A66" stroke-linecap="round" stroke-linejoin="round"/>
<path d="M27.0505 97.3337C27.0505 97.3337 28.0621 99.9628 29.5304 100.41C30.9988 100.858 32.3273 97.3943 32.3273 97.3943C32.3273 97.3943 30.2576 99.6038 29.4885 99.2589C28.7193 98.9139 27.0599 97.3524 27.0599 97.3524" fill="#376A66"/>
<path d="M26.179 82.8132C24.8091 84.0465 23.7229 85.5621 22.9953 87.2556C22.3287 88.654 21.7646 90.2622 22.2774 91.7259C22.5842 92.4527 23.0183 93.1188 23.5593 93.693C24.5662 94.9003 25.9786 98.2706 26.9854 99.4779C27.0507 97.3289 25.2514 93.8562 25.4425 92.0522C25.674 90.6585 26.1322 89.3122 26.799 88.0667C27.4771 86.4333 28.3639 84.8947 29.4374 83.4891C30.048 82.7526 32.0105 81.4428 30.0294 81.2843C28.7148 81.1771 27.1719 81.9975 26.179 82.8132Z" fill="#376A66" stroke="#376A66" stroke-linecap="round" stroke-linejoin="round"/>
<path d="M24.9109 90.141C24.9109 90.141 24.2163 88.7939 23.4845 90.0711C22.9577 91.0034 23.7176 92.4717 24.0439 93.0171C24.1521 93.1724 24.2988 93.2969 24.4695 93.3786C24.6403 93.4603 24.8293 93.4964 25.0181 93.4833L24.9109 90.141Z" fill="white" stroke="#376A66" stroke-linecap="round" stroke-linejoin="round"/>
<path d="M34.0378 95.0077C33.5924 95.888 33.012 96.6933 32.3178 97.3943L31.8982 97.8278C31.0312 98.6855 30.0942 99.3661 29.4789 99.2263C28.9429 99.119 28.2437 98.569 27.5584 97.8651C27.386 97.6926 27.2181 97.5062 27.0503 97.3197C26.3042 96.5035 25.6637 95.5967 25.1438 94.6208C24.9994 94.2547 24.9068 93.8703 24.8688 93.4787C24.7512 92.3111 24.7107 91.1369 24.7476 89.964C24.7476 89.5491 24.7476 89.2181 24.7476 89.0317C24.7476 88.2206 27.7868 85.4004 27.7868 85.4004C27.8687 85.3704 27.9568 85.3608 28.0432 85.3725C28.5659 85.4676 29.0697 85.6471 29.5349 85.9039C31.3761 86.7989 33.9446 88.5749 34.1311 89.2508C34.4154 90.2343 34.3082 94.1313 34.0378 95.0077Z" fill="white" stroke="#376A66" stroke-linecap="round" stroke-linejoin="round"/>
<path d="M28.0014 91.2691C28.0014 91.5954 27.8802 91.8611 27.745 91.8611C27.6098 91.8611 27.4746 91.6047 27.4746 91.2691C27.4746 90.9335 27.5958 90.6678 27.745 90.6678C27.8941 90.6678 28.0014 90.9428 28.0014 91.2691Z" fill="#376A66"/>
<path d="M31.4742 90.6724C31.6234 90.6724 31.7446 90.9381 31.7446 91.2691C31.7446 91.6 31.6234 91.8611 31.4742 91.8611C31.3251 91.8611 31.2039 91.5954 31.2039 91.2691C31.2039 90.9428 31.3251 90.6724 31.4742 90.6724Z" fill="#376A66"/>
<path d="M26.2673 89.8009C26.2673 89.8009 26.7335 88.8686 28.3836 89.1529" stroke="#376A66" stroke-linecap="round" stroke-linejoin="round"/>
<path d="M33.0081 89.8006C33.0081 89.8006 32.542 88.8684 30.8918 89.1527" stroke="#376A66" stroke-linecap="round" stroke-linejoin="round"/>
<path d="M29.9546 93.5485C30.1222 93.5381 30.2821 93.4739 30.4105 93.3657C30.5389 93.2574 30.6291 93.1107 30.6678 92.9472C30.6678 92.9472 29.7635 91.5488 30.0385 90.1783" stroke="#376A66" stroke-linecap="round" stroke-linejoin="round"/>
<path d="M24.3234 86.878C23.9479 87.3875 23.6639 87.9585 23.4844 88.5654" stroke="white" stroke-linecap="round" stroke-linejoin="round"/>
<path d="M28.2205 83.1488C28.2205 83.1488 27.7031 84.0065 25.4237 85.7545C25.2768 85.8606 25.1367 85.9758 25.0042 86.0995" stroke="white" stroke-linecap="round" stroke-linejoin="round"/>
<path d="M20.9113 110.479C20.6005 114.91 20.2898 119.345 19.979 123.783V123.442" fill="#376A66"/>
<path d="M20.9113 110.479C20.6005 114.91 20.2898 119.345 19.979 123.783V123.442" stroke="#376A66" stroke-linecap="round" stroke-linejoin="round"/>
<path d="M50.3577 95.8466C50.7791 95.682 51.2343 95.6231 51.6837 95.6751C52.1331 95.7271 52.5629 95.8884 52.9355 96.145C53.6789 96.6715 54.22 97.4363 54.4691 98.3125C54.7663 99.1851 54.7365 100.136 54.3852 100.988C54.2035 101.408 53.911 101.771 53.5391 102.038C53.1672 102.305 52.7298 102.466 52.2736 102.503C51.5936 102.494 50.9365 102.256 50.409 101.827C48.6656 100.522 47.7939 96.9514 50.3577 95.8466Z" fill="white" stroke="#376A66" stroke-linecap="round" stroke-linejoin="round"/>
<path d="M54.2174 80.9628C54.2174 81.0187 54.2174 81.387 54.25 81.4522C54.4132 82.1701 54.7581 83.9648 53.8864 84.3283C54.2174 85.5077 55.0285 93.213 54.9213 97.1426C54.8933 98.3173 54.6882 99.7111 53.6347 100.215C51.8587 101.058 50.1713 99.0025 50.3717 97.3943C50.684 95.1988 50.5768 92.9613 50.8379 90.7425C51.1222 88.4397 51.6443 86.081 51.0709 83.8296C50.9311 83.6757 50.0361 81.8997 49.7424 81.4103C49.6107 81.2011 49.5072 80.9754 49.4348 80.739C49.32 79.9346 49.2639 79.123 49.267 78.3104C49.5327 77.807 49.8776 78.2731 50.0594 78.6041C50.2077 79.0076 50.2588 79.4404 50.2086 79.8674C50.1913 79.9718 50.2059 80.079 50.2505 80.175C50.2896 80.2299 50.3426 80.2735 50.404 80.3013C50.4654 80.3292 50.5331 80.3403 50.6001 80.3335C51.1735 80.2496 51.1502 79.7695 51.1409 79.4012C51.1409 78.1659 51.1409 76.9306 51.1409 75.7047C51.1409 75.4996 51.2061 74.9449 51.4019 74.9262C51.5977 74.9076 51.8914 75.0661 51.9193 75.7233C51.9519 76.4645 51.952 78.7486 51.952 78.7486C51.9704 78.7674 51.9934 78.7811 52.0187 78.7885C52.044 78.7958 52.0708 78.7965 52.0965 78.7906C52.1431 78.7906 52.1617 78.7067 52.1804 78.66C52.4554 77.5133 52.7351 76.3666 53.0101 75.2199C53.0427 75.0847 53.2432 74.805 53.3877 74.805C53.7326 74.805 53.7419 75.2059 53.7606 75.3225C53.8818 75.9378 53.0194 78.4736 52.8749 79.0516C52.8749 79.1542 52.8749 79.308 52.9821 79.28L54.3339 76.5531C54.3966 76.3938 54.4953 76.2511 54.6222 76.1363C54.7492 76.0214 54.901 75.9375 55.0658 75.8911C55.0885 75.884 55.1129 75.884 55.1357 75.8911C55.16 75.9053 55.1795 75.9264 55.1916 75.9517C55.3222 76.1848 55.1916 76.5065 55.1171 76.7628C55.0425 77.0192 54.0309 78.9024 53.672 79.6623C53.6207 79.7695 53.5368 80.0119 53.6394 80.1284C53.7419 80.2449 53.9284 80.0212 54.003 79.8674C54.2314 79.4012 54.4458 78.963 54.6556 78.5062C54.7208 78.371 54.8187 78.1799 54.9726 78.2125C55.8815 78.4083 54.5903 80.3149 54.2174 80.9628Z" fill="white" stroke="#376A66" stroke-linecap="round" stroke-linejoin="round"/>
<path d="M51.7097 80.5616C52.179 80.9333 52.5865 81.377 52.917 81.8761C53.08 82.1271 53.189 82.4091 53.2372 82.7044C53.2853 82.9998 53.2716 83.3018 53.1967 83.5915C53.1741 83.6672 53.1444 83.7405 53.1081 83.8106" fill="white"/>
<path d="M51.7097 80.5616C52.179 80.9333 52.5865 81.377 52.917 81.8761C53.08 82.1271 53.189 82.4091 53.2372 82.7044C53.2853 82.9998 53.2716 83.3018 53.1967 83.5915C53.1741 83.6672 53.1444 83.7405 53.1081 83.8106" stroke="#376A66" stroke-linecap="round" stroke-linejoin="round"/>
<path d="M38.5784 109.682C39.0717 110.676 39.4037 111.743 39.5619 112.842C39.6971 113.942 39.7391 114.805 38.9886 117.895" stroke="#376A66" stroke-linecap="round" stroke-linejoin="round"/>
<path d="M28.0574 84.7011C27.9936 84.8917 27.9775 85.095 28.0108 85.2931C28.0992 85.5425 28.2619 85.7589 28.4769 85.9131C29.9668 87.2188 31.6334 88.3078 33.4273 89.1481C33.6524 89.2067 33.8474 89.3472 33.9742 89.5421C34.1009 89.737 34.1503 89.9722 34.1126 90.2016V93.8049C34.1355 94.1765 34.0993 94.5494 34.0054 94.9097C33.7443 95.7487 33.1663 96.4246 32.7468 97.1984C32.3203 97.9322 32.1042 98.7692 32.1221 99.6177C32.0056 98.7274 35.1195 97.0027 35.9632 93.4973C36.0797 93.0031 38.5036 90.0618 37.0493 86.6077C35.6509 83.2934 33.4507 81.867 32.7095 81.6945C32.2064 81.5474 31.6755 81.5223 31.1608 81.6212C30.646 81.7201 30.1623 81.9402 29.7495 82.2632C28.9349 82.8698 28.3408 83.7259 28.0574 84.7011Z" fill="#376A66" stroke="#376A66" stroke-linecap="round" stroke-linejoin="round"/>
<path d="M31.1106 94.8024C30.8449 94.8584 30.5745 94.9097 30.3042 94.9423C29.3719 95.0588 28.3743 94.9143 27.7637 94.2337C27.8103 94.8444 28.2298 97.1518 29.4837 97.2171C30.7377 97.2823 31.1106 94.8024 31.1106 94.8024Z" stroke="#376A66" stroke-linecap="round" stroke-linejoin="round"/>
<path d="M29.8987 83.2935C30.4363 84.5141 31.293 85.5672 32.3786 86.3421C33.1663 86.9061 34.066 87.3116 34.7885 87.9549C35.7208 88.808 36.3315 90.1598 35.9725 91.3857" stroke="white" stroke-linecap="round" stroke-linejoin="round"/>
<path d="M39.6409 102.126C38.7428 102.846 38.1514 103.881 37.986 105.02C37.8253 106.005 37.9465 107.015 38.3357 107.934" stroke="#376A66" stroke-linecap="round" stroke-linejoin="round"/>
<path d="M22.277 109.817C22.2024 111.038 21.4426 112.096 20.7061 113.08Z" fill="#376A66"/>
<path d="M22.277 109.817C22.2024 111.038 21.4426 112.096 20.7061 113.08" stroke="#376A66" stroke-linecap="round" stroke-linejoin="round"/>
<path d="M20.4595 119.154C20.8297 119.774 21.3253 120.31 21.9144 120.727C22.5036 121.144 23.1734 121.434 23.881 121.578" stroke="#376A66" stroke-linecap="round" stroke-linejoin="round"/>
<path d="M38.2938 119.881C38.2938 119.881 37.0398 121.746 32.7793 122.137" stroke="#376A66" stroke-linecap="round" stroke-linejoin="round"/>
<path d="M163.104 103.543C163.104 103.543 146.859 108.577 143.801 104.601L144.216 84.3189H146.682L149.581 98.6062L162.894 96.1682C162.894 96.1682 164.6 101.454 163.104 103.543Z" fill="white"/>
<mask id="mask0_25_1136" style="mask-type:luminance" maskUnits="userSpaceOnUse" x="143" y="84" width="21" height="23">
<path d="M163.104 103.543C163.104 103.543 146.859 108.577 143.801 104.601L144.216 84.3189H146.682L149.581 98.6062L162.894 96.1682C162.894 96.1682 164.6 101.454 163.104 103.543Z" fill="white"/>
</mask>
<g mask="url(#mask0_25_1136)">
<path d="M156.261 104.251C155.329 104.621 154.44 105.09 153.608 105.649C154.708 105.999 155.883 105.556 156.983 105.207C158.436 104.76 159.917 104.412 161.416 104.162C161.486 103.748 160.95 102.801 160.74 102.433C160.358 101.79 160.274 101.734 159.631 102.051C158.461 102.638 157.463 103.659 156.261 104.251Z" fill="#009688"/>
</g>
<path d="M163.104 103.543C163.104 103.543 146.859 108.577 143.801 104.601L144.216 84.3189H146.682L149.581 98.6062L162.894 96.1682C162.894 96.1682 164.6 101.454 163.104 103.543Z" stroke="#376A66" stroke-linecap="round" stroke-linejoin="round"/>
<path d="M161.51 104.074L164.362 121.638C164.288 133.021 169.718 131.311 173.489 131.278C177.848 131.241 184.462 126.92 181.218 120.193L182.467 95.8465L174.874 95.2685C172.371 95.0727 162.116 95.3944 161.3 96.7042C159.183 100.102 161.51 104.074 161.51 104.074Z" fill="white"/>
<mask id="mask1_25_1136" style="mask-type:luminance" maskUnits="userSpaceOnUse" x="160" y="95" width="23" height="37">
<path d="M161.51 104.074L164.362 121.638C164.288 133.021 169.718 131.311 173.489 131.278C177.848 131.241 184.462 126.92 181.218 120.193L182.467 95.8465L174.874 95.2685C172.371 95.0727 162.116 95.3944 161.3 96.7042C159.183 100.102 161.51 104.074 161.51 104.074Z" fill="white"/>
</mask>
<g mask="url(#mask1_25_1136)">
<path d="M161.957 105.524C163.651 111.933 167.715 117.461 173.326 120.991C172.719 120.894 172.125 120.724 171.56 120.482C170.991 120.237 170.353 120.203 169.76 120.385C169.617 120.436 169.486 120.515 169.374 120.618C169.261 120.72 169.17 120.844 169.106 120.982C169.041 121.119 169.004 121.268 168.998 121.42C168.991 121.572 169.014 121.724 169.066 121.867C169.202 122.085 169.387 122.269 169.607 122.403C170.532 123.053 171.544 123.571 172.613 123.941C171.676 123.845 170.728 123.918 169.816 124.156C169.649 124.967 170.553 125.554 171.266 125.95C172.404 126.621 173.378 127.537 174.119 128.631C171.616 128.636 169.115 128.779 166.628 129.059C166.3 129.133 165.957 129.1 165.649 128.966C165.326 128.726 165.109 128.37 165.043 127.973C164.489 126.034 164.166 124.036 164.083 122.021C164.036 120.888 164.083 119.746 163.934 118.623C163.813 117.737 163.649 116.858 163.439 115.989C162.715 112.626 162.161 109.237 161.775 105.822C161.603 105.836 161.957 105.524 161.957 105.524Z" fill="#009688"/>
<path d="M181.213 104.125C180.584 103.924 179.998 103.608 179.484 103.193C179.628 103.892 180.673 105.1 181.283 105.472C181.409 105.552 181.591 105.617 181.703 105.51C181.815 105.403 181.889 105.128 182.001 105.044L181.213 104.125Z" fill="#009688"/>
</g>
<path d="M161.51 104.074L164.362 121.638C164.288 133.021 169.718 131.311 173.489 131.278C177.848 131.241 184.462 126.92 181.218 120.193L182.467 95.8465L174.874 95.2685C172.371 95.0727 162.116 95.3944 161.3 96.7042C159.183 100.102 161.51 104.074 161.51 104.074Z" stroke="#376A66" stroke-linecap="round" stroke-linejoin="round"/>
<path d="M167.061 94.9097C166.244 96.4057 165.851 98.0964 165.924 99.7995C165.923 99.9482 165.951 100.096 166.008 100.233C166.218 100.648 166.791 100.648 167.252 100.699C169.047 100.928 170.161 102.82 171.853 103.454C171.913 103.491 171.979 103.515 172.048 103.525C172.116 103.536 172.187 103.532 172.254 103.515C172.322 103.497 172.385 103.466 172.44 103.424C172.495 103.382 172.542 103.328 172.576 103.268C173.312 102.335 173.573 101.025 174.58 100.424C175.018 100.163 175.573 100.056 175.876 99.6457C176.221 99.1796 176.067 98.5083 175.899 97.9396C175.624 97.0073 175.317 96.0378 174.603 95.3898C173.844 94.7967 172.91 94.4692 171.946 94.4575C170.536 94.3421 169.116 94.4746 167.751 94.8491C167.77 95.0262 167.061 94.9097 167.061 94.9097Z" fill="#009688" stroke="#376A66" stroke-linecap="round" stroke-linejoin="round"/>
<path d="M189.623 106.829C188.483 105.17 187.644 103.324 187.143 101.375C186.96 100.399 186.676 99.4441 186.294 98.527C185.934 97.8186 185.415 97.2035 184.777 96.7302C184.138 96.257 183.399 95.9385 182.616 95.8C182.283 95.7266 181.935 95.7426 181.61 95.8467C180.934 96.103 180.635 96.8815 180.5 97.59C180.208 99.1119 180.294 100.682 180.752 102.163C181.064 103.17 184.817 110.47 187.278 113.299C187.063 111.873 188.704 107.104 189.623 106.829Z" fill="white"/>
<mask id="mask2_25_1136" style="mask-type:luminance" maskUnits="userSpaceOnUse" x="180" y="95" width="10" height="19">
<path d="M189.623 106.829C188.483 105.17 187.644 103.324 187.143 101.375C186.96 100.399 186.676 99.4441 186.294 98.527C185.934 97.8186 185.415 97.2035 184.777 96.7302C184.138 96.257 183.399 95.9385 182.616 95.8C182.283 95.7266 181.935 95.7426 181.61 95.8467C180.934 96.103 180.635 96.8815 180.5 97.59C180.208 99.1119 180.294 100.682 180.752 102.163C181.064 103.17 184.817 110.47 187.278 113.299C187.063 111.873 188.704 107.104 189.623 106.829Z" fill="white"/>
</mask>
<g mask="url(#mask2_25_1136)">
<path d="M182.262 105.398L184.565 109.738C184.896 110.358 185.269 111.02 185.912 111.29C185.507 109.856 185.277 108.379 185.227 106.89C185.252 106.141 185.166 105.393 184.971 104.671C184.877 104.75 184.779 104.414 184.779 104.414C184.677 104.605 184.407 104.61 184.197 104.568C182.691 104.251 181.656 102.909 180.761 101.659C180.645 102.078 180.626 102.518 180.707 102.944C180.788 103.371 180.966 103.774 181.227 104.121C181.227 104.121 182.188 105.253 182.262 105.398Z" fill="#009688"/>
</g>
<path d="M189.623 106.829C188.483 105.17 187.644 103.324 187.143 101.375C186.96 100.399 186.676 99.4441 186.294 98.527C185.934 97.8186 185.415 97.2035 184.777 96.7302C184.138 96.257 183.399 95.9385 182.616 95.8C182.283 95.7266 181.935 95.7426 181.61 95.8467C180.934 96.103 180.635 96.8815 180.5 97.59C180.208 99.1119 180.294 100.682 180.752 102.163C181.064 103.17 184.817 110.47 187.278 113.299C187.063 111.873 188.704 107.104 189.623 106.829Z" stroke="#376A66" stroke-linecap="round" stroke-linejoin="round"/>
<path d="M186.388 112.05C183.88 107.244 185.092 96.1682 185.017 94.3875L188.327 94.2104C188.658 94.2104 190.191 103.654 191.235 107.575C192.168 111.145 191.273 114.758 189.623 114.758C188.252 114.758 186.914 113.061 186.388 112.05Z" fill="white" stroke="#376A66" stroke-linecap="round" stroke-linejoin="round"/>
<path d="M156.503 99.5712C158.834 96.1683 163.407 95.8979 163.407 95.8979" stroke="#376A66" stroke-linecap="round" stroke-linejoin="round"/>
<path d="M147.511 101.478C148.216 100.83 148.769 100.034 149.129 99.1469Z" fill="white"/>
<path d="M147.511 101.478C148.216 100.83 148.769 100.034 149.129 99.1469" stroke="#376A66" stroke-linecap="round" stroke-linejoin="round"/>
<path d="M164.828 117.56C166.157 119.736 174.762 122.063 178.193 121.564" stroke="#376A66" stroke-linecap="round" stroke-linejoin="round"/>
<path d="M167.262 123.703C169.74 124.13 172.281 124.033 174.72 123.419" stroke="#376A66" stroke-linecap="round" stroke-linejoin="round"/>
<path d="M178.677 102.582L180.318 104.806C180.542 105.109 180.854 105.449 181.223 105.365" stroke="#376A66" stroke-linecap="round" stroke-linejoin="round"/>
<path d="M190.872 186.926C190.727 187.518 190.681 188.222 191.105 188.665C191.529 189.108 192.144 189.099 192.718 189.089L194.689 189.052C195.45 189.09 196.21 188.971 196.922 188.702C197.279 188.564 197.584 188.319 197.796 188.002C198.009 187.684 198.119 187.309 198.111 186.926C198.062 186.631 197.968 186.345 197.831 186.078C197.654 185.696 197.477 185.309 197.305 184.927C195.128 180.13 191.804 183.048 190.872 186.926Z" fill="white" stroke="#376A66" stroke-linecap="round" stroke-linejoin="round"/>
<path d="M188.094 181.272C188.163 183.474 187.978 185.676 187.544 187.835C187.441 188.325 187.544 189.066 188.01 189.019C188.193 188.991 188.359 188.897 188.476 188.754C190.189 187.064 191.415 184.943 192.023 182.615C192.115 182.373 192.157 182.115 192.149 181.857C192.14 181.598 192.08 181.344 191.972 181.109C191.844 180.92 191.687 180.753 191.506 180.615C189.926 179.352 187.949 178.098 188.094 181.272Z" fill="white" stroke="#376A66" stroke-linecap="round" stroke-linejoin="round"/>
<path d="M182.682 124.929C182.682 124.929 185.138 129.199 185.665 130.192C186.192 131.185 197.319 145.808 199.454 156.454C199.855 158.478 191.646 181.104 191.646 181.104L189.781 180.051C189.781 180.051 191.077 159.414 190.76 157.699C190.443 155.984 182.253 143.323 182.253 143.323C182.253 143.323 177.68 139.962 175.797 136.056L182.682 124.929Z" fill="#376A66"/>
<path d="M182.948 135.627C182.948 135.627 181.549 138.741 181.549 139.189C181.549 139.636 189.24 163.941 191.501 169.563C192.931 173.183 194.191 176.887 195.282 180.675C195.282 180.675 196.158 181.827 195.496 183.006C194.834 184.186 192.2 184.959 191.66 183.906C191.119 182.852 185.791 177.38 183.544 171.935C181.297 166.491 178.137 157.392 176.338 154.003C173.981 149.672 171.889 145.203 170.073 140.62C167.812 134.835 165.5 128.598 165.5 128.598C166.439 128.683 167.382 128.709 168.325 128.677C170.544 128.601 172.741 128.212 174.851 127.521C179.764 125.871 181.889 122.711 181.889 122.711C181.889 122.711 183.106 126.006 183.423 126.645L182.948 135.627Z" fill="#376A66"/>
<path d="M198.633 158.538C198.152 159.363 197.504 160.079 196.731 160.64" stroke="white" stroke-linecap="round" stroke-linejoin="round"/>
<path d="M199.234 157.182C199.164 157.409 199.08 157.631 198.983 157.848" stroke="white" stroke-linecap="round" stroke-linejoin="round"/>
<path d="M178.505 128.365C179.745 130.5 180.906 133.572 180.719 136.033C180.619 136.48 180.463 136.912 180.253 137.319" stroke="white" stroke-linecap="round" stroke-linejoin="round"/>
<path d="M171 130.737C171.135 131.926 171.317 133.903 171.056 135.068C170.836 136.26 170.152 137.316 169.154 138.005" stroke="white" stroke-linecap="round" stroke-linejoin="round"/>
<path d="M181.572 126.239C181.843 126.577 182.063 126.952 182.225 127.353C182.541 127.93 182.974 128.433 183.498 128.83C184.022 129.226 184.624 129.508 185.264 129.656" stroke="white" stroke-linecap="round" stroke-linejoin="round"/>
<path d="M177.615 131.003C179.26 134.602 180.519 138.21 183.073 144.325" stroke="white" stroke-linecap="round" stroke-linejoin="round"/>
<path d="M176.738 129.162C176.878 129.442 177.013 129.721 177.148 130.001" stroke="white" stroke-linecap="round" stroke-linejoin="round"/>
<path d="M190.434 156.692C191.188 158.146 192.147 159.483 193.282 160.664" stroke="white" stroke-linecap="round" stroke-linejoin="round"/>
<path d="M191.212 158.035C191.706 160.316 192.607 162.489 193.874 164.449" stroke="white" stroke-linecap="round" stroke-linejoin="round"/>
<path d="M179.624 158.151C175.993 150.404 172.119 142.717 167.36 131.003" stroke="white" stroke-linecap="round" stroke-linejoin="round"/>
<path d="M180.444 160.403C180.356 160.133 180.262 159.862 180.165 159.587" stroke="white" stroke-linecap="round" stroke-linejoin="round"/>
<path d="M192.998 184.223C192.065 183.006 185.269 173.501 183.582 169.194C182.458 166.323 181.61 164.295 180.785 161.433" stroke="white" stroke-linecap="round" stroke-linejoin="round"/>
<path d="M190.434 165.931L193.664 175.427" stroke="white" stroke-linecap="round" stroke-linejoin="round"/>
<path d="M188.257 94.215L187.278 94.2943C186.037 94.5147 184.764 94.4558 183.549 94.1218C182.77 93.9307 180.966 93.3713 180.752 93.334C180.216 93.2194 179.675 93.1323 179.13 93.073C177.484 92.9751 178.319 92.3598 179.004 92.3877C179.908 92.4297 180.211 92.411 180.906 92.4623C180.822 92.4157 180.565 92.3644 180.561 92.164C180.561 91.6745 181.204 91.6978 181.204 91.6978C181.204 91.6978 180.5 91.3995 180.598 91.0313C180.696 90.663 181.167 90.5651 181.465 90.5931C181.465 90.5931 181.069 90.402 181.088 90.1969C181.171 89.4044 182.798 89.3485 182.798 89.3485C182.405 89.1727 182.036 88.9454 181.703 88.6726C181.581 88.5415 181.496 88.3808 181.456 88.2064C181.447 88.1234 181.461 88.0395 181.496 87.9635C181.53 87.8876 181.585 87.8224 181.653 87.7748C181.722 87.7271 181.802 87.6988 181.886 87.6927C181.969 87.6867 182.052 87.7031 182.127 87.7403C182.548 88.0206 182.954 88.3224 183.344 88.6446C183.847 89.0035 184.43 89.232 184.961 89.5536C185.479 89.9968 185.897 90.545 186.187 91.1618C186.271 91.2923 188.257 94.215 188.257 94.215Z" fill="white" stroke="#376A66" stroke-linecap="round" stroke-linejoin="round"/>
<path d="M144.215 84.3189V81.7505C144.209 80.4616 144.398 79.1793 144.775 77.9467C144.989 77.2662 145.241 76.6742 145.469 76.5856C145.894 76.4318 146.08 78.1518 146.08 78.1518C145.761 76.7726 145.557 75.3694 145.469 73.9565C145.469 72.4602 147.483 78.6739 147.483 78.6739L146.681 84.3189H144.215Z" fill="white" stroke="#376A66" stroke-linecap="round" stroke-linejoin="round"/>
<path d="M146.649 80.1423C146.892 79.9543 147.074 79.6978 147.171 79.4057Z" fill="white"/>
<path d="M146.649 80.1423C146.892 79.9543 147.074 79.6978 147.171 79.4057" stroke="#376A66" stroke-linecap="round" stroke-linejoin="round"/>
<path d="M166.171 89.6749C167.042 91.1406 167.523 92.8046 167.569 94.5088C167.653 97.3429 170.935 101.31 171.872 101.501C172.809 101.692 173.676 97.026 173.634 95.6136C173.592 94.2011 173.07 90.2995 173.07 90.2995C173.07 90.2995 168.581 86.906 166.171 89.6749Z" fill="white" stroke="#376A66" stroke-linecap="round" stroke-linejoin="round"/>
<path d="M167.49 93.4274C167.49 93.4274 171.792 99.2961 173.48 93.3295C175.167 87.3629 168.749 94.961 167.49 93.4274Z" fill="#376A66"/>
<path d="M174.753 89.2086C174.524 92.6907 172.935 94.6485 171.103 94.9934C169.429 95.3011 166.982 93.595 165.761 91.0638C165.667 91.0032 164.18 89.9731 163.826 89.7214C163.641 89.5919 163.49 89.4195 163.386 89.219C163.282 89.0185 163.229 88.7958 163.23 88.57C163.241 88.3533 163.318 88.1451 163.449 87.9723C163.58 87.7995 163.76 87.6699 163.966 87.6004H164.008C164.218 87.5547 164.436 87.5709 164.637 87.647C164.33 86.4583 164.078 85.251 163.887 84.0344C163.975 81.2375 164.903 78.9534 167.886 78.7297C170.87 78.5059 173.363 80.1747 173.48 81.3774C173.564 82.3097 173.867 84.7756 174.137 87.3254C174.212 87.9873 174.804 88.4255 174.753 89.2086Z" fill="white" stroke="#376A66" stroke-linecap="round" stroke-linejoin="round"/>
<path d="M173.48 85.1813C173.48 85.1813 171.56 84.3002 171.886 87.1624C171.951 87.7264 173 88.5608 173 88.5608C173 88.5608 172.73 89.4045 172.231 89.4045" fill="white"/>
<path d="M173.48 85.1813C173.48 85.1813 171.56 84.3002 171.886 87.1624C171.951 87.7264 173 88.5608 173 88.5608C173 88.5608 172.73 89.4045 172.231 89.4045" stroke="#376A66" stroke-linecap="round" stroke-linejoin="round"/>
<path d="M169.77 86.16C169.77 86.16 168.791 85.5634 168.119 85.9316C167.769 86.0839 167.471 86.335 167.262 86.6541" fill="white"/>
<path d="M169.77 86.16C169.77 86.16 168.791 85.5634 168.119 85.9316C167.769 86.0839 167.471 86.335 167.262 86.6541" stroke="#376A66" stroke-linecap="round" stroke-linejoin="round"/>
<path d="M169.21 87.8103C169.285 88.1552 169.21 88.4629 169.01 88.5049C168.809 88.5468 168.614 88.2951 168.544 87.9501C168.474 87.6052 168.544 87.2975 168.749 87.2556C168.954 87.2136 169.14 87.4607 169.21 87.8103Z" fill="#376A66"/>
<path d="M172.995 86.8033C173.07 87.1483 172.995 87.4559 172.795 87.4979C172.594 87.5399 172.399 87.2881 172.329 86.9478C172.259 86.6076 172.329 86.2906 172.529 86.2533C172.729 86.216 172.925 86.4631 172.995 86.8033Z" fill="#376A66"/>
<path d="M163.663 80.4219C163.322 80.7559 163.086 81.1819 162.982 81.6479C162.703 82.6335 162.622 83.6647 162.745 84.6817C162.867 85.6988 163.19 86.6814 163.696 87.5726C164.006 87.5344 164.321 87.547 164.628 87.6099C164.954 87.6938 165.374 88.2531 165.528 88.5421C165.662 88.8503 165.74 89.1804 165.756 89.5164C165.681 88.6307 165.611 87.7497 165.537 86.864C165.487 86.5099 165.503 86.1496 165.583 85.8012C165.812 85.074 165.56 83.3586 165.625 81.825C167.56 84.1884 170.371 83.7688 171.303 83.6896C172.702 83.5731 173.895 82.142 173.82 81.1211C173.746 80.1003 173.471 77.4712 168.86 77.2009C167.845 77.0928 166.821 77.3064 165.933 77.8115C165.652 77.9969 165.413 78.2398 165.232 78.5243C165.051 78.8087 164.933 79.1282 164.884 79.4617C164.819 79.8905 164.982 79.9278 164.656 80.1376C164.33 80.3473 163.985 80.1469 163.663 80.4219Z" fill="#376A66" stroke="#376A66" stroke-linecap="round" stroke-linejoin="round"/>
<path d="M169.77 91.0454C169.77 91.0454 170.455 91.8005 171.886 91.3018Z" fill="white"/>
<path d="M169.77 91.0454C169.77 91.0454 170.455 91.8005 171.886 91.3018" stroke="#376A66" stroke-linecap="round" stroke-linejoin="round"/>
</svg>
