<svg width="205" height="205" viewBox="0 0 205 205" fill="none" xmlns="http://www.w3.org/2000/svg">
<g opacity="0.2">
<path d="M179.763 20.8715H122.677C120.974 20.8715 119.594 22.2518 119.594 23.9545V25.5212C119.594 27.2239 120.974 28.6042 122.677 28.6042H179.763C181.465 28.6042 182.846 27.2239 182.846 25.5212V23.9545C182.846 22.2518 181.465 20.8715 179.763 20.8715Z" stroke="black" stroke-linejoin="round"/>
<path d="M173.093 22.6566V26.273" stroke="black" stroke-width="0.5" stroke-linejoin="round"/>
<path d="M170.282 22.6902L166.893 26.0798" stroke="black" stroke-linejoin="round"/>
<path d="M166.893 22.6902L170.282 26.0798" stroke="black" stroke-linejoin="round"/>
<path d="M179.015 26.1762C178.991 26.2075 178.96 26.2334 178.926 26.2522C178.891 26.271 178.852 26.2823 178.813 26.2855C178.773 26.2887 178.734 26.2836 178.696 26.2705C178.659 26.2575 178.624 26.2368 178.595 26.2098L177.205 24.9497L177.47 24.6347L178.961 25.7772C179.021 25.823 179.06 25.8907 179.07 25.9654C179.081 26.0402 179.061 26.116 179.015 26.1762Z" fill="#376A66" stroke="black" stroke-linejoin="round"/>
<path d="M175.445 23.211C175.28 23.411 175.179 23.6552 175.153 23.9129C175.127 24.1707 175.178 24.4302 175.3 24.6589C175.421 24.8876 175.608 25.0751 175.836 25.1978C176.064 25.3205 176.323 25.3728 176.581 25.3482C176.839 25.3236 177.084 25.2231 177.285 25.0595C177.485 24.8959 177.633 24.6764 177.709 24.4289C177.785 24.1813 177.787 23.9168 177.712 23.6686C177.638 23.4204 177.492 23.1998 177.293 23.0346C177.16 22.924 177.007 22.8408 176.842 22.7897C176.677 22.7387 176.504 22.7209 176.332 22.7373C176.16 22.7537 175.993 22.804 175.841 22.8853C175.689 22.9666 175.554 23.0773 175.445 23.211ZM177.322 24.7609C177.181 24.9319 176.992 25.0572 176.78 25.1209C176.568 25.1847 176.341 25.184 176.129 25.119C175.917 25.054 175.729 24.9276 175.589 24.7558C175.448 24.584 175.362 24.3744 175.341 24.1537C175.32 23.9329 175.365 23.7108 175.47 23.5155C175.575 23.3202 175.736 23.1604 175.931 23.0564C176.127 22.9523 176.35 22.9087 176.57 22.931C176.791 22.9533 177 23.0405 177.171 23.1816C177.285 23.2753 177.379 23.3905 177.448 23.5206C177.517 23.6508 177.56 23.7932 177.574 23.9399C177.588 24.0866 177.573 24.2345 177.53 24.3754C177.487 24.5163 177.416 24.6473 177.322 24.7609Z" stroke="black" stroke-linejoin="round"/>
</g>
<path d="M61.1552 34.8541C61.0271 35.0092 60.8691 35.1369 60.6906 35.2298C60.5122 35.3227 60.3169 35.3788 60.1164 35.3949C59.9158 35.4109 59.7141 35.3866 59.5232 35.3233C59.3322 35.26 59.1559 35.159 59.0047 35.0263L52.217 28.8519C52.5006 28.6067 52.7633 28.3384 53.0025 28.0497C53.2429 27.7647 53.4567 27.4582 53.6409 27.134L60.92 32.7078C61.079 32.8314 61.2116 32.9857 61.3098 33.1615C61.408 33.3373 61.47 33.531 61.4919 33.7312C61.5138 33.9314 61.4954 34.1339 61.4375 34.3268C61.3797 34.5197 61.2837 34.699 61.1552 34.8541Z" stroke="#CCCCCC" stroke-linejoin="round"/>
<path d="M52.0614 18.3597C52.8901 19.0208 53.5508 19.8685 53.9893 20.8337C54.4384 21.8409 54.6396 22.9411 54.576 24.0421C54.5125 25.1431 54.1859 26.2128 53.6238 27.1616C53.0618 28.1104 52.2804 28.9107 51.3454 29.4954C50.4103 30.0801 49.3488 30.4323 48.2496 30.5222C47.1505 30.6122 46.0458 30.4375 45.0281 30.0127C44.0103 29.5879 43.1093 28.9253 42.4003 28.0806C41.6914 27.2358 41.1952 26.2334 40.9534 25.1575C40.7115 24.0815 40.7311 22.9632 41.0104 21.8963C41.2994 20.7739 41.8682 19.7431 42.6638 18.9003C43.4593 18.0575 44.4556 17.4301 45.5594 17.0768C46.6633 16.7235 47.8386 16.6559 48.9757 16.8803C50.1128 17.1046 51.1744 17.6136 52.0614 18.3597ZM52.2168 27.4155C51.4716 28.3149 50.4765 28.9731 49.3573 29.3069C48.2381 29.6408 47.0451 29.6353 45.929 29.2911C44.8129 28.9469 43.824 28.2796 43.0872 27.3734C42.3503 26.4672 41.8988 25.3629 41.7895 24.2001C41.6803 23.0372 41.9183 21.8682 42.4735 20.8406C43.0286 19.813 43.876 18.9732 44.9085 18.4272C45.9409 17.8812 47.1121 17.6536 48.2739 17.7732C49.4357 17.8927 50.5359 18.3541 51.4355 19.0989C52.0335 19.5933 52.5281 20.2007 52.891 20.8865C53.254 21.5722 53.4781 22.3228 53.5507 23.0952C53.6233 23.8677 53.5428 24.6469 53.3139 25.3882C53.085 26.1295 52.7122 26.8184 52.2168 27.4155Z" stroke="#CCCCCC" stroke-linejoin="round"/>
<path d="M160.773 186.993C160.663 186.874 160.577 186.735 160.522 186.583C160.466 186.43 160.442 186.269 160.45 186.107C160.458 185.945 160.499 185.786 160.57 185.641C160.64 185.495 160.739 185.365 160.861 185.258L166.502 180.482C166.668 180.735 166.855 180.972 167.061 181.192C167.264 181.415 167.486 181.618 167.725 181.801L162.512 187.035C162.397 187.149 162.259 187.239 162.109 187.299C161.958 187.359 161.796 187.388 161.634 187.384C161.471 187.38 161.311 187.344 161.163 187.276C161.015 187.209 160.883 187.113 160.773 186.993Z" stroke="#CCCCCC" stroke-linejoin="round"/>
<path d="M174.903 181.465C174.284 182.049 173.538 182.481 172.723 182.725C171.385 183.141 169.941 183.049 168.667 182.467C167.393 181.885 166.378 180.854 165.816 179.57C165.254 178.287 165.185 176.842 165.621 175.511C166.058 174.18 166.97 173.056 168.183 172.355C169.396 171.654 170.824 171.424 172.196 171.71C173.567 171.996 174.785 172.778 175.617 173.905C176.448 175.032 176.835 176.427 176.704 177.821C176.572 179.216 175.931 180.513 174.903 181.465ZM167.649 180.65C167.008 179.961 166.585 179.097 166.435 178.167C166.285 177.238 166.414 176.285 166.806 175.429C167.198 174.572 167.835 173.852 168.636 173.358C169.438 172.864 170.368 172.618 171.309 172.653C172.25 172.688 173.159 173.001 173.922 173.553C174.685 174.104 175.267 174.87 175.595 175.753C175.923 176.635 175.981 177.595 175.763 178.511C175.545 179.427 175.06 180.258 174.37 180.898C173.912 181.323 173.375 181.654 172.79 181.872C172.205 182.089 171.582 182.189 170.958 182.166C170.334 182.143 169.721 181.998 169.153 181.737C168.585 181.477 168.074 181.108 167.649 180.65Z" stroke="#CCCCCC" stroke-linejoin="round"/>
<g opacity="0.2">
<path d="M34.0463 171.342L24.4109 180.982" stroke="black" stroke-linejoin="round"/>
<path d="M24.4109 171.342L34.0463 180.982" stroke="black" stroke-linejoin="round"/>
</g>
<g opacity="0.2">
<path d="M194.917 80.6164L185.281 90.256" stroke="black" stroke-linejoin="round"/>
<path d="M185.281 80.6164L194.917 90.256" stroke="black" stroke-linejoin="round"/>
</g>
<g opacity="0.2">
<path d="M18.9252 25.5926L9.28979 35.2322" stroke="black" stroke-linejoin="round"/>
<path d="M9.28979 25.5926L18.9252 35.2322" stroke="black" stroke-linejoin="round"/>
</g>
<path d="M27.6744 86.5136C27.6996 86.5136 27.3174 84.9133 27.2838 84.8125C26.8638 83.6742 25.4063 81.7169 24.0496 81.7631C23.8248 81.7769 23.6053 81.838 23.4057 81.9424C23.2061 82.0468 23.0308 82.1922 22.8912 82.369C22.7517 82.5458 22.651 82.7501 22.5958 82.9685C22.5407 83.1869 22.5322 83.4145 22.5711 83.6364C22.7013 84.5857 23.5834 85.3712 24.3688 85.8122C25.2971 86.3288 27.6702 86.5136 27.6744 86.5136Z" fill="#376A66"/>
<path d="M29.9554 75.5675C28.6953 76.0674 28.1409 78.4489 28.2207 79.6586C28.2207 79.7636 28.5231 81.3849 28.5441 81.3723H28.5693C28.4811 81.7462 28.3845 82.1494 28.2921 82.5946C28.1283 83.4347 27.9519 84.3377 27.8259 85.3626C27.6774 86.4614 27.5932 87.568 27.5739 88.6766C27.5498 89.9193 27.6342 91.1617 27.8259 92.3897C27.8279 92.405 27.8279 92.4205 27.8259 92.4359C27.6495 92.0789 27.1118 91.1044 27.0656 91.033C26.3642 90.0459 24.4362 88.5422 23.1426 88.9328C22.9296 89.0064 22.7344 89.1239 22.5697 89.2778C22.405 89.4316 22.2745 89.6183 22.1866 89.8258C22.0987 90.0333 22.0553 90.257 22.0594 90.4823C22.0634 90.7076 22.1148 90.9296 22.2101 91.1338C22.5839 92.0116 23.6424 92.5367 24.5203 92.7551C25.5073 92.9987 27.6831 92.5955 27.8553 92.5661C28.0849 93.8104 28.3964 95.0381 28.7877 96.2413C29.0104 96.9428 29.2582 97.64 29.5144 98.3415C29.3506 98.0391 29.1994 97.7702 29.1742 97.7366C28.4769 96.7454 26.549 95.2417 25.2511 95.6365C25.0382 95.7096 24.8431 95.8267 24.6785 95.9801C24.5138 96.1335 24.3833 96.3199 24.2953 96.5271C24.2074 96.7342 24.164 96.9576 24.168 97.1826C24.172 97.4077 24.2234 97.6293 24.3186 97.8332C24.6967 98.7153 25.7551 99.2361 26.633 99.4545C27.5109 99.673 29.3842 99.3705 29.8756 99.2823C29.9764 99.547 30.073 99.8158 30.178 100.085C30.6653 101.345 31.1609 102.638 31.6103 103.903C31.7699 104.348 31.9086 104.793 32.0304 105.238C31.8833 104.97 31.7573 104.747 31.7363 104.713C31.0391 103.726 29.107 102.223 27.8133 102.613C27.5999 102.686 27.4043 102.803 27.2392 102.957C27.0741 103.111 26.9434 103.298 26.8554 103.505C26.7674 103.713 26.7242 103.937 26.7286 104.162C26.7329 104.388 26.7848 104.61 26.8808 104.814C27.2546 105.692 28.3131 106.217 29.191 106.435C30.0688 106.654 31.7615 106.377 32.3454 106.276C32.4756 106.738 32.61 107.196 32.715 107.649C32.778 107.956 32.8662 108.25 32.9124 108.565C32.9586 108.88 33.0216 109.182 33.072 109.489C33.156 110.077 33.2442 110.686 33.3072 111.266C33.3534 111.686 33.3912 112.051 33.4333 112.438C33.282 111.992 32.9628 111.123 32.9292 111.056C32.421 110.132 31.6869 109.351 30.7955 108.788C30.7405 108.682 30.6773 108.581 30.6065 108.485C30.477 108.301 30.3104 108.147 30.1175 108.031C29.9246 107.915 29.7096 107.842 29.4863 107.814C29.2631 107.787 29.0366 107.807 28.8215 107.872C28.6064 107.938 28.4075 108.048 28.2375 108.195C27.242 109.115 27.5781 111.556 28.0863 112.639C28.1199 112.702 28.5063 113.37 28.7835 113.786L28.2123 113.122C27.8175 112.673 27.4142 112.236 26.9816 111.766L26.3222 111.102C26.108 110.871 25.8517 110.661 25.6165 110.438C25.0537 109.93 24.4615 109.447 23.8566 108.968C24.2472 108.624 25.6207 107.385 26.003 106.557C26.3852 105.73 26.633 104.583 26.1794 103.739C26.0795 103.537 25.9384 103.359 25.7651 103.215C25.5919 103.072 25.3904 102.966 25.1737 102.906C24.9571 102.845 24.7301 102.831 24.5075 102.864C24.2849 102.896 24.0718 102.976 23.8818 103.096C22.7561 103.852 22.7225 106.301 23.0418 107.464C23.0628 107.536 23.3988 108.342 23.592 108.783C23.2266 108.498 22.8611 108.216 22.4789 107.943C21.3784 107.154 20.2444 106.385 19.1187 105.612L18.0854 104.902C18.2282 104.781 19.8957 103.34 20.32 102.412C20.698 101.571 20.95 100.442 20.4964 99.5974C20.3979 99.394 20.2574 99.2138 20.0842 99.0686C19.9111 98.9234 19.7091 98.8166 19.4917 98.7551C19.2742 98.6936 19.0462 98.6788 18.8227 98.7118C18.5991 98.7447 18.3851 98.8247 18.1946 98.9463C17.069 99.7066 17.0354 102.151 17.3546 103.315C17.3798 103.403 17.867 104.575 18.0056 104.852C17.2454 104.327 16.4977 103.798 15.7795 103.243C14.8078 102.502 13.8846 101.7 13.0157 100.841C13.0787 100.782 14.826 99.2865 15.2586 98.3205C15.6367 97.4804 15.8929 96.3505 15.4392 95.5063C15.3376 95.308 15.1959 95.1329 15.023 94.9923C14.8502 94.8516 14.65 94.7484 14.4352 94.6892C14.2204 94.6299 13.9956 94.616 13.7751 94.6482C13.5546 94.6804 13.3432 94.758 13.1543 94.8762C12.0328 95.6365 11.9992 98.0811 12.3142 99.2445C12.3394 99.3369 12.8645 100.584 12.9737 100.803C12.9233 100.752 12.8645 100.706 12.8183 100.656C11.9701 99.7681 11.2027 98.8066 10.5249 97.7828C10.1469 97.2242 9.81087 96.6656 9.50005 96.1027C9.85287 95.8549 11.4574 94.7166 11.9446 93.906C12.4318 93.0953 12.7847 92.0158 12.4318 91.1254C12.3548 90.9135 12.2339 90.7202 12.0771 90.5581C11.9203 90.3961 11.7311 90.2689 11.5218 90.1849C11.3126 90.1009 11.088 90.0619 10.8626 90.0705C10.6373 90.0791 10.4163 90.1352 10.2141 90.2349C9.01281 90.865 8.71459 93.2927 8.92041 94.4856C8.92041 94.5486 9.11782 95.1955 9.26063 95.6659C9.12622 95.4139 8.97921 95.1577 8.8406 94.9182C8.36177 94.011 8.00055 93.1499 7.65192 92.3981C7.46711 91.978 7.3075 91.558 7.16469 91.1884C7.3873 90.7684 8.25676 89.0547 8.31557 88.1306C8.37437 87.2065 8.18956 86.0599 7.47551 85.4382C7.31009 85.285 7.11416 85.1684 6.90055 85.0962C6.68695 85.024 6.46049 84.9978 6.23603 85.0192C6.01157 85.0406 5.79417 85.1092 5.59807 85.2205C5.40197 85.3318 5.23161 85.4833 5.09815 85.665C4.3211 86.7781 5.17376 89.0715 5.9046 90.0333C5.96761 90.1173 7.11009 91.2934 7.12269 91.2934V91.2682C7.25289 91.6294 7.39991 92.0159 7.56792 92.4359C7.88294 93.2129 8.24416 94.0824 8.70199 95.0065C9.18669 96.004 9.72801 96.9731 10.3233 97.9088C10.9893 98.953 11.7454 99.9368 12.5831 100.849L12.6125 100.878C12.268 100.681 11.2852 100.164 11.2054 100.131C10.0755 99.6898 7.63932 99.505 6.78246 100.551C6.6444 100.728 6.5452 100.933 6.4913 101.151C6.43741 101.37 6.43003 101.597 6.46964 101.818C6.50924 102.04 6.59495 102.25 6.7212 102.436C6.84746 102.623 7.01143 102.78 7.20249 102.899C8.00055 103.424 9.17242 103.277 10.0251 102.974C10.9869 102.634 12.5789 101.101 12.7049 100.975C13.5814 101.887 14.5173 102.74 15.5064 103.529C16.0819 103.991 16.6741 104.44 17.2748 104.881C16.9681 104.717 16.6951 104.579 16.6573 104.562C15.5275 104.121 13.0913 103.932 12.2344 104.982C12.0964 105.16 11.9972 105.364 11.9433 105.583C11.8894 105.801 11.882 106.028 11.9216 106.25C11.9612 106.471 12.0469 106.682 12.1732 106.868C12.2994 107.054 12.4634 107.211 12.6545 107.33C13.4525 107.855 14.6244 107.708 15.477 107.406C16.3297 107.103 17.7746 105.843 18.1484 105.507C18.3836 105.675 18.6105 105.843 18.8457 106.007C19.9587 106.805 21.076 107.595 22.1471 108.401C22.5251 108.687 22.8863 108.981 23.2476 109.275C22.9787 109.132 22.7519 109.014 22.7141 109.002C21.5843 108.561 19.1481 108.372 18.2912 109.422C18.1531 109.6 18.0538 109.805 17.9999 110.023C17.946 110.242 17.9386 110.47 17.9782 110.691C18.0178 110.913 18.1035 111.124 18.2298 111.31C18.356 111.497 18.5201 111.655 18.7113 111.774C19.5135 112.299 20.6812 112.152 21.5339 111.85C22.3865 111.547 23.634 110.384 24.0792 109.976C24.4404 110.287 24.8059 110.598 25.1419 110.917C25.3687 111.14 25.5997 111.337 25.8139 111.577C26.0282 111.816 26.234 112.03 26.4566 112.257C26.8514 112.702 27.2588 113.164 27.6327 113.61C27.8931 113.916 28.1367 114.214 28.3845 114.517C28.0107 114.227 27.2672 113.677 27.2 113.643C26.1542 113.034 23.7726 112.48 22.7645 113.391C22.6019 113.547 22.4739 113.735 22.3888 113.943C22.3037 114.152 22.2634 114.376 22.2705 114.601C22.2776 114.826 22.332 115.047 22.4302 115.249C22.5283 115.452 22.668 115.632 22.8401 115.777C23.55 116.419 24.7303 116.449 25.6165 116.281C26.5952 116.092 28.3341 114.874 28.5567 114.723C28.9768 115.218 29.3506 115.71 29.7118 116.176C30.1864 116.785 30.6233 117.365 31.0139 117.902C31.2743 117.86 31.5893 117.801 31.959 117.734C31.4801 117.104 30.9425 116.415 30.3418 115.676C29.9218 115.168 29.5018 114.634 29.0188 114.088C29.4605 113.567 29.8728 113.022 30.2536 112.454C31.2155 112.795 33.1938 112.744 33.4585 112.736C33.5215 113.374 33.5761 113.996 33.6181 114.584C33.6937 115.6 33.7483 116.529 33.7819 117.356L34.6219 117.155C34.5673 116.361 34.5001 115.474 34.4077 114.517C34.3447 113.866 34.2649 113.173 34.1767 112.463C34.4287 112.391 36.4743 111.791 37.2303 111.144C37.9192 110.556 38.629 109.615 38.5744 108.662C38.5681 108.436 38.5146 108.215 38.4173 108.012C38.3201 107.809 38.1812 107.628 38.0098 107.482C37.8383 107.336 37.6381 107.228 37.4221 107.164C37.206 107.1 36.979 107.082 36.7557 107.112C35.4158 107.33 34.3615 109.535 34.1809 110.732C34.1809 110.804 34.1389 111.572 34.1263 112.076C34.0885 111.787 34.0591 111.505 34.0171 111.207C33.9373 110.615 33.8407 110.027 33.7357 109.397C33.6769 109.094 33.6181 108.788 33.5551 108.477C33.4921 108.166 33.4081 107.851 33.3324 107.532C33.1434 106.801 32.9124 106.07 32.673 105.339C33.1896 105.268 35.021 104.991 35.7938 104.499C36.5667 104.008 37.4109 103.201 37.4991 102.248C37.5268 102.024 37.5073 101.798 37.4418 101.582C37.3764 101.367 37.2665 101.168 37.1192 100.997C36.972 100.827 36.7906 100.69 36.5869 100.594C36.3832 100.498 36.1617 100.446 35.9366 100.442C34.5799 100.442 33.2022 102.475 32.841 103.63C32.841 103.701 32.652 104.562 32.5722 105.037C32.421 104.617 32.274 104.159 32.106 103.718C31.6271 102.458 31.1021 101.198 30.5855 99.9166C30.4258 99.5302 30.2746 99.1395 30.1192 98.7531C30.2998 98.7279 32.484 98.4465 33.3492 97.913C34.1179 97.4342 34.9664 96.6152 35.0546 95.6617C35.0822 95.4383 35.0627 95.2116 34.9973 94.9962C34.9318 94.7809 34.8219 94.5816 34.6747 94.4114C34.5274 94.2412 34.3461 94.1038 34.1423 94.008C33.9386 93.9123 33.7171 93.8603 33.4921 93.8556C32.1354 93.8556 30.7577 95.8885 30.3964 97.0436C30.3712 97.1318 30.1318 98.3667 30.0898 98.6859C29.7454 97.8458 29.4136 96.9722 29.1196 96.1153C28.7167 94.9604 28.3898 93.7804 28.1409 92.5829C28.2291 92.5829 30.5099 92.2889 31.3919 91.7428C32.1606 91.2682 33.009 90.4449 33.0972 89.4915C33.1256 89.268 33.1065 89.041 33.0414 88.8254C32.9762 88.6097 32.8663 88.4102 32.7189 88.2398C32.5715 88.0695 32.3899 87.932 32.1859 87.8365C31.9818 87.741 31.76 87.6895 31.5347 87.6854C30.178 87.6854 28.8003 89.7183 28.4391 90.8734C28.4139 90.9658 28.1577 92.2973 28.1283 92.5535C28.1283 92.4821 28.0947 92.4107 28.0821 92.3435C27.8645 91.1361 27.7548 89.9118 27.7545 88.685C27.7545 88.0046 27.7545 87.3577 27.8175 86.7277C28.2375 86.7277 30.2158 86.6521 31.0685 86.2447C31.9212 85.8372 32.8158 85.1316 33.0048 84.1949C33.0581 83.9761 33.0645 83.7485 33.0237 83.527C32.983 83.3055 32.8959 83.0951 32.7683 82.9095C32.6406 82.724 32.4752 82.5675 32.2829 82.4503C32.0906 82.333 31.8757 82.2577 31.6523 82.2292C30.304 82.0906 28.7121 83.9513 28.2249 85.0602C28.1997 85.119 27.9981 85.7616 27.8595 86.2321C27.8847 85.9506 27.9015 85.6566 27.9309 85.392C28.0359 84.3713 28.1913 83.4431 28.3509 82.624C28.4391 82.1578 28.5273 81.7378 28.6113 81.3639C29.0314 81.1329 30.7115 80.1837 31.2575 79.4444C31.8035 78.7052 32.295 77.6509 32.0346 76.731C31.9847 76.5121 31.8894 76.306 31.7549 76.1262C31.6204 75.9463 31.4496 75.7968 31.2536 75.6871C31.0577 75.5774 30.8408 75.5101 30.6172 75.4895C30.3936 75.4689 30.1681 75.4955 29.9554 75.5675Z" fill="#376A66"/>
<path d="M6.13112 97.2832C7.18959 97.2034 9.27293 96.0441 9.27293 96.0441C9.27293 96.0441 8.09265 94.9058 8.01285 94.8428C7.04258 94.1204 4.74083 93.2929 3.63616 94.0826C3.45675 94.2184 3.30792 94.3904 3.19931 94.5874C3.0907 94.7845 3.02475 95.0022 3.00574 95.2263C2.98673 95.4505 3.01508 95.6762 3.08895 95.8887C3.16283 96.1013 3.28057 96.2959 3.43454 96.4599C4.06038 97.1824 5.22806 97.3462 6.13112 97.2832Z" fill="#376A66"/>
<path d="M97.2187 31.5821C97.2187 31.6031 98.378 30.1204 98.441 30.0154C99.1508 28.8351 99.8355 26.1344 98.819 24.9751C98.6447 24.7867 98.4327 24.6372 98.1968 24.536C97.9609 24.4349 97.7063 24.3845 97.4497 24.388C97.1931 24.3916 96.9401 24.4491 96.7071 24.5567C96.4741 24.6644 96.2663 24.8198 96.0972 25.0129C95.3538 25.8067 95.295 27.1508 95.4672 28.1631C95.673 29.3308 97.2145 31.5821 97.2187 31.5821Z" fill="#376A66"/>
<path d="M108.521 25.7019C107.173 24.9459 104.669 26.1639 103.657 27.1048C103.569 27.1846 102.347 28.6085 102.376 28.6211H102.405C101.985 28.8101 101.565 29.0159 101.124 29.2511C100.284 29.6964 99.335 30.2046 98.3395 30.8263C97.2603 31.4838 96.221 32.2047 95.2271 32.9852C94.1056 33.8585 93.0653 34.8313 92.1189 35.8918L92.0853 35.9296C92.2701 35.5096 92.7489 34.3461 92.7741 34.2495C93.1522 32.9222 93.0934 30.1374 91.8081 29.2805C91.5901 29.1447 91.3459 29.0562 91.0915 29.0209C90.837 28.9855 90.578 29.0041 90.3312 29.0754C90.0844 29.1467 89.8554 29.2692 89.659 29.4347C89.4626 29.6003 89.3033 29.8054 89.1913 30.0366C88.6831 30.9985 88.9813 32.309 89.4181 33.2414C89.9095 34.2957 91.8291 35.9296 91.9803 36.0598C91.0422 37.1539 90.1791 38.3102 89.3971 39.5208C88.9351 40.2223 88.494 40.9447 88.0614 41.6714C88.2084 41.3102 88.3386 40.9867 88.3512 40.9363C88.7251 39.609 88.6705 36.8243 87.3852 35.9674C87.1672 35.8321 86.9234 35.7439 86.6693 35.7086C86.4152 35.6733 86.1565 35.6917 85.9099 35.7625C85.6634 35.8334 85.4344 35.9551 85.2378 36.1199C85.0411 36.2847 84.8812 36.4889 84.7684 36.7192C84.2602 37.6853 84.5584 38.9958 84.9952 39.9283C85.432 40.8607 87.045 42.3014 87.4734 42.6753C87.3096 42.9567 87.1416 43.2339 86.9819 43.5153C86.2007 44.872 85.4278 46.2245 84.6298 47.5266C84.3484 47.9886 84.0544 48.4296 83.7645 48.8749C83.8947 48.5514 84.004 48.2784 84.0166 48.2364C84.3904 46.9091 84.3358 44.1243 83.0463 43.2675C82.829 43.1309 82.5854 43.0417 82.3313 43.0057C82.0772 42.9698 81.8184 42.9879 81.5718 43.0589C81.3252 43.1298 81.0963 43.2521 80.9002 43.4176C80.7041 43.5831 80.5451 43.7882 80.4337 44.0193C79.9213 44.9854 80.2195 46.2959 80.6563 47.2284C81.0932 48.1608 82.5506 49.4629 83.0589 49.9081C82.7481 50.3534 82.433 50.7986 82.1096 51.2144C81.8828 51.4958 81.6896 51.7815 81.4418 52.0545L80.7403 52.8609C80.2741 53.3566 79.7995 53.869 79.3332 54.3394C79.014 54.6713 78.7032 54.9821 78.3882 55.2929C78.6738 54.8393 79.2282 53.9362 79.2492 53.8564C79.7126 52.7345 79.879 51.5121 79.7323 50.3072C79.7913 50.1852 79.8364 50.057 79.8667 49.9249C79.9377 49.6782 79.9559 49.4193 79.9202 49.165C79.8844 48.9107 79.7955 48.6669 79.6591 48.4493C79.5228 48.2317 79.3422 48.0453 79.129 47.9023C78.9157 47.7592 78.6748 47.6627 78.4218 47.619C76.8929 47.4006 74.9901 49.4377 74.3853 50.6768C74.3517 50.7482 74.0493 51.584 73.8687 52.1175C73.9275 51.7857 73.9905 51.4706 74.0451 51.1304C74.1585 50.4626 74.2551 49.7905 74.3601 49.0681C74.4021 48.7195 74.4399 48.3666 74.4777 48.0096C74.5155 47.6526 74.5323 47.2788 74.5575 46.9091C74.6037 46.0691 74.6079 45.1744 74.5953 44.2966C75.1792 44.3974 77.2667 44.7166 78.2664 44.4646C79.266 44.2126 80.4673 43.6245 80.8873 42.5996C80.995 42.3667 81.0524 42.1137 81.0555 41.8571C81.0587 41.6005 81.0077 41.3462 80.9058 41.1106C80.8039 40.8751 80.6534 40.6638 80.4642 40.4904C80.275 40.3171 80.0514 40.1856 79.8079 40.1047C78.3294 39.6552 76.141 41.3648 75.3556 42.5114C75.3052 42.5828 74.8347 43.4607 74.5827 43.9437C74.5827 43.4187 74.5575 42.8895 74.5281 42.356C74.4399 40.8145 74.3055 39.2562 74.1753 37.7021C74.1333 37.2275 74.0997 36.7529 74.0619 36.2782C74.2719 36.316 76.7417 36.757 77.8673 36.4672C78.8628 36.211 80.0641 35.6272 80.4883 34.6023C80.5953 34.369 80.6519 34.1158 80.6544 33.8592C80.657 33.6026 80.6055 33.3484 80.5033 33.113C80.401 32.8776 80.2504 32.6664 80.0611 32.4931C79.8718 32.3199 79.6481 32.1884 79.4046 32.1073C77.9303 31.6537 75.742 33.3674 74.9523 34.5141C74.8935 34.5981 74.2131 35.8624 74.0577 36.1942C73.9779 35.1483 73.9107 34.0941 73.8855 33.0734C73.8416 31.6801 73.8893 30.2854 74.0283 28.8983C74.1249 28.8983 76.6997 29.3898 77.8505 29.0915C78.8502 28.8395 80.0515 28.2515 80.4715 27.2308C80.5793 26.9976 80.6366 26.7443 80.6398 26.4874C80.643 26.2305 80.592 25.9759 80.4902 25.74C80.3883 25.5042 80.2379 25.2925 80.0486 25.1187C79.8594 24.945 79.6357 24.8131 79.392 24.7316C77.9135 24.2822 75.7252 25.9917 74.9397 27.1384C74.8767 27.2308 74.1459 28.5875 74.0325 28.8437C74.0325 28.7639 74.0325 28.6799 74.0325 28.6001C74.2092 27.2123 74.51 25.8431 74.9313 24.509C75.154 23.7698 75.406 23.0767 75.6706 22.4089C76.141 22.5475 78.3 23.1481 79.3626 22.9969C80.4253 22.8457 81.6434 22.3879 82.1726 21.4344C82.3049 21.2143 82.3895 20.9687 82.4207 20.7137C82.4519 20.4588 82.4292 20.2001 82.3539 19.9545C82.2786 19.7089 82.1526 19.4819 81.9838 19.2882C81.8151 19.0945 81.6075 18.9385 81.3746 18.8302C79.9549 18.2212 77.5943 19.6955 76.6829 20.7372C76.6325 20.7918 76.1956 21.4218 75.8848 21.8881C76.0066 21.5856 76.1284 21.2748 76.2502 20.9892C76.7123 19.9139 77.1995 18.9605 77.6405 18.1204C77.8967 17.6416 78.132 17.2173 78.363 16.8183C78.8922 16.7133 81.0301 16.2555 81.8912 15.6422C82.7523 15.029 83.6343 14.0503 83.6637 12.9583C83.6815 12.7027 83.6454 12.4463 83.5579 12.2055C83.4704 11.9648 83.3333 11.7451 83.1556 11.5606C82.9778 11.3762 82.7634 11.231 82.5261 11.1346C82.2887 11.0382 82.0338 10.9927 81.7778 11.0009C80.2363 11.1143 78.8376 13.5211 78.4932 14.8526C78.4638 14.9702 78.2328 16.8309 78.258 16.8267H78.2916C78.0647 17.2047 77.8253 17.6122 77.5733 18.0616C77.1155 18.9017 76.6031 19.8425 76.12 20.9094C75.5813 22.0579 75.1115 23.2375 74.7129 24.4418C74.2585 25.783 73.924 27.1619 73.7133 28.5623C73.7153 28.579 73.7153 28.596 73.7133 28.6127C73.6418 28.1675 73.394 26.9326 73.3646 26.8318C72.9446 25.5171 71.3611 23.2237 69.8154 23.2195C69.5591 23.2257 69.307 23.2856 69.0754 23.3954C68.8438 23.5051 68.6377 23.6623 68.4707 23.8567C68.3036 24.0511 68.1792 24.2784 68.1055 24.5239C68.0318 24.7694 68.0105 25.0276 68.0429 25.2819C68.1521 26.3656 69.1223 27.298 70.0002 27.8357C70.9915 28.4405 73.4948 28.7471 73.6923 28.7681C73.5149 30.199 73.4335 31.6401 73.4486 33.0818C73.4486 33.9219 73.478 34.7619 73.52 35.602C73.4444 35.2155 73.373 34.8753 73.3562 34.8249C72.9362 33.5144 71.3527 31.2211 69.807 31.2169C69.5504 31.2234 69.2981 31.2839 69.0665 31.3945C68.8349 31.5051 68.6292 31.6632 68.4628 31.8585C68.2963 32.0539 68.1729 32.2821 68.1006 32.5283C68.0282 32.7746 68.0086 33.0333 68.0429 33.2876C68.1479 34.3713 69.1223 35.2996 70.0002 35.8372C70.8781 36.3748 73.0202 36.6772 73.583 36.7613C73.583 37.0847 73.6166 37.4081 73.6377 37.7357C73.7343 39.294 73.8351 40.8481 73.8897 42.356C73.9107 42.8937 73.8897 43.4271 73.9107 43.9563C73.8393 43.6161 73.7805 43.3305 73.7679 43.2843C73.3478 41.9696 71.7643 39.6804 70.2186 39.6762C69.9618 39.6821 69.7092 39.7422 69.4773 39.8526C69.2454 39.9629 69.0394 40.121 68.8728 40.3165C68.7062 40.512 68.5829 40.7405 68.5108 40.9871C68.4387 41.2336 68.4195 41.4925 68.4545 41.747C68.5595 42.8307 69.5298 43.7589 70.4118 44.2966C71.2939 44.8342 73.2218 45.1366 73.8939 45.2038C73.8939 45.7499 73.8603 46.2959 73.8225 46.8209C73.7889 47.1822 73.7805 47.5266 73.7217 47.8878C73.6629 48.249 73.6292 48.5976 73.583 48.9463C73.4696 49.6141 73.3562 50.3072 73.2302 50.954C73.142 51.4076 73.0538 51.8403 72.9656 52.2729C72.9656 51.7353 72.9026 50.6852 72.89 50.5928C72.6758 49.2319 71.4577 46.7243 69.9288 46.4891C69.6744 46.4566 69.416 46.4781 69.1704 46.552C68.9249 46.626 68.6976 46.7509 68.5035 46.9185C68.3094 47.086 68.1527 47.2926 68.0436 47.5248C67.9346 47.7569 67.8757 48.0094 67.8707 48.2658C67.8119 49.3579 68.6309 50.4206 69.4206 51.0842C70.2858 51.8151 72.6128 52.4829 72.9068 52.5627C72.7556 53.281 72.6044 53.974 72.449 54.6292C72.2474 55.4917 72.0499 56.2898 71.8567 57.0234C72.0793 57.2208 72.3566 57.4434 72.6968 57.7333C72.911 56.8638 73.1168 55.8935 73.3604 54.8309C73.5158 54.1042 73.6671 53.323 73.8141 52.5207C74.5921 52.5375 75.3704 52.5095 76.1452 52.4367C76.5358 53.533 78.0059 55.2551 78.195 55.4735C77.6783 55.9901 77.1659 56.4858 76.6745 56.9436C75.8344 57.7417 75.0489 58.4515 74.3391 59.0774C74.5953 59.2748 74.8557 59.4974 75.1288 59.6864C75.7966 59.069 76.5274 58.3759 77.3129 57.5863C77.8421 57.0654 78.3966 56.4984 78.9636 55.9061C79.2072 56.0784 81.2024 57.456 82.3238 57.6619C83.3403 57.8467 84.6802 57.8047 85.4866 57.0654C85.681 56.8985 85.8381 56.6926 85.9479 56.4611C86.0577 56.2296 86.1177 55.9777 86.1241 55.7216C86.1304 55.4654 86.0829 55.2108 85.9847 54.9742C85.8865 54.7376 85.7397 54.5242 85.5538 54.3478C84.3988 53.3188 81.6896 53.9698 80.5135 54.6671C80.4421 54.7091 79.7323 55.2425 79.287 55.5869C79.518 55.3433 79.7449 55.1123 79.9759 54.8603C80.4421 54.3646 80.8915 53.8606 81.3788 53.3146C81.6014 53.0457 81.8324 52.7727 82.0592 52.4745C82.286 52.1763 82.5086 51.8907 82.7355 51.6008C83.2479 50.9078 83.7309 50.1854 84.2056 49.4419C84.6256 49.8619 86.1965 51.269 87.1752 51.6092C88.1538 51.9495 89.4853 52.1049 90.3884 51.5C90.6069 51.365 90.7945 51.1854 90.9389 50.973C91.0833 50.7605 91.1813 50.52 91.2265 50.2671C91.2717 50.0143 91.2631 49.7547 91.2011 49.5054C91.1392 49.2561 91.0254 49.0226 90.8672 48.8203C89.8843 47.6316 87.108 47.8626 85.8269 48.375C85.7471 48.4044 84.8692 48.8749 84.3946 49.1437C84.6718 48.6943 84.9574 48.249 85.2346 47.787C86.0117 46.4555 86.7551 45.0778 87.5028 43.7127C87.7338 43.2927 87.969 42.8727 88.2 42.4526C88.3512 42.5996 90.17 44.3302 91.2662 44.7082C92.2407 45.0484 93.5722 45.208 94.4794 44.599C94.6975 44.4635 94.8846 44.2837 95.0286 44.0712C95.1726 43.8588 95.2704 43.6184 95.3155 43.3657C95.3607 43.113 95.3522 42.8537 95.2907 42.6045C95.2291 42.3553 95.1159 42.1218 94.9583 41.9192C93.9712 40.7305 91.178 40.9615 89.9179 41.474C89.8213 41.5118 88.5571 42.188 88.2378 42.377C88.7503 41.4614 89.2669 40.5541 89.8129 39.6762C90.5484 38.4923 91.3579 37.356 92.2365 36.274C92.3079 36.3454 94.198 38.1557 95.3195 38.5464C96.294 38.8866 97.6255 39.0462 98.5327 38.4372C98.7512 38.3021 98.9388 38.1225 99.0833 37.9101C99.2277 37.6976 99.3257 37.4571 99.3709 37.2043C99.416 36.9514 99.4074 36.6918 99.3455 36.4425C99.2836 36.1932 99.1698 35.9597 99.0116 35.7574C98.0287 34.5687 95.2313 34.7997 93.9712 35.3122C93.8704 35.35 92.5137 36.0808 92.2911 36.232C92.3457 36.169 92.3919 36.0976 92.4423 36.0388C93.3548 34.9798 94.3598 34.0043 95.4455 33.1238C96.042 32.6282 96.6342 32.1871 97.2222 31.7755C97.5415 32.1493 99.0116 33.8421 99.9818 34.2957C100.952 34.7493 102.221 35.0433 103.187 34.5393C103.402 34.421 103.59 34.2608 103.742 34.0681C103.894 33.8754 104.006 33.6542 104.07 33.4175C104.135 33.1809 104.151 32.9337 104.119 32.6906C104.086 32.4475 104.005 32.2134 103.88 32.0023C103.04 30.7128 100.246 30.6372 98.9192 31.0069C98.8435 31.0069 98.1337 31.3093 97.6171 31.5235C97.8859 31.3429 98.1589 31.1455 98.4193 30.9775C99.3938 30.3348 100.33 29.8098 101.162 29.3478C101.637 29.0915 102.069 28.8689 102.477 28.6631C102.981 28.8689 105.018 29.667 106.072 29.6292C107.127 29.5914 108.403 29.2595 109.012 28.3691C109.167 28.166 109.278 27.9328 109.337 27.6844C109.397 27.4359 109.404 27.1779 109.357 26.9267C109.311 26.6755 109.213 26.4368 109.069 26.2259C108.925 26.0149 108.738 25.8365 108.521 25.7019Z" fill="#376A66"/>
<path d="M72.2306 20.2417C73.0706 21.1237 75.5908 22.1318 75.5908 22.136C75.5908 22.1402 75.7504 20.2711 75.7462 20.1535C75.6874 18.7758 74.7675 16.1464 73.2764 15.7348C73.0275 15.6735 72.7685 15.6653 72.5162 15.7107C72.2639 15.7562 72.024 15.8541 71.8121 15.9983C71.6001 16.1425 71.4209 16.3297 71.286 16.5477C71.1512 16.7657 71.0637 17.0097 71.0293 17.2637C70.8319 18.3306 71.5375 19.4856 72.2306 20.2417Z" fill="#376A66"/>
<path d="M193.897 125.753C193.897 125.753 194.737 124.673 194.8 124.597C195.321 123.728 195.825 121.737 195.077 120.88C194.949 120.741 194.793 120.63 194.62 120.555C194.446 120.48 194.259 120.442 194.07 120.445C193.88 120.447 193.694 120.489 193.522 120.569C193.351 120.648 193.198 120.763 193.073 120.905C192.523 121.493 192.477 122.481 192.607 123.228C192.758 124.106 193.897 125.753 193.897 125.753Z" fill="#376A66"/>
<path d="M202.226 121.439C201.234 120.88 199.386 121.779 198.643 122.472C198.575 122.531 197.677 123.581 197.698 123.59H197.719C197.425 123.728 197.114 123.884 196.778 124.056C196.156 124.383 195.459 124.757 194.724 125.215C193.928 125.698 193.162 126.23 192.43 126.807C191.605 127.445 190.839 128.156 190.141 128.932L190.116 128.962C190.255 128.655 190.608 127.794 190.629 127.723C190.902 126.744 190.864 124.694 189.915 124.064C189.754 123.964 189.575 123.898 189.388 123.871C189.2 123.845 189.01 123.858 188.828 123.91C188.646 123.962 188.477 124.051 188.332 124.173C188.187 124.294 188.07 124.445 187.987 124.614C187.613 125.328 187.831 126.294 188.155 126.979C188.516 127.756 189.927 128.962 190.041 129.054C189.352 129.862 188.716 130.714 188.138 131.604C187.796 132.124 187.467 132.654 187.151 133.191L187.369 132.65C187.642 131.671 187.6 129.621 186.655 128.987C186.495 128.887 186.315 128.821 186.128 128.795C185.94 128.769 185.749 128.782 185.568 128.834C185.386 128.887 185.217 128.977 185.072 129.098C184.927 129.22 184.81 129.371 184.727 129.541C184.353 130.255 184.572 131.221 184.891 131.906C185.21 132.591 186.403 133.658 186.722 133.931L186.357 134.552C185.781 135.548 185.214 136.543 184.626 137.492C184.416 137.833 184.206 138.156 183.988 138.484C184.085 138.249 184.164 138.064 184.173 138.017C184.45 137.039 184.408 134.985 183.459 134.355C183.298 134.255 183.119 134.189 182.931 134.163C182.744 134.136 182.553 134.15 182.371 134.202C182.189 134.254 182.02 134.344 181.876 134.466C181.731 134.588 181.613 134.739 181.531 134.909C181.157 135.619 181.375 136.589 181.699 137.274C182.022 137.959 183.093 138.916 183.467 139.244C183.236 139.576 183.009 139.903 182.77 140.21C182.602 140.416 182.455 140.63 182.274 140.827L181.758 141.42C181.417 141.785 181.065 142.163 180.724 142.512C180.489 142.755 180.258 142.982 180.027 143.213C180.237 142.877 180.636 142.214 180.661 142.155C181.002 141.327 181.125 140.426 181.018 139.538C181.06 139.448 181.093 139.354 181.115 139.257C181.165 139.076 181.176 138.887 181.148 138.702C181.121 138.517 181.055 138.34 180.955 138.182C180.855 138.024 180.723 137.888 180.567 137.784C180.412 137.68 180.237 137.609 180.052 137.576C178.922 137.413 177.532 138.912 177.078 139.828C177.049 139.878 176.831 140.496 176.696 140.886C176.738 140.647 176.784 140.412 176.826 140.164C176.91 139.668 176.982 139.177 177.057 138.643C177.088 138.389 177.118 138.128 177.146 137.862C177.179 137.602 177.183 137.32 177.204 137.051C177.238 136.417 177.242 135.791 177.23 135.128C177.65 135.199 179.2 135.439 179.939 135.249C180.678 135.06 181.556 134.619 181.867 133.876C181.946 133.704 181.989 133.518 181.991 133.329C181.994 133.14 181.956 132.952 181.881 132.779C181.806 132.605 181.696 132.449 181.556 132.321C181.417 132.193 181.252 132.096 181.073 132.036C179.985 131.704 178.372 132.977 177.792 133.813C177.755 133.863 177.406 134.51 177.221 134.867C177.221 134.477 177.221 134.09 177.183 133.695C177.116 132.561 177.015 131.415 176.919 130.268C176.889 129.919 176.868 129.567 176.839 129.218C176.994 129.247 178.813 129.571 179.641 129.357C180.376 129.167 181.262 128.726 181.573 127.983C181.651 127.811 181.693 127.624 181.695 127.435C181.697 127.246 181.659 127.059 181.584 126.885C181.508 126.712 181.398 126.556 181.258 126.428C181.119 126.3 180.954 126.203 180.775 126.143C179.687 125.811 178.074 127.084 177.494 127.92C177.452 127.983 176.952 128.911 176.835 129.155C176.776 128.382 176.726 127.613 176.709 126.853C176.676 125.827 176.711 124.8 176.814 123.779C176.885 123.779 178.784 124.14 179.632 123.921C180.367 123.732 181.249 123.287 181.56 122.548C181.64 122.376 181.682 122.19 181.684 122.001C181.687 121.812 181.65 121.624 181.575 121.45C181.5 121.277 181.389 121.121 181.25 120.993C181.11 120.865 180.946 120.768 180.766 120.708C179.678 120.376 178.066 121.649 177.486 122.481C177.44 122.548 176.902 123.548 176.818 123.741C176.818 123.682 176.818 123.619 176.818 123.56C176.948 122.539 177.169 121.531 177.477 120.549C177.641 120.002 177.83 119.49 178.024 118.999C178.368 119.099 179.96 119.54 180.745 119.419C181.531 119.297 182.425 118.969 182.816 118.264C182.914 118.101 182.976 117.92 182.999 117.733C183.022 117.545 183.004 117.354 182.949 117.173C182.893 116.993 182.799 116.826 182.674 116.683C182.549 116.541 182.396 116.427 182.224 116.348C181.178 115.899 179.439 116.987 178.771 117.751C178.733 117.793 178.41 118.259 178.179 118.591C178.271 118.369 178.36 118.138 178.452 117.928C178.792 117.138 179.153 116.436 179.477 115.827C179.662 115.475 179.838 115.164 180.006 114.87C180.397 114.79 181.972 114.45 182.606 114.004C183.24 113.559 183.891 112.828 183.912 112.026C183.924 111.837 183.896 111.648 183.831 111.471C183.765 111.294 183.662 111.133 183.53 110.997C183.398 110.862 183.238 110.757 183.063 110.687C182.887 110.618 182.698 110.586 182.509 110.594C181.371 110.678 180.325 112.446 180.086 113.433C180.086 113.517 179.897 114.891 179.914 114.887H179.939C179.771 115.167 179.594 115.469 179.41 115.794C179.074 116.411 178.696 117.108 178.339 117.894C177.943 118.737 177.596 119.602 177.301 120.486C176.968 121.474 176.722 122.491 176.566 123.522C176.568 123.535 176.568 123.548 176.566 123.56C176.511 123.232 176.331 122.3 176.31 122.245C175.999 121.279 174.831 119.591 173.693 119.587C173.504 119.592 173.319 119.637 173.148 119.719C172.978 119.8 172.827 119.917 172.704 120.06C172.581 120.204 172.49 120.372 172.436 120.553C172.382 120.734 172.367 120.924 172.391 121.111C172.471 121.914 173.189 122.598 173.836 122.993C174.567 123.438 176.411 123.665 176.553 123.682C176.425 124.735 176.365 125.796 176.373 126.857C176.373 127.479 176.398 128.117 176.427 128.726C176.373 128.441 176.318 128.189 176.31 128.155C175.999 127.185 174.831 125.496 173.693 125.496C173.504 125.501 173.318 125.546 173.147 125.627C172.977 125.709 172.825 125.825 172.702 125.969C172.579 126.112 172.488 126.28 172.435 126.462C172.381 126.643 172.366 126.834 172.391 127.021C172.471 127.819 173.185 128.504 173.836 128.899C174.487 129.294 176.058 129.525 176.474 129.579C176.474 129.819 176.499 130.058 176.516 130.297C176.583 131.444 176.658 132.591 176.7 133.716C176.7 134.115 176.7 134.506 176.7 134.897C176.65 134.645 176.608 134.435 176.595 134.401C176.289 133.435 175.121 131.746 173.983 131.742C173.794 131.748 173.608 131.793 173.438 131.874C173.268 131.956 173.116 132.072 172.994 132.216C172.871 132.359 172.78 132.527 172.726 132.708C172.672 132.889 172.657 133.08 172.681 133.267C172.761 134.069 173.475 134.754 174.121 135.149C174.768 135.544 176.196 135.749 176.688 135.817C176.688 136.237 176.667 136.619 176.637 137.009C176.612 137.274 176.604 137.53 176.566 137.795C176.528 138.059 176.495 138.316 176.461 138.572C176.377 139.068 176.293 139.576 176.201 140.055C176.138 140.386 176.07 140.706 176.007 141.025C176.007 140.63 175.961 139.857 175.953 139.79C175.793 138.786 174.894 136.942 173.769 136.766C173.581 136.742 173.391 136.758 173.21 136.813C173.029 136.868 172.862 136.96 172.719 137.083C172.576 137.207 172.46 137.359 172.38 137.53C172.3 137.701 172.256 137.887 172.252 138.076C172.21 138.879 172.811 139.664 173.395 140.151C173.979 140.638 175.747 141.184 175.961 141.243C175.852 141.768 175.739 142.285 175.625 142.764C175.478 143.398 175.331 143.986 175.205 144.528C175.369 144.671 175.575 144.851 175.814 145.053C175.971 144.409 176.133 143.695 176.301 142.911C176.415 142.377 176.528 141.802 176.633 141.21C177.208 141.224 177.783 141.203 178.355 141.147C178.641 141.957 179.725 143.226 179.863 143.385C179.481 143.768 179.107 144.133 178.746 144.469C178.124 145.057 177.545 145.582 177.024 146.04C177.209 146.187 177.406 146.338 177.608 146.489C178.095 146.036 178.637 145.528 179.212 144.956C179.603 144.574 180.014 144.154 180.43 143.721C180.611 143.847 182.081 144.864 182.904 145.015C183.652 145.15 184.639 145.12 185.231 144.574C185.375 144.452 185.492 144.3 185.574 144.129C185.655 143.959 185.7 143.773 185.705 143.584C185.709 143.395 185.674 143.207 185.601 143.032C185.528 142.857 185.419 142.7 185.282 142.571C184.442 141.815 182.434 142.293 181.56 142.81C181.506 142.839 180.985 143.23 180.657 143.482L181.165 142.949C181.506 142.587 181.837 142.214 182.199 141.81L182.698 141.21C182.871 141.008 183.03 140.79 183.198 140.563C183.572 140.055 183.929 139.521 184.278 138.975C184.597 139.273 185.748 140.319 186.47 140.571C187.193 140.823 188.171 140.937 188.839 140.491C189 140.391 189.137 140.259 189.243 140.102C189.349 139.945 189.42 139.768 189.453 139.582C189.486 139.396 189.479 139.205 189.434 139.021C189.388 138.838 189.304 138.666 189.188 138.517C188.465 137.639 186.416 137.812 185.475 138.185C185.416 138.211 184.765 138.555 184.416 138.753C184.622 138.421 184.836 138.093 185.03 137.753C185.601 136.77 186.151 135.758 186.71 134.75C186.878 134.443 187.05 134.136 187.222 133.83C187.336 133.939 188.675 135.212 189.482 135.51C190.2 135.758 191.162 135.875 191.851 135.43C192.011 135.33 192.149 135.197 192.255 135.041C192.36 134.884 192.432 134.707 192.465 134.521C192.498 134.335 192.491 134.144 192.445 133.96C192.4 133.777 192.316 133.605 192.199 133.456C191.477 132.578 189.431 132.746 188.486 133.124C188.415 133.154 187.483 133.653 187.252 133.792C187.63 133.116 188.012 132.448 188.415 131.801C188.956 130.924 189.552 130.082 190.2 129.281C190.255 129.331 191.645 130.667 192.472 130.961C193.191 131.209 194.153 131.326 194.841 130.881C195.002 130.781 195.139 130.648 195.245 130.492C195.351 130.335 195.423 130.158 195.455 129.972C195.488 129.786 195.482 129.595 195.436 129.411C195.39 129.228 195.306 129.056 195.19 128.907C194.468 128.029 192.422 128.201 191.477 128.575C191.401 128.605 190.402 129.142 190.217 129.251C190.255 129.209 190.288 129.155 190.33 129.109C191.003 128.33 191.742 127.612 192.54 126.962C192.981 126.597 193.418 126.273 193.85 125.971C194.085 126.244 195.165 127.492 195.883 127.832C196.601 128.172 197.534 128.382 198.244 128.012C198.414 127.931 198.566 127.814 198.689 127.67C198.811 127.526 198.902 127.358 198.955 127.176C199.009 126.995 199.023 126.804 198.997 126.617C198.971 126.429 198.907 126.249 198.807 126.089C198.181 125.139 196.131 125.085 195.148 125.354C195.098 125.354 194.573 125.576 194.19 125.736C194.388 125.601 194.61 125.459 194.783 125.316C195.501 124.845 196.19 124.455 196.803 124.119C197.152 123.926 197.471 123.762 197.773 123.611C198.143 123.762 199.642 124.35 200.424 124.325C201.205 124.299 202.142 124.052 202.604 123.392C202.715 123.242 202.794 123.07 202.836 122.888C202.877 122.705 202.88 122.516 202.845 122.332C202.809 122.149 202.736 121.974 202.629 121.82C202.523 121.667 202.385 121.537 202.226 121.439Z" fill="#376A66"/>
<path d="M175.482 117.403C176.096 118.054 177.952 118.797 177.952 118.797C177.952 118.797 178.07 117.428 178.066 117.34C178.024 116.323 177.343 114.399 176.247 114.08C176.063 114.035 175.872 114.029 175.686 114.062C175.5 114.096 175.323 114.168 175.167 114.275C175.01 114.382 174.879 114.52 174.779 114.681C174.68 114.842 174.617 115.022 174.592 115.21C174.445 116.008 174.966 116.848 175.482 117.403Z" fill="#376A66"/>
<path d="M120.345 171.174C120.345 171.174 119.274 172.523 119.215 172.619C118.56 173.707 117.93 176.202 118.867 177.277C119.027 177.454 119.222 177.595 119.441 177.69C119.659 177.785 119.896 177.833 120.134 177.83C120.373 177.826 120.608 177.773 120.823 177.672C121.039 177.571 121.231 177.425 121.387 177.244C122.076 176.509 122.13 175.27 121.966 174.333C121.769 173.233 120.345 171.174 120.345 171.174Z" fill="#376A66"/>
<path d="M109.916 176.576C111.176 177.273 113.469 176.156 114.406 175.282C114.486 175.207 115.611 173.892 115.586 173.884H115.561C115.926 173.711 116.317 173.518 116.737 173.3C117.518 172.88 118.392 172.426 119.308 171.851C120.304 171.244 121.263 170.579 122.181 169.86C123.211 169.057 124.169 168.166 125.045 167.197L125.075 167.159C124.907 167.541 124.461 168.621 124.436 168.709C124.092 169.935 124.142 172.489 125.331 173.291C125.531 173.418 125.756 173.501 125.99 173.534C126.225 173.567 126.464 173.551 126.692 173.485C126.919 173.42 127.131 173.307 127.312 173.154C127.493 173.001 127.639 172.812 127.742 172.598C128.212 171.708 127.939 170.498 127.536 169.658C127.082 168.688 125.314 167.176 125.171 167.058C126.036 166.048 126.833 164.981 127.557 163.866C127.977 163.219 128.397 162.551 128.788 161.879C128.653 162.215 128.531 162.514 128.519 162.56C128.174 163.782 128.225 166.34 129.413 167.142C129.614 167.269 129.839 167.351 130.073 167.385C130.308 167.418 130.547 167.402 130.774 167.336C131.002 167.271 131.213 167.158 131.394 167.005C131.575 166.852 131.722 166.663 131.824 166.449C132.295 165.559 132.022 164.349 131.619 163.509C131.215 162.669 129.724 161.321 129.329 160.989L129.783 160.212C130.501 158.952 131.215 157.717 131.95 156.511C132.211 156.091 132.484 155.671 132.753 155.272C132.631 155.566 132.53 155.818 132.517 155.86C132.173 157.083 132.223 159.641 133.412 160.443C133.612 160.569 133.837 160.652 134.072 160.685C134.306 160.719 134.545 160.702 134.773 160.637C135.001 160.571 135.212 160.458 135.393 160.306C135.574 160.153 135.72 159.963 135.823 159.75C136.294 158.859 136.021 157.65 135.617 156.789C135.214 155.927 133.87 154.73 133.4 154.319C133.689 153.899 133.979 153.479 134.277 153.109C134.483 152.853 134.668 152.588 134.895 152.34L135.542 151.597C135.962 151.143 136.407 150.669 136.835 150.232C137.134 149.925 137.419 149.644 137.709 149.354C137.444 149.774 136.949 150.614 136.915 150.677C136.491 151.714 136.338 152.841 136.47 153.953C136.417 154.067 136.375 154.185 136.344 154.306C136.278 154.534 136.261 154.773 136.294 155.008C136.327 155.243 136.409 155.468 136.535 155.669C136.661 155.869 136.828 156.041 137.026 156.173C137.223 156.304 137.446 156.392 137.68 156.432C139.091 156.637 140.842 154.751 141.401 153.613C141.435 153.546 141.712 152.773 141.88 152.286C141.825 152.588 141.767 152.882 141.716 153.193C141.611 153.811 141.523 154.428 141.426 155.096C141.389 155.415 141.351 155.743 141.317 156.074C141.283 156.406 141.267 156.747 141.241 157.091C141.199 157.881 141.195 158.687 141.212 159.498C140.67 159.405 138.747 159.103 137.822 159.342C136.898 159.582 135.794 160.132 135.403 161.06C135.303 161.275 135.249 161.509 135.246 161.746C135.242 161.984 135.289 162.219 135.383 162.437C135.477 162.655 135.616 162.85 135.791 163.01C135.966 163.17 136.173 163.292 136.399 163.366C137.764 163.786 139.78 162.19 140.506 161.144C140.553 161.077 140.989 160.271 141.22 159.821C141.22 160.308 141.241 160.796 141.271 161.287C141.351 162.707 141.477 164.147 141.599 165.58C141.636 166 141.666 166.458 141.699 166.894C141.506 166.861 139.23 166.453 138.192 166.718C137.272 166.953 136.163 167.512 135.773 168.44C135.673 168.655 135.62 168.889 135.617 169.126C135.615 169.363 135.662 169.598 135.756 169.815C135.851 170.033 135.99 170.228 136.165 170.387C136.34 170.547 136.547 170.668 136.772 170.742C138.133 171.162 140.154 169.566 140.88 168.52C140.935 168.444 141.561 167.26 141.72 166.974C141.796 167.94 141.859 168.902 141.88 169.856C141.922 171.14 141.878 172.425 141.75 173.703C141.662 173.703 139.284 173.254 138.221 173.527C137.302 173.762 136.193 174.316 135.806 175.245C135.706 175.46 135.652 175.693 135.649 175.931C135.645 176.168 135.692 176.403 135.786 176.621C135.88 176.839 136.019 177.034 136.194 177.195C136.369 177.355 136.576 177.476 136.802 177.551C138.163 177.971 140.183 176.374 140.91 175.329C140.964 175.245 141.641 173.993 141.75 173.758C141.75 173.829 141.75 173.909 141.75 173.98C141.582 175.263 141.301 176.528 140.91 177.761C140.704 178.445 140.469 179.084 140.229 179.701C139.809 179.575 137.801 179.021 136.819 179.159C135.836 179.298 134.718 179.726 134.227 180.604C134.104 180.807 134.026 181.033 133.997 181.269C133.968 181.504 133.989 181.743 134.059 181.969C134.129 182.196 134.245 182.405 134.402 182.583C134.558 182.761 134.751 182.904 134.966 183.002C136.277 183.565 138.457 182.204 139.293 181.247C139.339 181.196 139.742 180.613 140.032 180.184C139.918 180.461 139.805 180.751 139.692 181.024C139.272 182.011 138.814 182.893 138.41 183.67C138.175 184.111 137.953 184.51 137.747 184.867C137.255 184.968 135.281 185.388 134.487 185.955C133.694 186.522 132.883 187.425 132.854 188.429C132.838 188.666 132.872 188.903 132.955 189.125C133.037 189.347 133.166 189.55 133.332 189.719C133.498 189.888 133.698 190.02 133.919 190.106C134.14 190.192 134.377 190.23 134.613 190.219C136.033 190.118 137.344 187.904 137.642 186.665C137.671 186.56 137.885 184.842 137.856 184.846H137.827C138.037 184.502 138.247 184.124 138.49 183.712C138.91 182.939 139.385 182.07 139.834 181.083C140.329 180.027 140.761 178.943 141.128 177.836C141.549 176.606 141.858 175.341 142.052 174.056C142.05 174.041 142.05 174.025 142.052 174.01C142.119 174.43 142.346 175.568 142.376 175.656C142.762 176.866 144.224 178.983 145.648 178.987C145.885 178.982 146.118 178.927 146.333 178.825C146.547 178.724 146.738 178.578 146.892 178.397C147.046 178.217 147.16 178.006 147.226 177.778C147.292 177.55 147.31 177.311 147.277 177.076C147.176 176.076 146.282 175.219 145.471 174.72C144.556 174.161 142.25 173.879 142.065 173.858C142.23 172.539 142.306 171.21 142.292 169.881C142.292 169.108 142.262 168.327 142.229 167.545C142.296 167.898 142.363 168.217 142.376 168.259C142.762 169.473 144.224 171.586 145.648 171.59C145.885 171.585 146.118 171.53 146.333 171.429C146.547 171.327 146.738 171.181 146.892 171.001C147.046 170.82 147.16 170.609 147.226 170.381C147.292 170.153 147.31 169.914 147.277 169.679C147.181 168.68 146.282 167.823 145.471 167.327C144.661 166.831 142.686 166.542 142.166 166.487C142.166 166.189 142.136 165.891 142.119 165.588C142.027 164.152 141.935 162.715 141.884 161.308C141.884 160.812 141.884 160.321 141.884 159.83C141.947 160.145 142.002 160.409 142.014 160.447C142.401 161.661 143.862 163.778 145.286 163.778C145.523 163.773 145.756 163.718 145.97 163.617C146.184 163.515 146.375 163.37 146.529 163.19C146.683 163.01 146.797 162.799 146.863 162.572C146.93 162.344 146.948 162.106 146.916 161.871C146.819 160.867 145.921 160.01 145.11 159.515C144.299 159.019 142.518 158.763 141.901 158.674C141.901 158.17 141.926 157.671 141.964 157.183C141.998 156.852 142.002 156.532 142.056 156.2C142.111 155.869 142.14 155.545 142.182 155.226C142.287 154.609 142.392 153.966 142.51 153.37C142.59 152.949 142.674 152.555 142.754 152.156C142.754 152.651 142.808 153.617 142.825 153.697C143.022 154.957 144.144 157.267 145.555 157.477C145.79 157.508 146.029 157.489 146.255 157.421C146.482 157.353 146.692 157.238 146.871 157.084C147.051 156.929 147.195 156.738 147.296 156.524C147.396 156.309 147.45 156.076 147.454 155.839C147.508 154.831 146.752 153.853 146.026 153.239C145.228 152.563 143.085 151.95 142.808 151.874C142.947 151.215 143.09 150.572 143.228 149.967C143.413 149.178 143.598 148.438 143.774 147.762C143.568 147.577 143.312 147.342 143.014 147.103C142.818 147.909 142.614 148.802 142.401 149.782C142.258 150.455 142.119 151.173 141.981 151.916C141.262 151.899 140.542 151.925 139.826 151.992C139.469 150.98 138.112 149.392 137.936 149.19C138.415 148.716 138.885 148.258 139.339 147.834C140.116 147.098 140.838 146.443 141.493 145.868C141.258 145.683 141.015 145.494 140.763 145.305C140.149 145.872 139.473 146.51 138.751 147.224C138.263 147.703 137.751 148.228 137.226 148.77C137.003 148.615 135.159 147.342 134.13 147.153C133.194 146.981 131.959 147.023 131.215 147.699C131.033 147.853 130.885 148.043 130.782 148.258C130.679 148.473 130.623 148.708 130.617 148.946C130.611 149.184 130.657 149.421 130.75 149.641C130.843 149.86 130.981 150.057 131.157 150.219C132.219 151.169 134.718 150.568 135.815 149.921C135.878 149.883 136.537 149.392 136.945 149.081C136.735 149.304 136.525 149.501 136.31 149.749C135.89 150.202 135.47 150.673 135.017 151.173L134.387 151.929C134.172 152.177 133.967 152.466 133.765 152.739C133.295 153.374 132.845 154.042 132.408 154.726C131.988 154.352 130.569 153.046 129.67 152.727C128.771 152.408 127.54 152.269 126.704 152.828C126.503 152.953 126.331 153.12 126.2 153.317C126.068 153.514 125.979 153.737 125.94 153.97C125.9 154.204 125.91 154.444 125.969 154.673C126.029 154.902 126.136 155.117 126.284 155.302C127.192 156.398 129.754 156.184 130.934 155.722C131.01 155.692 131.82 155.26 132.261 155.012C132.001 155.432 131.74 155.852 131.493 156.272C130.774 157.503 130.09 158.767 129.392 160.031C129.182 160.418 128.972 160.8 128.754 161.182C128.611 161.048 126.935 159.452 125.923 159.103C125.024 158.792 123.794 158.645 122.958 159.204C122.757 159.329 122.586 159.496 122.455 159.693C122.323 159.889 122.235 160.111 122.195 160.345C122.156 160.578 122.166 160.817 122.225 161.046C122.284 161.275 122.39 161.489 122.538 161.673C123.445 162.774 126.007 162.56 127.187 162.093C127.276 162.056 128.447 161.43 128.729 161.253C128.258 162.093 127.78 162.934 127.276 163.744C126.597 164.836 125.851 165.884 125.041 166.882C124.974 166.819 123.231 165.147 122.197 164.782C121.299 164.471 120.068 164.324 119.232 164.882C119.031 165.008 118.859 165.175 118.727 165.372C118.596 165.569 118.507 165.792 118.467 166.025C118.428 166.259 118.438 166.498 118.497 166.728C118.557 166.957 118.664 167.171 118.812 167.356C119.719 168.453 122.281 168.239 123.466 167.776C123.558 167.739 124.81 167.067 125.028 166.936C124.982 166.995 124.94 167.058 124.89 167.117C124.047 168.092 123.121 168.991 122.122 169.805C121.572 170.259 121.026 170.666 120.479 171.065C120.19 170.717 118.833 169.158 117.938 168.73C117.044 168.302 115.872 168.041 114.998 168.507C114.784 168.608 114.593 168.754 114.439 168.934C114.285 169.114 114.171 169.324 114.104 169.552C114.036 169.779 114.018 170.018 114.05 170.253C114.082 170.487 114.163 170.713 114.288 170.914C115.07 172.107 117.648 172.174 118.867 171.834C118.934 171.834 119.589 171.557 120.068 171.355C119.82 171.527 119.568 171.704 119.324 171.863C118.426 172.451 117.564 172.939 116.804 173.363C116.384 173.598 115.964 173.808 115.59 173.997C115.124 173.808 113.247 173.069 112.276 173.102C111.306 173.136 110.122 173.443 109.546 174.266C109.295 174.623 109.194 175.065 109.263 175.496C109.332 175.927 109.566 176.315 109.916 176.576Z" fill="#376A66"/>
<path d="M143.396 181.629C142.631 180.814 140.309 179.882 140.309 179.882C140.309 179.882 140.158 181.599 140.162 181.709C140.216 182.969 141.065 185.405 142.438 185.787C142.668 185.845 142.908 185.853 143.141 185.812C143.374 185.77 143.596 185.68 143.792 185.547C143.988 185.414 144.154 185.24 144.278 185.038C144.402 184.837 144.482 184.611 144.513 184.376C144.685 183.38 144.047 182.318 143.396 181.629Z" fill="#376A66"/>
<path d="M178.309 43.0281H27.6575V164.076H178.309V43.0281Z" fill="white" stroke="#376A66" stroke-linejoin="round"/>
<path d="M158.707 148.548H139.915C139.424 148.548 138.954 148.353 138.608 148.006C138.261 147.66 138.066 147.19 138.066 146.7V125.165" fill="white"/>
<path d="M158.707 148.548H139.915C139.424 148.548 138.954 148.353 138.608 148.006C138.261 147.66 138.066 147.19 138.066 146.7V125.165" stroke="#376A66" stroke-linejoin="round"/>
<path d="M170.551 103.949V146.699C170.55 147.19 170.354 147.66 170.007 148.007C169.66 148.353 169.189 148.548 168.699 148.548H160.55" fill="white"/>
<path d="M170.551 103.949V146.699C170.55 147.19 170.354 147.66 170.007 148.007C169.66 148.353 169.189 148.548 168.699 148.548H160.55" stroke="#376A66" stroke-linejoin="round"/>
<path d="M138.066 123.715V91.0875C138.066 90.845 138.114 90.6049 138.207 90.3809C138.3 90.1569 138.436 89.9535 138.608 89.7822C138.78 89.6109 138.983 89.4752 139.208 89.3828C139.432 89.2903 139.672 89.2431 139.915 89.2436H168.699C168.942 89.2431 169.182 89.2903 169.407 89.3827C169.631 89.475 169.835 89.6107 170.007 89.7819C170.179 89.9532 170.316 90.1566 170.409 90.3806C170.502 90.6046 170.551 90.8448 170.551 91.0875V102.764" fill="white"/>
<path d="M138.066 123.715V91.0875C138.066 90.845 138.114 90.6049 138.207 90.3809C138.3 90.1569 138.436 89.9535 138.608 89.7822C138.78 89.6109 138.983 89.4752 139.208 89.3828C139.432 89.2903 139.672 89.2431 139.915 89.2436H168.699C168.942 89.2431 169.182 89.2903 169.407 89.3827C169.631 89.475 169.835 89.6107 170.007 89.7819C170.179 89.9532 170.316 90.1566 170.409 90.3806C170.502 90.6046 170.551 90.8448 170.551 91.0875V102.764" stroke="#376A66" stroke-linejoin="round"/>
<path d="M170.551 91.0875V101.055H138.066V91.0875C138.066 90.845 138.114 90.6049 138.207 90.3809C138.3 90.1569 138.436 89.9535 138.608 89.7822C138.78 89.6109 138.983 89.4752 139.208 89.3828C139.432 89.2903 139.672 89.2431 139.915 89.2436H168.699C168.942 89.2431 169.182 89.2903 169.407 89.3827C169.631 89.475 169.835 89.6107 170.007 89.7819C170.179 89.9532 170.316 90.1566 170.409 90.3806C170.502 90.6046 170.551 90.8448 170.551 91.0875Z" fill="white" stroke="#376A66" stroke-linejoin="round"/>
<path d="M178.309 43.0281H27.6575V84.0145H178.309V43.0281Z" fill="white" stroke="#376A66" stroke-linejoin="round"/>
<path d="M167.077 74.2951C168.981 73.8259 170.143 71.9027 169.674 69.9995C169.205 68.0963 167.281 66.9338 165.378 67.403C163.475 67.8723 162.313 69.7955 162.782 71.6987C163.251 73.6019 165.174 74.7644 167.077 74.2951Z" fill="#D9D9D9" stroke="#376A66" stroke-linejoin="round"/>
<path d="M155.552 69.3638C155.814 69.3638 156.026 69.1513 156.026 68.8892C156.026 68.6271 155.814 68.4146 155.552 68.4146C155.29 68.4146 155.077 68.6271 155.077 68.8892C155.077 69.1513 155.29 69.3638 155.552 69.3638Z" fill="#376A66"/>
<path d="M157.883 68.8894C157.883 68.7956 157.855 68.7038 157.803 68.6257C157.751 68.5477 157.677 68.4868 157.59 68.4509C157.503 68.415 157.408 68.4056 157.316 68.4239C157.224 68.4422 157.139 68.4874 157.073 68.5538C157.006 68.6202 156.961 68.7048 156.943 68.7968C156.925 68.8889 156.934 68.9843 156.97 69.0711C157.006 69.1578 157.067 69.2319 157.145 69.2841C157.223 69.3362 157.315 69.3641 157.408 69.3641C157.534 69.363 157.654 69.3126 157.743 69.2238C157.832 69.1351 157.882 69.015 157.883 68.8894Z" fill="#376A66"/>
<path d="M159.744 68.8892C159.744 68.7953 159.716 68.7036 159.664 68.6255C159.612 68.5475 159.537 68.4866 159.451 68.4507C159.364 68.4148 159.269 68.4054 159.176 68.4237C159.084 68.442 159 68.4872 158.933 68.5536C158.867 68.62 158.822 68.7045 158.804 68.7966C158.785 68.8887 158.795 68.9841 158.831 69.0708C158.866 69.1576 158.927 69.2317 159.005 69.2838C159.083 69.336 159.175 69.3638 159.269 69.3638C159.395 69.3627 159.515 69.3124 159.603 69.2236C159.692 69.1348 159.743 69.0147 159.744 68.8892Z" fill="#376A66"/>
<path d="M156.022 70.8215C156.022 70.7275 155.994 70.6355 155.942 70.5574C155.889 70.4792 155.815 70.4184 155.728 70.3826C155.641 70.3468 155.545 70.3377 155.453 70.3563C155.361 70.375 155.276 70.4206 155.21 70.4874C155.144 70.5542 155.099 70.6392 155.081 70.7315C155.064 70.8239 155.074 70.9194 155.11 71.0061C155.147 71.0927 155.208 71.1666 155.287 71.2182C155.365 71.2698 155.458 71.297 155.552 71.2961C155.677 71.295 155.796 71.2445 155.884 71.1556C155.973 71.0668 156.022 70.9467 156.022 70.8215Z" fill="#376A66"/>
<path d="M157.883 70.8215C157.883 70.7277 157.855 70.6359 157.803 70.5578C157.751 70.4798 157.677 70.419 157.59 70.383C157.503 70.3471 157.408 70.3377 157.316 70.356C157.224 70.3743 157.139 70.4195 157.073 70.4859C157.006 70.5523 156.961 70.6369 156.943 70.7289C156.925 70.821 156.934 70.9164 156.97 71.0032C157.006 71.0899 157.067 71.164 157.145 71.2162C157.223 71.2683 157.315 71.2962 157.408 71.2962C157.534 71.2951 157.654 71.2447 157.743 71.1559C157.832 71.0672 157.882 70.9471 157.883 70.8215Z" fill="#376A66"/>
<path d="M159.744 70.8213C159.744 70.7274 159.716 70.6357 159.664 70.5576C159.612 70.4796 159.537 70.4187 159.451 70.3828C159.364 70.3469 159.269 70.3375 159.176 70.3558C159.084 70.3741 159 70.4193 158.933 70.4857C158.867 70.5521 158.822 70.6367 158.804 70.7287C158.785 70.8208 158.795 70.9162 158.831 71.0029C158.866 71.0897 158.927 71.1638 159.005 71.216C159.083 71.2681 159.175 71.2959 159.269 71.2959C159.395 71.2948 159.515 71.2445 159.603 71.1557C159.692 71.0669 159.743 70.9469 159.744 70.8213Z" fill="#376A66"/>
<path d="M156.022 72.7452C156.022 72.6511 155.994 72.5592 155.942 72.4811C155.889 72.4029 155.815 72.3421 155.728 72.3063C155.641 72.2705 155.545 72.2614 155.453 72.28C155.361 72.2987 155.276 72.3443 155.21 72.4111C155.144 72.4779 155.099 72.5629 155.081 72.6552C155.064 72.7475 155.074 72.8431 155.11 72.9298C155.147 73.0164 155.208 73.0902 155.287 73.1419C155.365 73.1935 155.458 73.2207 155.552 73.2198C155.677 73.2187 155.796 73.1682 155.884 73.0793C155.973 72.9904 156.022 72.8704 156.022 72.7452Z" fill="#376A66"/>
<path d="M157.883 72.7452C157.883 72.6513 157.855 72.5596 157.803 72.4815C157.751 72.4035 157.677 72.3426 157.59 72.3067C157.503 72.2708 157.408 72.2614 157.316 72.2797C157.224 72.298 157.139 72.3432 157.073 72.4096C157.006 72.476 156.961 72.5605 156.943 72.6526C156.925 72.7447 156.934 72.8401 156.97 72.9269C157.006 73.0136 157.067 73.0877 157.145 73.1399C157.223 73.192 157.315 73.2199 157.408 73.2199C157.534 73.2188 157.654 73.1684 157.743 73.0796C157.832 72.9908 157.882 72.8708 157.883 72.7452Z" fill="#376A66"/>
<path d="M159.744 72.745C159.744 72.6511 159.716 72.5594 159.664 72.4813C159.612 72.4032 159.537 72.3424 159.451 72.3065C159.364 72.2706 159.269 72.2612 159.176 72.2795C159.084 72.2978 159 72.343 158.933 72.4094C158.867 72.4758 158.822 72.5603 158.804 72.6524C158.785 72.7445 158.795 72.8399 158.831 72.9266C158.866 73.0134 158.927 73.0875 159.005 73.1396C159.083 73.1918 159.175 73.2196 159.269 73.2196C159.395 73.2185 159.515 73.1682 159.603 73.0794C159.692 72.9906 159.743 72.8705 159.744 72.745Z" fill="#376A66"/>
<path d="M133.232 72.2538C132.883 73.3338 132.201 74.2753 131.283 74.9432C130.365 75.6111 129.259 75.9709 128.124 75.971H79.2583" fill="white"/>
<path d="M133.232 72.2538C132.883 73.3338 132.201 74.2753 131.283 74.9432C130.365 75.6111 129.259 75.9709 128.124 75.971H79.2583" stroke="#376A66" stroke-linejoin="round"/>
<path d="M90.019 65.2475H128.137C128.841 65.247 129.538 65.3852 130.189 65.6543C130.84 65.9234 131.431 66.3181 131.929 66.8158C132.427 67.3136 132.822 67.9046 133.092 68.5551C133.362 69.2056 133.5 69.9029 133.5 70.6071" fill="white"/>
<path d="M90.019 65.2475H128.137C128.841 65.247 129.538 65.3852 130.189 65.6543C130.84 65.9234 131.431 66.3181 131.929 66.8158C132.427 67.3136 132.822 67.9046 133.092 68.5551C133.362 69.2056 133.5 69.9029 133.5 70.6071" stroke="#376A66" stroke-linejoin="round"/>
<path d="M76.5781 75.9709H51.1286C50.4244 75.9709 49.7271 75.8321 49.0766 75.5625C48.4261 75.2929 47.8351 74.8977 47.3373 74.3996C46.8396 73.9015 46.4449 73.3101 46.1758 72.6594C45.9067 72.0087 45.7685 71.3113 45.769 70.6071C45.769 69.1857 46.3337 67.8224 47.3388 66.8173C48.3439 65.8122 49.7072 65.2475 51.1286 65.2475H88.1457" fill="white"/>
<path d="M76.5781 75.9709H51.1286C50.4244 75.9709 49.7271 75.8321 49.0766 75.5625C48.4261 75.2929 47.8351 74.8977 47.3373 74.3996C46.8396 73.9015 46.4449 73.3101 46.1758 72.6594C45.9067 72.0087 45.7685 71.3113 45.769 70.6071C45.769 69.1857 46.3337 67.8224 47.3388 66.8173C48.3439 65.8122 49.7072 65.2475 51.1286 65.2475H88.1457" stroke="#376A66" stroke-linejoin="round"/>
<path d="M119.963 67.7216V72.7367" stroke="#376A66" stroke-width="0.5" stroke-linejoin="round"/>
<path d="M116.065 67.7679L111.361 72.4722" stroke="#376A66" stroke-linejoin="round"/>
<path d="M111.361 67.7679L116.065 72.4722" stroke="#376A66" stroke-linejoin="round"/>
<path d="M51.3765 71.9848H50.8682L50.4104 68.654H50.7716L51.1623 71.4892L51.5361 68.6582H51.9015L52.2669 71.4934L52.645 68.654H52.9684L52.5147 71.9848H52.0065L51.6915 69.725L51.3765 71.9848Z" fill="#376A66"/>
<path d="M54.4384 70.1283V70.4643H53.6235V71.6488H54.6232V71.9848H53.2539V68.654H54.6232V68.99H53.6235V70.1283H54.4384Z" fill="#376A66"/>
<path d="M55.7149 68.654C56.2316 68.654 56.4374 68.9018 56.4374 69.3932V69.5486C56.4374 69.9015 56.3366 70.1199 56.0468 70.2123C56.3702 70.3005 56.492 70.5567 56.492 70.9221V71.2036C56.5077 71.3079 56.499 71.4145 56.4667 71.515C56.4343 71.6154 56.3792 71.7071 56.3056 71.7827C56.232 71.8583 56.1419 71.9159 56.0424 71.951C55.9428 71.9861 55.8365 71.9976 55.7317 71.9848H54.9673V68.654H55.7149ZM55.6225 70.0695C55.9165 70.0695 56.072 69.9729 56.072 69.6242V69.431C56.072 69.1328 55.9712 68.99 55.7023 68.99H55.3369V70.0695H55.6225ZM55.7317 71.6488C56.0048 71.6488 56.1266 71.506 56.1266 71.1951V70.9011C56.1266 70.5273 55.9796 70.4055 55.6603 70.4055H55.3369V71.6656L55.7317 71.6488Z" fill="#376A66"/>
<path d="M59.0121 69.4519V69.5444H58.6593V69.4351C58.6593 69.1327 58.5459 68.9563 58.2813 68.9563C58.0167 68.9563 57.8991 69.1327 57.8991 69.4309C57.8991 70.1786 59.0163 70.25 59.0163 71.1867C59.0163 71.6907 58.7727 72.0267 58.2645 72.0267C57.7563 72.0267 57.5168 71.6991 57.5168 71.1867V70.9935H57.8655V71.2035C57.8655 71.5059 57.9873 71.6823 58.2561 71.6823C58.5249 71.6823 58.6467 71.5059 58.6467 71.2035C58.6467 70.4642 57.5337 70.3928 57.5337 69.4519C57.5337 68.9395 57.7689 68.6119 58.2687 68.6119C58.7685 68.6119 59.0121 68.9647 59.0121 69.4519Z" fill="#376A66"/>
<path d="M60.5288 70.1283V70.4643H59.714V71.6488H60.7136V71.9848H59.3569V68.654H60.7304V68.99H59.7308V70.1283H60.5288Z" fill="#376A66"/>
<path d="M61.4316 71.3128L61.3056 71.9848H60.9612L61.5996 68.654H62.1373L62.7757 71.9848H62.4019L62.2759 71.3128H61.4316ZM61.4778 70.9935H62.2213L61.8474 69.074L61.4778 70.9935Z" fill="#376A66"/>
<path d="M63.8092 68.654C64.3301 68.654 64.5485 68.9186 64.5485 69.4142V69.6872C64.5485 70.0527 64.4225 70.2837 64.1284 70.3719C64.4309 70.4643 64.5485 70.7079 64.5485 71.0649V71.5858C64.5379 71.7219 64.5594 71.8586 64.6115 71.9848H64.2377C64.1828 71.852 64.1611 71.7078 64.1746 71.5648V71.0649C64.1746 70.6911 63.9982 70.5693 63.6916 70.5693H63.427V71.9932H63.0574V68.6624L63.8092 68.654ZM63.7126 70.2249C64.0066 70.2249 64.1831 70.1283 64.1831 69.7671V69.4478C64.1831 69.1496 64.0738 68.99 63.7966 68.99H63.4354V70.2249H63.7126Z" fill="#376A66"/>
<path d="M66.4134 69.4562V69.7586H66.0773V69.4394C66.0773 69.1412 65.9597 68.9564 65.6867 68.9564C65.4137 68.9564 65.2961 69.1412 65.2961 69.4394V71.1993C65.2961 71.5017 65.4221 71.6823 65.6867 71.6823C65.9513 71.6823 66.0773 71.5017 66.0773 71.1993V70.7793H66.4302V71.1993C66.4302 71.7033 66.1907 72.0394 65.6783 72.0394C65.1659 72.0394 64.9307 71.7075 64.9307 71.1993V69.473C64.9307 68.969 65.1659 68.6329 65.6783 68.6329C66.1907 68.6329 66.4134 68.9648 66.4134 69.4562Z" fill="#376A66"/>
<path d="M67.1233 70.4853V71.9848H66.7495V68.654H67.1233V70.1535H67.9424V68.654H68.312V71.9848H67.9424V70.4853H67.1233Z" fill="#376A66"/>
<path d="M128.179 72.6024C128.107 72.6799 128.009 72.7276 127.904 72.7361C127.799 72.7447 127.695 72.7135 127.612 72.6486L125.684 70.8929L126.049 70.4519L128.116 72.0354C128.196 72.1046 128.246 72.2014 128.258 72.3066C128.27 72.4117 128.241 72.5173 128.179 72.6024Z" fill="#376A66" stroke="#376A66" stroke-linejoin="round"/>
<path d="M123.227 68.4903C122.998 68.7676 122.856 69.1066 122.82 69.4644C122.784 69.8222 122.854 70.1827 123.023 70.5003C123.191 70.818 123.45 71.0786 123.767 71.2491C124.084 71.4196 124.444 71.4925 124.802 71.4585C125.16 71.4244 125.5 71.285 125.778 71.0579C126.057 70.8307 126.262 70.526 126.368 70.1823C126.474 69.8386 126.475 69.4712 126.372 69.1267C126.269 68.7822 126.066 68.4759 125.789 68.2467C125.605 68.0937 125.393 67.9787 125.164 67.9082C124.936 67.8376 124.695 67.813 124.457 67.8356C124.219 67.8582 123.988 67.9277 123.777 68.0401C123.565 68.1525 123.379 68.3054 123.227 68.4903ZM125.827 70.6408C125.63 70.8769 125.368 71.0496 125.074 71.1369C124.78 71.2243 124.466 71.2225 124.173 71.1317C123.879 71.0409 123.619 70.8652 123.426 70.6269C123.232 70.3885 123.113 70.0981 123.085 69.7923C123.056 69.4865 123.118 69.1791 123.264 68.9089C123.41 68.6386 123.633 68.4176 123.904 68.2738C124.176 68.13 124.483 68.0699 124.789 68.1009C125.095 68.132 125.384 68.2528 125.621 68.4483C125.779 68.5785 125.91 68.7389 126.007 68.92C126.103 69.1012 126.162 69.2996 126.181 69.5038C126.2 69.708 126.179 69.914 126.118 70.1099C126.057 70.3057 125.958 70.4876 125.827 70.645V70.6408Z" fill="#376A66" stroke="#376A66" stroke-linejoin="round"/>
<path d="M178.305 43.0281H173.71V164.076H178.305V43.0281Z" fill="#D9D9D9" stroke="#376A66" stroke-linejoin="round"/>
<path d="M178.305 67.1628H173.71V79.037H178.305V67.1628Z" fill="#8F8F8F" stroke="#376A66" stroke-linejoin="round"/>
<path d="M178.309 43.0281H27.6575V57.1999H178.309V43.0281Z" fill="#009688" stroke="#376A66" stroke-linejoin="round"/>
<path d="M178.309 43.0281H53.4304V48.0097H178.309V43.0281Z" fill="#376A66" stroke="#376A66" stroke-linejoin="round"/>
<path d="M175.419 44.2799L172.786 46.9176" stroke="white" stroke-linejoin="round"/>
<path d="M172.786 44.2799L175.419 46.9176" stroke="white" stroke-linejoin="round"/>
<path d="M167.762 44.5022H165.821V46.4428H167.762V44.5022Z" fill="#376A66" stroke="white" stroke-linejoin="round"/>
<path d="M166.83 44.9686H164.889V46.9092H166.83V44.9686Z" fill="#376A66" stroke="white" stroke-linejoin="round"/>
<path d="M158.836 45.6951H155.48" stroke="white" stroke-linejoin="round"/>
<path d="M56.0889 44.1873V47.1989" stroke="white" stroke-linejoin="round"/>
<path d="M57.5971 45.6911H54.5854" stroke="white" stroke-linejoin="round"/>
<path d="M46.7773 92.4403H77.7796" stroke="#376A66" stroke-linejoin="round"/>
<path d="M46.7773 95.1493H86.1466" stroke="#376A66" stroke-linejoin="round"/>
<path d="M46.7773 98.346H127.977" stroke="#376A66" stroke-linejoin="round"/>
<path d="M46.7773 101.299H127.977" stroke="#376A66" stroke-linejoin="round"/>
<path d="M46.7773 104.251H127.977" stroke="#376A66" stroke-linejoin="round"/>
<path d="M46.7773 111.144H77.7796" stroke="#376A66" stroke-linejoin="round"/>
<path d="M46.7773 113.849H86.1466" stroke="#376A66" stroke-linejoin="round"/>
<path d="M46.7773 117.05H127.977" stroke="#376A66" stroke-linejoin="round"/>
<path d="M46.7773 120.003H127.977" stroke="#376A66" stroke-linejoin="round"/>
<path d="M46.7773 122.955H127.977" stroke="#376A66" stroke-linejoin="round"/>
<path d="M46.7773 129.844H77.7796" stroke="#376A66" stroke-linejoin="round"/>
<path d="M46.7773 132.553H86.1466" stroke="#376A66" stroke-linejoin="round"/>
<path d="M46.7773 135.749H127.977" stroke="#376A66" stroke-linejoin="round"/>
<path d="M46.7773 138.702H127.977" stroke="#376A66" stroke-linejoin="round"/>
<path d="M46.7773 141.655H127.977" stroke="#376A66" stroke-linejoin="round"/>
<path d="M46.7773 148.544H77.7796" stroke="#376A66" stroke-linejoin="round"/>
<path d="M46.7773 151.253H86.1466" stroke="#376A66" stroke-linejoin="round"/>
<path d="M46.7773 154.449H127.977" stroke="#376A66" stroke-linejoin="round"/>
<path d="M46.7773 157.402H127.977" stroke="#376A66" stroke-linejoin="round"/>
<path d="M46.7773 160.355H127.977" stroke="#376A66" stroke-linejoin="round"/>
<path d="M140.195 104.529H154.795" stroke="#376A66" stroke-linejoin="round"/>
<path d="M140.195 106.49H154.795" stroke="#376A66" stroke-linejoin="round"/>
<path d="M140.195 108.456H168.69" stroke="#376A66" stroke-linejoin="round"/>
<path d="M140.195 110.421H168.69" stroke="#376A66" stroke-linejoin="round"/>
<path d="M140.195 112.387H168.69" stroke="#376A66" stroke-linejoin="round"/>
<path d="M140.195 114.353H168.69" stroke="#376A66" stroke-linejoin="round"/>
<path d="M140.195 116.319H168.69" stroke="#376A66" stroke-linejoin="round"/>
<path d="M140.195 118.285H168.69" stroke="#376A66" stroke-linejoin="round"/>
<path d="M140.195 120.25H168.69" stroke="#376A66" stroke-linejoin="round"/>
<path d="M140.195 122.216H168.69" stroke="#376A66" stroke-linejoin="round"/>
<path d="M140.195 126.849H154.795" stroke="#376A66" stroke-linejoin="round"/>
<path d="M140.195 128.811H154.795" stroke="#376A66" stroke-linejoin="round"/>
<path d="M140.195 130.776H168.69" stroke="#376A66" stroke-linejoin="round"/>
<path d="M140.195 132.742H168.69" stroke="#376A66" stroke-linejoin="round"/>
<path d="M140.195 134.708H168.69" stroke="#376A66" stroke-linejoin="round"/>
<path d="M140.195 136.673H168.69" stroke="#376A66" stroke-linejoin="round"/>
<path d="M140.195 138.639H168.69" stroke="#376A66" stroke-linejoin="round"/>
<path d="M140.195 140.605H168.69" stroke="#376A66" stroke-linejoin="round"/>
<path d="M140.195 142.57H168.69" stroke="#376A66" stroke-linejoin="round"/>
<path d="M140.195 144.536H168.69" stroke="#376A66" stroke-linejoin="round"/>
<path d="M181.703 192.424H186.971" stroke="#376A66" stroke-linejoin="round"/>
<path d="M44.7656 192.424H178.192" stroke="#376A66" stroke-linejoin="round"/>
<path d="M15.2712 192.424H41.2542" stroke="#376A66" stroke-linejoin="round"/>
<path d="M102.339 184.229C102.339 184.229 106.833 184.494 107.892 184.229C108.95 183.964 111.067 182.246 111.332 183.57C111.596 184.893 110.143 186.745 109.231 187.799C108.32 188.854 104.611 189.786 103.544 190.319C102.477 190.853 100.898 192.172 99.575 192.172C98.2519 192.172 97.4749 187.803 97.4749 187.803C97.4749 187.803 101.44 185.426 102.515 183.704" fill="white"/>
<path d="M102.339 184.229C102.339 184.229 106.833 184.494 107.892 184.229C108.95 183.964 111.067 182.246 111.332 183.57C111.596 184.893 110.143 186.745 109.231 187.799C108.32 188.854 104.611 189.786 103.544 190.319C102.477 190.853 100.898 192.172 99.575 192.172C98.2519 192.172 97.4749 187.803 97.4749 187.803C97.4749 187.803 101.44 185.426 102.515 183.704" stroke="#376A66" stroke-linejoin="round"/>
<path d="M111.096 183.17C108.399 188.143 103.956 188.988 103.956 188.988L98.3271 190.865C98.6548 191.592 99.0664 192.167 99.541 192.167C100.864 192.167 102.452 190.844 103.51 190.315C104.569 189.786 108.273 188.858 109.197 187.795C110.122 186.732 111.579 184.888 111.298 183.565C111.284 183.412 111.212 183.271 111.096 183.17Z" fill="white" stroke="#376A66" stroke-linejoin="round"/>
<path d="M54.6489 180.873C54.6489 180.873 51.2047 184.775 50.9107 185.913C50.6376 187.005 53.267 188.593 53.9475 189.072C55.7387 190.307 57.6921 191.287 59.7523 191.987C60.4831 192.239 64.0702 193.083 63.5997 191.306C63.2511 189.992 60.4957 188.475 60.1471 187.702C59.7985 186.93 59.223 185.422 59.223 185.422L54.6489 180.873Z" fill="white" stroke="#376A66" stroke-linejoin="round"/>
<path d="M53.9475 189.093C55.7387 190.327 57.6921 191.308 59.7523 192.008C60.3865 192.226 63.1755 192.89 63.5913 191.899C62.3312 191.827 59.9119 191.428 56.8163 189.66C54.7648 188.517 52.8132 187.203 50.9821 185.733C50.9547 185.798 50.9308 185.866 50.9107 185.934C50.6376 187.022 53.267 188.61 53.9475 189.093Z" fill="white" stroke="#376A66" stroke-linejoin="round"/>
<path d="M63.9777 131.898L65.41 142.47L66.6239 164.777C66.6239 164.777 62.9192 168.348 60.8065 170.729C58.6937 173.111 53.8718 181.415 53.8718 181.415C53.8718 181.415 54.2541 183.494 56.623 184.909C58.992 186.325 60.2773 186.106 60.2773 186.106L61.9868 183.128L62.6 181.784C62.6 181.784 76.4147 168.482 76.6794 166.76C76.944 165.038 78.3133 146.422 78.3133 146.422L89.1122 162.266C89.1122 162.266 90.4395 172.712 91.4895 175.232C92.5396 177.752 96.9163 185.947 96.9163 185.947L97.4455 187.795C98.0071 187.976 98.6055 188.01 99.1841 187.895C99.7626 187.779 100.302 187.518 100.751 187.135C101.665 186.288 102.468 185.328 103.141 184.279L101.675 182.507L101.411 181.314C101.411 181.314 97.8404 160.018 97.0465 157.507C96.2527 154.995 86.5752 133.229 86.5752 133.229L84.4751 127.412C84.4751 127.412 82.4925 128.731 76.4063 130.583C70.3201 132.435 63.9777 131.898 63.9777 131.898Z" fill="#376A66" stroke="#376A66" stroke-linejoin="round"/>
<path d="M77.4483 134.149C81.8838 132.124 83.9797 130.104 84.9584 128.781L84.4586 127.403C84.4586 127.403 82.476 128.722 76.3898 130.574C70.9294 132.229 65.3053 131.986 64.167 131.914L63.9612 131.944L64.3518 134.771C66.4672 135.539 68.7142 135.88 70.9624 135.773C73.2106 135.667 75.4152 135.114 77.4483 134.149Z" fill="#009688" stroke="#376A66" stroke-linejoin="round"/>
<path d="M61.6425 100.979L51.2258 108.716L63.0286 130.839C63.1459 131.665 63.5722 132.416 64.2215 132.939C65.3136 133.834 72.4541 133.637 75.033 132.843C77.6841 131.93 80.2424 130.766 82.6733 129.369C83.7654 128.676 85.2523 127.185 84.8533 125.896C84.5865 125.063 84.2213 124.265 83.7654 123.518L81.6653 117.466C81.6653 117.466 89.8978 117.961 90.9899 117.961C92.082 117.961 95.8496 108.439 95.8496 108.439C95.8496 108.439 94.7576 108.338 94.3627 107.645C94.1149 107.167 93.9259 106.661 93.7999 106.137C92.6475 106.806 91.4551 107.404 90.2296 107.927C88.1295 108.817 85.9622 109.015 85.0717 108.62C84.1812 108.225 78.9183 103.462 77.7296 101.971C76.5409 100.48 76.3393 99.8706 75.9445 99.8706C75.5497 99.8706 68.2076 100.37 67.3129 100.37C66.4183 100.37 61.6425 100.979 61.6425 100.979Z" fill="#009688" stroke="#376A66" stroke-linejoin="round"/>
<path d="M94.3793 107.628C94.1289 107.17 93.9343 106.684 93.7997 106.179L93.4889 106.536C93.4889 106.536 91.9011 107.725 92.3002 109.414C92.548 110.468 93.7661 110.825 94.8413 110.917C95.4462 109.493 95.8704 108.422 95.8704 108.422C95.8704 108.422 94.7741 108.321 94.3793 107.628Z" fill="#009688" stroke="#376A66" stroke-linejoin="round"/>
<path d="M77.5525 105.587L77.019 104.054" stroke="#376A66" stroke-linejoin="round"/>
<path d="M81.6817 117.449L78.019 106.931" stroke="#376A66" stroke-linejoin="round"/>
<path d="M61.7389 138.912C61.1618 138.435 60.6865 137.846 60.3412 137.182C59.9958 136.517 59.7873 135.79 59.7282 135.043C59.669 134.297 59.7604 133.546 59.9968 132.835C60.2333 132.125 60.61 131.469 61.1046 130.906L101.78 84.237L107.997 89.3823L69.7236 138.038C69.2633 138.629 68.6891 139.122 68.0351 139.487C67.381 139.852 66.6604 140.082 65.9159 140.163C65.1714 140.244 64.4181 140.176 63.7006 139.961C62.9831 139.746 62.316 139.389 61.7389 138.912Z" fill="#376A66" stroke="#376A66" stroke-linejoin="round"/>
<path d="M90.9603 96.653L61.1047 130.906C60.6358 131.472 60.283 132.125 60.0664 132.827C59.8498 133.53 59.7737 134.268 59.8423 134.999C59.911 135.731 60.1231 136.442 60.4665 137.092C60.8099 137.741 61.278 138.317 61.8439 138.786C62.4098 139.255 63.0626 139.608 63.7648 139.824C64.4671 140.041 65.2052 140.117 65.9369 140.048C66.6686 139.98 67.3796 139.768 68.0293 139.424C68.6791 139.081 69.2548 138.613 69.7236 138.047L97.9579 102.147L90.9603 96.653Z" fill="white" stroke="#376A66" stroke-linejoin="round"/>
<path d="M135.71 49.593C131.802 46.3554 127.021 44.3497 121.972 43.8294C116.923 43.3092 111.834 44.2978 107.347 46.6703C102.861 49.0428 99.1782 52.6926 96.766 57.158C94.3537 61.6234 93.3198 66.7039 93.7952 71.757C94.2705 76.81 96.2337 81.6086 99.4364 85.5458C102.639 89.483 106.937 92.382 111.788 93.8762C116.638 95.3703 121.823 95.3925 126.686 93.9399C131.549 92.4873 135.872 89.6251 139.108 85.7154C143.447 80.4742 145.526 73.7245 144.889 66.9506C144.251 60.1767 140.95 53.9332 135.71 49.593ZM105.338 86.2698C101.993 83.5002 99.5437 79.8007 98.3009 75.6392C97.0581 71.4777 97.0773 67.0412 98.3559 62.8906C99.6345 58.74 102.115 55.0618 105.484 52.321C108.853 49.5803 112.96 47.9002 117.284 47.4931C121.607 47.086 125.955 47.9703 129.776 50.034C133.598 52.0978 136.721 55.2485 138.752 59.0875C140.783 62.9265 141.63 67.2816 141.186 71.6019C140.741 75.9221 139.026 80.0137 136.256 83.3591C134.417 85.5803 132.159 87.4176 129.61 88.766C127.061 90.1144 124.271 90.9476 121.4 91.2179C118.529 91.4882 115.633 91.1903 112.877 90.3413C110.121 89.4924 107.559 88.1089 105.338 86.2698Z" fill="#376A66" stroke="#376A66" stroke-linejoin="round"/>
<path d="M95.866 108.422L99.6462 102.47C99.6462 102.47 101.032 99.7905 101.431 99.2948C101.83 98.7992 103.414 98.2027 102.124 98.2027C100.835 98.2027 100.444 98.9966 100.444 98.9966V96.8965C100.444 96.3 100.444 94.8257 99.6546 94.9265C98.865 95.0273 99.1464 96.1866 98.9952 97.3207C98.928 97.8205 98.3609 100.084 98.3609 100.084L97.5209 96.7452C97.4829 96.583 97.3866 96.4403 97.2503 96.3443C97.114 96.2483 96.9473 96.2056 96.7816 96.2244C96.6178 96.2496 96.4918 96.3252 96.4918 96.51C96.6114 97.4111 96.7768 98.3056 96.9875 99.1898L96.6808 100.87C96.6808 100.87 96.2608 98.2447 95.6518 97.5475C95.3829 97.2409 94.9125 97.8079 95.1099 98.3036C95.3073 98.7992 95.3997 101.588 95.3997 101.588L95.2989 102.777C95.2989 102.777 94.6059 101.588 94.2111 100.992C93.8162 100.395 93.2156 100.694 93.5138 101.588C93.812 102.483 94.5051 103.97 94.5051 103.97L93.7994 106.137C93.7994 106.137 92.6906 109.51 95.866 108.422Z" fill="white" stroke="#376A66" stroke-linejoin="round"/>
<path d="M100.428 98.9969L99.7346 100.979" stroke="#376A66" stroke-linejoin="round"/>
<path d="M53.0988 107.498C53.0988 107.498 50.7298 108.124 50.7298 109.115C50.7298 110.107 50.7298 130.743 50.629 131.436C50.5282 132.129 72.2563 129.054 72.2563 129.054L72.7519 125.694L59.458 123.014L59.3572 113.488" fill="#009688"/>
<path d="M53.0988 107.498C53.0988 107.498 50.7298 108.124 50.7298 109.115C50.7298 110.107 50.7298 130.743 50.629 131.436C50.5282 132.129 72.2563 129.054 72.2563 129.054L72.7519 125.694L59.458 123.014L59.3572 113.488" stroke="#376A66" stroke-linejoin="round"/>
<path d="M70.568 125.248L70.4714 129.26L70.5386 129.302L72.2566 129.062L72.7522 125.702L70.568 125.248Z" fill="#009688" stroke="#376A66" stroke-linejoin="round"/>
<path d="M72.7523 125.668C72.7523 125.668 75.5287 122.098 76.7216 122.098C77.9145 122.098 79.6954 122.199 80.0818 122.199C80.4682 122.199 81.3713 121.997 80.8757 122.695C80.38 123.392 78.6915 123.287 78.6915 123.287L80.9009 124.492C81.0523 124.574 81.1829 124.689 81.2827 124.829C81.3825 124.969 81.4487 125.13 81.4763 125.3C81.5039 125.47 81.4922 125.643 81.4419 125.808C81.3916 125.972 81.3043 126.123 81.1865 126.248C80.6867 126.744 79.3972 126.744 79.3972 126.744C79.3972 126.744 78.0111 129.024 77.1164 129.222C76.2218 129.419 72.4541 128.529 72.4541 128.529L72.7523 125.668Z" fill="white" stroke="#376A66" stroke-linejoin="round"/>
<path d="M70.4252 107.49L70.6815 100.988L68.1487 100.143L68.5687 102.76L70.4252 107.49Z" fill="#009688" stroke="#376A66" stroke-linejoin="round"/>
<path d="M70.6812 100.988L72.5377 104.789L70.593 104.617L70.6812 100.988Z" fill="#009688" stroke="#376A66" stroke-linejoin="round"/>
<path d="M71.861 96.0105C71.021 96.2625 68.9881 101.16 68.9881 101.16L70.4246 107.49L68.148 104.281L67.5222 101.198L62.1542 98.9633L62.2382 95.4182C61.7506 95.1541 61.2818 94.8566 60.8353 94.5278C59.8798 93.8651 59.0647 93.02 58.4369 92.0412C57.2567 90.0167 55.5682 86.8958 58.1849 83.5188C60.7051 80.2594 63.3177 80.0662 66.1655 79.9024H66.4763C66.4763 79.9024 69.7693 81.9311 69.8365 82.9434C69.9037 83.9556 70.3447 85.3921 71.273 85.9802C72.2013 86.5682 73.4656 85.8962 73.4656 87.1605C73.4439 87.5604 73.3428 87.9521 73.1683 88.3127C72.9938 88.6732 72.7493 88.9955 72.4491 89.2606C72.4491 89.2606 73.2891 93.1459 73.7092 94.4102C74.1292 95.6744 72.7053 95.7542 71.861 96.0105Z" fill="white" stroke="#376A66" stroke-linejoin="round"/>
<path d="M69.3578 86.0723C69.5762 86.4041 69.6266 86.757 69.467 86.8578C69.3074 86.9586 69.0091 86.7738 68.7949 86.4378C68.5807 86.1017 68.5261 85.7531 68.6815 85.6523C68.8369 85.5515 69.1394 85.7405 69.3578 86.0723Z" fill="#376A66"/>
<path d="M67.3887 85.8795C67.3887 85.8795 67.4727 84.443 68.821 84.443" stroke="#376A66" stroke-linejoin="round"/>
<path d="M71.2694 90.9449C71.2694 90.9449 68.9928 91.4489 68.5686 90.1048" stroke="#376A66" stroke-linejoin="round"/>
<path d="M65.6992 82.9266C66.4595 83.6826 63.6705 85.5392 63.2505 86.3876C62.8304 87.2361 63.5907 88.5802 63.6705 89.1724C63.7503 89.7646 61.7342 91.449 61.7342 91.449L60.9697 92.2092L61.562 94.574C61.562 94.574 61.2931 94.574 60.8353 94.5278C59.8798 93.8651 59.0647 93.02 58.4369 92.0412C57.2567 90.0167 55.5682 86.8958 58.1849 83.5188C60.7051 80.2594 63.3177 80.0662 66.1655 79.9024C65.674 80.2342 65.0524 80.3812 64.6996 80.7424C64.1787 81.2339 64.939 82.1621 65.6992 82.9266Z" fill="#A6A6A6" stroke="#376A66" stroke-linejoin="round"/>
<path d="M62.7472 91.7892C62.7472 91.7892 61.4871 89.8487 59.9582 90.9492C58.4293 92.0496 61.2182 94.5782 61.7307 94.9982C62.2431 95.4183 63.8308 93.8179 63.8308 93.8179C64.1229 94.2398 64.4962 94.599 64.929 94.8745C65.3618 95.15 65.8452 95.3363 66.351 95.4225" fill="white"/>
<path d="M62.7472 91.7892C62.7472 91.7892 61.4871 89.8487 59.9582 90.9492C58.4293 92.0496 61.2182 94.5782 61.7307 94.9982C62.2431 95.4183 63.8308 93.8179 63.8308 93.8179C64.1229 94.2398 64.4962 94.599 64.929 94.8745C65.3618 95.15 65.8452 95.3363 66.351 95.4225" stroke="#376A66" stroke-linejoin="round"/>
<path d="M64.2635 81.4059C64.2635 81.4059 60.6345 85.4592 59.7062 87.3157C59.0767 88.6259 58.5405 89.979 58.1017 91.3647C58.1017 91.3647 56.2452 91.1967 55.1615 90.0165C54.0778 88.8362 55.2455 84.1907 57.354 81.9141C58.6695 80.5126 60.2116 79.3426 61.9155 78.4531C61.9155 78.4531 59.2148 78.5371 60.2354 77.7768C61.2561 77.0166 63.7805 76.6806 65.469 77.5248C65.692 77.6113 65.8955 77.7414 66.0676 77.9076C66.2397 78.0737 66.3769 78.2725 66.4711 78.4924C66.5654 78.7122 66.6149 78.9487 66.6166 79.1879C66.6183 79.4271 66.5723 79.6642 66.4812 79.8854L64.2635 81.4059Z" fill="#376A66" stroke="#376A66" stroke-linejoin="round"/>
<path d="M61.6464 98.4549L59.9075 102.147L66.7119 106.053L67.8628 100.946L61.6464 98.4549Z" fill="#009688" stroke="#376A66" stroke-linejoin="round"/>
</svg>
