<svg width="179" height="178" viewBox="0 0 179 178" fill="none" xmlns="http://www.w3.org/2000/svg">
<path d="M178.047 174.259C176.526 177.159 172.414 178.377 168.953 177.897C165.376 177.399 162.601 174.997 161.983 171.806C157.068 146.858 142.357 127.211 119.991 111.941C97.3902 96.5153 71.5967 89.2402 42.9279 90.407C32.2126 90.8531 21.6813 92.3973 11.7517 96.3094C7.52241 97.9738 2.80837 96.3094 0.835825 92.6719C-1.08657 89.0858 0.38448 84.9163 4.58032 82.8917C16.7165 77.0064 28.9195 71.224 41.0891 65.3902C45.2849 63.3827 49.5309 61.4781 53.6432 59.3505C57.4211 57.4116 60.8814 57.7205 64.5423 59.5907C90.5197 72.734 116.547 85.8086 142.575 98.9003C152.153 103.722 161.698 108.595 171.344 113.313C174.955 115.063 176.559 117.569 176.693 121.172C177.312 137.249 178.097 153.309 178.749 169.387C178.816 170.999 178.883 172.612 178.064 174.242L178.047 174.259Z" fill="white"/>
<path d="M125.206 76.32C112 69.7656 98.7944 63.2111 85.6218 56.6223C84.2343 55.936 82.8134 55.0952 81.7937 54.0486C78.3 50.4453 79.5704 45.3493 84.6188 42.7241C96.7884 36.4099 108.991 30.1642 121.194 23.9015C135.654 16.4719 150.114 9.02524 164.59 1.5957C172.013 -2.21343 178.599 1.04664 178.649 8.59628C178.766 26.2522 178.85 43.908 178.883 61.5639C178.9 68.5816 172.23 72.0304 165.309 68.616C156.483 64.2749 147.673 59.9167 138.931 55.4555C134.752 53.3279 133.548 48.9182 135.922 45.3493C138.178 41.952 142.959 40.6651 146.988 42.3981C148.777 43.1702 150.465 44.1311 152.287 44.7831C156.316 46.2587 160.645 44.3027 161.013 40.5278C161.381 36.8217 161.431 32.9954 160.946 29.3063C160.395 25.2227 155.848 23.4382 151.752 25.4972C143.126 29.8725 134.501 34.2651 126.026 38.8463C118.185 43.0844 117.4 52.7102 124.304 58.0293C125.775 59.1789 127.463 60.1569 129.168 61.0148C143.996 68.4272 158.84 75.8053 173.701 83.2005C177.897 85.2938 179.802 88.6911 178.699 92.0027C177.044 97.0301 171.294 99.1577 165.944 96.6183C161.18 94.3534 156.516 91.9512 151.786 89.6177C142.892 85.208 134.033 80.7983 125.14 76.3886L125.19 76.3029L125.19 76.3372L125.206 76.32Z" fill="white"/>
</svg>
